<?xml version="1.0" standalone="no"?>
<!DOCTYPE svg PUBLIC "-//W3C//DTD SVG 20010904//EN"
 "http://www.w3.org/TR/2001/REC-SVG-20010904/DTD/svg10.dtd">
<svg version="1.0" xmlns="http://www.w3.org/2000/svg"
 width="580.000000pt" height="386.000000pt" viewBox="0 0 580.000000 386.000000"
 preserveAspectRatio="xMidYMid meet">

<g transform="translate(0.000000,386.000000) scale(0.100000,-0.100000)"
fill="#000000" stroke="none">
<path d="M2903 3305 c-14 -10 -27 -38 -38 -85 -20 -81 -37 -99 -129 -132 -74
-27 -203 -142 -173 -154 9 -3 32 -3 50 1 17 3 50 9 73 12 l41 5 18 -59 c10
-32 20 -64 23 -70 2 -8 -4 -13 -16 -13 -12 0 -24 -5 -27 -10 -12 -19 -64 -40
-137 -55 -110 -23 -237 -115 -208 -150 23 -28 68 -28 126 0 45 22 63 26 98 21
36 -6 45 -12 59 -42 20 -41 23 -114 5 -114 -7 0 -42 -14 -78 -31 -59 -28 -73
-30 -150 -29 -116 3 -111 4 -157 -35 -26 -22 -69 -44 -121 -60 -92 -29 -166
-85 -143 -108 18 -18 98 -12 157 11 41 17 72 20 167 19 l117 -1 16 -42 c9 -23
13 -47 10 -53 -4 -6 -27 -23 -52 -37 -40 -23 -58 -27 -138 -29 -83 -1 -97 -4
-127 -28 -26 -19 -55 -28 -117 -37 -119 -16 -130 -23 -168 -107 -31 -68 -35
-73 -76 -83 -52 -14 -76 -34 -94 -77 -29 -68 -29 -68 119 -68 92 0 139 4 156
13 17 11 45 12 113 7 89 -7 90 -7 119 21 l29 28 51 -50 c28 -27 64 -65 79 -85
l29 -36 -47 -31 c-26 -17 -72 -35 -105 -41 -32 -6 -63 -14 -69 -17 -6 -4 -33
-8 -59 -9 -44 -2 -55 -8 -103 -53 -62 -59 -98 -69 -180 -52 -83 17 -158 0
-192 -46 -18 -23 -45 -40 -85 -55 -67 -25 -75 -44 -34 -84 29 -29 45 -31 103
-8 38 14 56 15 131 6 95 -12 100 -11 178 48 l41 31 48 -16 c75 -25 121 -21
184 19 l55 34 7 -35 c11 -51 43 -108 76 -136 16 -14 63 -35 103 -47 158 -49
193 -75 209 -159 5 -29 14 -61 20 -72 28 -52 -4 -126 -69 -159 -28 -15 -41
-29 -46 -50 -3 -16 -13 -35 -21 -42 -8 -7 -20 -21 -25 -31 -9 -17 7 -18 447
-18 l456 0 -14 23 c-8 12 -42 36 -76 52 -80 39 -98 59 -112 120 -7 28 -19 64
-28 80 -56 107 -55 105 -44 143 6 20 48 82 93 137 44 54 92 121 105 147 22 42
44 63 44 40 0 -5 9 -18 20 -30 18 -19 27 -21 84 -15 l64 6 26 -41 c29 -46 56
-57 114 -48 114 18 119 18 152 1 30 -16 41 -16 100 -5 56 11 71 10 96 -3 67
-34 173 -33 217 3 21 18 21 20 7 47 -10 17 -25 29 -40 31 -53 6 -71 13 -107
45 -35 31 -39 32 -114 29 -70 -2 -81 0 -101 20 -48 49 -82 68 -122 68 -88 0
-136 28 -136 78 0 41 -111 102 -188 102 -57 0 -65 10 -63 76 1 56 22 147 38
169 16 20 135 16 191 -6 43 -18 65 -21 113 -15 49 5 68 2 99 -14 44 -22 100
-26 118 -8 7 7 12 27 12 44 0 38 -38 74 -78 74 -16 0 -40 14 -63 36 -31 30
-47 37 -95 43 -41 5 -75 17 -109 40 -45 29 -55 31 -101 25 -52 -6 -49 -7 -160
54 -18 10 -24 22 -24 48 0 34 0 34 48 34 28 0 62 -8 83 -19 79 -43 170 -49
204 -14 13 12 10 23 -20 83 -40 80 -64 100 -121 100 -24 0 -60 10 -85 23 -24
13 -70 29 -103 35 -32 7 -79 25 -103 41 -25 17 -50 32 -56 34 -16 5 3 44 42
90 21 24 43 37 69 41 52 8 51 8 109 0 28 -3 59 -4 68 -1 14 6 14 11 -4 45 -25
50 -34 56 -106 77 -37 10 -74 30 -97 50 -39 36 -88 51 -135 41 -41 -8 -125 17
-133 40 -4 10 -11 42 -15 70 l-7 52 60 7 c35 4 76 2 101 -5 51 -13 101 -5 101
17 0 19 -20 36 -81 68 -40 20 -50 32 -69 82 -24 59 -64 113 -86 113 -13 0 -24
22 -24 50 0 31 -51 40 -87 15z m10 -349 c3 -8 9 -45 12 -84 l7 -69 -41 -7
c-23 -3 -46 -4 -50 -1 -11 6 -31 87 -31 125 0 22 6 33 23 40 34 13 74 12 80
-4z m-89 -356 c9 -22 18 -57 21 -77 5 -33 2 -41 -20 -56 -19 -14 -36 -17 -61
-13 l-34 7 0 79 0 79 33 10 c17 5 35 10 38 10 4 1 14 -17 23 -39z m177 27 c20
-15 33 -85 24 -127 -7 -34 -20 -37 -90 -18 -41 11 -45 15 -44 43 0 16 5 46 12
65 11 33 21 39 77 48 3 1 12 -4 21 -11z m134 -7 c10 -11 31 -20 47 -20 15 0
28 -2 28 -4 0 -3 -13 -25 -29 -48 -16 -24 -33 -56 -36 -71 -6 -23 -13 -27 -41
-27 l-34 0 6 63 c11 134 20 150 59 107z m-441 -391 c14 -11 30 -18 35 -14 10
5 31 -54 31 -87 0 -22 -7 -22 -44 -3 -16 9 -35 14 -41 11 -21 -8 -55 29 -61
66 -6 32 -4 37 17 41 13 2 27 5 30 6 4 0 18 -8 33 -20z m275 -13 c14 -8 31
-12 38 -9 16 6 19 -92 3 -102 -6 -4 -36 4 -66 16 -53 22 -55 25 -50 52 3 16 6
36 6 43 0 18 37 17 69 0z m-391 -25 c9 -27 8 -29 -16 -34 -32 -6 -30 -8 -42
32 -8 30 -7 31 20 31 22 0 30 -6 38 -29z m280 -13 c-3 -38 -6 -43 -30 -46 -23
-3 -28 1 -33 25 -14 66 -16 63 27 63 l39 0 -3 -42z m278 26 c19 -5 54 -51 54
-72 0 -10 -75 -32 -111 -32 -19 0 -21 4 -15 38 14 76 19 80 72 66z m129 -24
c32 0 55 -25 55 -61 0 -16 -2 -29 -5 -29 -22 0 -88 46 -95 66 -13 34 -13 37 6
30 9 -3 26 -6 39 -6z m120 -357 c-19 -45 -45 -137 -45 -158 0 -22 -17 -35 -46
-35 -11 0 -14 18 -14 83 0 93 5 104 46 117 49 14 67 12 59 -7z m-972 -15 c18
-13 43 -23 57 -24 79 -2 78 -2 94 -51 21 -64 30 -129 20 -136 -5 -3 -29 -8
-54 -12 l-46 -7 -77 96 -77 96 22 30 c12 17 24 30 26 30 2 0 18 -10 35 -22z
m787 -57 c19 -99 20 -97 -62 -104 -40 -3 -74 -5 -76 -3 -2 2 0 36 4 75 6 60 9
71 23 66 9 -3 32 4 51 14 19 10 38 16 42 12 4 -4 12 -31 18 -60z m-412 -25
c13 -33 26 -74 29 -93 l6 -33 -64 0 c-35 0 -73 -3 -85 -6 -24 -6 -28 7 -40
120 l-7 65 34 8 c18 5 49 7 69 3 32 -5 37 -11 58 -64z m207 51 c3 -12 5 -52 3
-87 l-3 -65 -62 -1 -62 -2 -15 47 c-31 101 -33 95 42 113 90 21 91 21 97 -5z
m190 -544 c-22 -56 -42 -55 -57 3 -7 25 -21 50 -30 55 -10 5 -18 21 -18 35 0
23 3 24 33 19 17 -4 43 -2 57 3 24 9 25 8 28 -31 2 -22 -4 -60 -13 -84z m-595
85 c1 -18 7 -69 15 -113 8 -43 12 -81 9 -84 -2 -3 -25 5 -50 17 -51 25 -83 80
-84 143 0 33 4 38 38 52 59 25 72 22 72 -15z m709 -8 c9 0 11 -8 6 -27 -7 -31
-56 -102 -69 -103 -9 0 -1 117 11 145 5 14 7 14 23 0 9 -8 22 -15 29 -15z
m-884 -12 c9 -31 12 -138 4 -132 -15 9 -69 108 -69 127 0 12 8 17 30 17 17 0
32 -6 35 -12z"/>
</g>
</svg>
