<?xml version="1.0" encoding="UTF-8" standalone="no"?>
<svg
   version="1.1"
   viewBox="-5 -10 89.934036 59.816639"
   id="svg5"
   sodipodi:docname="teapot.svg"
   inkscape:version="1.4.3 (0d15f75, 2025-12-25)"
   width="89.934036"
   height="59.816639"
   xmlns:inkscape="http://www.inkscape.org/namespaces/inkscape"
   xmlns:sodipodi="http://sodipodi.sourceforge.net/DTD/sodipodi-0.dtd"
   xmlns="http://www.w3.org/2000/svg"
   xmlns:svg="http://www.w3.org/2000/svg">
  <defs
     id="defs5" />
  <sodipodi:namedview
     id="namedview5"
     pagecolor="#ffffff"
     bordercolor="#000000"
     borderopacity="0.25"
     inkscape:showpageshadow="2"
     inkscape:pageopacity="0.0"
     inkscape:pagecheckerboard="0"
     inkscape:deskcolor="#d1d1d1"
     inkscape:zoom="5.9777778"
     inkscape:cx="45"
     inkscape:cy="10.45539"
     inkscape:window-width="1920"
     inkscape:window-height="1009"
     inkscape:window-x="-8"
     inkscape:window-y="243"
     inkscape:window-maximized="1"
     inkscape:current-layer="svg5" />
  <path
     d="m 84.49182,10.37908 c -1.1641,-4.5742 -4.4258,-7.6133 -8.3047,-7.7969 -8.2266,-0.38281 -13.234,5.1641 -15.027,7.625 -0.48047,-0.41016 -0.97656,-0.80078 -1.4766,-1.1953 -0.78125,-0.61328 -1.5898,-1.2461 -2.3555,-1.9609 -0.97656,-0.91406 -1.6133,-1.6797 -1.9688,-2.3789 -0.0078,0 -0.01563,0 -0.01953,0.0039 0.08594,-1.1367 0.19531,-2.6367 0.30078,-2.7773 h -33.211 c 0.13281,0.17187 0.24609,2 0.33984,2.7617 -0.0078,0 -0.01563,-0.0039 -0.01953,-0.0039 -0.34766,0.70312 -0.98438,1.4727 -1.9648,2.3945 -0.76562,0.71875 -1.5742,1.3516 -2.3555,1.9609 -3.3867,2.6562 -6.5898,5.1641 -6.2656,14.555 0.42188,12.207 3.7109,16.539 9.25,19.816 0.8125,0.25 6.6875,1.9219 17.355,1.9219 h 0.28516 c 11.078,0 16.855,-1.6758 17.641,-1.9219 2.6836,-1.5859 4.8359,-3.4297 6.3906,-6.2891 2.6641,-1.5273 8.2305,-4.8438 10.844,-6.4102 10.066,-6.0352 12.055,-14.445 10.562,-20.305 z m -8.9258,14.848 c -2.3438,1.4766 -7.1367,2.7812 -10.266,5.0391 0.33594,-1.9336 0.55859,-4.1328 0.64844,-6.6953 0.125,-3.5664 -0.26562,-6.1367 -0.97656,-8.1016 1.2852,-1.1523 3.3281,-3.0391 3.5352,-4.6367 0.37109,-2.8477 2.543,-5.9648 5.5391,-6.2539 1.8438,-0.17578 5.332,0.6875 7.9375,8.4844 2.2383,6.6953 -1.9648,9.3516 -6.418,12.164 z"
     id="path1"
     style="fill:#7a2f00;fill-opacity:1" />
  <path
     d="m 33.38282,-2.33992 c -4.6758,0.64453 -6.9883,1.4688 -8.1406,2.1211 h 27.297 c -1.5586,-0.78906 -4.1875,-1.3828 -5.5508,-1.6875 -0.57031,-0.12891 -1.0898,-0.24609 -1.5195,-0.35938 -2.1875,-0.5625 -3.0938,-1.9258 -3.4688,-2.8398 2.7734,-0.54297 4.2344,-1.8164 4.3984,-2.2578 C 46.18758,-7.80861 44.08602,-10 39.56262,-10 c -4.5234,0 -6.9102,2.293 -7.1172,2.8633 0.15625,0.33594 1.4219,1.457 3.9531,1.9961 -0.46484,1.2656 -1.3789,2.5781 -3.0156,2.8008 z m 7.5312,-2.5898 c -0.44531,0.05469 -0.89844,0.08594 -1.3594,0.08594 -0.03906,0 -0.07813,-0.0078 -0.11719,-0.0078 0.52344,0 1.0156,-0.02734 1.4766,-0.07813 z"
     id="path2"
     style="fill:#7a2f00;fill-opacity:1" />
  <path
     d="m 10.79682,15.89008 c -4.25,-1.3047 -6.0938,-6.7969 -7.4648,-10.914 C 3.03905,4.10108 2.76952,3.28858 2.5039,2.60498 1.73046,0.62838 -2.2266,0.69088 -5,1.05808 c 1.3555,1.4766 3.0664,4.0312 3.3906,7.7188 0.046875,0.53516 0.085937,1.1875 0.12891,1.9297 0.41016,6.8867 1.2461,20.859 13.215,24.074 -1.0039,-3.0117 -1.5352,-6.6406 -1.6875,-11.141 -0.10938,-3.2148 0.1875,-5.7266 0.75,-7.75 z"
     id="path3"
     style="fill:#7a2f00;fill-opacity:1" />
  <path
     d="m 39.05482,47.42208 h -0.28906 c -8.8281,0 -14.414,-1.0977 -16.797,-1.6914 -0.60938,0.21875 -0.96094,0.41406 -1.1445,0.53906 1.3359,2.1797 7.7188,3.5469 18.227,3.5469 10.508,0 16.02,-1.8047 17.078,-3.5469 -0.13281,-0.09375 -0.35156,-0.21875 -0.69922,-0.36719 -2.6797,0.61328 -8.0547,1.5195 -16.375,1.5195 z"
     id="path4"
     style="fill:#7a2f00;fill-opacity:1" />
</svg>
