<?xml version="1.0" standalone="no"?>
<!DOCTYPE svg PUBLIC "-//W3C//DTD SVG 20010904//EN"
 "http://www.w3.org/TR/2001/REC-SVG-20010904/DTD/svg10.dtd">
<svg version="1.0" xmlns="http://www.w3.org/2000/svg"
 width="1405.000000pt" height="1225.000000pt" viewBox="0 0 1405.000000 1225.000000"
 preserveAspectRatio="xMidYMid meet">

<g transform="translate(0.000000,1225.000000) scale(0.100000,-0.100000)"
fill="#000000" stroke="none">
<path d="M5960 9434 c-19 -5 -412 -23 -736 -33 -138 -5 -257 -12 -264 -16 -13
-8 -131 -18 -415 -34 -88 -5 -214 -17 -280 -26 -413 -55 -478 -62 -690 -74
-203 -12 -359 -26 -373 -35 -13 -8 -153 -25 -292 -36 -58 -4 -161 -12 -230
-18 -69 -5 -154 -10 -189 -11 -35 -1 -67 -4 -72 -6 -4 -3 -34 -8 -66 -10 -32
-3 -85 -10 -118 -16 -33 -6 -91 -12 -130 -14 -422 -27 -559 -42 -651 -74 -56
-20 -124 -64 -124 -81 0 -5 -12 -10 -27 -12 -27 -3 -61 -46 -62 -81 -1 -10 -8
-29 -17 -42 -12 -18 -16 -54 -17 -157 -1 -73 -6 -136 -10 -139 -5 -4 -10 -103
-11 -220 -1 -180 1 -223 16 -272 21 -67 23 -156 6 -242 -13 -69 -13 -115 0
-200 7 -45 5 -72 -6 -110 -14 -50 -13 -105 7 -250 5 -38 10 -128 11 -198 1
-71 6 -143 12 -160 9 -30 14 -124 23 -442 4 -161 17 -233 71 -415 9 -30 20
-77 25 -105 4 -27 18 -84 29 -125 12 -41 25 -104 29 -140 5 -46 15 -76 34
-104 15 -21 27 -44 27 -51 0 -7 23 -30 51 -52 28 -21 67 -50 87 -66 110 -82
282 -167 340 -167 12 0 35 -6 50 -14 63 -31 331 -99 385 -97 15 1 62 -11 105
-26 42 -14 115 -34 162 -44 47 -10 103 -22 125 -28 22 -6 63 -11 92 -11 28 0
63 -4 77 -10 14 -5 65 -16 113 -24 49 -9 131 -29 184 -44 54 -16 166 -42 250
-56 85 -15 168 -32 184 -38 17 -6 63 -14 104 -19 41 -5 99 -14 130 -20 56 -11
158 -21 341 -34 52 -4 115 -13 140 -20 25 -7 101 -21 170 -30 69 -9 141 -20
160 -25 19 -5 85 -14 145 -20 61 -7 115 -16 121 -21 6 -5 37 -8 70 -8 136 2
956 -36 1089 -50 214 -24 325 -31 380 -26 34 3 112 -1 178 -10 64 -8 129 -15
145 -16 15 0 59 -2 97 -4 39 -3 149 -10 245 -15 96 -6 256 -19 355 -30 99 -10
194 -19 210 -19 49 0 136 -8 205 -20 36 -6 112 -11 170 -11 58 0 180 -11 275
-25 94 -14 267 -30 385 -35 118 -6 256 -17 305 -25 50 -8 167 -16 260 -19 94
-3 204 -10 245 -15 86 -12 279 -31 360 -36 30 -2 75 -8 100 -15 25 -6 79 -15
120 -20 95 -11 131 -19 150 -36 8 -7 26 -19 40 -26 36 -19 89 -80 153 -178 31
-47 73 -103 93 -124 19 -22 47 -62 60 -90 29 -59 105 -248 128 -321 9 -27 23
-64 31 -81 8 -17 21 -56 29 -87 8 -30 19 -65 25 -76 6 -11 11 -31 11 -46 0
-36 23 -77 63 -112 27 -23 37 -43 50 -99 9 -38 16 -91 15 -119 0 -27 7 -70 15
-95 10 -27 17 -76 17 -122 0 -45 6 -91 14 -110 24 -56 46 -170 46 -240 0 -96
12 -118 65 -118 24 0 47 6 53 13 13 16 9 215 -5 242 -21 40 -28 173 -21 372 2
71 7 95 19 105 17 13 37 95 44 183 2 28 8 75 13 105 23 134 33 211 27 220 -3
5 3 26 13 47 15 28 21 69 26 156 3 66 8 123 11 128 3 5 10 50 15 101 6 51 16
129 24 173 8 44 18 98 22 120 3 22 14 49 24 60 18 21 29 82 36 205 2 41 11
136 19 210 7 74 14 160 13 190 0 30 8 82 17 115 31 109 36 149 39 310 2 88 10
201 19 250 9 50 20 158 26 240 12 194 12 197 -1 212 -8 10 -8 20 1 39 6 14 11
42 11 62 0 43 21 134 51 226 16 53 18 71 10 103 -7 25 -7 51 -1 73 15 58 41
279 35 303 -3 12 -10 72 -15 132 -5 61 -14 139 -21 174 -10 51 -10 70 1 99 7
20 14 66 16 102 6 109 23 212 40 238 14 21 15 50 11 197 -3 115 -9 180 -18
196 -10 18 -13 82 -11 262 1 130 -3 258 -7 284 -6 29 -6 54 0 65 17 31 15 239
-3 273 -8 17 -25 59 -37 94 -25 72 -99 191 -146 236 -18 17 -50 40 -71 52 -21
13 -76 45 -122 73 -46 27 -88 50 -93 50 -5 0 -17 4 -27 9 -18 10 -122 29 -187
35 -22 2 -67 9 -100 15 -78 14 -275 30 -445 36 -74 3 -153 10 -175 15 -22 5
-74 10 -115 10 -41 0 -93 5 -115 10 -23 6 -248 10 -525 10 -282 0 -510 4 -545
10 -37 7 -311 10 -720 9 -770 -2 -659 -3 -920 11 -115 6 -411 13 -658 15 -246
3 -492 9 -548 14 -74 7 -108 6 -127 -2 -20 -9 -26 -9 -30 1 -4 12 -21 14 -52
6z m930 -98 c278 -2 507 -4 510 -6 15 -8 152 -11 730 -15 349 -3 657 -7 684
-8 27 -2 65 -1 85 3 20 3 47 3 61 -1 44 -13 456 -19 469 -6 8 8 17 7 36 -3 23
-12 157 -10 315 5 19 2 41 0 50 -5 14 -7 221 -20 400 -25 41 -1 120 -10 175
-20 130 -23 150 -25 340 -29 88 -2 183 -9 210 -16 28 -6 86 -13 129 -14 60 -2
82 -7 91 -19 7 -9 14 -15 16 -13 2 3 22 -9 44 -24 22 -16 80 -50 129 -75 78
-40 136 -83 136 -102 0 -3 11 -19 25 -35 14 -16 23 -34 19 -39 -3 -5 -1 -9 5
-9 13 0 51 -73 51 -98 0 -10 11 -41 25 -68 29 -58 34 -165 11 -232 -11 -30
-14 -84 -13 -206 1 -91 4 -166 7 -166 3 0 6 -9 6 -20 0 -11 -3 -20 -6 -20 -3
0 -5 -30 -4 -67 1 -38 -3 -91 -9 -119 -8 -41 -7 -56 6 -75 22 -35 45 -283 27
-294 -5 -3 -10 -16 -10 -29 0 -12 -11 -66 -25 -120 -14 -54 -23 -106 -20 -117
4 -10 -3 -51 -13 -91 -29 -106 -29 -149 0 -169 5 -3 10 -44 13 -92 2 -47 8
-94 13 -104 15 -30 14 -210 -1 -267 -9 -29 -14 -87 -13 -136 1 -48 -3 -98 -10
-115 -19 -49 -42 -135 -55 -208 -9 -53 -9 -90 1 -163 9 -67 10 -101 2 -121
-10 -25 -18 -90 -26 -213 -2 -25 -8 -56 -13 -70 -6 -14 -11 -101 -12 -193 -1
-93 -6 -180 -12 -194 -5 -13 -7 -34 -3 -47 3 -12 -4 -43 -15 -70 -12 -26 -21
-67 -21 -91 0 -24 -5 -47 -11 -51 -6 -3 -8 -17 -5 -29 3 -13 1 -27 -4 -30 -7
-4 -8 -11 -1 -18 9 -12 10 -67 1 -67 -3 0 -6 -12 -7 -27 -1 -16 -6 -59 -12
-98 -6 -38 -12 -117 -12 -175 -1 -101 -2 -107 -31 -143 -18 -23 -32 -55 -35
-80 -3 -23 -10 -47 -15 -54 -5 -6 -9 -44 -9 -85 0 -40 -4 -109 -10 -153 -6
-44 -12 -111 -14 -150 -2 -38 -4 -72 -5 -75 -1 -3 -2 -13 -1 -22 1 -9 -10 -23
-26 -32 l-28 -14 27 -11 c24 -9 27 -14 22 -43 -3 -18 -11 -49 -19 -68 -27 -72
-37 -118 -31 -138 4 -11 2 -23 -4 -27 -5 -3 -10 -19 -10 -34 0 -15 -5 -32 -12
-39 -6 -6 -13 -26 -15 -44 -2 -18 -8 -37 -13 -42 -6 -6 -10 -18 -10 -28 0 -10
-4 -18 -9 -18 -11 0 -21 25 -21 53 0 12 -9 49 -19 82 -11 33 -28 87 -37 120
-10 33 -23 66 -28 74 -6 7 -9 28 -7 46 1 19 -3 44 -10 57 -7 13 -14 32 -16 43
-1 11 -7 44 -12 74 -6 30 -8 58 -5 63 4 5 -3 19 -14 31 -19 22 -33 70 -38 137
-1 19 -12 75 -24 125 -12 49 -23 115 -24 145 -2 40 -11 68 -30 98 -40 64 -71
75 -211 79 -66 2 -131 4 -145 5 -14 0 -108 -2 -210 -4 -112 -3 -234 0 -310 8
-69 7 -168 16 -220 20 -52 3 -100 10 -106 15 -6 5 -100 11 -210 14 -109 2
-237 9 -284 15 -121 16 -144 17 -353 25 -104 3 -219 13 -255 21 -87 20 -197
34 -297 40 -44 3 -118 7 -165 9 -191 11 -381 27 -506 44 -153 20 -465 43 -509
39 -24 -3 -47 -3 -50 0 -3 3 -40 7 -83 9 -132 7 -147 8 -162 18 -8 5 -53 10
-100 11 -395 12 -434 14 -478 28 -24 8 -124 15 -302 21 -58 2 -145 7 -195 10
-49 4 -178 8 -285 9 -108 1 -200 5 -205 8 -6 3 -51 9 -101 12 -49 3 -112 11
-140 16 -56 13 -74 15 -204 24 -52 4 -131 16 -175 26 -44 10 -102 21 -130 25
-27 3 -72 10 -100 16 -27 5 -70 11 -95 13 -74 5 -261 27 -325 38 -33 6 -91 15
-130 19 -141 18 -294 44 -301 52 -4 4 -18 7 -30 7 -13 0 -60 9 -106 21 -46 11
-114 27 -153 36 -38 8 -78 19 -89 25 -26 14 -124 34 -211 43 -38 4 -117 18
-175 32 -58 13 -130 28 -160 33 -30 4 -84 15 -120 24 -36 9 -94 21 -130 27
-36 6 -103 25 -150 41 -47 17 -98 32 -115 35 -80 12 -282 92 -325 128 -8 7
-44 28 -80 46 -36 18 -67 37 -69 42 -2 5 -16 23 -31 40 -28 33 -44 80 -63 182
-6 33 -17 65 -23 70 -16 14 -32 69 -39 140 -8 76 -9 82 -41 190 -15 50 -28
106 -29 126 -1 20 -5 41 -8 46 -8 12 -8 82 -1 158 4 39 1 74 -8 100 -8 23 -11
51 -7 65 12 43 10 107 -6 167 -9 32 -18 101 -20 153 -10 197 -15 251 -20 261
-5 8 -9 61 -15 234 0 6 2 37 6 70 4 33 8 119 9 190 1 72 5 164 8 205 4 51 1
95 -9 140 -8 36 -17 111 -19 168 -1 57 -6 136 -10 177 -4 45 -3 81 4 93 17 32
24 81 27 187 1 55 6 134 11 175 8 74 8 75 38 78 17 1 48 11 70 22 22 10 56 21
75 24 19 4 48 13 65 22 36 18 134 31 320 39 77 4 142 8 145 10 4 2 35 5 71 5
61 2 121 13 164 30 24 10 139 19 335 26 80 2 154 7 165 10 11 3 63 10 115 14
52 5 127 13 165 19 235 35 399 52 620 61 138 6 275 16 305 21 30 6 82 14 115
19 33 5 74 11 90 14 49 9 261 27 380 32 120 6 239 16 440 38 72 7 221 14 333
15 112 0 208 4 214 7 5 3 64 8 130 10 66 2 123 6 127 9 3 4 139 4 301 0 162
-4 522 -8 800 -9z"/>
<path d="M11520 7640 c0 -5 -13 -10 -30 -10 -48 0 -39 -52 12 -65 38 -10 72
11 63 38 -3 12 -7 28 -7 35 -2 14 -38 17 -38 2z"/>
</g>
</svg>
