<svg version="1.1" xmlns="http://www.w3.org/2000/svg" viewBox="0 0 470.88175748658045 598.1117418493445" width="941.7635149731609" height="1196.223483698689"><defs><style class="style-fonts"></style></defs><g transform="translate(142.85 101.33) rotate(0 33.77 -44.7)" stroke="none"><path fill="#ffd557" d="M -3.8,-3.1 Q -3.8,-3.1 -0.5,-6.6 5.8,-14.1 7.9,-17.6 14.2,-27.1 15.6,-30.1 20.2,-38.6 22.4,-41.4 27.4,-49.4 29.2,-52.4 34.8,-60.6 36.6,-62.9 41.3,-68.8 42.7,-70.5 47.2,-75.7 49.1,-77.8 55.8,-85.8 57.7,-88 62,-92.8 62.6,-93.6 65.2,-95.5 66.2,-95.7 69.3,-95.7 70.3,-95.2 72.8,-93.3 73.2,-92.4 74,-89.3 73.9,-88.3 72.7,-85.4 71.9,-84.7 69.2,-83.1 68.2,-83 65.1,-83.3 64.2,-83.9 61.9,-86.1 61.5,-87 61,-90.1 61.3,-91.2 62.8,-93.9 63.7,-94.5 66.5,-95.8 67.6,-95.8 70.6,-95.1 71.5,-94.5 73.5,-92.1 73.7,-91.1 73.9,-87.9 73.5,-87 73.1,-86 70.4,-83 63.2,-75 61.6,-73.2 56.4,-67.7 55,-66.1 50.8,-61.1 49.5,-59.4 43,-51.4 41,-48.7 35.8,-41 34.6,-39.2 28.9,-32.2 27.4,-30.2 22,-22.2 20.1,-19 15.4,-11.7 14.1,-10 9.4,-4.6 6.6,-0.7 2.9,3.9 2.4,4.2 0.8,4.8 0.2,4.9 -1.6,4.6 -2.1,4.4 -3.5,3.4 -3.9,2.9 -4.7,1.3 -4.8,0.8 -4.8,-1 -4.6,-1.6 -3.8,-3.1 -3.8,-3.1 Z"></path></g><g transform="translate(211.49 10) rotate(0 23.53 41.93)" stroke="none"><path fill="#ffd557" d="M 4.7,-2.4 Q 4.7,-2.4 5.8,-0.3 10.3,6.7 11.8,8.8 16.1,14.5 17.6,16.2 21.9,22.1 23.2,24.3 26.9,30.5 28.1,32.5 32.3,39.9 33.3,41.9 37.6,50.7 39.4,55.8 43.3,65.6 44.7,68.3 49,75.1 50.9,78 53.5,83 53.4,84 52.7,87 52,87.8 49.6,89.8 48.6,90 45.5,90.1 44.5,89.7 42,87.9 41.5,87 40.6,84 40.7,83 41.8,80.1 42.5,79.3 45.1,77.7 46.2,77.5 49.3,77.8 50.2,78.3 52.5,80.4 52.9,81.3 53.5,84.4 53.2,85.4 51.9,88.2 51,88.8 48.3,90.2 47.2,90.2 44.2,89.7 43.3,89 41.3,86.7 41.3,86.7 37.5,80.5 36.4,78.5 32.5,70.7 31.3,68.2 26.4,59 25.1,56.1 21.4,48.6 20.1,46.3 16.9,40 15.6,37.5 11.7,30.5 10.2,27.9 6.2,21.8 4.8,19.6 0.8,12.7 -0.8,9.7 -4.7,2.4 -4.9,1.8 -5.3,0 -5.2,-0.7 -4.7,-2.5 -4.3,-3 -3,-4.4 -2.4,-4.7 -0.6,-5.2 0,-5.2 1.9,-4.9 2.5,-4.6 4,-3.5 4.3,-3 4.7,-2.4 4.7,-2.4 Z"></path></g><g transform="translate(305.86 136.48) rotate(0 29.61 -0.42)" stroke="none"><path fill="#ffd557" d="M 0,-5.3 Q 0,-5.3 2,-5.3 8.3,-5.7 10.8,-5.8 18.1,-6.2 21,-6.3 28.7,-7 30.9,-7.1 39.6,-7.2 42.2,-7.1 50.5,-7.1 52.6,-7.2 59.2,-7.6 60.3,-7.4 63.3,-6.2 64,-5.5 65.7,-2.7 65.9,-1.6 65.5,1.6 65,2.6 62.8,4.9 61.7,5.3 58.5,5.9 57.5,5.6 54.6,4.1 53.9,3.2 52.5,0.3 52.5,-0.8 53.2,-4 53.9,-4.8 56.3,-7 57.4,-7.2 60.6,-7.4 61.6,-7 64.3,-5.2 64.9,-4.3 66,-1.2 65.9,-0.1 64.8,2.9 64.1,3.7 61.4,5.6 60.4,5.8 59.3,5.9 57,6 50.5,6 47.7,5.9 39.7,6.1 37.5,6.2 30.2,6.2 27,6.3 18.1,6.2 15.6,6.1 8.3,5.7 6.1,5.5 0,5.3 -0.6,5.2 -2.4,4.7 -3,4.3 -4.3,3 -4.6,2.4 -5.2,0.6 -5.2,0 -4.9,-1.9 -4.6,-2.4 -3.5,-3.9 -3,-4.3 -1.2,-5.1 -0.6,-5.2 0,-5.3 0,-5.3 Z"></path></g><g transform="translate(365.09 135.65) rotate(0 -57.43 38.06)" stroke="none"><path fill="#ffd557" d="M 0.7,5.2 Q 0.7,5.2 -0.5,5.5 -5.5,8.6 -7.3,9.7 -15.3,14.4 -17.8,15.8 -25.5,20.6 -27.4,21.8 -33.8,25.7 -35.8,26.9 -42.5,30.8 -45.4,32.6 -52.7,37.5 -55.8,39.6 -62.5,44.8 -65.5,46.9 -73.4,52.7 -75.6,54.2 -81.5,58.2 -83.2,59.5 -88.9,63.9 -90.7,65.4 -96.8,70.7 -98.6,72.3 -104.8,77.4 -106.8,78.6 -110.2,81.3 -111.2,81.9 -114.3,83 -115.4,82.9 -118.6,81.9 -119.4,81.2 -121.3,78.5 -121.5,77.4 -121.5,74.1 -121,73.1 -118.9,70.5 -117.9,70 -114.7,69.2 -113.5,69.4 -110.5,70.7 -109.8,71.6 -108.1,74.5 -108.1,75.6 -108.5,78.8 -109.1,79.8 -111.5,82.1 -112.5,82.5 -115.8,83 -116.9,82.6 -119.8,81 -120.4,80.1 -121.7,77 -121.7,75.9 -120.9,72.7 -120.2,71.8 -119.5,71 -116.9,69.1 -110,64.3 -107.9,62.6 -101.2,56.9 -99,55.2 -91,49.3 -88.2,47.3 -78.8,40.2 -75.8,38 -68.9,32.8 -66.2,30.9 -58,24.8 -55.3,23.1 -47,17.9 -44.8,16.7 -37.9,12.8 -35.2,11.3 -26.8,6.2 -24,4.7 -16.9,1.1 -14.5,-0.1 -7.6,-3.8 -5.4,-4.4 -0.7,-5.2 -0.1,-5.2 1.8,-5 2.4,-4.7 3.9,-3.5 4.3,-3 5.1,-1.3 5.2,-0.7 5.1,1.2 4.9,1.8 4,3.5 3.5,3.9 1.9,4.9 1.3,5.1 0.7,5.2 0.7,5.2 Z"></path></g><g transform="translate(250.51 209.55) rotate(0 9.83 47.88)" stroke="none"><path fill="#ffd557" d="M 5.3,0 Q 5.3,0 5.4,1.6 5.7,7.7 6.5,10.8 8.5,19 9.2,22.1 10.7,30.1 11.2,32.6 13,41.3 13.9,44.4 16.3,53.1 17.1,55.9 19.5,63.1 20.4,66.3 22.3,74.1 22.7,76.9 23.6,85.7 23.9,88.2 20.3,88.7 21.4,88.9 24.5,90.5 25.2,91.4 26.7,94.5 26.7,95.6 26,99 25.3,99.9 22.8,102.2 21.6,102.5 18.2,102.8 17.1,102.3 14.3,100.5 13.7,99.5 12.5,96.3 12.6,95.1 13.7,91.8 14.4,91 17.3,89 18.4,88.8 21.8,89 22.9,89.5 25.5,91.7 26,92.7 26.8,96 26.6,97.2 25.2,100.3 24.3,101 21.3,102.7 20.1,102.8 19,102.9 14.5,97.3 9.4,86.3 9.2,83.9 8.3,77.2 7.8,74.9 6.1,67.3 5.2,64.2 3.1,56.8 2.4,54.1 -0.1,44.2 -0.6,42 -1.9,35 -2.2,32.4 -3.3,25.2 -3.7,22.5 -4.9,13.8 -5.3,10.8 -5.5,3.2 -5.4,1.6 -5.2,-1.3 -4.9,-1.9 -4,-3.5 -3.5,-4 -1.9,-5 -1.3,-5.1 0.6,-5.3 1.3,-5.1 3,-4.4 3.5,-4 4.7,-2.5 4.9,-1.9 5.3,0 5.3,0 Z"></path></g><g transform="translate(266.56 309.46) rotate(0 -37.78 -38.61)" stroke="none"><path fill="#ffd557" d="M -3.6,3.6 Q -3.6,3.6 -4.8,2.7 -9.4,-1.6 -11.3,-3.6 -16.4,-8.6 -18.2,-10.3 -23.5,-15.2 -25.7,-17.2 -32.2,-22.9 -34,-24.6 -39.8,-29.9 -41.9,-31.8 -47.6,-37.5 -49.5,-39.5 -55,-45.1 -56.8,-47 -61.8,-52.1 -63.6,-54.1 -68.8,-59.6 -70.2,-61.3 -74.9,-66.4 -77.8,-69.2 -82.1,-73.8 -82.5,-75 -82.8,-78.5 -82.4,-79.6 -80.5,-82.6 -79.5,-83.3 -76.2,-84.5 -75.1,-84.5 -71.7,-83.5 -70.8,-82.7 -68.7,-79.8 -68.4,-78.7 -68.5,-75.2 -69,-74.1 -71.2,-71.3 -72.2,-70.8 -75.7,-69.8 -76.8,-70.1 -80.1,-71.4 -80.9,-72.3 -82.7,-75.3 -82.8,-76.5 -82.3,-80 -81.7,-81 -79.3,-83.6 -78.2,-84 -74.7,-84.5 -73.5,-84.2 -70.4,-82.5 -70.4,-82.5 -68.2,-80.3 -66.1,-78.3 -60.9,-72.6 -58.7,-70.2 -52.7,-63.8 -50.9,-61.8 -44.8,-55.3 -42.9,-53.3 -37.4,-47.4 -35.8,-45.7 -30.1,-40.1 -28.5,-38.5 -22.5,-32.9 -20.5,-31 -14.8,-25.5 -12.7,-23.4 -7.7,-17.9 -5.6,-15.4 -1,-9.3 0.3,-7.6 3.6,-3.6 4,-3.2 4.9,-1.5 5,-0.9 5.1,0.9 4.9,1.5 4.1,3.2 3.6,3.6 2.1,4.7 1.5,4.9 -0.3,5.2 -0.9,5 -2.7,4.4 -3.2,4 -3.6,3.6 -3.6,3.6 Z"></path></g><g transform="translate(68.4 296.45) rotate(0 50.79 -32.52)" stroke="none"><path fill="#ffd557" d="M -2.2,-4.1 Q -2.2,-4.1 0.4,-5.5 7.6,-9.6 9.4,-10.7 16.5,-14.5 20,-16.8 33.8,-25.8 36.4,-27.6 43.1,-32.1 45.5,-33.5 52.4,-38.5 54.8,-40.1 63.1,-45.3 65.7,-46.9 72.5,-51.4 76.2,-54.1 84,-60.4 86.3,-62 92.5,-66.3 95.1,-68.1 99.5,-70.9 100.4,-71 103.4,-71 104.3,-70.5 106.6,-68.6 107,-67.7 107.8,-64.8 107.6,-63.9 106.4,-61.1 105.6,-60.5 103,-59 102,-58.9 99.1,-59.4 98.3,-59.9 96.2,-62 95.8,-63 95.4,-65.9 95.7,-66.8 97.2,-69.4 98,-70 100.8,-71.2 101.8,-71.2 104.6,-70.4 105.4,-69.8 107.3,-67.5 107.5,-66.5 107.6,-63.5 107.2,-62.6 105.4,-60.2 105.4,-60.2 98.8,-55.9 96.7,-54.8 90.9,-51.5 88.5,-49.9 82,-45.3 80.1,-44 73.8,-39.8 71.3,-38.1 63.1,-32.3 60.7,-30.9 52.8,-26.4 50.6,-25.1 44.3,-21.5 41.8,-19.8 33,-12.8 31,-11.5 25.2,-8 23.1,-6.8 16.2,-3.2 14.2,-2.1 7.5,1.3 4.9,2.7 1.2,4.5 0.6,4.6 -1,4.6 -1.6,4.4 -3,3.5 -3.4,3.1 -4.3,1.7 -4.5,1.2 -4.7,-0.5 -4.5,-1 -3.9,-2.6 -3.5,-3 -2.2,-4.1 -2.2,-4.1 Z"></path></g><g transform="translate(68.4 294.79) rotate(0 31.69 -58.95)" stroke="none"><path fill="#ffd557" d="M -4.4,-2.1 Q -4.4,-2.1 -3.1,-4.8 1.8,-13.6 3.1,-16.9 6.7,-26.2 9.3,-31.2 14.7,-41.5 15.8,-43.7 20.4,-52 21.5,-54.4 25.4,-62.3 26.6,-64.8 30.1,-71.8 31.4,-74.1 36.2,-81.4 37.5,-83.3 41.6,-90.3 43.1,-93.1 46.7,-100.4 47.6,-102.4 50.9,-109.6 52.6,-112.7 57.9,-121.9 58.6,-122.7 61.4,-124.4 62.5,-124.5 65.7,-124.3 66.7,-123.7 69.1,-121.5 69.5,-120.5 70.2,-117.3 69.9,-116.3 68.4,-113.3 67.6,-112.7 64.6,-111.2 63.5,-111.2 60.3,-111.8 59.4,-112.5 57.3,-114.9 57,-115.9 56.7,-119.2 57.1,-120.2 58.8,-123 59.8,-123.6 62.8,-124.7 63.9,-124.6 67,-123.6 67.9,-122.9 69.8,-120.2 70,-119.2 69.9,-115.9 69.4,-114.9 68.9,-113.9 68.6,-113.6 65.2,-108.1 63.8,-106.2 59.6,-99.1 58.5,-97 54.5,-90.2 52.7,-87.4 47.2,-79.3 45.9,-77.5 41.5,-70.9 40.2,-69 36.6,-62.8 35.4,-60.5 31.5,-52.2 30.3,-49.9 26.1,-41.1 25,-38.9 21.1,-31.5 18.9,-26.8 13.7,-15.7 11.8,-12.4 6.9,-3.3 5.7,-0.6 3.8,3.1 3.4,3.5 1.9,4.5 1.4,4.6 -0.4,4.9 -0.9,4.7 -2.6,4.1 -3,3.8 -4.2,2.5 -4.4,1.9 -4.9,0.2 -4.8,-0.4 -4.4,-2.1 -4.4,-2.1 Z"></path></g><g transform="translate(129.01 169.42) rotate(0 0 0)" stroke="none"><path fill="#ffd557" d="M 3.1,-3.1 Q 3.1,-3.1 3.5,-2.5 4.4,-0.6 4.4,0.1 3.9,2.2 3.4,2.7 1.8,4.1 1.1,4.2 -1.1,4.3 -1.7,4 -3.5,2.8 -3.8,2.1 -4.4,0.1 -4.3,-0.6 -3.6,-2.6 -3.1,-3.1 -1.3,-4.2 -0.6,-4.3 1.5,-4.2 2.1,-3.8 3.7,-2.4 4,-1.7 4.4,0.4 4.2,1.1 3.3,3 2.7,3.4 0.8,4.4 0.1,4.4 -2,4 -2.5,3.5 -3.1,3.1 -3.5,2.7 -4.2,1.3 -4.3,0.8 -4.4,-0.8 -4.2,-1.3 -3.5,-2.7 -3.1,-3.1 -1.8,-4 -1.3,-4.2 0.3,-4.4 0.8,-4.3 2.3,-3.8 2.7,-3.5 3.1,-3.1 3.1,-3.1 Z"></path></g><g transform="translate(10 115.45) rotate(0 63.1 30.31)" stroke="none"><path fill="#ffd557" d="M 2.3,-4.8 Q 2.3,-4.8 4,-4.1 11.3,-0.5 13.6,0.6 19.7,3.9 21.6,5 29.3,8.9 32.4,10.2 39.9,13.3 42,14.1 49.2,16.8 52,17.9 61.4,22 64.9,23.6 73.6,27.8 77.1,29.3 85.7,33.2 88.2,34.4 96.4,38.1 98.4,39 105.3,42.1 108,43.4 117,47.6 119.8,49 126.5,52.3 128.9,54.2 132.6,58 132.8,59.1 132.9,62.4 132.4,63.4 130.4,66 129.5,66.6 126.3,67.5 125.2,67.3 122.1,66.2 121.3,65.4 119.6,62.5 119.4,61.4 119.8,58.1 120.3,57.2 122.6,54.7 123.6,54.3 126.9,53.7 127.9,54 130.9,55.5 131.6,56.4 133,59.4 133,60.5 132.3,63.8 131.7,64.7 129.2,66.8 128.1,67.2 124.8,67.4 123.8,67 121,65.1 121,65.1 118.8,63.8 116.2,62.6 107.6,58.5 105.4,57.4 98.8,54.4 96.8,53.3 90.9,50.4 87.9,49.1 79.7,45.3 77.4,44.1 70.2,40.8 67.8,39.7 58.9,35.5 55.6,34.1 47.4,30.6 44.2,29.5 36.8,26.6 34.6,25.6 28.1,22.6 25.8,21.6 18.7,18 16.7,16.7 9.7,12 7.6,10.7 1,6.5 -0.7,5.7 -3.4,4.1 -3.8,3.7 -4.9,2.1 -5.1,1.5 -5.3,-0.4 -5.2,-1.1 -4.5,-2.9 -4.1,-3.4 -2.7,-4.6 -2.1,-4.9 -0.2,-5.3 0.4,-5.3 2.3,-4.8 2.3,-4.8 Z"></path></g><g transform="translate(14.43 109.91) rotate(0 66.84 -5.54)" stroke="none"><path fill="#ffd557" d="M 0,-5.1 Q 0,-5.1 2.9,-5.1 10.7,-5.7 13.2,-6.2 22.4,-8.4 26.5,-9.2 39.1,-11.5 41.5,-11.8 48.3,-12.7 50.5,-13 57,-13.9 60.7,-14.3 71.2,-15.5 75.1,-15.7 87.1,-16.4 89.8,-16.5 97,-16.9 99.6,-16.9 108.4,-17.1 111,-17.2 119.6,-17.4 121.8,-17.3 129.2,-17 131.7,-16.4 135.1,-15.5 136.1,-15.1 138.7,-13.4 139.3,-12.4 140.2,-9.4 140.1,-8.4 139.1,-5.4 138.4,-4.6 135.7,-2.9 134.7,-2.7 131.5,-2.9 130.6,-3.4 128.2,-5.5 127.8,-6.4 127.1,-9.5 127.3,-10.6 128.7,-13.4 129.5,-14.1 132.3,-15.6 133.4,-15.6 136.5,-15.1 137.3,-14.5 139.5,-12.2 139.8,-11.2 140.2,-8 139.8,-7 138.2,-4.3 137.3,-3.7 134.3,-2.6 133.3,-2.6 132.2,-2.7 129.4,-3.6 119.6,-4.7 116.6,-4.8 108.5,-5 105.4,-5.1 93.5,-4.8 90.7,-4.5 79.5,-3.8 75.8,-3.6 65.5,-3 62,-2.7 54.2,-1.9 51.9,-1.7 45.2,-0.9 41,-0.3 32.2,1 28.4,1.6 17.7,3.3 14.8,3.8 5.9,5 2.9,5.1 -1.2,5 -1.8,4.7 -3.4,3.8 -3.8,3.4 -4.8,1.8 -4.9,1.2 -5.1,-0.6 -4.9,-1.2 -4.2,-2.9 -3.8,-3.4 -2.4,-4.5 -1.8,-4.7 0,-5.1 0,-5.1 Z"></path></g><g transform="translate(172.14 168) rotate(0 -1.6 28.51)" stroke="none"><path fill="#1971c2" d="M 0.3,5.1 Q 0.3,5.1 -0.9,5.2 -6.8,6.6 -8.3,8.1 -12.9,13.1 -13.9,15.4 -15.9,21.9 -16.1,24.1 -16.2,31.2 -15.9,33.3 -14.1,40 -12.6,41.6 -6.7,46.3 -4.8,47.4 1.5,50.3 4.2,49.2 10.8,45 11.7,42.5 12.2,37.4 11.9,36.2 12.1,32.5 12.7,31.4 15.1,28.6 16.2,28 19.8,27.2 21,27.5 24.4,29 25.2,29.9 26.9,33.2 27,34.4 26.4,38.1 25.8,39.1 23.1,41.7 21.9,42.1 18.2,42.5 17.1,42.1 13.9,40.2 13.2,39.2 11.8,35.8 11.8,34.5 12.8,31 13.6,30 16.6,27.8 17.8,27.5 21.5,27.5 22.6,28 25.5,30.2 26.1,31.3 26.7,32.4 27.3,36.5 27.5,45.1 26.5,48.1 22.7,54.8 21,56.6 15.1,61.2 12.8,62.3 5.7,64.7 3.4,64.7 -3.7,64.4 -6,63.5 -13.2,60.1 -15,58.8 -20.6,54.8 -22.4,53.2 -26.6,47.8 -27.6,45.7 -29.8,39.4 -30.3,37.1 -30.7,30.2 -30.6,28 -29.9,20.2 -29.2,17.4 -26.5,10.1 -24.9,7.8 -19.9,1.9 -17.7,0 -11.4,-3.8 -9.2,-4.3 -2.8,-5.1 -1.5,-5.1 0.9,-5 1.5,-4.8 3.1,-4 3.5,-3.6 4.6,-2.1 4.8,-1.5 5.1,0.3 5,0.9 4.3,2.6 4,3.1 2.6,4.3 2.1,4.6 0.3,5.1 0.3,5.1 Z"></path></g><g transform="translate(191.59 205.57) rotate(0 20.11 2.13)" stroke="none"><path fill="#1971c2" d="M 4.7,-2 Q 4.7,-2 5.2,-1.1 8.3,3.9 10.7,5.4 17.6,10 19.7,11.1 26.3,11.8 28.5,9.9 32.2,3.7 32.5,1.6 31.8,-5.9 30,-8.2 27.1,-12.7 27,-13.9 27.4,-17.4 28,-18.5 30.5,-21.1 31.6,-21.5 35.2,-22.1 36.4,-21.8 39.5,-20.1 40.3,-19.1 41.8,-15.8 41.8,-14.6 41,-11.1 40.2,-10.2 37.5,-7.8 36.3,-7.5 32.7,-7.3 31.6,-7.8 28.6,-9.8 28,-10.8 26.9,-14.2 27,-15.5 28.2,-18.9 29,-19.8 32,-21.8 33.2,-22 36.8,-21.8 37.8,-21.2 40.6,-18.9 40.6,-18.9 44.5,-13.7 45.4,-11.8 47.7,-4.3 47.6,-2.1 46.9,5.5 46.5,7.7 43.9,14.8 42.5,16.6 37.1,21.9 35.1,23.1 27,26 24.7,25.9 17.7,24.9 15.1,23.6 8.7,19.6 7.1,18.2 1.8,13.8 -0.2,11.3 -4.1,3.9 -4.4,2.9 -5.1,0.8 -5.1,0.2 -4.8,-1.7 -4.6,-2.2 -3.5,-3.7 -3,-4.1 -1.4,-4.9 -0.8,-5 1.1,-5 1.6,-4.8 3.3,-3.9 3.7,-3.5 4.7,-2 4.7,-2 Z"></path></g><g transform="translate(220.36 175.46) rotate(0 35.57 -35.83)" stroke="none"><path fill="#1971c2" d="M -2.7,0 Q -2.7,0 -2.7,-0.8 -3.2,-4.1 -3.6,-5.8 -4.6,-10.2 -4.9,-11.5 -5.9,-16.2 -6.2,-17.5 -6.6,-21.3 -6.6,-22.4 -6.1,-26.3 -5.6,-27.6 -4,-31.7 -3.2,-33 -1.2,-36.6 -0.3,-37.6 2.4,-40.3 3.4,-41.3 6.6,-44 8.1,-44.9 12.4,-47.3 13.5,-48 16.7,-49.6 18.1,-50.1 22.8,-51 23.9,-51.1 27.7,-50.9 28.9,-50.2 32.1,-47.2 33,-46.5 35.5,-44 36.2,-43.1 38.4,-40.5 39.1,-39.7 41.9,-36.8 42.9,-36 45.6,-33.9 46.5,-33.2 49.9,-32 51,-31.9 54.7,-31.8 55.8,-31.8 59,-32.7 60.2,-33.3 64.1,-35.9 65,-36.7 67.7,-38.7 68.4,-39.9 69.7,-43.3 70,-44.9 70.5,-48.8 70.6,-50.1 70.6,-54.3 70.6,-55.6 69.7,-59.3 68.8,-60.6 65.8,-63.9 64.9,-64.7 62.1,-67.2 60.8,-67.5 57,-67.9 55.5,-67.7 51.3,-66.4 50.2,-65.9 47.3,-64.4 46,-63.7 43.1,-61.1 42.3,-60 40,-56.4 39.6,-55.4 38,-52 37.6,-50.7 37.1,-47.1 37.3,-46.2 38.1,-44.3 38.3,-43.7 38.3,-41.9 38,-41.3 36.9,-39.9 36.4,-39.6 34.6,-39.1 34,-39.2 32.4,-39.9 31.9,-40.3 31,-41.9 30.9,-42.5 31.1,-44.3 31.4,-44.8 32.7,-46.1 33.2,-46.4 35,-46.6 35.6,-46.5 37.2,-45.6 37.6,-45.1 38.4,-43.5 38.4,-42.9 38,-41.1 37.6,-40.6 36.2,-39.5 35.6,-39.3 33.8,-39.2 33.2,-39.4 31.8,-40.4 31.8,-40.4 29.5,-45.5 29.5,-46.7 29.9,-50.5 30.1,-51.6 31.2,-55.1 31.8,-56.4 33.4,-59.7 34.2,-60.9 36.4,-64.4 37.2,-65.4 39.4,-68 40.4,-68.8 44.6,-71.3 45.8,-72 49.5,-73.5 51.1,-74.1 55.4,-75.2 56.8,-75.3 60.9,-75.4 62.1,-75.3 66,-73.6 67.2,-72.7 70.3,-70 71.1,-69.2 73.5,-66.8 74.4,-65.7 76.7,-62.1 77.1,-60.7 78.1,-56.9 78.1,-55.6 78.1,-51.4 78.1,-50.1 77.7,-46.2 77.5,-44.6 76.7,-39.5 76,-38.3 74.2,-34.8 73.4,-33.9 70.7,-31.7 69.7,-30.9 66.7,-28.4 65.5,-27.7 62.1,-25.8 60.7,-25.2 56.9,-24.2 55.8,-24.2 52.1,-24.2 51,-24.3 47.1,-24.9 45.7,-25.3 41.6,-27.3 40.7,-27.9 37.6,-30.5 36.7,-31.3 34.2,-33.6 33.5,-34.5 30.6,-38 29.8,-38.9 27.2,-41.8 26.6,-42.8 23.8,-43.7 22.4,-43.7 18.8,-42.6 17.8,-42.1 13.8,-39.9 12.7,-39.3 9.4,-37 8.5,-36.2 5.7,-33.6 5,-32.8 3,-29.7 2.4,-28.5 0.5,-24.2 0.3,-23.1 0.1,-19.6 0.3,-18.4 0.9,-14.6 1.1,-13.1 1.8,-8.5 2.1,-6.7 2.7,-1.5 2.7,-0.8 2.6,0.6 2.5,0.9 2,1.8 1.8,2 0.9,2.5 0.6,2.6 -0.3,2.6 -0.6,2.6 -1.5,2.2 -1.8,2 -2.4,1.2 -2.5,0.9 -2.7,0 -2.7,0 Z"></path></g><g transform="translate(273.64 121.11) rotate(0 8.26 7.46)" stroke="none"><path fill="#1971c2" d="M 0.8,-2.5 Q 0.8,-2.5 1.8,-2.2 5.7,-1 6.9,-0.6 10.2,1 11.1,1.6 13.9,4 14.8,4.9 17.1,7.7 17.7,8.7 20,14.9 19.9,15.4 19.3,17 18.9,17.4 17.5,18.3 16.9,18.4 15.3,18.2 14.8,17.9 13.5,16.8 13.3,16.2 13,14.6 13.2,14 13.9,12.5 14.4,12.2 15.9,11.5 16.5,11.5 18.1,11.8 18.6,12.1 19.7,13.4 19.8,13.9 19.9,15.6 19.7,16.1 18.8,17.6 18.3,17.9 16.8,18.4 16.2,18.4 14.6,17.8 14.2,17.4 13.2,16.1 13.1,15.5 13,15 12.6,13.9 11,10.6 10.2,9.6 7.7,6.9 6.9,6.1 3.6,4.3 2.3,3.7 -0.8,2.5 -1.1,2.4 -1.9,1.8 -2.1,1.6 -2.5,0.7 -2.6,0.4 -2.6,-0.5 -2.5,-0.8 -2,-1.7 -1.8,-1.9 -1,-2.4 -0.7,-2.5 0.2,-2.6 0.5,-2.6 0.8,-2.5 0.8,-2.5 Z"></path></g><g transform="translate(291.76 108.59) rotate(0 -59.68 19.18)" stroke="none"><path fill="#1971c2" d="M -1.9,1.9 Q -1.9,1.9 -2.6,1.2 -5.5,-0.7 -6.5,-1 -9.8,-2.2 -10.8,-2.7 -13.9,-3.9 -15.1,-4.2 -18.6,-5.4 -20.2,-5.9 -24.4,-7.4 -25.4,-7.6 -28.9,-8.3 -30.1,-8.6 -33.9,-9.4 -35.6,-9.8 -39.7,-10.5 -41.1,-10.8 -45,-12 -46.1,-12.2 -50.5,-12.8 -52,-12.8 -55.7,-12.8 -56.8,-12.8 -61,-12.9 -62.1,-12.9 -65.5,-12.9 -67.1,-12.9 -71.5,-12.8 -72.7,-12.7 -75.8,-11.4 -77,-10.7 -80.5,-8.5 -81.7,-7.5 -85.5,-4.8 -86.6,-4 -89.2,-1.5 -90.4,-0.3 -93,2.9 -94,4.1 -97.3,8.6 -98,9.6 -100.2,12.4 -101,13.5 -103.4,16.8 -104.4,18.2 -106.4,21.9 -106.9,23.1 -108.5,26.5 -108.9,27.5 -110.1,31.3 -110.3,32.5 -111.1,36 -111.4,37.3 -112.2,40.9 -112.6,42.4 -113.5,46 -113.7,47.1 -114.5,50.2 -114.8,51.4 -115.7,55.5 -115.9,56 -116.8,57.5 -117.3,57.9 -118.9,58.5 -119.5,58.5 -121.2,58 -121.7,57.6 -122.7,56.2 -122.9,55.7 -122.9,53.9 -122.6,53.4 -121.6,52 -121,51.7 -119.4,51.2 -118.8,51.3 -117.1,52 -116.7,52.4 -115.8,53.9 -115.8,54.5 -115.9,56.2 -116.2,56.7 -117.5,58 -118,58.2 -119.7,58.5 -120.3,58.4 -121.9,57.5 -122.2,57.1 -123,55.5 -123,54.9 -123,54.3 -122.5,52.1 -121.4,47.4 -121.1,46.2 -120.3,42.8 -119.9,41.5 -118.7,36.6 -118.4,35.4 -117.4,31.1 -117.1,29.6 -115.6,24.9 -115.1,23.7 -113.3,19.7 -112.8,18.7 -110.8,14.9 -109.8,13.4 -107.4,9.7 -106.6,8.8 -104.1,5.7 -103.2,4.6 -101,1.3 -100,0 -97.8,-3 -96.9,-4.1 -93.6,-7.3 -92.5,-8.4 -89.5,-10.9 -88.1,-11.9 -84.4,-14.7 -83.3,-15.4 -79.1,-18.1 -78,-18.7 -73.9,-19.9 -72.3,-20 -67.6,-20.2 -66.2,-20.2 -62.2,-20.1 -60.8,-20.1 -56.4,-20.2 -55.3,-20.2 -51.5,-20.2 -49.7,-20 -45.1,-19.5 -43.6,-19.1 -40,-17.9 -38.8,-17.6 -34.8,-16.9 -33.2,-16.6 -28.5,-15.6 -27.2,-15.3 -23.1,-14.3 -21.8,-13.9 -17.8,-12.4 -16.8,-12.1 -13.7,-10.9 -12.6,-10.5 -9.3,-9.1 -8.2,-8.5 -4.2,-6.5 -3,-5.8 0.5,-3.3 1.2,-2.6 2.2,-1.4 2.4,-1.1 2.6,-0.1 2.6,0.1 2.4,1.1 2.2,1.3 1.6,2.1 1.3,2.2 0.5,2.6 0.1,2.6 -0.8,2.5 -1.1,2.4 -1.9,1.9 -1.9,1.9 Z"></path></g><g transform="translate(183.18 124.38) rotate(0 50.58 -16.37)" stroke="none"><path fill="#1971c2" d="M -2.3,-1.3 Q -2.3,-1.3 -1.9,-2.2 -0.2,-5.5 0.6,-7 2.8,-11 3.5,-12.2 5.5,-15.4 6.2,-16.4 8.5,-19.8 9.2,-20.8 11.5,-23.6 12.5,-24.5 15.4,-27 16.4,-27.6 19.6,-29.4 20.9,-30.1 24.2,-31.9 25.3,-32.5 28.7,-33.8 29.8,-34.1 33.4,-35.1 34.8,-35.4 38.9,-36 40.1,-36.1 44,-36.5 45.3,-36.5 49.6,-36.5 50.8,-36.5 54.6,-36.5 55.7,-36.4 59.1,-36.2 60.8,-36 65.5,-35.2 66.7,-35 70.7,-34.4 72,-34.1 75.7,-33.2 76.7,-32.9 80.3,-31.9 81.7,-31.5 85,-30.3 86.1,-29.9 89.3,-28.6 90.4,-28.1 94.4,-26.2 95.3,-25.7 98.6,-24.3 101.7,-21.5 104.8,-17.5 104.5,-16.9 103.3,-15.5 102.8,-15.2 101,-14.8 100.4,-14.9 98.8,-15.6 98.4,-16.1 97.5,-17.7 97.4,-18.3 97.7,-20.1 98,-20.6 99.3,-21.9 99.9,-22.1 101.7,-22.3 102.2,-22.1 103.8,-21.2 104.2,-20.7 104.9,-19.1 104.9,-18.5 104.4,-16.7 104,-16.2 102.6,-15.1 102,-15 100.2,-14.9 99.7,-15.2 98.2,-16.2 97.9,-16.8 97.4,-18.5 97.4,-18.5 96.7,-17 95.6,-17.4 92.3,-18.8 91.2,-19.4 87.5,-21.2 86.4,-21.7 83.2,-23 82,-23.5 77.9,-24.8 76.7,-25.2 72.9,-26.4 71.8,-26.6 68.7,-27.2 67.1,-27.5 62.8,-28.1 61.5,-28.4 57.7,-28.9 56.5,-28.9 53,-29 51.8,-29 48.3,-28.9 47.2,-28.9 44,-28.9 42.7,-28.8 39.3,-28.5 38.2,-28.4 34.7,-27.8 33.4,-27.4 29.8,-26.3 28.6,-25.8 25.5,-24.3 24.6,-23.8 21.5,-22.2 20.4,-21.6 17.6,-19.5 16.7,-18.7 14.4,-16.2 13.4,-15 11.2,-12.1 10.3,-11 8,-7.7 7.2,-6.7 4.8,-2.7 4.1,-1.6 2.3,1.3 2.1,1.5 1.5,2.2 1.2,2.4 0.3,2.6 0,2.6 -1,2.5 -1.3,2.3 -2,1.7 -2.2,1.5 -2.6,0.6 -2.6,0.3 -2.6,-0.7 -2.5,-1 -2.3,-1.3 -2.3,-1.3 Z"></path></g><g transform="translate(216.5 177.32) rotate(0 0.74 -15.34)" stroke="none"><path fill="#1971c2" d="M -2.5,0 Q -2.5,0 -2.4,-2.2 -2.3,-6.8 -2.4,-8.2 -2.7,-11.8 -2.8,-13.3 -3,-18.6 -3,-20 -2.8,-24.1 -2.7,-25.2 -1.7,-31.6 -1.5,-32.1 -0.5,-33.3 0,-33.5 1.5,-34 2,-33.9 3.5,-33.3 3.9,-32.9 4.7,-31.5 4.7,-31 4.5,-29.4 4.2,-29 3.1,-27.8 2.6,-27.6 1.1,-27.4 0.6,-27.5 -0.8,-28.3 -1.1,-28.7 -1.8,-30.2 -1.8,-30.7 -1.4,-32.2 -1.1,-32.7 0.1,-33.7 0.6,-33.8 2.2,-33.9 2.7,-33.7 4,-32.8 4.3,-32.3 4.8,-30.8 4.7,-30.3 4.6,-29.8 4.3,-28.3 3.5,-23.5 3.4,-22.4 3,-18.6 3,-16.7 2.7,-11.8 2.6,-10.7 2.3,-6.8 2.3,-5.6 2.5,0 2.5,0.3 2.2,1.2 2.1,1.4 1.4,2.1 1.2,2.2 0.3,2.5 0,2.5 -0.9,2.4 -1.2,2.2 -1.9,1.7 -2.1,1.4 -2.5,0.6 -2.5,0.3 -2.5,0 -2.5,0 Z"></path></g><g transform="translate(217.54 172.01) rotate(0 3.32 -16.22)" stroke="none"><path fill="#1971c2" d="M -2.6,0 Q -2.6,0 -2.6,-0.8 -2.9,-4.1 -2.9,-5.3 -3.2,-9 -3.5,-10.5 -4,-14.2 -4,-15.4 -4,-18.8 -3.8,-20.2 -3.4,-24 -3.2,-25.1 -1.9,-28.4 -1.2,-29.2 0.9,-31.7 3.1,-33.6 6.3,-36.1 6.9,-36.1 8.7,-35.9 9.2,-35.5 10.5,-34.3 10.7,-33.7 10.9,-31.9 10.8,-31.4 9.9,-29.8 9.4,-29.4 7.7,-28.7 7.1,-28.8 5.4,-29.2 4.9,-29.6 3.8,-30.9 3.6,-31.5 3.6,-33.3 3.8,-33.9 4.9,-35.3 5.4,-35.6 7.1,-36.2 7.7,-36.1 9.4,-35.5 9.8,-35.1 10.8,-33.5 10.9,-33 10.7,-31.2 10.4,-30.6 9.2,-29.3 9.2,-29.3 6.7,-26.9 5.8,-26.1 3.8,-23.2 3.6,-21.8 3,-18.1 2.9,-16.9 2.8,-13.6 2.8,-12.5 3.2,-9 3.1,-7.8 2.9,-4.1 2.8,-2.9 2.6,0 2.5,0.3 2.3,1.2 2.1,1.4 1.4,2.1 1.2,2.2 0.3,2.5 0,2.5 -0.9,2.4 -1.2,2.2 -1.9,1.7 -2.1,1.4 -2.5,0.6 -2.5,0.3 -2.6,0 -2.6,0 Z"></path></g><g transform="translate(329.81 176.84) rotate(0 -1.93 11.08)" stroke="none"><path fill="#1971c2" d="M 2.6,0.3 Q 2.6,0.3 2.5,1.4 1.7,5 1.4,6.4 0.4,10.5 0.2,11.7 -0.3,15 -0.5,16.7 -1,20.7 -2,19.8 -3.7,16.4 -3.8,15.3 -3.4,11.4 -3.3,10.2 -3.1,6.7 -3.1,5.5 -3.4,0.6 -3.4,0 -3,-1.6 -2.7,-2 -1.5,-3.1 -0.9,-3.2 0.7,-3.4 1.2,-3.1 2.6,-2.2 2.9,-1.8 3.4,-0.2 3.4,0.3 2.9,1.9 2.5,2.3 1.1,3.2 0.6,3.3 -1.1,3.3 -1.6,3 -2.8,1.9 -3.1,1.4 -3.4,-0.2 -3.3,-0.7 -2.6,-2.2 -2.2,-2.6 -0.8,-3.3 -0.2,-3.4 1.4,-3.1 1.9,-2.8 3,-1.6 3.2,-1.1 3.4,-0.6 3.7,1.4 4.1,5.5 4.1,6.8 3.9,10.9 3.6,12.6 3.3,17.1 3,18.2 1.8,21.7 1.1,22.7 -1.6,25 -2.9,25.3 -6.5,24.5 -7.1,23 -7.6,19.3 -7.3,17.9 -6.6,14 -6.2,12.4 -4.9,8 -4.5,6.5 -3,1.7 -2.8,0.7 -2.5,-1 -2.3,-1.2 -1.7,-2 -1.5,-2.2 -0.6,-2.6 -0.3,-2.6 0.7,-2.6 1,-2.5 1.8,-2 2,-1.7 2.5,-0.9 2.6,-0.6 2.6,0.3 2.6,0.3 Z"></path></g><g transform="translate(346.91 229.09) rotate(0 2.05 5.3)" stroke="none"><path fill="#1971c2" d="M 2.6,0 Q 2.6,0 2.7,0.9 2.7,5.3 2.4,6.8 1.7,10.8 2.2,11.9 2,10.8 2,9.2 2.2,3.1 1.7,1.8 0.8,-1.7 0.3,-2 -1,-2.9 -1.3,-3.4 -1.7,-5 -1.6,-5.5 -1.1,-7.1 -0.7,-7.5 0.7,-8.3 1.2,-8.4 2.9,-8.2 3.4,-8 4.6,-6.9 4.8,-6.4 5.1,-4.8 5,-4.2 4.2,-2.8 3.8,-2.4 2.3,-1.7 1.7,-1.7 0.1,-2 -0.3,-2.3 -1.4,-3.6 -1.5,-4.1 -1.7,-5.7 -1.5,-6.2 -0.6,-7.6 -0.1,-7.9 1.4,-8.5 2,-8.4 2.5,-8.4 4.9,-5.5 8.2,-0.5 8.5,1.3 9,7.7 9,9.7 8.1,14.6 7.5,15.6 3.7,18.9 1.8,18.8 -3.1,16.4 -3.7,15.4 -4.6,11.9 -4.5,10.8 -3.9,7.4 -3.4,6.1 -2.7,1.8 -2.7,0.9 -2.6,-0.6 -2.5,-0.9 -2,-1.8 -1.7,-2 -0.9,-2.5 -0.6,-2.6 0.3,-2.6 0.6,-2.6 1.5,-2.2 1.7,-2 2.4,-1.2 2.5,-0.9 2.6,0 2.6,0 Z"></path></g><g transform="translate(362.76 275.87) rotate(0 -0.09 7)" stroke="none"><path fill="#1971c2" d="M 1.8,1.9 Q 1.8,1.9 1.2,2.6 -0.5,5.4 -0.8,6.6 -0.7,10 -0.1,8.9 0.5,5.4 0.2,4.4 0.2,3.6 -0.4,3.5 -2,3 -2.4,2.6 -3.4,1.1 -3.5,0.6 -3.4,-1.1 -3.1,-1.6 -2,-3 -1.5,-3.2 0.2,-3.6 0.7,-3.5 2.3,-2.7 2.7,-2.3 3.5,-0.8 3.5,-0.2 3.2,1.5 2.9,2 1.7,3.1 1.1,3.3 -0.6,3.5 -1.1,3.4 -2.6,2.5 -2.9,2 -3.5,0.4 -3.5,-0.2 -3.1,-1.8 -2.7,-2.3 -1.3,-3.3 -0.8,-3.4 -0.2,-3.6 3.3,-1.3 7.6,4.1 7.7,5.5 7.7,9.4 7.7,10.7 6.7,14 5.8,14.9 2.2,17.3 0.9,17.4 -2.7,16.7 -3.9,15.8 -6.4,13.2 -6.9,12 -7.4,7.9 -7.1,6.6 -5.5,2.1 -4.3,0.6 -1.8,-1.9 -1.5,-2.1 -0.7,-2.5 -0.4,-2.6 0.6,-2.6 0.9,-2.5 1.7,-2 1.9,-1.8 2.5,-1 2.5,-0.7 2.6,0.3 2.6,0.6 2.2,1.4 2,1.7 1.8,1.9 1.8,1.9 Z"></path></g><g transform="translate(374.68 309.22) rotate(0 0.52 11.92)" stroke="none"><path fill="#1971c2" d="M 2.3,1.2 Q 2.3,1.2 1.4,2.8 -0.7,7.4 -0.8,8.8 -1,13 -1,14.1 -0.8,17.3 -0.3,18.4 0.5,17.4 0.8,15.8 1.3,11.9 1.3,10.8 1.5,6.6 1.5,5.5 0.5,2.1 0.2,1.6 -0.2,0 -0.1,-0.6 0.5,-2.1 0.9,-2.5 2.3,-3.4 2.9,-3.4 4.6,-3.2 5.1,-3 6.3,-1.8 6.5,-1.3 6.8,0.4 6.6,0.9 5.8,2.4 5.4,2.7 3.8,3.5 3.3,3.5 1.6,3.1 1.2,2.7 0.1,1.5 0,0.9 -0.1,-0.8 0.1,-1.3 1,-2.7 1.5,-3 3.1,-3.5 3.6,-3.4 5.2,-2.9 5.7,-2.5 6.1,-2.1 7.1,-0.1 8.5,4.5 8.4,5.7 8.3,9.8 8.2,11.1 7.9,15.2 7.6,16.8 7,21.9 6.6,23 4.1,26.4 2.6,26.8 -1.5,26.6 -2.5,25.9 -5.7,22.4 -6.1,21.3 -7.1,17.3 -7.1,16.2 -6.9,12.9 -6.8,11.1 -6.1,7 -5.5,5.5 -3.8,2.2 -3.1,0.5 -2,-1.7 -1.7,-1.9 -0.9,-2.4 -0.6,-2.5 0.3,-2.6 0.6,-2.5 1.5,-2.1 1.7,-1.9 2.3,-1.2 2.4,-0.9 2.6,0 2.6,0.3 2.3,1.2 2.3,1.2 Z"></path></g><g transform="translate(393.49 364.18) rotate(0 5 9.62)" stroke="none"><path fill="#1971c2" d="M 2.1,-1.5 Q 2.1,-1.5 2.7,-0.8 5.3,2.2 6.2,3.2 8.6,6.2 9.4,7.4 11.4,11 11.8,12.1 12.8,15.6 12.7,16.2 13.2,17.8 13.3,18.4 13.4,20 13.2,20.5 12.2,21.9 11.7,22.2 10.1,22.7 9.6,22.6 8,22.1 7.6,21.7 6.7,20.3 6.6,19.7 6.7,18.1 7,17.6 8.1,16.3 8.6,16.1 10.2,15.8 10.8,15.9 12.3,16.6 12.7,17.1 13.4,18.5 13.4,19.1 13.1,20.7 12.8,21.2 11.6,22.3 11.1,22.5 9.4,22.6 8.9,22.5 7.5,21.6 7.5,21.6 6.1,16.6 5.8,15.4 4.6,11.7 4,10.6 2.2,7.6 1.6,6.7 -1.1,3.1 -1.6,2.3 -2.4,1 -2.5,0.7 -2.6,-0.3 -2.5,-0.6 -2.2,-1.5 -2,-1.7 -1.3,-2.3 -1,-2.4 0,-2.6 0.3,-2.6 1.2,-2.3 1.4,-2.2 2.1,-1.5 2.1,-1.5 Z"></path></g><g transform="translate(391.92 358.69) rotate(0 -3.73 -5)" stroke="none"><path fill="#1971c2" d="M -2,1.6 Q -2,1.6 -2.6,0.8 -4.7,-1.5 -5.4,-2.4 -7.7,-5.4 -8.2,-6.2 -9.6,-7.6 -9.9,-8 -10.6,-9.4 -10.6,-9.9 -10.3,-11.4 -10,-11.8 -8.9,-12.8 -8.4,-13 -6.9,-13.1 -6.4,-12.9 -5.1,-12.1 -4.8,-11.7 -4.3,-10.3 -4.3,-9.8 -4.8,-8.3 -5.1,-7.9 -6.4,-7 -6.9,-6.9 -8.4,-7 -8.8,-7.2 -10,-8.2 -10.2,-8.6 -10.6,-10.1 -10.5,-10.6 -9.9,-12 -9.6,-12.3 -8.2,-13.1 -7.7,-13.1 -6.2,-12.9 -6.2,-12.9 -3,-9.5 -2.3,-8.3 -0.3,-4.9 0.3,-4 2,-1.6 2.2,-1.3 2.5,-0.4 2.5,-0.1 2.4,0.8 2.3,1.1 1.8,1.8 1.6,2 0.7,2.5 0.4,2.5 -0.5,2.5 -0.8,2.4 -1.6,2 -1.8,1.8 -2,1.6 -2,1.6 Z"></path></g><g transform="translate(352.47 378.9) rotate(0 33.07 -4.91)" stroke="none"><path fill="#1971c2" d="M -2.6,0 Q -2.6,0 -2.7,-1 -2.9,-4.3 -2.8,-6 -2.6,-10.1 -2.5,-11.4 -1.9,-15.3 -1.6,-16.4 0.1,-19.9 0.8,-20.7 3.4,-23.2 4.4,-24.1 7.6,-26.8 8.7,-27.6 12.4,-29.8 14,-30.8 17.8,-32.7 18.8,-33.2 21.9,-34.6 23.3,-35 26.9,-35.9 28.2,-36.3 33.4,-37.2 34.5,-37.3 37.9,-37.4 39.2,-37.4 43.3,-37.3 44.6,-37.3 48.4,-37.3 50.1,-37.2 53.9,-36.6 54.9,-36.2 57.9,-35 59,-34.4 62.2,-32.8 63.2,-32.1 65.9,-29.7 66.8,-28.5 69.2,-24.4 69.5,-23.1 69.9,-19 69.9,-17.5 69.9,-13.8 69.5,-12.1 68,-7.7 67.7,-6.7 66.4,-3.6 66,-2.6 64.2,0.8 63.6,2 61.6,5.9 60.8,7.1 58.5,10.4 57.6,11.4 55.2,14.3 54.4,15.2 52.1,17.9 51.1,18.8 47.7,21.3 46.6,21.9 43.5,23.4 42.4,23.9 38,25.5 36.6,26 32.6,27.1 31.3,27.4 27.6,27.8 26.4,27.8 22.6,27.3 21.4,27 17.1,24.9 16.6,24.5 15.5,23.1 15.3,22.5 15.3,20.6 15.6,20.1 16.6,18.6 17.2,18.3 18.9,17.7 19.6,17.8 21.3,18.5 21.7,18.9 22.7,20.5 22.8,21.1 22.6,22.9 22.3,23.5 21.1,24.8 20.5,25.1 18.7,25.4 18.1,25.3 16.4,24.4 16.1,23.9 15.2,22.3 15.2,21.7 15.6,19.9 16,19.4 17.3,18.1 17.9,17.9 19.8,17.8 20.4,18 20.9,18.2 22,18.9 25.5,20.1 26.7,20.1 30.3,19.8 31.4,19.6 34.5,18.7 35.7,18.3 39,17.2 39.9,16.7 43.2,15.3 44.2,14.6 47,12.4 47.8,11.6 50.1,8.8 51.2,7.5 53.9,3.8 54.7,2.5 56.5,-0.7 57.1,-1.8 58.7,-4.9 59.2,-6 60.8,-9.8 61.3,-10.8 62.4,-14.4 62.4,-15.7 62.4,-19.5 62.3,-20.9 60.7,-24.3 59.9,-25.1 57.1,-27.1 56.1,-27.7 53.2,-29.1 52,-29.5 48.4,-30.2 47.2,-30.2 43.4,-30.2 41.9,-30.2 36.2,-30.1 34.7,-30 31,-29.4 29.9,-29.1 26.7,-28.4 25.6,-28 22.3,-26.7 21.3,-26.2 17.8,-24.8 16.5,-24 13.3,-22.1 12.3,-21.4 9.4,-19.1 8.6,-18.5 5.7,-16 5.2,-15.1 3.9,-12 3.8,-10.9 3.2,-6.9 3,-5.6 2.7,-2 2.7,-1 2.6,0.6 2.5,0.9 2,1.8 1.7,2 0.9,2.5 0.6,2.5 -0.3,2.6 -0.6,2.5 -1.5,2.2 -1.7,2 -2.3,1.2 -2.5,0.9 -2.6,0 -2.6,0 Z"></path></g><g transform="translate(373.86 381.65) rotate(0 3.24 -5.59)" stroke="none"><path fill="#1971c2" d="M -2.1,1.6 Q -2.1,1.6 -2.7,0.9 -5.1,-2.3 -5.8,-3.8 -7.3,-7.4 -7.5,-8.7 -7.8,-12.7 -7.8,-14.1 -6.3,-18 -5.3,-18.6 -2.3,-20.8 -1,-21.4 2.3,-22.4 4,-22.2 7.6,-20.7 8.6,-19.9 11.1,-16.7 11.6,-15.7 13.2,-12.2 13.6,-11.1 14.4,-6.3 14.6,-5.1 14.7,-1.6 14.6,-0.4 13.7,3.1 13.1,4.3 11,7.9 9.7,8.9 6.6,11.1 5.4,11.3 1.7,10.9 0.4,9.9 -2,7 -2.6,6 -4.5,2.8 -5.1,1.5 -6.7,-2.4 -7,-4 -8.1,-11.7 -8,-12.3 -7.3,-14 -6.9,-14.4 -5.4,-15.4 -4.8,-15.5 -3,-15.3 -2.4,-15 -1.1,-13.8 -0.9,-13.2 -0.6,-11.4 -0.7,-10.8 -1.5,-9.2 -2,-8.8 -3.6,-8.1 -4.3,-8 -6,-8.4 -6.5,-8.8 -7.7,-10.1 -7.9,-10.7 -8,-12.5 -7.8,-13.1 -6.8,-14.6 -6.3,-14.9 -4.6,-15.6 -4,-15.5 -2.2,-14.9 -1.8,-14.5 -0.7,-13 -0.6,-12.4 -0.5,-11.8 -0.2,-9.7 0.5,-5.2 1,-3.9 2.5,-0.2 3,0.7 5.1,3.2 5.8,2.1 7.2,-1 7.2,-2.2 7,-5.7 6.8,-6.7 6,-10.3 5.3,-11.9 3,-15.2 2,-15.1 -1.1,-13.4 -1.2,-12.2 -1,-8.3 -0.6,-6.9 1,-3.1 1.5,-2.4 2.4,-1.1 2.5,-0.8 2.6,0.2 2.6,0.5 2.2,1.4 2,1.6 1.3,2.3 1,2.4 0.1,2.6 -0.2,2.6 -1.1,2.4 -1.4,2.2 -2.1,1.6 -2.1,1.6 Z"></path></g><g transform="translate(354.43 381.84) rotate(0 -14.43 40.23)" stroke="none"><path fill="#1971c2" d="M 2.2,-1.3 Q 2.2,-1.3 2.7,-0.6 4.7,2.2 5.2,3.2 6.5,6.7 6.8,8.1 7.5,11.7 7.6,12.8 7.8,16.9 7.7,18.3 6.5,22.6 5.9,23.6 4,26.7 3.2,27.7 0.5,30.4 -0.3,31.1 -2.8,33.2 -3.7,34 -6.2,36.2 -7,37.1 -10.1,39.9 -10.8,40.7 -13.2,43 -14.2,43.8 -16.9,46.5 -17.7,47.5 -20.6,50.1 -21.4,51 -23.8,53.8 -24.4,54.7 -26.8,58.2 -27.3,59.2 -28.6,63 -28.9,64.3 -29.4,68.3 -29.4,69.6 -29.4,73.2 -29.4,74.3 -30.2,77.9 -29.9,78.4 -29.2,80.1 -29.2,80.7 -29.8,82.5 -30.2,82.9 -31.6,84 -32.2,84.1 -34,84.1 -34.6,83.8 -36,82.7 -36.3,82.2 -36.7,80.4 -36.6,79.8 -35.9,78.1 -35.5,77.7 -33.9,76.8 -33.3,76.8 -31.5,77 -31,77.3 -29.7,78.6 -29.5,79.1 -29.2,80.9 -29.4,81.5 -30.3,83.1 -30.8,83.5 -32.4,84.2 -33,84.2 -34.8,83.8 -35.3,83.4 -35.8,83 -36.4,80 -36.9,74.5 -36.9,73.2 -36.9,69.5 -36.9,68.1 -36.4,63.5 -36.1,62.2 -34.9,58 -34.4,56.9 -32.3,53.1 -31.6,52 -29.7,49.3 -28.8,48.2 -25.7,44.8 -24.5,43.7 -21.1,40.1 -20.2,39.3 -17.6,37.1 -16.7,36.2 -13.9,33.5 -12.8,32.4 -9.7,29.4 -8.9,28.6 -6.3,26.6 -5.4,25.8 -2.5,23.2 -1.8,22.3 0.2,19 0.5,18 0.9,14.5 0.9,13.4 0.7,9.7 0.5,8.5 -0.2,5.2 -0.8,4 -2.2,1.3 -2.3,1.1 -2.5,0.2 -2.5,-0.1 -2.3,-1 -2.2,-1.3 -1.6,-2 -1.3,-2.2 -0.5,-2.5 -0.2,-2.5 0.7,-2.5 1,-2.3 1.8,-1.8 2,-1.6 2.2,-1.3 2.2,-1.3 Z"></path></g><g transform="translate(321.46 462.31) rotate(0 10.79 62.9)" stroke="none"><path fill="#1971c2" d="M 2.6,0 Q 2.6,0 2.7,0.9 3,5.1 3,6.5 3.1,10.6 3.1,12.4 3.2,17.6 3.2,18.8 3.3,23.1 3.3,24.7 3.4,29.2 3.4,30.5 3.4,35.9 3.5,37.2 4.1,42.5 4.3,43.9 4.9,47.5 5.2,49.1 6.2,53.8 6.5,54.9 7.2,58.8 7.4,59.9 8,64.5 8.1,66 9,70.9 9.3,72.5 10,76.7 10.2,78.1 10.7,82.2 10.9,83.4 11.5,86.7 11.7,87.9 12.6,92.4 12.9,93.9 13.9,98.4 14.4,100 15.7,103.5 16.1,104.6 17.2,108.3 17.4,109.3 18.3,113 18.4,114.5 18.9,118.2 19.2,119.4 20.5,122.8 21.1,122.6 22.7,122.6 23.2,122.8 24.4,123.9 24.6,124.4 25,126 24.9,126.5 24.2,128 23.8,128.4 22.3,129.1 21.8,129.2 20.1,128.9 19.7,128.6 18.6,127.4 18.4,126.9 18.2,125.2 18.4,124.7 19.2,123.3 19.7,123 21.2,122.4 21.8,122.4 23.4,122.9 23.8,123.2 24.8,124.5 24.9,125.1 24.9,126.7 24.6,127.2 23.6,128.5 23.1,128.8 21.6,129.2 21.6,129.2 15.1,126.7 14.5,125.6 12.6,120.8 12.3,119 11.2,114.3 10.9,113.2 10.1,109.5 9.8,108.4 8.5,104.8 8,103.2 6.8,98.9 6.5,97.6 5.8,93.6 5.5,91.8 4.7,87.9 4.5,86.7 4,83.1 3.9,81.8 3.4,77.8 3.2,76.5 2.5,72.3 2.2,71.2 1.4,66.9 1.2,65.3 0.6,61 0.4,59.7 -0.4,55.5 -0.6,54.3 -1.3,50.4 -1.6,48.9 -2.2,44.8 -2.4,43.1 -2.9,38.9 -2.9,37.4 -3,31.8 -3,30.5 -2.9,26.3 -2.9,24.7 -2.8,20 -2.8,18.8 -2.8,14.2 -2.8,12.4 -2.6,8 -2.6,6.6 -2.7,1.8 -2.7,0.9 -2.6,-0.6 -2.5,-0.9 -2,-1.8 -1.7,-2 -0.9,-2.5 -0.6,-2.5 0.3,-2.6 0.6,-2.5 1.5,-2.2 1.7,-2 2.3,-1.2 2.5,-0.9 2.6,0 2.6,0 Z"></path></g><g transform="translate(356.1 469.49) rotate(0 9.77 -12.4)" stroke="none"><path fill="#1971c2" d="M -2.6,0.1 Q -2.6,0.1 -2.7,-1.2 -2.5,-7.1 -2.1,-8.9 -0.6,-13.3 -0.2,-14.5 1.4,-18.4 2.1,-19.7 3.8,-24 4.6,-25.2 9.8,-27.6 10.9,-26.5 13.4,-22.8 14.3,-21.4 16.1,-17.7 16.7,-16.1 18.8,-12 19.5,-10.3 20.9,-6.4 21.4,-5.1 23.1,-0.4 23.2,0.1 22.9,1.8 22.6,2.3 21.4,3.5 20.9,3.7 19.2,3.9 18.6,3.8 17.1,2.9 16.8,2.4 16.1,0.9 16.2,0.3 16.6,-1.4 17,-1.8 18.3,-2.9 18.9,-3 20.6,-3 21.1,-2.8 22.5,-1.8 22.7,-1.3 23.2,0.3 23.1,0.9 22.5,2.5 22.1,2.9 20.7,3.8 20.1,3.9 18.4,3.7 17.9,3.5 16.7,2.3 16.4,1.8 16.2,1.2 15.4,-0.9 14.1,-5.2 13.6,-6.4 12.2,-9.5 11.6,-10.6 9.6,-15 9,-16.2 7.4,-19.4 6.8,-20.4 5.4,-24 6.3,-23.2 10.8,-22.6 10.2,-21.7 8.4,-18.3 7.8,-17 5.9,-13.1 5.3,-12 3.7,-8.7 3.3,-7.5 2.6,-2.6 2.6,-1.4 2.6,0.6 2.5,0.8 2,1.7 1.8,1.9 1,2.5 0.7,2.5 -0.2,2.6 -0.6,2.6 -1.4,2.2 -1.7,2 -2.3,1.3 -2.4,1 -2.6,0.1 -2.6,0.1 Z"></path></g><g transform="translate(375.78 469.9) rotate(0 10.32 8.59)" stroke="none"><path fill="#1971c2" d="M 0.1,-2.6 Q 0.1,-2.6 0.8,-2.6 3.7,-2.3 5.3,-2 9.5,-1 10.9,-0.5 14.9,0.9 16,1.3 19.3,2.4 20.6,2.7 24,9.4 23,10 19,11.3 17.6,11.9 13.8,13.1 12.6,13.5 8.9,15.1 7.8,15.8 4.8,17.8 2.6,19.1 -0.8,20.8 -1.4,20.7 -3,20.3 -3.5,19.9 -4.5,18.6 -4.7,18 -4.7,16.3 -4.5,15.8 -3.5,14.4 -3,14.1 -1.3,13.6 -0.8,13.7 0.9,14.3 1.3,14.7 2.2,16.1 2.3,16.7 2.1,18.4 1.8,18.9 0.7,20.2 0.1,20.4 -1.6,20.8 -2.1,20.6 -3.6,19.9 -4,19.4 -4.8,17.9 -4.8,17.3 -4.5,15.6 -4.1,15.1 -2.8,13.9 -2.8,13.9 1.6,11.3 2.5,10.8 5.7,8.8 6.9,8.2 10.3,6.8 11.5,6.5 14.9,5.3 15.9,4.9 19.6,4.6 19.6,7.1 17.1,8.8 15.8,8.3 11.8,6.8 10.4,6.2 6.1,4.4 4.7,4 1.2,2.8 0.5,2.7 -0.8,2.5 -1.1,2.4 -1.9,1.9 -2.1,1.6 -2.5,0.8 -2.6,0.5 -2.6,-0.5 -2.5,-0.8 -2.1,-1.6 -1.9,-1.9 -1.1,-2.4 -0.8,-2.5 0.1,-2.6 0.1,-2.6 Z"></path></g><g transform="translate(374.53 487.09) rotate(0 -15.11 4.23)" stroke="none"><path fill="#1971c2" d="M 2.3,-1.3 Q 2.3,-1.3 2.9,-0.3 5.3,3.6 5.9,4.6 8.3,8.5 9,9.7 10.9,12.7 11.5,13.8 13.3,17.1 14,18.1 14.2,23.9 12.3,24.4 8.5,23.9 7.3,23 4.3,20.6 3,19.7 -0.9,16.7 -1.9,15.8 -5.1,12.9 -6.2,11.9 -9.2,9.1 -10,8.1 -7.4,6.1 -8.4,7.2 -11.2,10.2 -12,11.1 -14.4,14.1 -15,15 -17.4,18.1 -18.1,19.1 -20.7,22.6 -21.4,23.5 -24.1,26.6 -24.9,27.6 -28.4,29.6 -30.2,28.8 -32.3,24.8 -32,23.6 -31,19.9 -30.4,18.4 -28.6,13.6 -28.2,12.3 -26.6,8.1 -26.2,6.9 -25.1,2.2 -24.9,0.9 -24.4,-2.8 -24.2,-4.3 -22.2,-3 -24,-3.7 -27.7,-5.6 -28.6,-6.3 -32.8,-9.2 -33.8,-9.7 -38.2,-12.1 -39.3,-12.7 -42.5,-14.4 -43.8,-16.7 -43.5,-20.9 -42.3,-21.2 -38.6,-21.6 -37.1,-21.6 -33.3,-21.5 -32.1,-21.4 -26.4,-21.1 -24.8,-20.9 -20.5,-20.5 -19.4,-20.4 -13.3,-19.5 -12.8,-19.3 -11.5,-18.3 -11.3,-17.8 -10.9,-16.2 -11,-15.7 -11.7,-14.2 -12.1,-13.9 -13.5,-13.1 -14,-13.1 -15.6,-13.3 -16.1,-13.6 -17.2,-14.7 -17.4,-15.2 -17.6,-16.8 -17.4,-17.4 -16.6,-18.7 -16.2,-19 -14.7,-19.7 -14.2,-19.6 -12.6,-19.2 -12.2,-18.9 -11.2,-17.6 -11.1,-17.1 -11,-15.5 -11.3,-15 -12.2,-13.7 -12.7,-13.5 -14.2,-13 -14.8,-13.1 -15.3,-13.2 -17,-13.5 -21,-14 -22.4,-14.2 -26.9,-14.7 -28.9,-14.8 -33.3,-14.8 -34.4,-14.8 -38.6,-14.7 -40,-14.7 -39.4,-16.5 -39.5,-18.4 -37.5,-19 -36.3,-18.4 -33,-16.8 -31.8,-16.1 -27.7,-13.5 -25.9,-12.4 -20.6,-9.4 -19.5,-8.8 -17.5,-5.5 -17.7,-4.4 -18.3,-0.4 -18.6,0.8 -19.5,5.2 -19.7,6.3 -20.6,9.9 -21.3,12.3 -22.9,17.2 -23.2,18.2 -24.2,21.8 -24.8,23.7 -27.1,23.6 -28.6,23.2 -28.4,21 -27.4,19.7 -24.8,16.2 -23.9,14.9 -20.8,10.8 -19.9,9.5 -17.5,6.5 -16.6,5.4 -13.5,2.5 -12.6,1.6 -9.1,0.2 -7.4,1.1 -4.3,4 -3.4,4.8 -0.3,7.6 0.5,8.3 2.8,10.6 3.6,11.3 6.9,13.8 8.2,14.7 11.3,17.1 12.2,17.8 10.1,19.6 9.7,21.5 8.1,21.6 7.6,20.5 5.8,16.8 5.1,15.5 2.5,10.6 1.9,9.5 0.4,6.4 -0.3,4.9 -2.3,1.3 -2.4,1 -2.6,0.1 -2.6,-0.2 -2.4,-1.1 -2.2,-1.4 -1.6,-2.1 -1.3,-2.3 -0.4,-2.6 -0.1,-2.6 0.8,-2.5 1.1,-2.4 1.9,-1.8 2.1,-1.6 2.3,-1.3 2.3,-1.3 Z"></path></g><g transform="translate(410.84 345.94) rotate(0 4.08 36.88)" stroke="none"><path fill="#1971c2" d="M 0,-2.6 Q 0,-2.6 1,-2.6 5.3,-2 7.1,-0.7 10.9,2.6 11.8,3.4 14.5,6.2 15.3,7.4 17.9,11.4 18.6,12.6 20.5,15.7 21,16.9 22.9,21.3 23.5,23 24.9,27.2 25.3,28.7 26.3,32.3 26.6,33.6 27.1,37.1 27.1,38.6 27.2,42.5 27.2,44.3 27.3,48.5 27.4,49.6 27.4,53.6 27.3,54.8 27,58.5 26.7,60.6 25.8,66.1 25.4,67.6 24.3,71.9 23.9,73 21.3,76.2 20.1,76.6 16.3,77.2 15,77.2 11.5,76.8 10.2,76.5 6.5,75.6 5.2,75 1.1,73.2 -0.6,72.1 -4.9,69.3 -5.8,68.7 -9.6,66.3 -10.8,65.6 -14.7,62.9 -16.5,61.3 -18.9,58.8 -19.1,58.2 -19.4,56.6 -19.2,56.1 -18.4,54.6 -17.9,54.3 -16.4,53.6 -15.8,53.7 -14.2,54.1 -13.8,54.4 -12.8,55.7 -12.6,56.3 -12.6,57.9 -12.8,58.4 -13.8,59.8 -14.3,60 -15.8,60.5 -16.4,60.5 -18,59.9 -18.4,59.5 -19.2,58.1 -19.3,57.5 -19.2,55.9 -18.9,55.4 -17.8,54.2 -17.3,53.9 -15.6,53.6 -15.1,53.8 -13.6,54.5 -13.6,54.5 -10.3,57.6 -9.4,58.3 -5.9,60.5 -4.4,61.4 -0.1,64.3 1.5,65.2 5.3,67.3 6.5,67.9 9.7,69.2 11.2,69.5 15.4,70.3 16.8,70.1 18.8,67.6 19.2,66.2 20.1,61.8 20.4,59.9 20.8,53.6 20.8,52.2 20.8,48.5 20.9,47.4 20.8,42.9 20.7,41.7 20.2,36.7 20.1,35.5 19.1,31.4 18.9,30.3 18,26.8 17.4,25.2 15.5,20.7 15,19.3 13.2,15.8 12.5,14.5 10.1,10.2 9.4,9.3 6.8,6.6 5.4,5.2 2,2.7 1,2.6 -0.6,2.5 -0.9,2.4 -1.7,1.9 -1.9,1.7 -2.4,0.9 -2.5,0.6 -2.6,-0.3 -2.5,-0.6 -2.1,-1.5 -1.9,-1.7 -1.2,-2.3 -0.9,-2.4 0,-2.6 0,-2.6 Z"></path></g><g transform="translate(392.49 403.02) rotate(0 32.06 27.24)" stroke="none"><path fill="#1971c2" d="M 1.2,-2.4 Q 1.2,-2.4 2,-2 5.6,-0.2 6.7,0.4 11.5,3.3 13,4.2 17.1,7 18.3,7.7 22.7,10.3 24.3,11.1 29,13.9 30.2,14.6 34.6,17.3 35.8,18 39.5,20.5 40.5,21.1 44.1,24.2 45.1,25.2 47.7,27.9 48.7,29 51.5,32 52.6,33.1 55.1,35.8 55.8,36.8 57.8,39.4 58.5,40.4 61.1,43.6 61.9,44.9 64.2,48.2 65.8,50.8 67.7,54.5 67.5,55.1 66.9,56.7 66.5,57 65,57.9 64.5,58 62.8,57.7 62.3,57.4 61.1,56.3 60.9,55.7 60.6,54 60.8,53.5 61.6,52 62,51.7 63.6,51 64.2,51 65.8,51.4 66.3,51.7 67.3,53 67.5,53.6 67.5,55.3 67.3,55.8 66.4,57.2 65.9,57.5 64.3,58 63.7,57.9 62.1,57.4 61.7,57 60.8,55.6 60.8,55.6 59.2,53.2 58.3,52 56.1,48.6 55.3,47.5 52.5,43.7 51.7,42.9 49.5,40 48.6,39 46.2,36.6 45.3,35.6 42.7,32.4 41.7,31.2 38.3,27.9 37.4,27.2 34.4,24.9 33.3,24.1 29.9,21.8 28.4,20.9 24.3,18.4 22.6,17.4 18.2,14.8 16.6,13.9 12.3,11.1 11,10.1 6.8,7.1 5.9,6.5 2.9,4.7 1.7,4 -1.2,2.4 -1.4,2.2 -2.1,1.5 -2.3,1.3 -2.6,0.4 -2.6,0.1 -2.5,-0.9 -2.3,-1.2 -1.8,-1.9 -1.5,-2.1 -0.7,-2.5 -0.4,-2.6 0.6,-2.6 0.9,-2.5 1.2,-2.4 1.2,-2.4 Z"></path></g><g transform="translate(456.62 457.51) rotate(0 2.13 54.49)" stroke="none"><path fill="#1971c2" d="M 2.5,-0.8 Q 2.5,-0.8 2.8,-0.1 3.8,2.8 4.2,3.9 5.1,7 5.4,8.1 6.3,12.6 6.5,13.8 6.9,18.8 7,20.6 7.2,26 7.3,28 7.5,33.7 7.5,35.3 7.4,39.6 7.2,41.7 6.9,46.6 7,48.4 7.2,52.6 7.2,53.8 7.4,57.9 7.4,60 7.4,65.7 7.4,67.1 7.4,72.9 7.4,74.5 7.5,78.3 7.4,80.6 7.3,85.9 7.2,87 6.7,92.7 6.7,93.9 6.6,98.4 6.6,99.9 6.4,104.2 6.4,106.6 6.2,110 6,110.5 5,111.7 4.5,111.9 3,112.2 2.5,112.1 1,111.5 0.7,111.1 0,109.7 -0.1,109.1 0.2,107.6 0.5,107.2 1.6,106.1 2.1,105.9 3.7,105.8 4.2,105.9 5.5,106.7 5.8,107.2 6.4,108.6 6.4,109.2 5.9,110.7 5.6,111.1 4.3,112 3.8,112.1 2.3,112.1 1.8,111.9 0.6,111 0.3,110.5 -0.1,109 -0.1,109 0,103.9 0.1,102.4 0.4,98.4 0.5,96.6 0.5,92.4 0.5,90.9 0.9,85.8 1,84.2 1,78.3 1.1,77.2 1.2,72.9 1.1,70.7 1.1,65.7 1.1,64 1.1,57.9 1.2,56.4 1.3,52.6 1.4,51.4 1.6,46.6 1.6,45.2 1.1,39.6 1.1,38.3 1.1,33.7 1,31.9 0.7,26.4 0.6,24.6 0.3,19.2 0.2,18.2 0,14.5 -0.2,13.1 -0.8,9.3 -1,8 -1.7,4.4 -1.9,3.3 -2.5,0.8 -2.6,0.5 -2.6,-0.5 -2.5,-0.8 -2.1,-1.6 -1.9,-1.9 -1.1,-2.4 -0.8,-2.5 0.2,-2.6 0.5,-2.6 1.4,-2.2 1.6,-2.1 2.3,-1.4 2.4,-1.1 2.5,-0.8 2.5,-0.8 Z"></path></g><g transform="translate(460.33 469.55) rotate(0 -1.76 -5.56)" stroke="none"><path fill="#1971c2" d="M -2.6,0.1 Q -2.6,0.1 -2.7,-0.9 -3.4,-4.8 -3.9,-6 -5.7,-9.1 -5.9,-9.4 -6.4,-10.4 -6.4,-10.8 -6.3,-11.9 -6.2,-12.3 -5.6,-13.2 -5.3,-13.5 -4.4,-14.1 -4,-14.1 -2.9,-14.2 -2.5,-14.1 -1.5,-13.7 -1.2,-13.4 -4.2,-14.1 -3.7,-14.2 -2.2,-14 -1.8,-13.8 -0.7,-12.8 -0.5,-12.3 -0.2,-10.8 -0.4,-10.3 -1,-9 -1.4,-8.7 -2.8,-8.1 -3.3,-8 -4.8,-8.3 -5.2,-8.6 -6.1,-9.8 -6.3,-10.2 -6.4,-11.7 -6.2,-12.2 -5.4,-13.5 -5,-13.7 -3.5,-14.2 -3,-14.2 -1.6,-13.7 -1.2,-13.4 -0.4,-12.2 -0.3,-11.7 -0.4,-10.2 -0.6,-9.7 -1.6,-8.6 -3.6,-8.8 -6.1,-9.7 -6.2,-10.1 -6.4,-11.2 -6.4,-11.5 -6.1,-12.6 -5.8,-12.9 -5,-13.7 -4.7,-13.9 -3.6,-14.2 -3.3,-14.2 -2.2,-14 -1.9,-13.8 -1,-13.1 0,-11.4 1.9,-7.2 2.1,-6 2.5,-2.3 2.6,-1.2 2.5,0.5 2.5,0.8 2,1.6 1.8,1.8 1,2.4 0.7,2.5 -0.2,2.6 -0.5,2.5 -1.4,2.2 -1.6,2 -2.2,1.3 -2.4,1 -2.6,0.1 -2.6,0.1 Z"></path></g><g transform="translate(408.99 451.76) rotate(0 1.39 56.06)" stroke="none"><path fill="#1971c2" d="M 2.2,0 Q 2.2,0 2.2,2.7 2.1,9.2 2.2,10.5 2.5,15.3 2.5,16.9 2.6,21.1 2.5,23.1 2.4,27.9 2.5,29.1 2.6,32.5 2.6,33.5 2.6,38.5 2.4,40.7 1.9,46.5 1.8,47.8 1.3,53.4 1.2,54.5 0.7,59.6 0.4,61.9 0,67.7 -0.2,69.2 -0.7,73 -0.7,74.7 -0.9,80.6 -1.1,82.2 -1.2,86.3 -1.2,88.3 -1.1,93.3 -0.9,94.7 -0.1,98.5 0.4,99.6 2.3,102.5 3.4,103.7 9.2,109.9 9.5,110.3 10.1,111.8 10.1,112.3 9.6,113.8 9.3,114.2 8.1,115.1 7.5,115.2 6,115.2 5.5,115 4.3,114.1 4,113.6 3.6,112.1 3.7,111.6 4.3,110.2 4.7,109.8 6,109 6.5,108.9 8.1,109.1 8.5,109.4 9.6,110.5 9.8,110.9 10.1,112.5 9.9,113 9.2,114.4 8.8,114.7 7.4,115.3 6.8,115.3 5.3,115 4.9,114.7 4.5,114.3 2.7,112.5 -1.2,108.4 -2,107.4 -4.8,103.5 -5.5,101.9 -6.9,97 -7,95.1 -7,90.3 -6.9,88.3 -6.9,83.8 -7,82 -7,77.9 -6.9,76.1 -6.7,72.2 -6.6,71.1 -6,67.1 -5.8,65.4 -5.2,59 -5,57 -4.6,52.8 -4.4,50.8 -3.8,45.7 -3.5,44 -3,39.9 -2.8,38.1 -2.2,32.5 -2.2,31.4 -2.1,27.9 -2,26.4 -2.2,21.1 -2.2,19.8 -2.2,15.3 -2,13.6 -1.8,9.2 -1.8,7.4 -2.2,0 -2.2,-0.2 -2,-1 -1.9,-1.2 -1.3,-1.8 -1.1,-1.9 -0.3,-2.2 0,-2.2 0.8,-2.1 1,-2 1.6,-1.5 1.8,-1.3 2.2,-0.6 2.2,-0.3 2.2,0 2.2,0 Z"></path></g></svg>
