<svg version="1.1" xmlns="http://www.w3.org/2000/svg" viewBox="0 0 1207.2764379716289 333.0444779795549" width="2414.5528759432577" height="666.0889559591099"><defs><style class="style-fonts"></style></defs><g transform="translate(45.33 32.21) rotate(0 -5.25 80.21)" stroke="none"><path fill="#1e1e1e" d="M 4.9,0 Q 4.9,0 5,2 5.4,9.4 5.5,12.6 5,23.1 4.8,26.4 4.7,34.3 4.8,38.2 5.1,50 4.9,52.9 4.5,63.9 4.3,67.8 4,79.8 3.8,81.9 3.3,92 3.1,95 2.1,105.4 2.1,108.1 2.1,115.7 2,118.3 1.5,126.8 1.3,129.1 0.7,136.3 0.5,138.7 -0.2,145.8 -0.9,149.3 -3.5,157.2 -3.9,160.7 -5.8,166 -6.8,166.6 -10.1,167.7 -11.3,167.6 -14.6,166.5 -15.5,165.7 -17.4,162.7 -17.6,161.6 -17.4,158.1 -16.9,157 -14.6,154.3 -13.5,153.8 -10.1,153.1 -8.9,153.4 -5.8,154.8 -5,155.8 -3.4,158.9 -3.3,160 -3.9,163.5 -4.5,164.5 -7.1,166.9 -8.2,167.3 -11.7,167.6 -12.8,167.2 -15.8,165.4 -16.5,164.4 -17.8,161.2 -17.7,160 -16.8,156.6 -16.8,156.6 -16.7,155.4 -15.9,152.8 -14.1,145.2 -13.8,142.9 -12.7,134.7 -12.5,132.6 -11.6,125.3 -11.4,122.9 -10.7,115.6 -10.6,113 -10.1,104.2 -9.7,100.7 -8.5,91.1 -8.4,88.9 -7.7,79.6 -7.5,75.3 -7.1,66.5 -6.8,63.1 -6.2,55.3 -6.2,52.7 -5.9,42.1 -5.7,38.1 -5.4,29.4 -5.5,26.1 -5.6,15.8 -5.5,12.6 -5.1,4.1 -5,2 -4.8,-1.2 -4.6,-1.7 -3.7,-3.3 -3.2,-3.7 -1.8,-4.6 -1.2,-4.8 0.6,-4.9 1.2,-4.8 2.8,-4.1 3.2,-3.7 4.4,-2.3 4.6,-1.7 4.9,0 4.9,0 Z"></path></g><g transform="translate(10 193.59) rotate(0 21.72 1.19)" stroke="none"><path fill="#1e1e1e" d="M 0,-5.3 Q 0,-5.3 2.5,-5.3 11,-5.7 13.6,-5.8 22,-5.8 24.6,-5.6 33,-4.8 35.1,-4.5 43.5,-4.3 44.5,-4.1 47.5,-2.9 48.3,-2.1 49.9,0.6 50,1.7 49.7,4.9 49.1,5.8 46.9,8.1 45.9,8.5 42.7,9.1 41.6,8.8 38.8,7.2 38.2,6.4 36.8,3.5 36.8,2.4 37.5,-0.8 38.2,-1.6 40.6,-3.7 41.7,-4 44.9,-4.2 45.9,-3.8 48.6,-1.9 49.1,-1 50.1,2 50,3.1 49,6.2 48.2,7 45.6,8.8 44.5,8.9 43.4,9.1 41,9 33,8.1 30.6,7.6 23.6,6.5 19.9,6.2 11,5.7 8,5.5 0,5.3 -0.6,5.3 -2.5,4.7 -3,4.4 -4.4,3 -4.7,2.5 -5.3,0.6 -5.3,0 -5,-1.9 -4.7,-2.5 -3.5,-4 -3,-4.4 -1.3,-5.2 -0.6,-5.3 0,-5.3 0,-5.3 Z"></path></g><g transform="translate(29.58 28.87) rotate(0 13.61 0)" stroke="none"><path fill="#1e1e1e" d="M 0,-5.2 Q 0,-5.2 2.6,-5.2 11.4,-5.5 13.8,-5.7 21,-6.1 24.1,-6.2 29.2,-5.9 30.1,-5.5 32.4,-3.5 32.8,-2.6 33.5,0.3 33.3,1.3 32,4.1 31.2,4.7 28.6,6.1 27.5,6.2 24.6,5.7 23.7,5.1 21.7,2.9 21.3,2 21,-1 21.3,-2 22.9,-4.5 23.7,-5.1 26.5,-6.2 27.6,-6.2 30.4,-5.4 31.2,-4.7 33,-2.3 33.3,-1.3 33.3,1.7 32.8,2.6 31,5 30.1,5.5 27.2,6.3 27.2,6.3 21,6.1 18.6,6 11.4,5.5 8.3,5.4 0,5.2 -0.6,5.2 -2.4,4.6 -3,4.3 -4.3,3 -4.6,2.4 -5.2,0.6 -5.2,0 -4.9,-1.9 -4.6,-2.4 -3.5,-3.9 -2.9,-4.3 -1.2,-5.1 -0.6,-5.2 0,-5.2 0,-5.2 Z"></path></g><g transform="translate(46.92 100.61) rotate(0 52.35 1.86)" stroke="none"><path fill="#1e1e1e" d="M 0,-5.2 Q 0,-5.2 3.2,-5.2 10.9,-5.2 13.8,-5.3 24.6,-5.7 27.6,-5.8 38,-5.8 42.7,-5.5 52.3,-4.9 54.8,-4.8 61.7,-4.5 64,-4.4 73,-4.3 75.8,-4.1 84,-3.6 86.2,-3.7 93.9,-3.6 96.2,-3.5 104.8,-3 105.8,-2.8 108.8,-1.6 109.6,-0.8 111.2,2 111.3,3.1 110.9,6.3 110.3,7.2 108.1,9.5 107.1,9.9 103.9,10.4 102.8,10.1 100,8.6 99.3,7.7 98,4.7 98,3.6 98.8,0.5 99.5,-0.3 101.9,-2.4 103,-2.7 106.2,-2.8 107.2,-2.4 109.9,-0.6 110.4,0.4 111.4,3.4 111.3,4.5 110.2,7.6 109.5,8.3 106.8,10.1 105.7,10.3 104.6,10.4 102.6,10.4 95.4,9.5 93,9.3 86.1,9 83.1,8.8 74.6,7.9 72.1,7.7 61.4,7 58.9,6.9 51.8,6.6 49.5,6.5 37.4,6.2 34,6 24.6,5.7 20.7,5.6 10.9,5.2 8.7,5.1 0,5.2 -0.6,5.2 -2.4,4.7 -3,4.3 -4.3,3 -4.6,2.4 -5.2,0.6 -5.2,0 -4.9,-1.9 -4.6,-2.4 -3.5,-3.9 -3,-4.3 -1.2,-5.1 -0.6,-5.2 0,-5.2 0,-5.2 Z"></path></g><g transform="translate(151.28 24.72) rotate(0 -8.3 84.87)" stroke="none"><path fill="#1e1e1e" d="M 4.7,0.1 Q 4.7,0.1 4.6,3.5 3.6,14 3.2,17.4 2.4,26.9 2.3,29.1 2.3,39.8 2.3,42.2 1.4,51.1 1.1,53.7 0.2,60.8 -0.5,65.2 -1.8,73.9 -2.2,76.2 -3.5,83.8 -4,86.8 -5.8,96.3 -6.6,101.4 -8,113.7 -8,116.3 -7.6,123.6 -7.8,127.9 -8.5,137.1 -9,141 -10.2,150.9 -10.3,153.5 -10.2,160.8 -10.1,163.1 -9.9,169.7 -10.1,170.8 -11.3,173.8 -12.1,174.5 -14.8,176.2 -15.9,176.3 -19.1,176 -20,175.4 -22.3,173.2 -22.7,172.2 -23.3,169 -23,168 -21.5,165.1 -20.6,164.5 -17.7,163.1 -16.6,163.1 -13.5,163.8 -12.6,164.5 -10.5,166.9 -10.2,168 -10.1,171.2 -10.4,172.2 -12.3,174.8 -13.2,175.4 -16.2,176.4 -17.3,176.3 -20.4,175.3 -21.1,174.5 -22.9,171.9 -23.1,170.8 -23.3,169.7 -23.2,166.7 -22.9,159.3 -22.8,157.2 -21.7,149.2 -21.1,146.1 -19.1,135.7 -18.8,133.4 -17.4,123.4 -17.1,121 -16.4,113.2 -16.3,109.4 -15.8,94.9 -15.4,91.4 -14.2,82 -13.8,79.5 -12.6,72 -12.2,69.8 -10,59.3 -9.7,57.1 -8.5,50 -8.3,47.1 -7.7,39.6 -7.5,37.3 -7,30.6 -6.7,28.4 -5.9,19.9 -5.6,16.5 -4.8,6.5 -4.8,3.2 -4.6,-1.3 -4.3,-1.8 -3.5,-3.2 -3,-3.6 -1.6,-4.5 -1,-4.6 0.7,-4.7 1.3,-4.5 2.8,-3.8 3.2,-3.4 4.3,-2.1 4.5,-1.5 4.7,0.1 4.7,0.1 Z"></path></g><g transform="translate(115.7 198.53) rotate(0 26.26 -2.71)" stroke="none"><path fill="#1e1e1e" d="M 0,-5.3 Q 0,-5.3 1.4,-5.4 8,-5.8 10.7,-6 18.2,-6.3 20.3,-6.3 27.5,-6.7 29.9,-6.9 37.9,-7.5 40.8,-8.4 48,-11 49.3,-11.5 52.7,-12.3 53.8,-12.1 56.9,-10.8 57.6,-9.9 59.2,-7 59.3,-5.9 58.9,-2.6 58.2,-1.7 55.9,0.6 54.8,1 51.5,1.4 50.5,1.1 47.6,-0.6 46.9,-1.5 45.6,-4.5 45.7,-5.7 46.5,-8.9 47.2,-9.7 49.8,-11.8 50.9,-12.1 54.2,-12.1 55.3,-11.7 57.9,-9.7 58.5,-8.7 59.4,-5.6 59.3,-4.5 58.1,-1.3 57.3,-0.5 54.5,1.2 54.5,1.2 50.9,2.6 48.4,3.4 39.1,5.8 36.5,6 28.5,6.3 25.5,6.3 18.2,6.3 15.8,6.2 8,5.8 5.3,5.6 0,5.3 -0.6,5.2 -2.5,4.7 -3,4.3 -4.3,3 -4.6,2.4 -5.2,0.6 -5.2,0 -4.9,-1.9 -4.6,-2.4 -3.5,-4 -3,-4.3 -1.3,-5.1 -0.6,-5.2 0,-5.3 0,-5.3 Z"></path></g><g transform="translate(132.98 24.72) rotate(0 11.18 -1.36)" stroke="none"><path fill="#1e1e1e" d="M 0,-5.3 Q 0,-5.3 1.6,-5.4 7.7,-5.8 10.3,-5.9 21.4,-8.9 22.4,-8.9 25.4,-8.2 26.2,-7.6 28.1,-5.3 28.4,-4.3 28.5,-1.3 28.1,-0.3 26.4,2.1 25.5,2.6 22.6,3.6 21.6,3.4 18.8,2.4 18,1.7 16.4,-0.8 16.2,-1.8 16.4,-4.8 16.9,-5.7 18.9,-8 19.8,-8.4 22.8,-9 23.8,-8.8 26.5,-7.5 27.1,-6.7 28.5,-4 28.6,-3 28,0 27.4,0.8 25.2,2.9 24.3,3.2 23.3,3.5 21.2,4 13.7,5.8 10.7,5.8 3.3,5.5 1.6,5.4 -1.3,5.2 -1.9,4.9 -3.5,4 -4,3.5 -5,1.9 -5.1,1.3 -5.3,-0.6 -5.1,-1.3 -4.4,-3 -4,-3.5 -2.5,-4.7 -1.9,-4.9 0,-5.3 0,-5.3 Z"></path></g><g transform="translate(154.66 25.39) rotate(0 -6.95 84.36)" stroke="none"><path fill="#1e1e1e" d="M 5.2,0 Q 5.2,0 5.2,2 5.6,8.8 5.6,11.4 5.6,19.8 5.4,22.3 4.7,29.5 4.8,32.5 4.3,41.7 4.1,44.3 3.7,52.5 3.7,54.7 3.4,61.2 3.3,63.5 2.5,70.6 2.3,73.2 1.6,81.3 1.2,84.3 0.6,92 0.3,94.4 -0.4,103.1 -0.9,106.1 -2.2,113.6 -2.3,116.2 -2.6,125 -2.7,127.5 -3.5,134.3 -3.8,136.4 -5.1,143.6 -5.6,146.3 -6.4,154 -6.4,156.3 -6.6,163.4 -6.6,166.1 -7,171.1 -7.5,172.1 -9.8,174.8 -10.9,175.3 -14.3,176 -15.4,175.8 -18.6,174.3 -19.4,173.4 -21,170.3 -21.1,169.1 -20.5,165.7 -19.9,164.7 -17.3,162.3 -16.2,161.9 -12.7,161.5 -11.6,161.9 -8.6,163.7 -7.9,164.7 -6.6,167.9 -6.7,169.1 -7.6,172.5 -8.4,173.4 -11.2,175.5 -12.3,175.8 -15.8,175.8 -16.9,175.3 -19.7,173.1 -20.3,172.1 -21.2,168.7 -21.2,168.7 -21.1,162.2 -20.9,159.7 -20.5,151.9 -20.1,149.2 -18.9,141.6 -18.7,139.1 -17.8,131.9 -17.4,129.5 -17.1,121.8 -17.1,119.2 -16.6,111.9 -16.1,109.3 -15.1,102.2 -14.7,99.9 -14,92.6 -13.8,90.3 -12.9,81.5 -12.5,78.2 -11.6,68.5 -11.2,65.4 -10.4,56.8 -10.4,54.5 -9.9,46.4 -9.6,43.4 -8.9,35.5 -8.8,33 -8.2,25.5 -7.6,22.6 -6.3,13.7 -6,11.3 -5.3,4.1 -5.2,2 -5,-1.2 -4.8,-1.8 -3.9,-3.4 -3.4,-3.9 -1.8,-4.8 -1.2,-5 0.6,-5.2 1.2,-5 2.9,-4.3 3.4,-3.9 4.6,-2.4 4.8,-1.8 5.2,0 5.2,0 Z"></path></g><g transform="translate(210.57 19.97) rotate(0 82.33 93.17)" stroke="none"><path fill="#1e1e1e" d="M 3,-4.3 Q 3,-4.3 4.5,-3.4 10.5,1.3 12,2.9 17.5,9.1 19.1,11.1 24.3,17.2 25.6,19 29.4,24.8 31,26.9 35.2,32.5 36.8,34.6 41,40.5 42.6,43 47.1,49.8 48.5,51.5 53.2,57.9 55,60.5 59.8,68.1 61.4,70.3 66.1,76.2 67.8,78.4 72.5,84.7 73.9,86.4 79.2,92.7 80.7,95.3 85.3,101.5 86.9,103.2 92.2,108.6 93.6,110.5 99.3,118 101,120.6 105.9,128.3 109.1,130.8 116.6,137.3 118.3,138.7 124.8,144.3 126.8,146 132.6,151.7 135.3,154.7 141.1,160.8 143.3,163 148.7,168.6 150.4,170 155.8,174.1 158.1,175.7 168,180.4 168.9,181.1 171.1,183.7 171.4,184.8 171.6,188.2 171.1,189.3 169.2,192.1 168.2,192.7 165,193.7 163.9,193.6 160.7,192.5 159.8,191.7 157.9,188.9 157.8,187.8 158,184.4 158.5,183.4 160.7,180.8 161.8,180.3 165.1,179.6 166.2,179.9 169.3,181.3 170,182.2 171.6,185.2 171.6,186.3 171.1,189.7 170.4,190.6 167.9,192.9 166.8,193.3 163.5,193.7 162.4,193.3 161.3,192.9 159.5,192.2 153.5,189.4 151.4,187.9 145.9,183.6 143.8,181.9 136.2,175.1 133.8,172.8 128.1,167.2 125.2,164.3 119,157.4 117.2,155.9 111.3,150.9 109,148.9 103.3,143.9 101.2,142.2 95.8,137.8 94.4,135.9 89.4,128.6 87.8,126.3 81.8,118.8 79.8,116.8 74.5,111.7 72.6,109.4 66.8,100.8 65.2,98.9 60.6,93.2 59.1,91.2 54.8,85.6 53.3,83.7 48.4,77.6 46.8,75 42.7,68.4 41,66.1 36.5,60.1 35.3,58.3 31.6,52.5 30.3,50.5 26.3,44.6 24.8,42.5 20.4,36 18.6,33.6 14.2,26.4 12.6,24.2 8.1,17.8 6.7,15.9 2.4,9.6 1,8 -3,4.3 -3.5,3.8 -4.7,2.4 -4.9,1.8 -5.2,-0.1 -5.2,-0.7 -4.6,-2.5 -4.2,-3 -2.9,-4.4 -2.3,-4.7 -0.5,-5.2 0.1,-5.2 1.9,-4.9 2.5,-4.6 3,-4.3 3,-4.3 Z"></path></g><g transform="translate(264.1 94.17) rotate(0 -24.39 51.84)" stroke="none"><path fill="#1e1e1e" d="M 5.1,1.6 Q 5.1,1.6 4.4,3.8 1.2,12.5 0.1,15 -2.9,21.9 -4.3,24.4 -9,32.8 -10.8,36.1 -16,45.8 -17.8,49.1 -22.4,58.1 -23.9,61.6 -27.3,69.8 -28.1,72.4 -30.6,79.6 -31.7,82.3 -34.1,89.1 -35.1,91.3 -38.3,97.3 -39.2,99.7 -42.2,107 -42.9,108 -45.6,110.3 -46.7,110.6 -50.2,110.9 -51.3,110.5 -54.3,108.5 -54.9,107.5 -56.1,104.2 -56,103 -55,99.7 -54.1,98.8 -51.3,96.8 -50.1,96.5 -46.6,96.7 -45.5,97.2 -42.8,99.4 -42.3,100.5 -41.4,103.9 -41.7,105.1 -43.1,108.3 -44,109.1 -47.1,110.8 -48.2,110.9 -51.7,110.4 -52.7,109.8 -55.2,107.2 -55.6,106.1 -56.1,102.6 -55.7,101.5 -55.4,100.4 -54.5,98.9 -51.7,93.4 -50.4,90.6 -46.8,83.4 -45.8,80.8 -41.9,71.6 -41.1,69.5 -38.1,62.6 -36.9,59.8 -33.9,52.9 -32.3,49.7 -27.1,39.9 -25.4,36.9 -19.7,26.3 -18,23.4 -13.9,16.4 -12.8,14.5 -9,7.6 -7.8,5.1 -5.1,-1.6 -4.8,-2.2 -3.8,-3.8 -3.2,-4.2 -1.6,-5.1 -0.9,-5.2 1,-5.2 1.6,-5 3.3,-4.2 3.8,-3.7 4.9,-2.2 5.1,-1.5 5.3,0.3 5.2,1 5.1,1.6 5.1,1.6 Z"></path></g><g transform="translate(196 199.54) rotate(0 11.86 0.34)" stroke="none"><path fill="#1e1e1e" d="M 0,-5.2 Q 0,-5.2 2.2,-5.3 9.1,-5.6 11.3,-5.8 20.1,-6 22,-5.9 26,-5.3 26.9,-4.8 29.1,-2.7 29.5,-1.7 30.1,1.3 29.8,2.3 28.4,5 27.6,5.6 24.8,7 23.8,7 20.8,6.3 20,5.7 18,3.4 17.7,2.4 17.5,-0.6 17.8,-1.6 19.5,-4.1 20.4,-4.7 23.3,-5.7 24.3,-5.6 27.2,-4.7 28,-4 29.7,-1.4 29.9,-0.4 29.8,2.6 29.3,3.5 27.4,5.9 26.4,6.3 23.4,7 23.4,7 18.7,6.4 16.1,6.2 9.1,5.6 6.8,5.5 0,5.2 -0.6,5.1 -2.4,4.6 -2.9,4.3 -4.3,3 -4.6,2.4 -5.2,0.6 -5.2,0 -4.9,-1.9 -4.6,-2.4 -3.5,-3.9 -2.9,-4.3 -1.2,-5.1 -0.6,-5.1 0,-5.2 0,-5.2 Z"></path></g><g transform="translate(243.43 146.35) rotate(0 28.12 -1.52)" stroke="none"><path fill="#1e1e1e" d="M 0,-5.3 Q 0,-5.3 2.1,-5.4 9.5,-5.7 12,-5.8 19.3,-6.1 22.4,-6.4 30.9,-7.3 33.5,-7.6 40.8,-8.3 43.3,-8.5 51.4,-9.6 53.6,-9.8 58,-9.8 59,-9.3 61.7,-7.3 62.3,-6.4 63.2,-3.2 63,-2 61.9,1.1 61,1.9 58.2,3.6 57.1,3.8 53.8,3.5 52.8,2.9 50.3,0.6 49.9,-0.4 49.3,-3.7 49.6,-4.8 51.1,-7.8 52,-8.4 55,-9.9 56.1,-9.9 59.4,-9.2 60.3,-8.6 62.5,-6.1 62.8,-5 63.1,-1.7 62.7,-0.6 60.8,2.2 59.9,2.8 56.7,3.9 56.7,3.9 48.4,4.5 46.1,4.7 39.5,5.1 37.1,5.2 29.7,5.7 27,5.9 19.3,6.1 16.9,6 9.5,5.7 6.9,5.6 0,5.3 -0.6,5.3 -2.5,4.7 -3,4.4 -4.4,3 -4.7,2.5 -5.3,0.6 -5.3,0 -5,-1.9 -4.7,-2.5 -3.5,-4 -3,-4.4 -1.3,-5.2 -0.6,-5.3 0,-5.3 0,-5.3 Z"></path></g><g transform="translate(205.16 19.64) rotate(0 84.9 94.88)" stroke="none"><path fill="#1e1e1e" d="M 1.8,-5 Q 1.8,-5 3.8,-4.3 12.7,-1.1 14.9,-0.1 23.5,4.3 25.5,6.2 32.4,13.9 34.1,16 38.8,21.3 40.1,23 45.7,29.4 47.4,31.6 52.3,37.4 53.9,39.1 59.9,45.8 61.4,47.9 66.1,54.9 68,57.7 72.8,65.5 74.3,68.3 78.7,76.3 80.4,79 85.1,87.1 86.7,89.7 91.4,97.5 92.9,100.2 97.7,109.7 98.9,111.7 103,119.4 104.2,122.9 108.3,131.4 109.9,133.9 114.5,141.2 116.1,143.2 122,151.9 124,153.2 130.4,158.5 132.1,160.1 138.4,166.4 140.8,167.8 148.5,172.7 150.5,173.8 158.1,177.6 160.2,178.6 166.8,181.3 168.7,182 172.9,183.2 173.8,183.9 176.2,186.4 176.6,187.5 176.9,190.9 176.5,192.1 174.7,195 173.8,195.7 170.6,196.9 169.4,196.8 166.1,195.9 165.2,195.2 163.1,192.4 162.9,191.2 162.9,187.8 163.4,186.7 165.5,184 166.5,183.5 169.8,182.6 171,182.8 174.2,184 175,184.9 176.8,187.9 176.9,189 176.5,192.4 175.9,193.4 173.5,195.9 172.4,196.4 169,196.9 169,196.9 164,195.7 161.4,194.8 154,191.4 151.7,190.3 144.6,187 142,185.4 135.2,181.1 133.3,179.9 127.2,175.3 124.6,172.6 116.4,165.1 114.5,163.5 108.9,157.5 107.6,155.7 103.6,150.3 102.5,148.4 98.7,142.2 97,139.5 92.7,131.4 91.3,127.4 87,118.4 85.4,115.3 81.5,107.8 80,105.1 75.2,96.9 73.5,94.1 68.8,86.3 67.1,83.4 61.6,74.2 60.6,72.3 56.6,65.7 54.6,63 49.9,55.9 48,53.6 42,47.1 40.4,45.2 35.9,39.5 34.2,37.4 28.9,30.6 27.4,28.8 23.2,23.6 21.8,21.4 17.2,15.5 14.7,13.6 7.9,9.1 5,7.8 -1.8,5 -2.3,4.7 -3.9,3.6 -4.2,3.1 -5.1,1.4 -5.2,0.7 -5.2,-1.2 -4.9,-1.8 -4,-3.4 -3.5,-3.9 -2,-4.9 -1.4,-5.1 0.5,-5.2 1.1,-5.1 1.8,-5 1.8,-5 Z"></path></g><g transform="translate(224.96 29.51) rotate(0 -10.53 -4.8)" stroke="none"><path fill="#1e1e1e" d="M -4.1,2.6 Q -4.1,2.6 -5.2,1.2 -9.2,-3.4 -11.5,-3.3 -21.1,-3 -22.1,-3.1 -25.1,-4.3 -25.8,-5.1 -27.4,-7.8 -27.5,-8.9 -27.2,-12 -26.6,-13 -24.5,-15.3 -23.5,-15.7 -20.3,-16.2 -19.3,-15.9 -16.5,-14.4 -15.8,-13.6 -14.5,-10.7 -14.5,-9.6 -15.2,-6.5 -15.8,-5.6 -18.3,-3.6 -19.3,-3.3 -22.5,-3.1 -23.5,-3.5 -26.1,-5.3 -26.6,-6.2 -27.7,-9.2 -27.5,-10.3 -26.5,-13.3 -25.8,-14.1 -23.2,-15.9 -22.1,-16 -21.1,-16.2 -18.9,-16.2 -12.5,-15.5 -10.2,-14.9 -4,-12.4 -2,-11 2.3,-5.8 3.2,-4.2 4.6,-1.6 4.7,-1 4.8,0.7 4.7,1.3 3.9,2.9 3.5,3.3 2.1,4.4 1.6,4.6 -0.1,4.9 -0.7,4.8 -2.4,4.3 -2.9,3.9 -4.1,2.6 -4.1,2.6 Z"></path></g><g transform="translate(442.61 72.24) rotate(0 -2.17 66.56)" stroke="none"><path fill="#1e1e1e" d="M 5.3,0 Q 5.3,0 5.4,1.8 5.7,10.5 5.5,12.9 5.4,20 5.5,22.2 5.8,30.8 5.9,33.4 6.1,40.8 6.2,43.6 6.3,53.1 6.3,55.9 6,64.4 5.9,67.4 5.4,76.2 5.2,78.7 5.1,87.8 5,90.4 4.8,97.6 4.8,100 4.9,106.7 4.7,109.2 3.8,117.1 3.7,120 3.2,128.1 3,130.7 2.5,135.5 1.9,136.5 -0.3,139.1 -1.4,139.6 -4.8,140.3 -5.9,140.1 -9.1,138.6 -9.8,137.7 -11.4,134.6 -11.4,133.5 -10.9,130 -10.2,129.1 -7.7,126.7 -6.5,126.3 -3.1,126 -2,126.4 0.9,128.2 1.6,129.2 2.9,132.4 2.8,133.6 1.8,136.9 1.1,137.8 -1.7,139.8 -2.9,140.1 -6.3,140.1 -7.4,139.6 -10.1,137.4 -10.7,136.4 -11.6,133.1 -11.6,133.1 -11.2,128.8 -11,126.6 -10.7,119.6 -10.4,117.3 -9.6,109.9 -9.4,107.2 -9.2,99.8 -9.1,97.3 -8.8,90.1 -8.8,87.7 -8.7,80.7 -8.5,78.2 -8,70.1 -7.9,67 -7.5,58.6 -7.5,55.9 -7.5,48.2 -7.5,45.4 -7.2,37.5 -7.2,35.2 -7,28.5 -6.8,25.7 -6.3,17.4 -6,13.9 -5.4,3.6 -5.4,1.8 -5.1,-1.3 -4.9,-1.9 -4,-3.5 -3.5,-3.9 -1.9,-5 -1.2,-5.1 0.6,-5.3 1.2,-5.1 3,-4.4 3.5,-3.9 4.7,-2.5 4.9,-1.9 5.3,0 5.3,0 Z"></path></g><g transform="translate(407 208.46) rotate(0 15.33 -2.48)" stroke="none"><path fill="#1e1e1e" d="M -0.7,-5.2 Q -0.7,-5.2 1.5,-5.5 8.9,-7.1 11.2,-7.7 18.1,-9.4 20.2,-9.9 30.2,-11.6 31.3,-11.5 34.3,-10.5 35.1,-9.8 36.9,-7.2 37.1,-6.1 37,-2.9 36.5,-1.9 34.4,0.5 33.5,1 30.4,1.7 29.3,1.5 26.4,0.2 25.7,-0.6 24.2,-3.4 24.1,-4.5 24.6,-7.7 25.2,-8.6 27.5,-10.8 28.5,-11.2 31.6,-11.5 32.7,-11.2 35.4,-9.6 36,-8.7 37.2,-5.8 37.2,-4.7 36.4,-1.6 35.7,-0.8 33.2,1.2 32.1,1.4 31.1,1.7 28.9,1.9 21.1,2.7 18.1,3 10.7,4 7.8,4.4 0.7,5.2 0,5.2 -1.8,4.9 -2.4,4.6 -3.9,3.5 -4.3,3 -5.1,1.3 -5.2,0.6 -5.1,-1.2 -4.9,-1.8 -3.9,-3.5 -3.5,-3.9 -1.9,-4.9 -1.3,-5 -0.6,-5.2 -0.6,-5.2 Z"></path></g><g transform="translate(395.86 31.37) rotate(0 100.78 81.58)" stroke="none"><path fill="#1e1e1e" d="M 3.8,-3.8 Q 3.8,-3.8 5.5,-2.1 10.5,3 12.5,4.8 18.6,10.3 20.2,11.9 26.3,17.7 29.8,21 36.9,27.4 38.5,29.1 43.3,33.8 44.9,35.5 49.8,40.4 51.6,42.2 57,47.4 60,50.6 68,58.7 70.3,60.9 77,66.7 79,68.4 84.5,72.9 86.2,74.3 93.7,80.5 96.6,83 106.3,91 109.2,92.9 116.4,97.6 119.5,99.7 126,104.7 128.3,106.5 134.8,111.2 137.5,113 145.9,118.8 147.6,120.1 153.8,124.4 156.2,125.9 162.2,129.7 164.6,131.2 171.7,136 173.7,137.4 181.1,142.3 183.1,143.6 189.9,147.8 191.8,149 198.1,153 200.2,154.3 202.8,156.3 203.8,156.7 206.7,158.4 207.3,159.4 208.5,162.5 208.4,163.6 207.5,166.8 206.7,167.7 204,169.6 202.9,169.9 199.6,169.8 198.6,169.3 196,167.3 195.4,166.3 194.6,163.1 194.8,162 196.1,158.9 196.9,158.1 199.8,156.4 200.9,156.3 204.2,156.7 205.2,157.3 207.5,159.6 207.9,160.7 208.4,164 208.1,165.1 206.5,168 205.6,168.7 202.6,170 201.5,170 200.3,170 196.4,167.7 188,162.4 185.7,160.8 178.1,156 176.2,154.9 168.2,150.1 165.6,148.2 159.7,143.5 157.6,142.1 151.6,138.4 148.9,136.6 141.9,131.7 138.8,129.5 130.4,123.5 127.7,121.6 120.8,116.1 118,113.9 110,107.7 107.6,106 99.3,99.8 95.8,96.9 86.7,88.8 83.9,86.1 78,80.5 76.2,78.9 70.8,73.8 68.6,71.9 61.7,65.7 59,63.4 49.4,55.8 47.3,54 41.7,48.8 39.9,47 35,42.1 32.1,39.1 25.7,33.1 23.2,31.2 15.7,24.2 13.1,21.6 6.8,14.9 4.7,12.7 -0.4,7.2 -2.1,5.5 -4.5,2.7 -4.8,2.2 -5.3,0.3 -5.3,-0.3 -4.8,-2.2 -4.5,-2.7 -3.3,-4.2 -2.7,-4.5 -0.9,-5.2 -0.3,-5.3 1.6,-5.1 2.2,-4.8 3.8,-3.8 3.8,-3.8 Z"></path></g><g transform="translate(401.43 27.04) rotate(0 102.17 80.34)" stroke="none"><path fill="#1e1e1e" d="M 4,-3.4 Q 4,-3.4 5.2,-2.1 11.2,4 12.9,5.8 18.3,11.4 20.4,13.1 27.1,19.4 28.8,21.2 33.6,26.1 35.5,27.9 41.2,33.5 43,35.2 48.3,40 50,41.4 56,45.7 58,47.1 65.2,52.2 67.3,53.8 73.8,59.4 75.6,61 81.6,66.1 83.3,67.4 89.5,72.1 91.4,73.5 97.7,77.9 100.2,79.8 106.1,84.7 108,86.4 114,91.6 116,93.2 122,97.3 124.2,99 131.4,104.2 133.7,106 139.9,110.5 142.6,112.8 149.2,118.4 151.4,120.3 157.5,124.9 159.8,126.5 166.3,131.3 168.8,132.9 176.4,137.4 178.4,138.7 185.1,142.7 187.5,144.1 194.4,148.1 196.6,149.3 202.5,152.7 200.2,154.5 199.5,154.4 200.5,153.8 203.9,152.7 205.1,152.8 208.5,153.9 209.3,154.7 211.3,157.7 211.5,158.8 211.4,162.4 210.8,163.4 208.5,166.2 207.4,166.7 204,167.5 202.8,167.2 199.6,165.7 198.8,164.8 197.1,161.7 197,160.5 197.6,157 198.3,156 200.8,153.5 202,153.1 205.5,152.7 206.6,153.1 209.7,154.9 210.4,155.9 211.7,159.2 211.6,160.4 210.7,163.8 210.7,163.8 197.4,166 194.9,164.8 186.3,160.2 184.1,158.8 176,154.2 173.9,152.9 167.4,148.9 165.5,147.8 159.3,144 157,142.2 150.9,137.7 148.8,136.1 142.6,131.5 140.4,129.6 133.9,124.2 130.7,121.9 124.2,117 122.4,115.7 116.3,111.2 113.3,109.2 106.9,104.7 104.7,102.8 98.2,96.8 96.5,95.4 90,90.3 88,88.9 81,84 78.5,82.2 71.7,76.8 69.9,75.3 64.2,70.2 62,68.1 54.9,62.4 52.5,60.6 45.9,56 43.6,54.4 37.7,49.5 35.7,47.5 28.8,40.6 27,38.9 22.3,33.8 20.8,32.2 14.5,25.3 12.7,23.7 7,17.9 5.6,16.1 1.9,10.7 0.1,8.4 -4,3.4 -4.3,2.9 -5.1,1.2 -5.2,0.6 -5.1,-1.3 -4.8,-1.9 -3.9,-3.5 -3.4,-3.9 -1.8,-4.9 -1.2,-5.1 0.7,-5.2 1.3,-5 3,-4.3 3.5,-3.9 4,-3.4 4,-3.4 Z"></path></g><g transform="translate(591.84 16.51) rotate(0 9.29 88.24)" stroke="none"><path fill="#1e1e1e" d="M 3.5,-3.8 Q 3.5,-3.8 4.8,-2.7 9.8,2.6 10.5,4.8 13.1,10.9 14,13 16.2,20.6 16.7,22.9 18.3,31 18.6,33.7 19.8,41.5 20.1,43.9 21.4,52.8 21.7,55 23.1,64.6 23.4,67.3 24.2,74.3 24.4,76.5 25,83.1 25.2,85.6 25.7,93.2 25.7,95.9 25.8,105.5 25.8,108 25.8,117.8 25.8,120.1 25.8,127 25.8,130.7 25.8,139.4 25.8,141.8 25.9,148.8 25.5,151 24.4,158 24.2,160.5 23.3,167.4 22.8,169.8 20.6,177.4 20.3,178.5 18.5,181.6 17.6,182.3 14.4,183.7 13.2,183.7 9.7,182.9 8.8,182.2 6.6,179.4 6.3,178.3 6.2,174.8 6.6,173.7 8.7,170.8 9.7,170.2 13.1,169.1 14.2,169.3 17.6,170.5 18.4,171.3 20.3,174.3 20.5,175.4 20.2,178.9 19.6,180 17.3,182.6 16.2,183.1 12.8,183.8 11.6,183.5 8.4,182 7.7,181.1 6.1,177.9 6.1,176.7 6,175.5 7,172.1 9.5,163.2 9.6,160.9 10.4,153.4 10.8,151.1 11.4,144.3 11.3,141.8 11.4,134.4 11.4,130.7 11.4,122.4 11.4,120.1 11.3,112.4 11.3,110 11.2,103.1 11,100.9 10.7,92.4 10.6,89.8 10.2,82.9 9.9,79.8 9,70.5 8.7,67.8 7.8,60.4 7.5,58.1 6.7,51 6.4,48.8 5.5,41.8 5.2,39.3 4.4,31.5 4.2,28.9 3.2,21.6 2.6,18.9 0.6,11.7 -0.3,9 -3.5,3.8 -3.9,3.3 -4.9,1.7 -5,1.1 -5.1,-0.7 -5,-1.3 -4.2,-3 -3.8,-3.5 -2.3,-4.6 -1.7,-4.8 0.1,-5.2 0.7,-5.1 2.5,-4.5 3,-4.2 3.5,-3.8 3.5,-3.8 Z"></path></g><g transform="translate(598.34 15.27) rotate(0 4.8 0.46)" stroke="none"><path fill="#1e1e1e" d="M 0,-5 Q 0,-5 1.1,-5.1 9.7,-4.4 10.5,-4.3 12.9,-3.3 13.5,-2.6 14.8,-0.4 14.9,0.4 14.6,3 14.1,3.7 12.3,5.6 11.5,5.9 8.9,6.2 8.1,6 5.8,4.8 5.3,4.1 4.3,1.7 4.3,0.8 4.9,-1.6 5.4,-2.3 7.4,-4 8.2,-4.2 10.8,-4.3 11.6,-4 13.7,-2.5 14.2,-1.7 14.9,0.7 14.8,1.6 14,4 13.4,4.6 11.2,6 10.4,6.2 9.5,6.3 5.8,5.7 0,5 -0.6,4.9 -2.3,4.4 -2.8,4.1 -4.1,2.8 -4.4,2.3 -4.9,0.6 -4.9,0 -4.6,-1.8 -4.4,-2.3 -3.3,-3.7 -2.8,-4.1 -1.2,-4.8 -0.6,-4.9 0,-5 0,-5 Z"></path></g><g transform="translate(592.15 14.65) rotate(0 2.48 0.15)" stroke="none"><path fill="#1e1e1e" d="M 0,-4.7 Q 0,-4.7 2.9,-4.6 7.3,-3.9 7.9,-3.5 9.4,-1.7 9.6,-0.9 9.7,1.4 9.4,2.1 8,4 7.3,4.4 5.1,5.2 4.4,5 2.2,4.3 1.6,3.7 0.3,1.8 0.2,1 0.4,-1.3 0.8,-2 2.3,-3.7 3,-4 5.3,-4.5 6,-4.3 8.1,-3.3 8.6,-2.7 9.7,-0.7 9.7,0.1 9.3,2.4 8.9,3 7.2,4.6 6.4,4.9 4.1,5.1 4.1,5.1 0,4.7 -0.6,4.7 -2.2,4.2 -2.7,3.9 -3.9,2.7 -4.2,2.2 -4.7,0.6 -4.7,0 -4.4,-1.7 -4.2,-2.2 -3.1,-3.5 -2.7,-3.9 -1.1,-4.6 -0.6,-4.7 0,-4.7 0,-4.7 Z"></path></g><g transform="translate(605.46 16.82) rotate(0 0.46 86.84)" stroke="none"><path fill="#1e1e1e" d="M 5.1,0 Q 5.1,0 5.2,1.3 5.7,7.1 6,9.3 7,18.4 7.1,21.3 7.3,28.4 7.4,31.3 7.6,39.4 7.6,42 7.6,51.7 7.7,54 7.7,61.8 7.8,64.1 8.1,71 8.3,73.3 8.9,80.8 9.3,84.5 10,94.1 10.2,96.9 10.3,104.4 10.3,106.7 10.4,113.7 10.2,116.4 9.5,124.9 9.3,127.3 8.1,135.6 7.7,138.8 7.1,146.7 6.8,149.4 6.3,156.5 6.2,159.3 5.7,166.4 5.4,170.2 4.6,176.3 4,177.3 1.7,179.9 0.6,180.3 -2.8,180.9 -4,180.6 -7.1,179 -7.8,178.1 -9.3,175 -9.3,173.8 -8.6,170.4 -7.9,169.4 -5.3,167.1 -4.2,166.8 -0.7,166.6 0.4,167 3.3,168.9 3.9,169.9 5.1,173.2 5,174.3 3.9,177.7 3.1,178.5 0.2,180.5 -0.9,180.8 -4.4,180.6 -5.4,180.1 -8.1,177.8 -8.6,176.8 -9.4,173.4 -9.4,173.4 -8.7,165.6 -8.4,162.6 -7.7,153 -7.3,149.7 -6.7,140.8 -6.3,136.9 -5.3,128.8 -5,126.2 -4.2,116.1 -4.2,113.9 -4.1,107.2 -4.1,104.8 -4.2,96.5 -4.3,94 -4.8,86.9 -5.1,84.3 -5.7,76.8 -5.8,74.5 -6.3,67.2 -6.4,64.5 -6.4,56.3 -6.4,54 -6.4,44.6 -6.4,42 -6.2,34.2 -6.2,31.3 -5.9,24.1 -5.8,21.3 -5.7,11.7 -5.7,9.4 -5.3,2.7 -5.2,1.3 -5,-1.2 -4.8,-1.8 -3.9,-3.4 -3.4,-3.8 -1.8,-4.8 -1.2,-5 0.6,-5.1 1.2,-5 2.9,-4.2 3.4,-3.8 4.5,-2.4 4.8,-1.8 5.1,0 5.1,0 Z"></path></g><g transform="translate(600.51 194.53) rotate(0 1.08 1.39)" stroke="none"><path fill="#1e1e1e" d="M 0.5,-4.8 Q 0.5,-4.8 1.4,-4.8 4.3,-4.5 4.9,-4.4 6.6,-3.6 7.1,-3.2 8.2,-1.7 8.5,-1.1 8.8,0.7 8.7,1.3 8.2,3.1 7.8,3.6 6.5,4.9 5.9,5.2 4.1,5.7 3.5,5.7 7.4,3.9 5.2,5.2 -3.2,7.3 -5.4,5.5 -4.3,-4.2 -3.5,-4.7 -0.9,-5.9 0.1,-5.9 2.9,-5.2 3.6,-4.6 5.4,-2.4 5.7,-1.5 5.8,1.4 5.4,2.3 3.8,4.6 3,5.1 0.2,6 -0.7,5.8 -3.4,4.9 -4.1,4.2 -5.7,1.8 -5.8,0.9 -5.6,-2 -5.2,-2.8 -3.3,-5 -2.4,-5.4 0.4,-5.9 1.4,-5.7 3.9,-4.5 4.5,-3.7 5.8,-1.2 5.9,-0.2 5.4,2.6 4.8,3.4 4.3,4.2 4.1,2.6 -0.1,-1.9 -2.3,-1.8 -0.4,-2.4 2,-3.5 5.5,-4.2 6.1,-3.9 7.6,-2.8 7.9,-2.2 8.7,-0.5 8.7,0.1 8.6,1.9 8.4,2.5 7.4,4.1 6.9,4.5 5.3,5.5 4.7,5.6 2.9,5.7 2.1,5.4 -0.5,4.8 -1,4.6 -2.6,4 -3.1,3.6 -4.2,2.3 -4.4,1.8 -4.8,0.1 -4.7,-0.5 -4.3,-2.1 -4,-2.6 -2.8,-3.9 -2.3,-4.2 -0.7,-4.7 -0.1,-4.7 0.5,-4.8 0.5,-4.8 Z"></path></g><g transform="translate(782.68 30.9) rotate(0 -49.64 74.83)" stroke="none"><path fill="#1e1e1e" d="M -4.8,1.9 Q -4.8,1.9 -5.3,0.9 -8,-4 -10.1,-5.7 -16,-9.9 -18.1,-11.5 -25.6,-13.1 -27.8,-12.9 -35,-13.1 -37.7,-13.3 -44.8,-13.8 -47.6,-13.4 -55,-12.3 -57.5,-11.4 -64.3,-8.6 -66.5,-7.6 -72.9,-4.2 -75.2,-2.4 -82.5,3.5 -84.5,5.4 -90.4,12.3 -91.7,14.2 -95.7,20.5 -96.9,23.1 -100.3,31.3 -101.5,34.1 -103.2,41.9 -103.4,44.8 -103.7,52.1 -103.7,55.6 -103.7,64.2 -103.4,66.4 -101.9,74.1 -101.1,76.4 -98.3,83.6 -97.4,86.1 -94.2,94.8 -93.1,97.7 -90.3,104.6 -89.4,106.5 -85.6,114.3 -84.5,116.3 -81.2,123.4 -80.2,125.5 -75.2,133.1 -73.7,135 -67.7,141.9 -65.8,143.6 -59.9,147.9 -58.1,149.2 -51.4,153 -48.7,154.8 -40.7,159.1 -38.7,160.2 -32.5,162.3 -30.3,162.7 -23.8,163.1 -21.6,163.1 -14.7,163.1 -11.7,162.2 -3.8,159.3 -1.5,157.6 4,152.1 4,149.4 4.3,144.2 4.9,143.1 7.2,140.3 8.4,139.8 12,139 13.2,139.2 16.6,140.8 17.4,141.8 19.1,145 19.1,146.3 18.6,149.9 17.9,150.9 15.2,153.5 14,153.9 10.3,154.3 9.1,153.9 6,152 5.3,150.9 3.9,147.5 4,146.3 5,142.7 5.8,141.8 8.7,139.5 9.9,139.2 13.6,139.2 14.8,139.8 17.7,142 18.3,143.1 19.3,146.7 19.3,146.7 19.2,152.3 18.8,154.6 16.1,160.9 14.4,163.4 8.5,169 6.3,170.6 -0.5,174.2 -2.8,175.1 -10,177.4 -13.5,177.7 -22.6,178 -25.4,177.9 -34.1,177 -37.2,176.2 -45,173.3 -47.5,172.2 -55.6,167.7 -57.5,166.5 -63.2,163.2 -65.3,161.8 -72.4,156.9 -74.2,155.2 -80.4,149.2 -82.1,147.2 -86.4,141.8 -88.4,139.1 -93,131.2 -94.1,128.9 -98.1,120.9 -99.2,118.9 -102.3,112.1 -103.2,110 -106.4,102 -107.3,99.5 -110.6,91 -111.6,88.5 -114.5,81 -115.5,77.9 -117.8,68.5 -117.9,66.3 -118,59.1 -118,56.7 -117.9,49.4 -117.8,46.8 -117.2,38.4 -116.7,35.5 -114.2,27.1 -113.1,24.7 -110.2,18.1 -109.1,15.8 -105.1,8.5 -103.8,6.5 -99,0.2 -97.3,-1.7 -91.9,-7.1 -89.2,-9.4 -82.2,-15.1 -80,-16.3 -72.7,-20.4 -70.2,-21.5 -63.6,-24.2 -61.5,-25 -55,-26.7 -52.3,-27.1 -44.4,-28 -42.1,-27.7 -34.5,-27.1 -31.4,-26.9 -23,-26.3 -20.6,-25.6 -13.3,-23.5 -11.3,-22.1 -3.9,-16.9 -2.2,-15.4 1.9,-9.4 3,-6.8 4.8,-1.9 4.9,-1.3 5.1,0.5 5,1.1 4.3,2.8 3.9,3.3 2.5,4.5 1.9,4.7 0.1,5.1 -0.5,5.1 -2.3,4.6 -2.8,4.2 -4.2,3 -4.5,2.5 -4.8,1.9 -4.8,1.9 Z"></path></g><g transform="translate(794.25 177.57) rotate(0 -0.93 0)" stroke="none"><path fill="#1e1e1e" d="M 4.2,-1.3 Q 4.2,-1.3 4.3,-0.3 3.5,2.7 2.6,3.4 -0.3,4.4 -1.3,4.1 -3.8,2.3 -4.1,1.3 -4,-1.8 -3.4,-2.6 -0.8,-4.4 0.3,-4.3 3.1,-3.1 3.7,-2.2 Z"></path></g><g transform="translate(853.21 16.72) rotate(0 34.52 3.36)" stroke="none"><path fill="#1e1e1e" d="M 2.1,-4.8 Q 2.1,-4.8 3.1,-4.4 9.5,-2.4 12.4,-1.9 20.4,-0.5 23.6,-0.3 31.7,-0.1 34.8,-0.2 42.3,-0.6 44.4,-1 51.6,-2.7 54.2,-3.3 62.3,-4.9 64.6,-5 69.2,-5.3 70.3,-5.1 73.5,-3.5 74.2,-2.6 75.8,0.5 75.8,1.6 75.2,5 74.5,6 71.9,8.3 70.8,8.7 67.3,9 66.2,8.6 63.3,6.7 62.7,5.7 61.5,2.5 61.5,1.3 62.5,-2 63.3,-2.9 66.1,-4.9 67.3,-5.1 70.8,-5.1 71.8,-4.5 74.5,-2.4 75,-1.3 75.9,2 75.7,3.2 74.3,6.4 73.5,7.2 70.5,8.9 70.5,8.9 64.7,9.5 62.5,9.7 55.5,11.1 53.2,11.7 46.3,13.1 43.5,13.4 35.6,13.6 33,13.6 25.5,13.2 22.6,12.8 13.8,11.2 11.5,10.3 4,7.7 1.9,6.7 -2.1,4.8 -2.6,4.4 -4.1,3.2 -4.4,2.7 -5.1,1 -5.2,0.3 -5,-1.5 -4.7,-2.1 -3.7,-3.7 -3.2,-4 -1.6,-5 -0.9,-5.1 0.9,-5.1 1.5,-4.9 2.1,-4.8 2.1,-4.8 Z"></path></g><g transform="translate(863.29 24.18) rotate(0 0.75 84.91)" stroke="none"><path fill="#1e1e1e" d="M 5.2,-0.5 Q 5.2,-0.5 5.5,1.9 6.7,10 7.3,12.8 8.8,20.6 8.9,22.8 9.5,30.4 9.6,32.7 9.8,40.3 9.9,42.5 10.1,50.1 9.9,53.3 9.4,62.5 9.2,65.2 9.1,73 8.9,75.3 8.7,82.5 8.8,84.9 8.5,93.8 8.5,96 7.8,102.6 7.6,105.5 7.2,113.1 7.2,115.3 7.2,122.7 7.1,125 6.7,132.1 6.3,135.1 5.9,142.6 5.9,145.2 6,152.7 5.9,155.1 5.8,162.2 5.9,166 5.5,172.2 5,173.2 2.6,175.9 1.6,176.4 -1.9,177.2 -3.1,176.9 -6.3,175.4 -7,174.5 -8.7,171.4 -8.8,170.2 -8.2,166.7 -7.5,165.7 -5,163.3 -3.8,162.9 -0.3,162.5 0.8,162.9 3.9,164.7 4.5,165.7 5.9,169 5.8,170.2 4.8,173.6 4.1,174.5 1.2,176.7 0.1,176.9 -3.5,176.9 -4.6,176.4 -7.4,174.3 -7.9,173.2 -8.9,169.8 -8.9,169.8 -8.8,162.2 -8.8,159.9 -8.9,152.7 -8.9,150.2 -8.9,141.6 -8.8,139.4 -8.2,132.7 -7.9,130.2 -7.2,122.7 -7.2,120.1 -7.2,111.4 -7,109 -6.5,100.9 -6.3,98 -5.8,88.8 -5.8,86.3 -5.7,79.1 -5.5,76 -5.2,67.5 -5.1,65.4 -4.6,58.8 -4.3,56.2 -4.1,48.6 -4,46 -3.8,38.3 -3.7,35.3 -3.5,27.9 -3.6,25.1 -3.8,17.3 -4.1,14.5 -4.8,5.2 -5,2.8 -5.2,-0.8 -5,-1.4 -4.2,-3.1 -3.8,-3.5 -2.3,-4.7 -1.7,-4.9 0.1,-5.2 0.8,-5.1 2.6,-4.5 3.1,-4.2 4.4,-2.8 4.7,-2.3 5.2,-0.5 5.2,-0.5 Z"></path></g><g transform="translate(874.49 24.18) rotate(0 15.86 89.57)" stroke="none"><path fill="#1e1e1e" d="M 4.8,1.9 Q 4.8,1.9 4.4,3 3.2,8.8 3.1,10.9 3.1,17.8 3.2,20.7 3.4,29.1 3.4,31.4 3.6,39.3 3.6,41.9 3,49.3 2.7,52 2.1,59.8 1.9,62.6 1.8,70 1.7,72.5 1.1,79.6 1,82.2 0.1,90.4 -0.1,92.5 -0.8,98.9 -0.8,101.4 -0.8,109.5 -0.8,111.6 -0.8,118.9 -0.8,121.1 -0.9,129.6 -0.7,132.3 0.4,140.1 1.1,142.4 3.1,148.9 3.8,151.2 5.9,157.7 7,160.2 10.8,167.2 13,167.5 19.7,167.8 22.1,167.7 31.3,168.2 33.8,168.1 40.6,168.6 41.3,168.7 43.9,169.2 44.7,169.6 47,171.2 47.5,171.9 48.8,174.4 49,175.3 49,178.1 48.7,178.9 47.4,181.4 46.7,182.1 44.4,183.6 43.5,183.9 40.8,184.2 38.2,184.2 29.3,185.9 27.1,186.2 20.4,186.8 17.7,186.8 9.5,186.8 7.1,186.8 0.4,186 -2,185.5 -8.7,182.8 -10.7,181.5 -16.1,174.1 -16.7,171.2 -17.8,166 -17.6,164.8 -16.4,161.3 -15.5,160.4 -12.4,158.4 -11.2,158.2 -7.5,158.5 -6.4,159.1 -3.6,161.5 -3.1,162.7 -2.4,166.3 -2.7,167.5 -4.3,170.8 -5.3,171.6 -8.6,173.2 -9.8,173.3 -13.4,172.6 -14.4,171.9 -16.9,169.2 -17.3,168 -17.6,164.3 -17.2,163.2 -15.2,160 -14.2,159.3 -10.8,158.1 -9.5,158.1 -6,159.2 -5.1,160 -2.9,163 -2.9,163 -1.7,169.2 0.5,170 7,171.5 9.3,171.5 16.5,171.5 19.7,171.4 28.1,170.4 30.7,169.6 37.4,168.8 39.7,168.8 43.9,169.2 44.7,169.6 47,171.2 47.5,171.9 48.8,174.4 49,175.3 49,178.1 48.7,178.9 47.4,181.4 46.7,182.1 44.4,183.6 43.5,183.9 40.8,184.2 38.9,183.9 32.7,183.5 30.2,183.3 22.8,183.1 20.5,183.1 13.6,183 11.4,182.7 4,179.9 1.8,178.3 -4,171.8 -5,169.7 -7.5,163.5 -8.6,160.4 -11.1,153 -11.7,150.6 -13.8,143 -14.4,140.2 -15.5,129.6 -15.6,126.4 -15.6,118.9 -15.6,116.3 -15.6,109.5 -15.6,107.2 -15.5,100.3 -15.4,97.9 -14.9,91 -14.6,88.7 -13.7,80.6 -13.5,77.8 -13,68.6 -12.9,66 -12.4,58.9 -12.2,56.4 -11.3,49.2 -10.9,46.8 -10.3,39.3 -10.2,36.5 -10.1,29.1 -10.1,26.3 -9.8,18.9 -9.7,16.2 -8.4,9.3 -7.9,6.8 -5.8,0.2 -5.3,-0.9 -4.2,-3 -3.8,-3.5 -2.3,-4.6 -1.7,-4.8 0.1,-5.2 0.7,-5.1 2.5,-4.5 3,-4.2 4.3,-2.9 4.6,-2.3 5.1,-0.5 5.1,0.1 4.8,1.9 4.8,1.9 Z"></path></g><g transform="translate(860.65 193.01) rotate(0 3.89 3.89)" stroke="none"><path fill="#1e1e1e" d="M 4.7,-1.4 Q 4.7,-1.4 5,-0.5 9.1,2.1 10,2.5 12.3,4.1 12.7,4.9 13.6,7.6 13.5,8.5 12.5,11.1 11.9,11.8 9.5,13.3 8.6,13.4 5.8,13.2 5,12.8 2.9,10.9 2.5,10.1 2,7.4 2.2,6.5 3.4,3.9 4.2,3.4 6.6,2.1 7.6,2.1 10.3,2.6 11.1,3.1 12.9,5.2 13.2,6 13.5,8.8 13.2,9.7 11.7,12.1 10.9,12.6 8.3,13.6 7.4,13.5 6.4,13.4 3.5,11.9 -2.7,7.3 -3.5,5.3 -4.7,1.4 -4.8,0.8 -4.8,-0.9 -4.6,-1.5 -3.8,-3 -3.4,-3.5 -1.9,-4.5 -1.4,-4.6 0.3,-4.9 0.9,-4.8 2.6,-4.2 3,-3.8 4.2,-2.5 4.4,-1.9 4.7,-1.4 4.7,-1.4 Z"></path></g><g transform="translate(869.06 90.87) rotate(0 14.79 3.58)" stroke="none"><path fill="#1e1e1e" d="M 3.2,-3.9 Q 3.2,-3.9 4.4,-3 9.7,0 12,0.3 18.6,0.3 20.9,0.2 32.4,0.8 33.3,1.4 35.6,3.8 36,4.9 36.4,8.2 36.1,9.2 34.4,12.1 33.5,12.8 30.4,14 29.3,14 26.1,13.2 25.2,12.4 23.2,9.8 22.9,8.7 22.9,5.4 23.3,4.4 25.3,1.7 26.3,1.2 29.5,0.2 30.6,0.4 33.7,1.6 34.5,2.4 36.2,5.2 36.4,6.3 36,9.6 35.5,10.6 33.2,13 32.2,13.5 28.9,14.1 27.9,13.8 26.8,13.5 26.4,13.6 21.7,13.6 19.4,13.4 12.1,13 9.6,12.5 2.9,9.1 0.8,7.4 -3.2,3.9 -3.6,3.4 -4.7,1.9 -4.8,1.3 -5,-0.5 -4.9,-1 -4.2,-2.7 -3.8,-3.2 -2.5,-4.4 -1.9,-4.6 -0.1,-5 0.5,-5 2.2,-4.5 2.7,-4.2 3.2,-3.9 3.2,-3.9 Z"></path></g><g transform="translate(897.71 98.03) rotate(0 -14.17 3.43)" stroke="none"><path fill="#1e1e1e" d="M 0,5 Q 0,5 -1.5,5.1 -7.6,5.7 -10.1,6.2 -16.4,8.6 -18.9,9.7 -26.6,13.3 -27.7,13.4 -30.9,13 -31.8,12.4 -34.1,10.2 -34.5,9.2 -35,6 -34.7,5 -33.1,2.2 -32.3,1.6 -29.3,0.2 -28.3,0.3 -25.1,1 -24.3,1.6 -22.2,4.1 -22,5.2 -21.8,8.3 -22.2,9.3 -24.1,12 -25,12.5 -28,13.5 -29.1,13.4 -32.1,12.3 -32.9,11.6 -34.7,8.9 -34.8,7.8 -34.6,4.7 -34.1,3.7 -32,1.3 -31,0.8 -30.1,0.4 -27.5,-0.7 -19.7,-3.8 -17,-4.7 -7.6,-5.7 -5.3,-5.4 0,-5 0.6,-5 2.3,-4.5 2.8,-4.1 4.1,-2.9 4.4,-2.3 5,-0.6 5,0 4.7,1.8 4.4,2.3 3.3,3.8 2.8,4.1 1.2,4.9 0.6,5 0,5 0,5 Z"></path></g><g transform="translate(1087.66 43.54) rotate(0 -59.63 72.56)" stroke="none"><path fill="#1e1e1e" d="M -5.1,-0.5 Q -5.1,-0.5 -5,-1.4 -4.7,-6.8 -3.9,-9.5 -3,-7.9 -5.2,-7.8 -11.8,-9.2 -14.4,-9.6 -22.3,-11 -24.9,-11 -32.1,-10.9 -34.5,-10.9 -42.1,-10.8 -44.3,-10.8 -51,-10.2 -53.5,-9.5 -60.3,-7.9 -63.2,-7.2 -70.4,-5 -72.4,-4.2 -79.8,-1.1 -82.1,-0.1 -88.7,3.6 -90.8,4.8 -97.4,9 -99.1,10.3 -104,15 -106,17.2 -110.3,24.8 -111.1,27.4 -113.1,35.3 -113.6,37.9 -114.6,44.7 -114.6,46.9 -114.6,54.2 -114.7,56.5 -114.8,64.2 -114.7,66.5 -114,74.7 -113.3,77.9 -111.8,85.8 -111.3,88.2 -109.6,95.7 -108.8,98.1 -105.6,105.8 -103.8,108.1 -99.5,114.7 -98.2,117 -93.3,125.8 -91.8,128.1 -87,135.4 -85.4,137.6 -80.9,142.9 -78.8,143.9 -72.6,146.9 -70.3,148.2 -63.4,151.1 -61.1,152.1 -53.8,154.6 -50.7,154.9 -41.9,155.5 -39.6,155.5 -32.8,154.8 -30.6,153.9 -23.5,149.9 -21.6,147.9 -16,140.6 -15.8,142 -16.1,140.9 -16,139.6 -14.8,136.1 -13.9,135.2 -10.9,133.2 -9.7,132.9 -6,133.1 -4.9,133.7 -2,136.1 -1.5,137.2 -0.7,140.8 -1,142.1 -2.5,145.4 -3.5,146.2 -6.7,147.9 -8,148 -11.6,147.4 -12.7,146.7 -15.2,144.1 -15.6,142.9 -16,139.2 -15.6,138 -13.7,134.9 -12.7,134.2 -9.3,132.8 -8,132.8 -4.5,133.8 -3.5,134.6 -1.3,137.6 -1.3,137.6 -3.8,149.6 -5.1,151.7 -9.9,157.8 -11.7,159.4 -17.8,164.4 -20.1,165.8 -27.6,169.3 -30.4,169.9 -38.6,170.8 -41.1,170.8 -48.8,170.5 -50.9,170.2 -58.8,168.7 -61.3,167.9 -68.1,165.3 -70.4,164.4 -77.3,161.3 -79.7,160.2 -85.9,156.7 -87.8,155.5 -93,151.2 -94.9,148.8 -100.3,141.5 -101.9,139.4 -106.1,132.8 -107.4,130.7 -110.7,124.6 -111.8,122.2 -116.7,115.8 -117.8,113.6 -121.5,105.6 -122.2,103.5 -124.2,96.2 -124.8,93.7 -126.6,85.4 -127.2,82.5 -128.5,74.3 -128.8,72 -129.4,64.2 -129.4,60.5 -129.5,52.5 -129.5,49.8 -129.1,41.6 -128.5,38.2 -127,30.2 -126.5,27.8 -124.5,20.7 -123.4,18.1 -119.9,11.1 -118.1,9.1 -112.1,2.4 -110.4,0.9 -105.3,-3.5 -103.3,-4.8 -97.4,-8.3 -95.2,-9.6 -87.5,-13.8 -85.5,-14.7 -78,-18 -75.8,-18.9 -67.8,-21.4 -65,-22.1 -56.9,-23.8 -54.3,-24.3 -46.6,-25.3 -44.3,-25.3 -36.8,-25.2 -34.5,-25.2 -26.1,-25.1 -23.9,-25 -16.5,-23.9 -14.1,-23.4 -7.2,-21.5 -5,-20.7 2.5,-17.4 4.8,-15.9 7.2,-6.8 6.3,-4.1 5.1,0.5 4.9,1.1 4.3,2.8 3.9,3.2 2.5,4.4 1.9,4.7 0.1,5.1 -0.5,5 -2.2,4.6 -2.7,4.2 -4.1,3 -4.4,2.5 -5,0.8 -5,0.1 -5.1,-0.5 -5.1,-0.5 Z"></path></g><g transform="translate(1057.46 149.41) rotate(0 23.2 24.76)" stroke="none"><path fill="#1e1e1e" d="M 4.9,-1.5 Q 4.9,-1.5 5.3,-0.4 7.8,4.9 8.7,7.1 12.6,13.7 14.4,15.3 20.8,20.8 22.6,22.4 28.9,26.4 30.5,27.8 35.8,32 37.8,33.5 43.5,38.1 45.7,39.9 49.5,42.7 50.5,43.4 53,45.9 53.4,47.1 53.8,50.7 53.4,51.8 51.6,54.9 50.6,55.6 47.3,57 46.1,56.9 42.6,56 41.6,55.2 39.5,52.3 39.2,51.2 39.1,47.6 39.6,46.5 41.8,43.6 42.9,43 46.3,42 47.5,42.2 50.9,43.5 51.7,44.4 53.6,47.4 53.7,48.6 53.4,52.2 52.8,53.3 50.3,55.9 49.2,56.4 45.6,57 44.5,56.6 43.3,56.3 40.8,54.7 34.2,49.7 32.7,48.2 27.1,43.7 25.4,42.2 20.1,37.8 17.3,35.7 11.2,30.6 9.4,28.9 3.1,22.7 1.9,20.8 -1.1,14.6 -2,11.7 -4.3,3.9 -4.6,2.7 -5.1,0.3 -5,-0.3 -4.6,-2.1 -4.3,-2.6 -3.1,-4 -2.6,-4.3 -0.9,-5 -0.3,-5 1.5,-4.9 2.1,-4.6 3.6,-3.6 4,-3.1 4.9,-1.5 4.9,-1.5 Z"></path></g><g transform="translate(978.67 54.43) rotate(0 2.96 64.46)" stroke="none"><path fill="#1e1e1e" d="M 4.3,2.5 Q 4.3,2.5 2.6,5.2 -1,12.2 -1.4,14.9 -2.1,22.1 -2.3,25.1 -2.9,33.5 -3.2,35.8 -3.4,42.7 -3.3,45.5 -2.8,53.1 -2.5,55.5 -1.8,63.2 -1.5,65.4 -0.5,73.5 -0.1,75.7 1.4,82.3 2,84.4 4.6,91.2 5.6,94.1 8.2,101.5 9.4,103.8 13.3,110.3 14.5,112.3 18.3,118.7 19.7,120.5 22.2,124 22.8,125.1 24,128.6 23.8,129.9 22.6,133.4 21.7,134.3 18.6,136.3 17.3,136.5 13.6,136.2 12.5,135.7 9.7,133.2 9.2,132 8.4,128.4 8.7,127.1 10.3,123.8 11.3,123 14.6,121.3 15.9,121.2 19.6,121.9 20.6,122.6 23.1,125.4 23.5,126.6 23.9,130.3 23.4,131.5 21.4,134.7 20.4,135.3 16.9,136.7 15.6,136.6 12.1,135.5 11.1,134.7 10.2,133.9 9.3,132.5 5.8,127.2 4.2,125 1.3,118.7 -0.7,116 -4.6,109.3 -5.6,107.2 -7.9,100.7 -8.7,98.7 -11,92.4 -11.7,90.3 -13.6,84.1 -14.1,81.2 -15.5,73.1 -15.8,70.2 -16.3,61.9 -16.6,59.1 -17.4,51.5 -17.3,49.2 -17.2,42.6 -17.1,40.5 -16.2,33.4 -15.8,30.6 -14.7,22.5 -14.2,19.7 -11.9,11.6 -11.2,9.5 -7.4,2.9 -5.8,0.1 -3.5,-3.5 -3,-3.9 -1.5,-4.7 -0.9,-4.8 0.9,-4.9 1.4,-4.7 3,-3.9 3.5,-3.5 4.5,-2 4.7,-1.5 5,0.3 4.8,0.9 4.3,2.5 4.3,2.5 Z"></path></g><g transform="translate(1147.76 49.14) rotate(0 3.74 48.27)" stroke="none"><path fill="#1e1e1e" d="M 0.5,5.3 Q 0.5,5.3 -1.5,5.5 -7.9,7.6 -10.8,9.4 -17.5,13.7 -19.1,15.7 -25,22.1 -26.2,25.1 -29.3,34 -29.8,36.2 -30.2,43.4 -30.2,46.2 -30.4,56.3 -30.4,58.5 -28.7,65.4 -27.9,67.8 -24.7,75.3 -23.7,77.3 -18.7,83.5 -17,84.7 -9.6,88.1 -7.3,88.4 -0.3,89.1 2.3,89.1 9.7,88.8 13,87.9 20.7,85.8 23.1,85 30.6,81.9 32.8,80.1 37.5,73.5 38.4,70.8 41,63.8 41.3,61 40.7,52.4 40,50.1 38.1,42.6 37.2,40.3 34.2,33.8 33.2,31.8 29.1,25 27.3,23.2 22.1,18 20.2,16.8 14,13.2 11.1,11.7 2.9,9.6 0.5,9.4 -6.9,10.7 -8.6,12.6 -13.6,17.3 -15.7,19.1 -20.9,24.9 -22.8,27 -28.4,34.4 -29.5,36.4 -31.9,43.8 -32.1,45.9 -32.2,52.8 -32.1,55 -30.1,61.5 -28.9,63.4 -24.6,68.8 -22.6,70.2 -16.6,75 -14.6,75.9 -8.2,78.6 -5.8,78.7 1.8,79.5 4,79.8 11.3,80.4 13.9,80.4 23.7,80 25.8,79.3 31.5,76.5 33.4,75 37.7,69.6 38.7,67 41,58.7 41.1,55.8 40.9,48 40.2,45.9 36.9,39.5 35.4,37.5 31.2,31.6 29.6,30 23.4,23.8 21.7,22.3 16.1,18 13.5,16.7 6.7,14.4 4,13.9 -3.2,13.7 -5.5,14.3 -11.2,17.3 -13.1,18.6 -19.8,24.5 -22.1,26.8 -26.2,33.1 -27.6,36 -30.9,43.6 -32,46.6 -34.4,54.5 -34.5,56.8 -34.6,63.4 -33,65.2 -27.6,71.1 -25.6,72.4 -18.8,76.8 -16.6,78.6 -11.2,82.7 -10.4,83.5 -8.5,86.3 -8.4,87.4 -8.6,90.8 -9.2,91.8 -11.4,94.3 -12.4,94.8 -15.8,95.5 -16.9,95.2 -19.9,93.7 -20.6,92.8 -22.2,89.8 -22.2,88.7 -21.6,85.3 -20.9,84.4 -18.4,82.1 -17.4,81.8 -14,81.5 -12.9,81.9 -10,83.7 -9.4,84.6 -8.2,87.8 -8.3,88.9 -9.3,92.2 -10,93 -12.8,95 -13.9,95.3 -17.3,95.2 -18.3,94.7 -19.3,94.2 -21,93.1 -28.3,88.4 -30.3,87.2 -37.4,82.4 -38.9,80.6 -45,75.2 -46.9,71.9 -49.4,63.3 -49.4,60.9 -48.8,52.3 -48.2,49.9 -46.2,42.8 -45.4,40.7 -42.9,34 -41.5,31.3 -38,23.6 -36.4,21.3 -30.5,14.4 -28.8,12.4 -23.7,7.9 -21.4,6.2 -15.2,2.1 -13.3,1.2 -3.9,-1.3 -0.7,-1.3 7.3,-0.6 9.6,-0.2 17.1,1.9 19.9,3.3 27.7,8.1 29.9,9.8 36.7,15.9 38.3,17.5 43.3,23.1 45.1,25.5 50.3,32.6 51.5,34.9 54.6,42.5 55.1,44.5 55.9,52.9 55.9,56 54.9,64.1 54.4,66.9 52.2,73.8 50.9,76.6 46.1,83.6 43.9,85.4 36.6,90.9 34,92.2 25.7,95 22.7,95.4 14.5,95.8 12.1,95.8 4.9,95.5 2.4,95.1 -5.4,94.2 -7.7,94 -14.6,92.6 -16.8,91.7 -23.9,88.4 -26.1,86.7 -31.9,82 -34.3,80 -39.6,74.8 -40.9,72.9 -44.6,67.1 -45.5,65 -47.1,58.6 -47.3,56.4 -47.4,49.7 -47.4,47.1 -46.6,40.1 -46,37.7 -43.2,29.3 -41.4,26.6 -36.2,19.1 -34.5,17.2 -28.5,9.9 -26.6,8.3 -21.5,3.6 -19.6,2.3 -12.7,-3.3 -10.3,-4.3 -2.8,-6.1 -0.6,-6.1 6.7,-5.2 9.2,-4.8 15.8,-2.7 17.8,-1.7 24.2,1.3 26.5,2.8 32.4,7.1 34,8.7 38.5,13.3 40.3,15.5 44.6,21.6 46,24.1 49.3,30.7 50.4,33.1 53.1,40.8 53.8,43.8 55.8,52.3 55.9,54.6 56.2,64.4 55.5,66.4 53.3,73.7 52.4,76.4 49,83.3 47.8,85.4 41.7,92.1 39.4,93.6 31.6,97.8 29,98.7 20.8,101.3 18,102.1 9.2,103.8 7.1,103.9 -0.5,103.9 -2.9,103.8 -9.6,103.1 -12.1,102.5 -18.8,100.5 -20.7,99.5 -26.4,95.9 -28.9,93.8 -35.5,86.4 -36.6,83.8 -39.9,76.4 -40.8,73.8 -43.5,67 -43.9,63.8 -44.3,56.3 -44.4,52.7 -44.5,43.3 -44.4,40.6 -43.4,32.9 -42.7,30.4 -40.4,23.1 -39.5,20.5 -34.7,13.1 -32.6,11 -27,5.5 -25.2,4 -19.6,0.6 -16.7,-0.9 -9.1,-3.9 -6.8,-4.5 -0.5,-5.3 0.1,-5.3 2,-4.9 2.6,-4.6 4.1,-3.4 4.4,-2.9 5.2,-1.1 5.2,-0.5 5.1,1.4 4.9,2 3.9,3.6 3.4,4 1.7,5 1.1,5.1 0.5,5.3 0.5,5.3 Z"></path></g><g transform="translate(1120.98 134.78) rotate(0 -7.78 -10.43)" stroke="none"><path fill="#1e1e1e" d="M -3,3.9 Q -3,3.9 -3.9,3.4 -8.8,0 -11.3,-1.5 -16.3,-6.6 -17.5,-9.2 -21.7,-18.1 -21.9,-19.1 -22.1,-22.4 -21.7,-23.4 -19.9,-26 -18.9,-26.6 -15.9,-27.5 -14.8,-27.4 -11.8,-26.4 -11,-25.6 -9.2,-22.9 -9,-21.9 -9.2,-18.7 -9.8,-17.7 -11.9,-15.3 -12.8,-14.8 -16,-14.2 -17.1,-14.4 -19.9,-15.8 -20.6,-16.6 -22.1,-19.5 -22.2,-20.6 -21.6,-23.7 -21,-24.6 -18.6,-26.8 -17.6,-27.1 -14.4,-27.4 -13.4,-27.1 -10.7,-25.4 -10.1,-24.5 -9.5,-23.6 -8.2,-20.5 -6.2,-12.7 -4.3,-10.9 1.5,-5.3 2.3,-4.6 3.9,-3.1 4.2,-2.6 4.9,-0.9 4.9,-0.3 4.7,1.5 4.5,2 3.5,3.5 3,3.9 1.5,4.7 0.9,4.8 -0.9,4.9 -1.4,4.7 -3,3.9 -3,3.9 Z"></path></g><g transform="translate(1124.72 135.71) rotate(0 -7.63 -7.32)" stroke="none"><path fill="#1e1e1e" d="M -1.2,4.8 Q -1.2,4.8 -3,4.4 -9.4,2.9 -11,1.1 -15.6,-4.5 -18.1,-7.9 -21.4,-13.1 -21.5,-14.1 -21.1,-17.1 -20.6,-18 -18.4,-20.2 -17.4,-20.5 -14.4,-20.9 -13.4,-20.6 -10.8,-19.1 -10.2,-18.3 -8.9,-15.5 -9,-14.5 -9.7,-11.5 -10.3,-10.7 -12.7,-8.8 -13.7,-8.5 -16.8,-8.4 -17.7,-8.9 -20.2,-10.6 -20.7,-11.5 -21.6,-14.4 -21.5,-15.5 -20.4,-18.3 -19.7,-19.1 -17.1,-20.7 -16.1,-20.9 -13.1,-20.6 -12.2,-20.1 -9.9,-18.1 -9.9,-18.1 -7.7,-14.6 -6.2,-12.1 -2.1,-5.8 -0.4,-5.3 2.4,-4.3 2.8,-4 4.1,-2.7 4.3,-2.2 4.9,-0.5 4.9,0.1 4.6,1.8 4.3,2.3 3.2,3.7 2.7,4.1 1.1,4.8 0.5,4.8 -1.2,4.8 -1.2,4.8 Z"></path></g><g transform="translate(1109.46 121.07) rotate(0 7.94 9.19)" stroke="none"><path fill="#1e1e1e" d="M 4.9,-1.1 Q 4.9,-1.1 5.2,0 8.2,4.8 9.6,6.3 14.8,10.5 16.4,11.4 19.8,13.1 20.5,13.9 22.1,16.6 22.2,17.6 21.9,20.7 21.4,21.6 19.3,23.9 18.3,24.3 15.2,24.8 14.2,24.6 11.5,23.1 10.8,22.3 9.5,19.5 9.5,18.4 10.1,15.4 10.7,14.6 13.1,12.5 14.1,12.2 17.2,12 18.2,12.4 20.8,14.1 21.3,15 22.4,17.9 22.3,19 21.3,21.9 20.6,22.7 18,24.5 17,24.7 13.9,24.6 13.9,24.6 7,20.7 4.6,18.7 -0.9,12.6 -1.8,10.6 -4.5,3.5 -4.7,2.3 -5,-0.1 -4.9,-0.7 -4.4,-2.4 -4,-2.9 -2.8,-4.2 -2.2,-4.4 -0.5,-5 0.1,-5 1.8,-4.7 2.4,-4.4 3.8,-3.3 4.1,-2.8 4.9,-1.1 4.9,-1.1 Z"></path></g><g transform="translate(243.57 239.11) rotate(0 -16.98 41.8)" stroke="none"><path fill="#1e1e1e" d="M 0,5.2 Q 0,5.2 -3.4,5.1 -13.7,5.4 -16.4,5.6 -23.9,7.5 -25.8,8.6 -31,13.9 -31.6,15.9 -34.1,23 -34.7,25.6 -36.1,33.1 -36.1,35.7 -36.4,44.1 -36.4,46.5 -35.8,54.2 -35,56.5 -32.8,63.8 -31.6,65.8 -27.6,71.2 -25.7,72.4 -19.4,75.4 -17.1,75.8 -10.3,76.2 -7.8,76.2 0.9,75.1 4.9,73.8 11.3,72.7 12.5,73.1 15.5,75.1 16.1,76.1 17.3,79.5 17.2,80.8 16.1,84.2 15.2,85.1 12.3,87.1 11.1,87.3 7.5,87.2 6.4,86.6 3.6,84.3 3.1,83.2 2.3,79.7 2.5,78.5 4,75.2 4.9,74.4 8.1,72.7 9.3,72.6 12.9,73.2 13.9,73.8 16.4,76.4 16.8,77.6 17.2,81.2 16.8,82.3 15,85.4 14,86.1 10.7,87.5 10.7,87.5 9.7,87.9 7.4,88.6 -0.7,90.6 -3,90.8 -10.4,91 -13.1,90.9 -20.4,90.3 -23.6,89.5 -32.3,86.2 -34.6,84.6 -40,79.5 -41.9,77 -46.1,70 -47,67.3 -49.5,59.6 -50.2,56.5 -51.1,47.5 -51,44.6 -50.7,35.3 -50.5,33.1 -49.5,26 -48.7,23.6 -46.3,15.9 -45.1,13.3 -41.9,6.7 -40.4,4.8 -35.2,-0.3 -32.9,-1.5 -24.7,-4.8 -22.1,-5.1 -13.7,-5.4 -10.2,-5.2 0,-5.2 0.6,-5.2 2.4,-4.7 3,-4.3 4.3,-3 4.6,-2.4 5.2,-0.6 5.2,0 4.9,1.9 4.6,2.4 3.5,3.9 3,4.3 1.2,5.1 0.6,5.2 0,5.2 0,5.2 Z"></path></g><g transform="translate(253.04 221.8) rotate(0 49.48 49.32)" stroke="none"><path fill="#1e1e1e" d="M 3.7,-3.7 Q 3.7,-3.7 4.8,-2.6 9.8,1.5 11.8,3.2 17.6,8.1 19.7,9.8 25.3,14.6 27.1,16.3 32,21 34.3,23.4 40.4,29.4 42.6,31.6 48.4,37.9 50.7,40 57.3,46.4 58.8,48.1 64.9,54.8 66.3,56.6 72.3,63.5 74,65.4 79.4,70.8 81.5,72.5 86.7,77.5 88.5,79.7 93.4,85.4 95.3,87.2 103.5,92.5 104.3,93.4 106.2,96.5 106.4,97.7 106,101.3 105.4,102.4 103,105.1 101.8,105.5 98.2,106.2 97,105.9 93.8,104.2 93.1,103.2 91.5,100 91.5,98.7 92.2,95.2 92.9,94.2 95.7,91.8 96.8,91.5 100.5,91.2 101.6,91.7 104.7,93.7 105.3,94.7 106.5,98.1 106.4,99.3 105.3,102.8 104.5,103.7 101.5,105.8 100.3,106 96.6,105.8 95.5,105.3 94.5,104.7 92,103.3 84.6,97.8 83,96.2 78.2,90.6 76.5,88.5 71.7,83.2 69.4,81.2 63.6,75.5 61.5,73.3 56.7,67.8 54.8,65.6 49.4,59.6 47.9,57.6 42.9,52.4 40.8,50.4 34.7,43.7 33,41.8 27.6,36.3 25.8,34.2 19.1,27.2 17.5,25.6 13,20.9 11,19.2 5.8,14 4,12.1 -1.5,6 -2.6,4.8 -4.4,2.7 -4.7,2.1 -5.2,0.3 -5.1,-0.3 -4.7,-2.1 -4.4,-2.7 -3.2,-4.1 -2.7,-4.4 -0.9,-5.1 -0.3,-5.1 1.5,-5 2.1,-4.7 3.7,-3.7 3.7,-3.7 Z"></path></g><g transform="translate(352 320.43) rotate(0 0 0)" stroke="none"><path fill="#1e1e1e" d="M 3.1,-3.1 Q 3.1,-3.1 3.5,-2.5 4.4,-0.6 4.4,0.1 3.9,2.2 3.4,2.7 1.8,4.1 1.1,4.2 -1.1,4.3 -1.7,4 -3.5,2.8 -3.8,2.1 -4.4,0.1 -4.3,-0.6 -3.6,-2.6 -3.1,-3.1 -1.3,-4.2 -0.6,-4.3 1.5,-4.2 2.1,-3.8 3.7,-2.4 4,-1.7 4.4,0.4 4.2,1.1 3.3,3 2.7,3.4 0.8,4.4 0.1,4.4 -2,4 -2.5,3.5 -3.1,3.1 -3.5,2.7 -4.2,1.3 -4.3,0.8 -4.4,-0.8 -4.2,-1.3 -3.5,-2.7 -3.1,-3.1 -1.8,-4 -1.3,-4.2 0.3,-4.4 0.8,-4.3 2.3,-3.8 2.7,-3.5 3.1,-3.1 3.1,-3.1 Z"></path></g><g transform="translate(290.27 261.64) rotate(0 -11.43 27.92)" stroke="none"><path fill="#1e1e1e" d="M 5.2,1.1 Q 5.2,1.1 4.9,2.9 3.1,11.1 2.2,13.4 -1,21.8 -1.8,24 -4.5,31.1 -5.6,33.6 -8.8,40.5 -9.6,42.7 -12.5,49.4 -13.7,51.9 -16.8,59.4 -17.5,60.3 -20.1,62.4 -21.2,62.6 -24.6,62.7 -25.7,62.2 -28.4,60.2 -29,59.2 -29.9,56 -29.8,54.8 -28.6,51.7 -27.7,50.9 -24.9,49.1 -23.7,48.9 -20.4,49.2 -19.4,49.8 -16.9,52.1 -16.4,53.2 -15.8,56.5 -16.1,57.6 -17.6,60.6 -18.6,61.3 -21.6,62.8 -22.7,62.8 -26.1,62.1 -27,61.5 -29.2,58.9 -29.5,57.8 -29.8,54.4 -29.4,53.4 -29,52.3 -28,50.2 -24.9,43.5 -23.9,41.6 -20.9,34.9 -19.8,32.6 -15.6,24.1 -14.4,21.7 -11.1,14.5 -9.4,11.1 -6.1,2.4 -5.7,0.7 -4.8,-2.3 -4.5,-2.9 -3.2,-4.3 -2.6,-4.6 -0.8,-5.3 -0.2,-5.3 1.7,-5 2.3,-4.8 3.9,-3.7 4.2,-3.1 5.1,-1.4 5.2,-0.8 5.2,1.1 5.2,1.1 Z"></path></g><g transform="translate(285.05 294.63) rotate(0 16.98 -0.49)" stroke="none"><path fill="#1e1e1e" d="M 0,-5.2 Q 0,-5.2 1.8,-5.3 8.3,-5.7 10.5,-5.8 17.6,-6.3 20,-6.6 28,-7.7 31,-7.7 36.1,-7.4 37.1,-6.9 39.6,-4.8 40.1,-3.8 40.8,-0.6 40.5,0.5 39.2,3.4 38.3,4.1 35.4,5.7 34.3,5.7 31.1,5.2 30.2,4.6 27.9,2.2 27.6,1.2 27.2,-2.1 27.6,-3.1 29.3,-5.9 30.2,-6.5 33.2,-7.8 34.3,-7.7 37.5,-6.8 38.3,-6.1 40.3,-3.5 40.5,-2.4 40.5,0.8 40.1,1.8 38.1,4.4 37.1,5 34,5.8 34,5.8 27.1,5.8 25,6 17.6,6.3 15.1,6.1 8.3,5.7 5.9,5.5 0,5.2 -0.6,5.1 -2.4,4.6 -2.9,4.2 -4.3,3 -4.6,2.4 -5.2,0.6 -5.2,0 -4.8,-1.8 -4.6,-2.4 -3.4,-3.9 -2.9,-4.2 -1.2,-5 -0.6,-5.1 0,-5.2 0,-5.2 Z"></path></g><g transform="translate(413.72 226.7) rotate(0 -9.31 41.15)" stroke="none"><path fill="#1e1e1e" d="M 5,-1.1 Q 5,-1.1 5.4,0.2 8.7,5.9 10.4,8 12.4,10.2 12.9,10.8 13.9,12.9 14,13.6 13.9,15.9 13.6,16.6 12.5,18.6 11.9,19.1 10,20.3 9.3,20.5 7,20.7 6.3,20.6 4.2,19.7 3.6,19.2 6.9,20.7 3.8,20.2 -3.6,19 -6.4,18.9 -13.9,18.5 -16.6,19.5 -22,24.5 -23.4,26.2 -26.5,32.4 -27.3,35.2 -28.5,42.4 -28.5,45.5 -27.4,53.8 -26.6,56.1 -22.6,63.5 -21.2,65.4 -16,70.5 -14,71.9 -7,74.5 -4.2,74.6 2.9,74.8 5.1,74.5 13,69.8 14.1,69.3 17.6,68.5 18.9,68.8 22.2,70.3 23,71.2 24.7,74.4 24.8,75.6 24.2,79.2 23.6,80.2 20.9,82.8 19.8,83.2 16.1,83.6 15,83.2 11.8,81.4 11.1,80.3 9.8,77 9.8,75.8 10.8,72.2 11.6,71.3 14.4,69.1 15.6,68.8 19.3,68.8 20.4,69.3 23.3,71.4 23.9,72.5 24.9,76 24.7,77.2 23.4,80.6 22.5,81.5 21.6,82.3 19.5,83.8 12.8,88.3 10.6,88.8 2.9,89.8 0.6,89.8 -7.1,89.5 -9.6,89.4 -16.3,88.2 -18.2,87 -24.1,83.2 -25.9,81.7 -32.1,75.6 -33.7,73.4 -37.6,67.4 -38.8,64.8 -41.6,57.7 -42.4,54.5 -43.4,46.2 -43.4,44.1 -42.9,36.8 -42.4,34.5 -40.6,27.6 -39.5,24.8 -35.6,17.8 -33.4,15.3 -27.1,8.8 -25.1,7.8 -17.9,4.8 -15.7,4.6 -8.8,4.8 -5.8,5 3.4,6.3 5.6,7.2 12.4,10.2 12.9,10.8 13.9,12.9 14,13.6 13.9,15.9 13.6,16.6 12.5,18.6 11.9,19.1 10,20.3 9.3,20.5 7,20.7 6.3,20.6 4.2,19.7 3.6,19.2 1.8,16.7 0.4,14.7 -2.8,8.8 -3.7,6.3 -5,1.1 -5.1,0.5 -4.9,-1.4 -4.7,-1.9 -3.7,-3.5 -3.3,-3.9 -1.7,-4.8 -1.1,-5 0.8,-5.1 1.4,-4.9 3,-4.1 3.5,-3.7 4.6,-2.2 4.8,-1.7 5,-1.1 5,-1.1 Z"></path></g><g transform="translate(405.23 202.2) rotate(0 66.95 56.83)" stroke="none"><path fill="#1e1e1e" d="M 0.6,-5.2 Q 0.6,-5.2 3,-4.9 11,-4.4 13.4,-4.2 20.7,-4 23,-3.8 29.5,-2.7 32,-2.4 39.7,-0.1 42.1,1.3 48.3,7 49.6,8.7 53.9,13.9 55.7,15.5 61.8,21.2 63.1,22.9 67.5,27.9 69.3,30 74.3,36.9 75.6,38.8 79.4,45.1 80.7,47.3 84.7,53 86.3,55.1 91.4,61.7 92.8,63.3 96.8,68.4 98.3,70.1 102.7,75.6 104.1,77.5 108.7,83.7 110.2,85.4 115.7,90.8 117.6,92.3 123.4,97.2 125.6,99.4 132.5,103.8 135.5,105.8 140.1,109.5 140.6,110.6 141.3,114.1 141,115.3 139.5,118.5 138.6,119.3 135.4,120.9 134.2,121 130.7,120.4 129.8,119.7 127.3,117.1 127,115.9 126.6,112.4 127,111.3 128.8,108.2 129.8,107.6 133.2,106.3 134.3,106.3 137.8,107.3 138.7,108.1 140.8,111 141.1,112.1 141,115.7 140.5,116.8 138.3,119.6 137.3,120.1 133.8,121.1 132.7,120.9 129.4,119.5 129.4,119.5 126.8,117.7 124.8,116.4 119.1,112.8 116.6,110.7 111,105.7 109.2,104.4 104.2,100.1 101.3,97.3 95.5,91 94.1,89.2 89.7,83.3 88.2,81.4 83.2,75.1 81.2,72.7 76.4,66.5 74.9,64.7 70,58.7 68.4,56.1 64.8,49.7 63.6,47.9 60,42.5 58.5,40.4 53.6,34.6 51.6,32.2 45.9,26.2 44.3,24.6 38.9,18.3 37.2,16 30.8,10.8 28.3,10.2 19.9,8.4 17.3,8.1 9.5,6.6 6.8,6.2 -0.6,5.2 -1.2,5 -3,4.3 -3.4,3.9 -4.6,2.4 -4.8,1.8 -5.2,0 -5.1,-0.6 -4.6,-2.4 -4.3,-2.9 -3,-4.3 -2.4,-4.6 -0.6,-5.2 0,-5.2 0.6,-5.2 0.6,-5.2 Z"></path></g><g transform="translate(484.6 264.58) rotate(0 -20.9 29.23)" stroke="none"><path fill="#1e1e1e" d="M 4.5,2.7 Q 4.5,2.7 3.4,4.6 -0.3,11.7 -1.8,14.3 -6.9,22.8 -8.2,25 -12.3,31.5 -13.8,33.7 -17.9,40.5 -19.1,42.3 -23.2,48 -24.8,49.9 -29.9,56.1 -31.5,57.8 -36.4,63.4 -37.3,64.1 -40.5,65.7 -41.7,65.7 -45.1,65 -46.1,64.3 -48.4,61.7 -48.8,60.5 -49,57 -48.6,55.9 -46.7,53 -45.6,52.3 -42.3,51.1 -41.1,51.2 -37.8,52.3 -36.9,53.1 -34.9,56 -34.7,57.1 -34.8,60.7 -35.3,61.7 -37.6,64.5 -38.6,65 -42.1,65.8 -43.2,65.6 -46.5,64.1 -47.2,63.2 -48.9,60.2 -49,59 -48.5,55.5 -47.9,54.5 -47.2,53.5 -45.4,51.3 -39.8,45.5 -38.4,43.9 -33.2,37.9 -31.7,36 -27.9,30.3 -25.9,27.6 -20.6,20.7 -19,18.5 -13.8,10.9 -11.9,8.5 -6.8,1 -5.7,-0.8 -3.7,-3.7 -3.2,-4.1 -1.6,-5 -0.9,-5.1 0.9,-5.1 1.5,-5 3.2,-4.1 3.6,-3.7 4.8,-2.2 5,-1.6 5.2,0.3 5.1,0.9 4.5,2.7 4.5,2.7 Z"></path></g><g transform="translate(465 302.47) rotate(0 27.76 -0.65)" stroke="none"><path fill="#1e1e1e" d="M 0,-5.3 Q 0,-5.3 1.5,-5.4 8.9,-5.9 11.4,-6 18.9,-6.8 21.9,-7 32.4,-7.2 36,-7.3 44.4,-7.7 46.6,-7.8 55.5,-8 56.6,-7.8 59.5,-6.6 60.3,-5.8 61.9,-3.1 62,-2 61.7,1.1 61.1,2.1 59,4.4 58,4.8 54.8,5.3 53.8,5 50.9,3.5 50.3,2.7 49,-0.2 49,-1.3 49.6,-4.4 50.3,-5.3 52.7,-7.3 53.8,-7.6 56.9,-7.8 57.9,-7.4 60.6,-5.6 61.1,-4.7 62.2,-1.7 62,-0.6 61,2.4 60.3,3.2 57.6,5 56.6,5.2 55.5,5.3 53.1,5.3 44.9,5.2 42.2,5.2 32.4,5.3 28.9,5.3 20.5,5.5 17.3,5.8 8.9,5.9 5.9,5.7 0,5.3 -0.6,5.2 -2.5,4.7 -3,4.3 -4.4,3 -4.7,2.5 -5.3,0.6 -5.3,0 -5,-1.9 -4.7,-2.5 -3.5,-4 -3,-4.3 -1.3,-5.2 -0.6,-5.2 0,-5.3 0,-5.3 Z"></path></g><g transform="translate(544.04 243.03) rotate(0 2.12 0.16)" stroke="none"><path fill="#1e1e1e" d="M 0.4,-4.7 Q 0.4,-4.7 1.5,-4.7 3.8,-4.8 4.4,-4.7 6.1,-4 6.6,-3.6 7.8,-2.3 8.1,-1.7 8.5,0.1 8.4,0.7 8,2.5 7.7,3 6.4,4.3 5.9,4.7 4.2,5.3 3.6,5.3 -0.4,5.1 -1.2,4.9 -3.4,3.8 -4,3.2 -5.1,1 -5.1,0.1 -4.6,-2.3 -4.1,-3 -2.3,-4.6 -1.5,-4.9 0.9,-5.1 1.7,-4.8 3.8,-3.5 4.3,-2.8 5.1,-0.4 5.1,0.4 4.3,2.8 3.8,3.4 1.8,4.8 1,5 -1.5,4.9 -2.2,4.6 -4.2,3 -4.5,2.3 -5.2,-0.1 -5,-0.9 -4,-3.2 -3.4,-3.8 -1.2,-5 -0.4,-5.1 0.4,-5.1 2.1,-5 5,-4.5 5.6,-4.3 7.1,-3.2 7.4,-2.8 8.3,-1.1 8.4,-0.5 8.4,1.3 8.2,1.9 7.3,3.5 6.9,3.9 5.4,5 4.8,5.1 3,5.3 2.4,5.2 -0.4,4.7 -0.9,4.6 -2.5,4 -3,3.6 -4.1,2.4 -4.3,1.8 -4.8,0.2 -4.7,-0.4 -4.3,-2 -4,-2.5 -2.8,-3.8 -2.3,-4.1 -0.8,-4.7 -0.2,-4.7 0.4,-4.7 0.4,-4.7 Z"></path></g><g transform="translate(551.88 238.46) rotate(0 35.76 38.38)" stroke="none"><path fill="#1e1e1e" d="M 4.6,-2.4 Q 4.6,-2.4 5.7,-0.5 9.9,5.2 12.2,7.5 17.5,13.1 19.3,14.5 24.3,18.7 26.5,20.4 33.2,26.1 34.9,27.6 40.1,32.6 41.9,34.4 47.4,40 50.4,43.3 56.1,49.9 57.7,51.7 63.7,58.4 65.8,61 71.5,67 73.3,68.9 76.8,72.2 77.4,73.2 78.5,76.4 78.3,77.5 77.3,80.7 76.5,81.5 73.7,83.3 72.6,83.5 69.3,83.3 68.3,82.8 65.8,80.6 65.3,79.6 64.6,76.4 64.8,75.3 66.2,72.2 67.1,71.5 70,70 71.2,69.9 74.5,70.4 75.4,71.1 77.7,73.5 78,74.6 78.4,77.9 78,79 76.3,81.8 75.4,82.4 72.3,83.7 71.1,83.6 67.9,82.7 67.9,82.7 62.3,77.2 60.6,75.5 55.4,69.6 53.3,67.2 47.7,61 45.5,58.5 39.8,52.7 37.9,50.5 32.5,44.6 30.8,42.9 25.1,37.5 23,35.5 17.4,30.4 15.5,28.6 10.1,23.5 8.5,21.7 3,15 1.6,13.3 -2.6,6.4 -3.6,4.4 -5,1.2 -5.1,0.6 -5,-1.2 -4.8,-1.8 -3.9,-3.5 -3.4,-3.9 -1.8,-4.9 -1.2,-5 0.6,-5.2 1.2,-5 3,-4.3 3.4,-3.9 4.6,-2.4 4.6,-2.4 Z"></path></g><g transform="translate(549.26 238.78) rotate(0 36.42 40.82)" stroke="none"><path fill="#1e1e1e" d="M 4.6,-2.5 Q 4.6,-2.5 5.7,-0.7 10.2,5.2 11.9,6.8 17.1,11.8 18.6,13.3 23.8,18.7 26.3,21.3 32.2,27.4 33.8,29 39,34.4 41.2,36.5 47.1,42 49.3,44.3 54.7,49.7 56.7,52.1 63.1,60.1 64.9,62.4 71.1,70.7 72.7,72.7 76.8,76 77.6,76.7 79.4,79.5 79.6,80.6 79.4,83.9 78.8,84.9 76.6,87.4 75.6,87.9 72.4,88.5 71.3,88.3 68.3,86.9 67.6,86 66,83 66,81.9 66.6,78.7 67.2,77.7 69.7,75.5 70.7,75.1 74,74.8 75.1,75.2 77.9,77 78.5,77.9 79.7,81 79.6,82.1 78.7,85.3 78,86.1 75.3,88.1 74.2,88.3 70.9,88.3 69.9,87.8 68.9,87.3 67.4,86.2 62.9,82.1 61.5,80.3 56.1,73.2 54.4,71 48.3,63.5 46.4,61.4 41.5,56 39.7,54.2 34.4,48.9 32.6,47.4 27.7,42.6 26,40.8 21.1,35.1 19,33 12.8,26.1 11.1,24.1 5.9,18.1 4.4,16.3 0.1,10.8 -1.3,8.6 -4.6,2.5 -4.8,1.9 -5.2,0.1 -5.2,-0.5 -4.7,-2.3 -4.3,-2.9 -3,-4.2 -2.5,-4.5 -0.7,-5.2 -0.1,-5.2 1.8,-4.9 2.3,-4.6 3.8,-3.5 4.2,-3 4.6,-2.5 4.6,-2.5 Z"></path></g><g transform="translate(653.77 229.64) rotate(0 -15.51 45.72)" stroke="none"><path fill="#1e1e1e" d="M 4.5,1.7 Q 4.5,1.7 3.5,4.4 0.9,11.1 0,13.3 -5,25.9 -5.9,28.5 -9.6,40.4 -10.6,43.1 -13.4,52.5 -14.1,55.4 -16.8,64.3 -17.8,67.4 -20.3,76.1 -20.9,78.5 -22.7,85.4 -25.4,91.3 -30.3,97.7 -31.3,97.7 -34.4,96.8 -35.2,96.2 -37.2,93.6 -37.4,92.6 -37.5,89.4 -37,88.4 -35.1,85.8 -34.1,85.3 -31.1,84.5 -30,84.6 -27,85.8 -26.3,86.6 -24.6,89.3 -24.5,90.4 -24.8,93.5 -25.4,94.5 -27.6,96.8 -28.6,97.2 -31.7,97.7 -32.7,97.5 -35.6,96 -36.2,95.1 -37.6,92.2 -37.6,91.2 -36.9,88 -36.3,87.2 -33.9,85.1 -33.9,85.1 -35.9,83.5 -35,81 -32.1,72.4 -31.1,69.6 -27.7,60.1 -26.6,57.2 -23.6,49.2 -22.3,45.8 -19.2,37.3 -18.3,34.6 -15.9,27.8 -15,25.2 -10.2,11.5 -8.4,7.6 -4.5,-1.7 -4.2,-2.2 -3.2,-3.6 -2.7,-3.9 -1.1,-4.7 -0.6,-4.7 1.1,-4.7 1.7,-4.5 3.2,-3.6 3.6,-3.2 4.5,-1.7 4.6,-1.1 4.8,0.6 4.6,1.1 4.5,1.7 4.5,1.7 Z"></path></g><g transform="translate(638.75 233.56) rotate(0 11.59 -1.8)" stroke="none"><path fill="#1e1e1e" d="M -0.5,-5.2 Q -0.5,-5.2 2.4,-5.5 11.4,-6.6 13.5,-6.9 21,-9.1 21.9,-9.3 24.8,-9.3 25.7,-8.9 27.9,-7.2 28.4,-6.3 29.2,-3.6 29,-2.6 27.9,0 27.2,0.7 24.8,2.2 23.8,2.3 21,2 20.1,1.5 18.1,-0.5 17.7,-1.4 17.2,-4.2 17.5,-5.2 18.8,-7.7 19.6,-8.3 22.2,-9.5 23.2,-9.5 26,-8.9 26.8,-8.3 28.6,-6.1 28.9,-5.2 29,-2.3 28.7,-1.4 27.1,1 26.2,1.5 25.4,2 21.2,3.1 12.5,4.4 9.4,4.5 0.5,5.2 -0.1,5.2 -2,4.9 -2.5,4.6 -4,3.4 -4.4,2.9 -5.1,1.1 -5.2,0.5 -5.1,-1.4 -4.8,-2 -3.9,-3.6 -3.4,-4 -1.7,-5 -1.1,-5.1 -0.5,-5.2 -0.5,-5.2 Z"></path></g><g transform="translate(672.39 236.5) rotate(0 12.25 -3.43)" stroke="none"><path fill="#1e1e1e" d="M -0.6,-5.1 Q -0.6,-5.1 1,-5.4 9.4,-8.1 11.5,-8.8 18.3,-10.9 21.6,-11.5 26.7,-11.7 27.5,-11.2 29.4,-9.3 29.7,-8.5 30.1,-5.8 29.8,-4.9 28.5,-2.5 27.8,-2 25.3,-0.9 24.4,-1 21.7,-1.6 21,-2.2 19.3,-4.3 19.1,-5.2 19,-7.9 19.4,-8.7 20.9,-10.9 21.7,-11.4 24.3,-12.2 25.2,-12.1 27.8,-11.1 28.4,-10.5 29.9,-8.2 30,-7.3 29.8,-4.6 29.4,-3.8 27.6,-1.8 26.7,-1.4 24.1,-0.9 24.1,-0.9 21.4,-0.2 17.2,1.1 3.8,4.9 2.2,5 -0.6,5.1 -1.2,5 -2.9,4.2 -3.4,3.8 -4.6,2.4 -4.8,1.8 -5.1,0 -5.1,-0.6 -4.5,-2.4 -4.2,-2.9 -2.9,-4.2 -2.4,-4.5 -0.6,-5.1 -0.6,-5.1 Z"></path></g><g transform="translate(682.51 236.17) rotate(0 0.16 32.99)" stroke="none"><path fill="#1e1e1e" d="M 5.2,0 Q 5.2,0 5.3,2.1 5.6,8.6 6.1,11.2 7.1,18.3 7.2,20.4 7.6,27.6 7.6,30.5 7.8,38.6 7.9,41.1 8.1,48.5 7.8,51.1 7.2,58.6 7.1,60.8 6.6,65.3 6.5,66.1 5.6,68.6 5.1,69.3 3.2,71.1 2.4,71.5 -0.1,72.2 -0.9,72.2 -3.5,71.7 -4.2,71.2 -6.3,69.6 -6.7,68.8 -7.8,66.5 -7.8,65.6 -7.8,63.9 -7.5,62.8 -5.7,59.8 -4.7,59.1 -1.5,57.8 -0.3,57.8 3,58.7 3.9,59.5 6.1,62.2 6.3,63.4 6.3,66.9 5.9,67.9 3.8,70.7 2.8,71.3 -0.6,72.2 -1.7,72.1 -5,70.8 -5.8,70 -7.6,67 -7.8,65.8 -7.4,62.4 -6.8,61.4 -4.5,58.8 -3.4,58.4 0.1,57.8 1.2,58.1 4.3,59.7 5,60.6 6.5,63.8 6.5,64.5 6.3,67 6,67.8 4.6,70 3.9,70.6 1.6,71.9 0.8,72 -1.8,72.2 -2.6,71.9 -5,70.8 -5.6,70.2 -7.2,68.1 -7.5,67.3 -7.9,64.7 -7.5,62.1 -6.7,54.1 -6.4,51.9 -6,45.4 -6,42.7 -5.8,35 -5.7,32.4 -5.5,24.6 -5.5,22.1 -5.3,13.7 -5.5,11.2 -5.3,4.1 -5.3,2.1 -5.1,-1.2 -4.8,-1.8 -3.9,-3.5 -3.4,-3.9 -1.9,-4.9 -1.2,-5 0.6,-5.2 1.2,-5 3,-4.3 3.4,-3.9 4.6,-2.4 4.8,-1.8 5.2,0 5.2,0 Z"></path></g><g transform="translate(690.03 235.19) rotate(0 0.82 36.58)" stroke="none"><path fill="#1e1e1e" d="M 5.3,0 Q 5.3,0 5.4,1.9 5.7,9.6 5.8,12.9 6.1,21.7 6.3,24.7 7.2,33.4 7.3,35.8 8,44.2 8.3,46.8 8.6,54.8 8.7,57.1 8.8,64.5 8.7,67.5 8.5,72.8 8.3,73.7 7.4,76.1 6.8,76.8 4.9,78.5 4.1,78.8 1.5,79.4 0.7,79.3 -1.9,78.7 -2.6,78.2 -4.5,76.5 -5,75.7 -5.9,73.3 -5.9,72.4 -5.6,69.9 -5,68.8 -2.8,66.2 -1.7,65.7 1.7,64.9 2.8,65.2 6,66.6 6.8,67.5 8.4,70.6 8.4,71.8 7.9,75.2 7.2,76.2 4.7,78.6 3.6,79 0.1,79.3 -1,79 -4,77.2 -4.6,76.2 -5.9,73 -5.8,71.8 -4.9,68.4 -4.2,67.5 -1.4,65.4 -0.2,65.2 3.2,65.2 4.3,65.7 7.1,67.8 7.6,68.8 8.6,72.2 8.5,72.5 8.2,74.5 7.8,75.3 6.3,77.5 5.6,78 3.2,79.2 2.4,79.3 -0.2,79.3 -1,79 -3.3,77.8 -3.9,77.1 -5.4,75 -5.6,74.1 -5.9,71.5 -5.7,69.5 -5.5,63 -5.4,60.5 -5.3,52.5 -5.3,50.2 -5.5,42.9 -5.6,40.7 -5.9,32 -6,29.2 -6.1,21.7 -6,19 -5.7,9.6 -5.6,6.7 -5.3,0 -5.3,-0.6 -4.7,-2.5 -4.4,-3 -3,-4.4 -2.5,-4.7 -0.6,-5.3 0,-5.3 1.9,-5 2.5,-4.7 4,-3.5 4.4,-3 5.2,-1.3 5.3,-0.6 5.3,0 5.3,0 Z"></path></g><g transform="translate(699.82 309) rotate(0 -14.7 1.47)" stroke="none"><path fill="#1e1e1e" d="M 0,5.3 Q 0,5.3 -1.6,5.4 -7.4,5.8 -10.5,6 -18.9,6.7 -21.2,7.4 -28.6,9.4 -29.6,9.3 -32.6,8.6 -33.4,7.9 -35.4,5.5 -35.6,4.4 -35.7,1.3 -35.2,0.4 -33.4,-2.1 -32.5,-2.6 -29.5,-3.5 -28.5,-3.4 -25.6,-2.3 -24.8,-1.5 -23.2,1.1 -23.1,2.1 -23.3,5.2 -23.9,6.1 -25.9,8.4 -26.9,8.8 -30,9.4 -31,9.1 -33.8,7.7 -34.4,6.9 -35.8,4.1 -35.8,3.1 -35.2,0 -34.5,-0.8 -32.2,-2.9 -31.2,-3.2 -30.2,-3.5 -28,-4.1 -19.4,-5.6 -16.6,-5.6 -7.4,-5.8 -5.3,-5.6 0,-5.3 0.6,-5.2 2.5,-4.7 3,-4.3 4.4,-3 4.7,-2.4 5.3,-0.6 5.3,0 5,1.9 4.7,2.4 3.5,4 3,4.3 1.3,5.1 0.6,5.2 0,5.3 0,5.3 Z"></path></g></svg>
