<?xml version="1.0" standalone="no"?><svg version="1.1" xmlns="http://www.w3.org/2000/svg" viewBox="0 0 1076.437102853188 152.69963181844895" width="2152.874205706376" height="305.3992636368979"><defs><style class="style-fonts"></style></defs><g transform="translate(10 91.06) rotate(0 5.79 19.96)" stroke="none"><path fill="#1e1e1e" d="M 0.8,-2.5 Q 0.8,-2.5 1.7,-2.3 5.8,0 6.7,0.8 9.5,3.4 10.2,4.4 11.9,7.7 12.4,8.6 14.2,12.3 14.3,13.6 14.7,17.6 14.8,18.7 14.9,23 14.7,24.4 14.1,28 13.7,29.2 11.9,33.6 11.3,34.7 8.8,38.2 8,39.1 5.4,42.1 5,42.5 3.5,43.4 2.9,43.4 1.2,43.2 0.7,42.9 -0.5,41.7 -0.7,41.2 -0.9,39.5 -0.8,38.9 0,37.4 0.5,37.1 2.1,36.4 2.6,36.4 4.3,36.8 4.8,37.1 5.8,38.5 6,39 6.1,40.7 5.8,41.2 4.9,42.7 4.4,43 2.7,43.5 2.2,43.4 0.6,42.8 0.1,42.4 -0.8,41 -0.9,40.4 -0.8,38.7 -0.5,38.2 -0.2,37.7 0.8,36.5 4.3,32.5 4.9,31.5 7,27.5 7.3,26.2 8.1,21.6 8.1,20.4 7.9,17 7.8,15.1 6,10.1 5.3,8.6 2.7,5 1.8,4.1 -0.8,2.5 -1.1,2.4 -1.9,1.8 -2.1,1.6 -2.5,0.7 -2.6,0.4 -2.6,-0.5 -2.5,-0.8 -2,-1.7 -1.8,-1.9 -1,-2.4 -0.7,-2.5 0.2,-2.6 0.5,-2.6 0.8,-2.5 0.8,-2.5 Z"></path></g><g transform="translate(10.4 90.66) rotate(0 21.85 7.38)" stroke="none"><path fill="#1e1e1e" d="M 1.5,-2.2 Q 1.5,-2.2 2.3,-1.7 5.4,0.4 7.2,1.7 11.4,4.7 12.8,5.4 16.3,7.3 17.4,7.9 21.7,9.2 23.4,9.6 28.4,10.8 29.6,11 33.5,11.3 34.9,11.3 38.4,11.3 39.6,11.2 40.2,13 40.4,12.5 41.4,11.1 41.9,10.8 43.5,10.2 44,10.3 45.7,10.8 46.1,11.2 47.1,12.6 47.1,13.2 47.1,14.9 46.8,15.4 45.7,16.7 45.2,16.9 43.5,17.3 43,17.2 41.4,16.5 41,16.1 40.2,14.6 40.2,14 40.5,12.3 40.8,11.8 42,10.6 42.5,10.5 44.2,10.3 44.8,10.4 46.3,11.3 46.6,11.8 47.2,13.3 47.2,13.9 47.2,14.5 43.4,16.4 37.5,18.2 36.1,18.2 31.8,18.2 30.6,18.1 26.8,17.4 25.1,17 20.1,15.8 18.4,15.3 14.6,13.8 13.5,13.2 10,10.9 9,10.2 5.6,7.6 3.8,6.3 -0.1,3.3 -0.8,2.7 -2,1.8 -2.2,1.5 -2.6,0.6 -2.6,0.3 -2.6,-0.6 -2.5,-0.9 -2,-1.8 -1.7,-2 -0.9,-2.5 -0.6,-2.5 0.3,-2.6 0.6,-2.5 1.5,-2.2 1.5,-2.2 Z"></path></g><g transform="translate(47.52 97.25) rotate(0 -0.2 16.57)" stroke="none"><path fill="#1e1e1e" d="M 2.5,0.4 Q 2.5,0.4 2.3,1.8 1.7,5.3 1.4,6.3 1.1,9.7 1.1,11.3 0.8,17.1 0.8,18.4 1.1,22 1.3,23.2 2.2,27.2 3.4,29.2 5.1,32.2 5.2,32.8 5,34.4 4.7,34.9 3.6,36.1 3,36.3 1.4,36.5 0.9,36.4 -0.6,35.6 -0.9,35.2 -1.6,33.7 -1.6,33.1 -1.2,31.5 -0.9,31.1 0.3,30 0.9,29.9 2.5,29.8 3,30 4.4,30.9 4.7,31.4 5.2,32.9 5.2,33.5 4.6,35 4.3,35.5 2.9,36.4 2.4,36.5 0.7,36.4 0.2,36.1 -1,35.1 -1,35.1 -3.8,30.3 -4.1,29.2 -4.9,25.2 -5.1,24 -5.2,19.5 -5.2,18.3 -4.9,12.8 -4.8,10.7 -4,6 -3.5,4.2 -2.5,-0.4 -2.5,-0.7 -2.1,-1.6 -1.8,-1.8 -1.1,-2.3 -0.8,-2.4 0.1,-2.6 0.4,-2.5 1.3,-2.2 1.6,-2 2.2,-1.4 2.3,-1.1 2.6,-0.2 2.6,0.1 2.5,0.4 2.5,0.4 Z"></path></g><g transform="translate(68.88 100.35) rotate(0 -0.78 11.53)" stroke="none"><path fill="#1e1e1e" d="M 1.7,1.9 Q 1.7,1.9 1,2.5 -1,5.1 -1.4,6.3 -2.4,9.7 -2.5,11.1 -2.5,15 -2.5,16.1 -1.6,19.4 -0.7,18.3 0.4,14.7 0.5,13.4 0.3,9.9 -0.1,8.8 -1.7,5.5 -2.5,1.9 -2.6,-2.6 -2.1,-3 -0.5,-3.7 0.1,-3.7 1.8,-3.2 2.3,-2.9 3.4,-1.4 3.5,-0.9 3.6,0.9 3.4,1.4 2.3,2.9 1.8,3.2 0.1,3.7 -0.5,3.6 -2.2,3 -2.6,2.6 -3.5,1.1 -3.6,0.5 -3.5,-1.3 -3.2,-1.8 -2,-3.1 -1.4,-3.4 0.3,-3.7 0.9,-3.5 2.5,-2.8 2.9,-2.3 3.6,-0.7 3.7,-0.1 3.3,1.6 3.3,1.6 3.5,0 4.2,0.9 6.2,4.3 6.7,5.6 7.8,9.4 7.9,10.7 7.9,15.1 7.8,16.3 7,20.2 6.3,21.4 3.8,24.8 2.8,25.4 -0.7,26.7 -1.8,26.6 -5.8,25 -6.6,24.1 -8.4,21.2 -8.8,20 -9.3,16.6 -9.2,15.5 -9.1,12 -8.9,10.4 -7.8,6.2 -7.1,4.8 -5,1.2 -4.1,0.2 -1.7,-1.9 -1.4,-2.1 -0.6,-2.5 -0.3,-2.5 0.6,-2.5 0.9,-2.4 1.7,-1.9 1.9,-1.7 2.4,-0.9 2.4,-0.6 2.5,0.3 2.4,0.6 2.1,1.4 1.9,1.7 1.7,1.9 1.7,1.9 Z"></path></g><g transform="translate(85.17 126.15) rotate(0 2.41 -15.96)" stroke="none"><path fill="#1e1e1e" d="M -2.4,-0.9 Q -2.4,-0.9 -2,-2 -0.9,-5.5 -0.6,-6.7 0.5,-10.5 0.8,-11.8 1.4,-16 1.4,-17.2 1.4,-20.9 1.2,-22.2 0.1,-25.6 -0.5,-26.4 -2.7,-29.9 -3,-30.4 -3.4,-32.1 -3.2,-32.6 -2.5,-34.2 -2.1,-34.6 -0.6,-35.4 0,-35.5 1.7,-35.2 2.2,-34.9 3.4,-33.6 3.6,-33.1 3.8,-31.4 3.6,-30.8 2.8,-29.3 2.3,-29 0.7,-28.3 0.1,-28.4 -1.6,-28.8 -2,-29.2 -3.1,-30.5 -3.2,-31.1 -3.2,-32.8 -3,-33.4 -2,-34.8 -1.4,-35 0.2,-35.5 0.8,-35.5 2.4,-34.8 2.8,-34.4 3.2,-34 4.7,-31.6 7.3,-26.8 7.6,-25.5 8.2,-21.6 8.2,-20.3 8,-16.6 7.9,-15.6 7.3,-11.5 6.8,-9.9 5.4,-5.9 4.8,-4.6 3.3,-1.3 2.9,-0.2 2.2,1.4 1.9,1.7 1.2,2.3 0.9,2.4 0,2.6 -0.3,2.6 -1.2,2.3 -1.4,2.1 -2.1,1.5 -2.3,1.2 -2.6,0.3 -2.6,0 -2.4,-0.9 -2.4,-0.9 Z"></path></g><g transform="translate(85.43 94.23) rotate(0 15.9 2.41)" stroke="none"><path fill="#1e1e1e" d="M 1.2,-2.3 Q 1.2,-2.3 2,-1.9 5.7,-0.3 6.9,0 10.6,1.1 11.8,1.2 15.9,1.4 17.1,1.4 20.5,0.8 21.7,0.4 26.5,-1.3 28.2,-2 30.9,-3.3 31.5,-3.3 33.1,-3.1 33.6,-2.8 34.8,-1.6 35,-1.1 35.3,0.6 35.1,1.1 34.3,2.6 33.8,2.9 32.3,3.6 31.7,3.6 30.1,3.2 29.6,2.8 28.6,1.5 28.4,1 28.4,-0.7 28.6,-1.2 29.6,-2.6 30.1,-2.9 31.7,-3.4 32.2,-3.3 33.8,-2.7 34.2,-2.3 35.1,-0.9 35.2,-0.3 35.1,1.3 34.8,1.8 33.7,3.1 33.7,3.1 29.3,5.1 27.2,6 22.7,7.5 21.6,7.7 17.3,8.2 16.1,8.2 12.2,7.9 10.8,7.7 6.8,6.4 5.5,5.9 2.1,4.4 1.2,3.8 -1.2,2.3 -1.5,2.1 -2.2,1.4 -2.3,1.2 -2.6,0.3 -2.6,-0.1 -2.4,-1 -2.3,-1.2 -1.7,-2 -1.4,-2.2 -0.6,-2.5 -0.3,-2.6 0.7,-2.5 1,-2.4 1.2,-2.3 1.2,-2.3 Z"></path></g><g transform="translate(117.22 94.36) rotate(0 -1.76 13.09)" stroke="none"><path fill="#1e1e1e" d="M 2,1.6 Q 2,1.6 1.1,2.7 -1.1,5.8 -1.4,6.9 -1.9,10.6 -1.9,11.7 -1.4,15.7 -1.1,16.9 0.7,20.2 2.2,21.8 4.6,24.3 4.8,24.8 5.1,26.5 5,27.1 4.2,28.6 3.8,29 2.2,29.7 1.6,29.7 -0.1,29.4 -0.5,29 -1.7,27.7 -1.8,27.2 -1.9,25.5 -1.8,24.9 -0.8,23.5 -0.3,23.2 1.3,22.6 1.9,22.6 3.5,23.2 4,23.6 5,25 5,25.6 5,27.3 4.7,27.8 3.6,29.1 3.1,29.4 1.4,29.8 0.8,29.7 -0.7,29 -0.7,29 -4.5,25.1 -5.1,24.2 -6.8,21.5 -7.2,20.1 -8.2,16 -8.3,14.8 -8.2,11.2 -8.1,9.7 -7.2,5.6 -6.4,4.2 -3.7,0.4 -2.9,-0.6 -1.6,-2.1 -1.3,-2.2 -0.4,-2.6 -0.1,-2.6 0.8,-2.5 1.1,-2.3 1.9,-1.8 2.1,-1.6 2.5,-0.7 2.6,-0.4 2.6,0.5 2.5,0.8 2,1.6 2,1.6 Z"></path></g><g transform="translate(158.66 123.81) rotate(0 7.49 -33.49)" stroke="none"><path fill="#1e1e1e" d="M 0,2.6 Q 0,2.6 -0.7,2.6 -3.7,2.9 -5.1,3 -8.8,2.2 -9.6,1.2 -11.5,-1.8 -12,-3 -13.2,-7.3 -13.3,-8.7 -13.5,-13.2 -13.6,-14.6 -13.3,-18.9 -13,-20.6 -11.7,-26.8 -11.3,-28.3 -10.3,-32.3 -10,-33.7 -8.3,-39.4 -8,-40.5 -6.7,-43.9 -5.8,-45.4 -4.1,-49 -3.6,-50.2 -1.6,-54 -0.5,-55.4 3.2,-59.7 4.3,-60.7 7.6,-63.5 8.6,-64.1 11.5,-66 12.8,-66.7 17.7,-68.8 18.9,-69.2 26.8,-70 27.3,-69.7 28.3,-68.4 28.5,-67.8 28.5,-66.2 28.3,-65.6 27.3,-64.3 26.9,-64 25.3,-63.5 24.7,-63.6 23.1,-64.1 22.7,-64.5 21.8,-65.9 21.8,-66.5 21.9,-68.1 22.1,-68.6 23.2,-69.9 23.8,-70.1 25.4,-70.4 25.9,-70.3 27.4,-69.6 27.8,-69.1 28.6,-67.7 28.6,-67.1 28.3,-65.5 27.9,-65 26.7,-63.9 26.2,-63.7 24.5,-63.5 24,-63.7 23.5,-63.9 22.4,-63.4 18.5,-61.8 17.4,-61.4 14.2,-59.7 13.2,-59.1 9.7,-57.1 8.8,-56.1 5.5,-52.8 4.5,-51.6 2.4,-48.7 1.8,-47.6 0.3,-44.6 -0.3,-43 -2.1,-37.7 -2.6,-35.6 -3.8,-30.8 -4.2,-29.5 -5.3,-25.3 -5.7,-23.3 -6.5,-18.2 -6.6,-17.1 -6.7,-13.4 -6.7,-12.1 -6.3,-7.3 -6,-6 -3.9,-2.7 -2.6,-2.7 0,-2.6 0.3,-2.5 1.2,-2.3 1.4,-2.1 2.1,-1.4 2.2,-1.2 2.5,-0.3 2.5,0 2.4,0.9 2.2,1.2 1.7,1.9 1.4,2.1 0.6,2.5 0.3,2.5 0,2.6 0,2.6 Z"></path></g><g transform="translate(153.18 94.88) rotate(0 2.8 0)" stroke="none"><path fill="#1e1e1e" d="M 0,-2.5 Q 0,-2.5 0.7,-2.5 5.6,-2.7 6,-2.6 7.2,-2.1 7.5,-1.8 8.2,-0.7 8.2,-0.3 8.1,1 7.9,1.4 7,2.3 6.6,2.5 5.3,2.7 4.9,2.5 3.8,1.9 3.5,1.6 2.9,0.4 2.9,0 3.2,-1.3 3.5,-1.6 4.5,-2.4 4.9,-2.5 6.2,-2.6 6.6,-2.5 7.7,-1.7 7.9,-1.4 8.3,-0.1 8.2,0.3 7.8,1.5 7.5,1.8 6.5,2.5 6,2.6 5.6,2.7 3.5,2.6 0,2.5 -0.3,2.5 -1.2,2.2 -1.4,2 -2,1.4 -2.2,1.1 -2.5,0.3 -2.5,0 -2.3,-0.9 -2.2,-1.1 -1.6,-1.9 -1.4,-2 -0.6,-2.4 -0.3,-2.5 0,-2.5 0,-2.5 Z"></path></g><g transform="translate(164.26 124.98) rotate(0 5.54 -15.37)" stroke="none"><path fill="#1e1e1e" d="M -0.3,-2.6 Q -0.3,-2.6 0.4,-2.7 3.6,-4.1 4.7,-4.7 7.8,-7.2 7.2,-8.4 4.8,-11.3 3.8,-12.1 1.3,-14.3 0.7,-15.4 -0.9,-18.6 -1.1,-20 -1.4,-23.8 -1.1,-24.9 0.5,-28.7 1.4,-29.8 4.2,-32.6 8.6,-32.9 13.7,-32.2 13.9,-31.7 14.2,-29.9 14.1,-29.4 13.2,-27.8 12.7,-27.4 11.1,-26.7 10.5,-26.7 8.8,-27.1 8.3,-27.5 7.2,-28.8 7,-29.4 7,-31.2 7.2,-31.7 8.2,-33.2 8.7,-33.5 10.4,-34 11,-34 12.6,-33.4 13.1,-33 14.1,-31.5 14.2,-30.9 14,-29.1 13.8,-28.6 12.6,-27.3 12.1,-27 10.3,-26.7 9.7,-26.8 8.1,-27.6 8.1,-27.6 9.1,-27 8.2,-26.2 6,-23.2 6.1,-21.9 7.4,-18.5 8.2,-17.8 10.9,-15.2 11.6,-14.5 13.5,-11.9 13.9,-10.5 14.4,-6.5 13.8,-5 11.7,-2.1 10.6,-1.3 7,0.8 5.9,1.2 1.7,2.5 1,2.6 -0.3,2.6 -0.7,2.5 -1.5,2.1 -1.7,1.9 -2.3,1.2 -2.4,0.9 -2.6,0 -2.6,-0.3 -2.3,-1.2 -2.1,-1.5 -1.4,-2.2 -1.2,-2.3 -0.3,-2.6 -0.3,-2.6 Z"></path></g><g transform="translate(183.02 103.74) rotate(0 10.49 -2.28)" stroke="none"><path fill="#1e1e1e" d="M -0.1,-2.6 Q -0.1,-2.6 0.8,-2.7 5.2,-3 7,-3.5 11.1,-4.6 12.8,-5.2 16.9,-6.6 18.5,-7 21.1,-7.6 21.6,-7.5 22.9,-6.9 23.2,-6.5 23.9,-5.3 23.9,-4.8 23.7,-3.3 23.5,-2.9 22.4,-1.9 22,-1.7 20.5,-1.6 20.1,-1.7 18.8,-2.4 18.5,-2.8 18,-4.2 18,-4.7 18.4,-6.1 18.7,-6.5 19.8,-7.3 20.3,-7.5 21.7,-7.5 22.2,-7.3 23.4,-6.4 23.6,-6 24,-4.6 23.9,-4.1 23.4,-2.8 23.1,-2.4 21.8,-1.6 21.8,-1.6 18.8,-0.9 17.6,-0.6 12.5,0.8 10.5,1.4 5.6,2.5 3.8,2.6 0.1,2.6 -0.2,2.6 -1.1,2.4 -1.4,2.2 -2.1,1.6 -2.2,1.3 -2.6,0.4 -2.6,0.1 -2.5,-0.8 -2.4,-1.1 -1.8,-1.9 -1.6,-2.1 -0.7,-2.5 -0.4,-2.6 -0.1,-2.6 -0.1,-2.6 Z"></path></g><g transform="translate(193.7 103.61) rotate(0 -0.33 12.05)" stroke="none"><path fill="#1e1e1e" d="M 2.5,0.8 Q 2.5,0.8 2.2,1.7 1.4,5.3 1.3,6.6 1.1,10.4 1.1,11.7 1.5,15.2 1.8,16.4 2.9,19.9 3.5,20.9 4.7,22.9 4.8,23.4 4.8,25.1 4.6,25.6 3.5,26.9 3,27.2 1.4,27.6 0.8,27.5 -0.7,26.9 -1.1,26.4 -2,25 -2,24.4 -1.8,22.7 -1.5,22.3 -0.3,21.1 0.2,20.9 1.9,20.6 2.4,20.8 3.9,21.6 4.2,22 4.9,23.6 4.9,24.1 4.5,25.8 4.2,26.2 2.9,27.3 2.3,27.5 0.6,27.5 0.1,27.3 -1.3,26.3 -1.3,26.3 -3.8,21.8 -4.2,20.4 -5,16.5 -5.2,15.4 -5.3,11.4 -5.2,10 -4.9,6.2 -4.5,4.9 -3.1,0.9 -2.8,0.1 -2.2,-1.4 -2,-1.6 -1.3,-2.2 -1,-2.4 -0.1,-2.6 0.2,-2.6 1.1,-2.4 1.4,-2.2 2.1,-1.6 2.2,-1.3 2.6,-0.4 2.6,-0.1 2.5,0.8 2.5,0.8 Z"></path></g><g transform="translate(239.44 138.92) rotate(0 10.94 -34.85)" stroke="none"><path fill="#1e1e1e" d="M 2.2,-1.4 Q 2.2,-1.4 2.7,-0.7 5.3,0.8 6.9,0.3 10.5,-1 11.7,-1.9 14.5,-4.8 15.4,-6.1 17.3,-9.8 17.6,-11.3 18.1,-16.1 18.1,-17.6 18.1,-22 18.2,-23.1 18.2,-27.5 18.1,-28.8 17.8,-33.6 17.8,-35.9 17.7,-41.8 17.7,-43.1 17.6,-46.6 17.5,-48.5 17.4,-53.4 17.4,-54.7 17.4,-59.4 17.5,-60.6 18.1,-64.2 18.3,-65.5 18.5,-69.1 18.4,-71.2 18.5,-74.3 18.7,-74.8 19.6,-76.2 20.1,-76.4 21.7,-76.9 22.2,-76.8 23.8,-76.2 24.1,-75.8 25,-74.5 25.1,-73.9 24.9,-72.3 24.7,-71.8 23.6,-70.6 23.1,-70.4 21.4,-70.1 20.9,-70.2 19.5,-71 19.1,-71.4 18.4,-72.9 18.4,-73.4 18.7,-75 19,-75.5 20.3,-76.5 20.8,-76.7 22.4,-76.8 22.9,-76.6 24.3,-75.7 24.6,-75.3 25.1,-73.7 25.1,-73.7 25.2,-68 25.1,-66.9 24.5,-62.6 24.1,-61 23.7,-56 23.7,-53.8 23.7,-48.5 23.8,-46.7 24.1,-42.1 24.1,-40.2 24.4,-34.2 24.6,-32.4 24.8,-27.5 24.8,-25.8 24.9,-22 24.9,-20.6 24.8,-16 24.8,-14.9 24.3,-9.7 24,-8.6 22.4,-4.8 21.6,-3.5 18.5,0.6 17.7,1.4 14.8,3.9 13.3,4.6 8.7,6.4 7.2,6.6 3.1,6.3 2,5.8 -1.2,3 -1.7,2.2 -2.4,0.8 -2.5,0.5 -2.5,-0.4 -2.5,-0.7 -2.1,-1.5 -1.9,-1.8 -1.1,-2.3 -0.8,-2.4 0.1,-2.6 0.4,-2.5 1.3,-2.2 1.5,-2.1 2.2,-1.4 2.2,-1.4 Z"></path></g><g transform="translate(244.91 104.91) rotate(0 17 0.52)" stroke="none"><path fill="#1e1e1e" d="M 0,-2.5 Q 0,-2.5 1.2,-2.5 5.5,-2.5 6.8,-2.5 12.1,-2.3 13.4,-2.3 17.6,-2.4 19.4,-2.4 23.8,-2.4 25.6,-2.4 29.5,-2.1 31.8,-2 35,-1.7 35.5,-1.5 36.5,-0.5 36.7,-0.1 37,1.3 36.8,1.8 36.2,3 35.8,3.3 34.5,4 34,4 32.7,3.7 32.3,3.4 31.3,2.3 31.2,1.9 31.1,0.5 31.3,0 32,-1.2 32.5,-1.4 33.8,-1.9 34.3,-1.9 35.6,-1.4 36,-1.1 36.8,0 36.9,0.5 36.8,1.9 36.6,2.4 35.7,3.5 35.3,3.7 33.9,4 33.9,4 30.5,3.8 28.7,3.6 23.2,3 22.1,2.8 17.6,2.4 16.1,2.4 12.1,2.3 10.2,2.4 5.5,2.5 4,2.5 0,2.5 -0.3,2.4 -1.1,2.2 -1.4,2 -2,1.4 -2.1,1.1 -2.4,0.3 -2.4,0 -2.3,-0.9 -2.1,-1.1 -1.6,-1.8 -1.4,-2 -0.6,-2.4 -0.3,-2.4 0,-2.5 0,-2.5 Z"></path></g><g transform="translate(277.35 100.74) rotate(0 5.41 12.77)" stroke="none"><path fill="#1e1e1e" d="M 2.6,0 Q 2.6,0 2.6,1 2.8,5.3 2.8,6.8 2.8,11.5 3,13.3 3.5,17.4 3.9,18.9 5.5,22.5 8,22.4 11.6,22.3 12.1,22.5 13.4,23.4 13.7,23.9 14.2,25.4 14.1,26 13.5,27.5 13.2,27.9 11.8,28.8 11.3,28.8 9.7,28.7 9.2,28.4 8,27.4 7.8,26.9 7.5,25.3 7.6,24.7 8.3,23.3 8.7,22.9 10.2,22.2 10.7,22.2 12.3,22.5 12.8,22.8 13.8,24 14,24.6 14.1,26.2 13.9,26.7 13.1,28 12.6,28.3 11.1,28.9 11.1,28.9 6.1,28.9 4.9,28.7 1.7,27.6 0.8,26.6 -1.2,23.1 -1.5,21.5 -2.2,16.8 -2.3,15.3 -2.4,11.6 -2.4,10.1 -2.8,5.3 -2.7,3.7 -2.6,0 -2.5,-0.3 -2.3,-1.2 -2.1,-1.4 -1.4,-2.1 -1.2,-2.2 -0.3,-2.5 0,-2.5 0.9,-2.4 1.2,-2.2 1.9,-1.7 2.1,-1.4 2.5,-0.6 2.5,-0.3 2.6,0 2.6,0 Z"></path></g><g transform="translate(313.84 100.22) rotate(0 2.8 2.28)" stroke="none"><path fill="#1e1e1e" d="M 1.5,-1.9 Q 1.5,-1.9 2.7,-0.9 7.2,2.6 7.5,2.9 8,4 8.1,4.4 7.9,5.6 7.7,5.9 6.8,6.8 6.5,6.9 5.2,7 4.9,6.9 3.8,6.3 3.6,6 3.1,4.9 3.1,4.5 3.4,3.3 3.7,3 4.6,2.2 5,2.1 6.2,2.1 6.6,2.3 7.6,3 7.8,3.3 8.1,4.5 8.1,4.9 7.6,6 7.3,6.3 6.3,7 5.9,7 4.7,6.9 4.4,6.7 4,6.5 2.4,5.1 -1.5,1.9 -1.7,1.6 -2.2,0.9 -2.3,0.6 -2.4,-0.2 -2.3,-0.5 -2,-1.3 -1.8,-1.5 -1.2,-2.1 -0.9,-2.2 -0.1,-2.4 0.2,-2.4 1.1,-2.2 1.3,-2 1.5,-1.9 1.5,-1.9 Z"></path></g><g transform="translate(314.1 102.96) rotate(0 0.07 13.09)" stroke="none"><path fill="#1e1e1e" d="M 2.6,0 Q 2.6,0 2.6,1.5 2.7,5.7 2.8,7.1 3,11.6 3,13.2 3.1,17.1 3.2,18.2 3.4,21.9 3.4,24 3.3,27.2 3.1,27.7 2,29 1.5,29.2 0,29.5 -0.6,29.4 -2,28.8 -2.4,28.3 -3.1,26.9 -3.2,26.4 -2.9,24.8 -2.6,24.3 -1.4,23.2 -0.9,23 0.7,22.9 1.2,23 2.6,23.9 2.9,24.3 3.5,25.8 3.4,26.4 3,27.9 2.7,28.3 1.4,29.3 0.8,29.4 -0.8,29.4 -1.2,29.2 -2.5,28.2 -2.8,27.8 -3.2,26.2 -3.2,26.2 -3.2,22.3 -3.2,20.8 -3.1,17.1 -3.1,15.9 -3,11.6 -2.9,10.1 -2.7,5.7 -2.6,4.4 -2.6,0 -2.6,-0.3 -2.3,-1.2 -2.1,-1.5 -1.5,-2.2 -1.2,-2.3 -0.3,-2.6 0,-2.6 0.9,-2.5 1.2,-2.3 2,-1.7 2.1,-1.5 2.6,-0.6 2.6,-0.3 2.6,0 2.6,0 Z"></path></g><g transform="translate(338.46 100.74) rotate(0 7.75 -0.07)" stroke="none"><path fill="#1e1e1e" d="M 0,-2.6 Q 0,-2.6 0.6,-2.7 3.5,-2.9 5,-2.9 9.3,-3.1 10.5,-3.1 15.3,-3.3 15.9,-3.3 17.3,-2.8 17.7,-2.4 18.5,-1.1 18.6,-0.6 18.5,0.9 18.3,1.4 17.3,2.5 16.8,2.7 15.3,3.1 14.8,3 13.4,2.3 13.1,1.9 12.4,0.5 12.3,0 12.6,-1.5 12.9,-1.9 14,-3 14.5,-3.1 16,-3.3 16.5,-3.1 17.8,-2.3 18.1,-1.9 18.7,-0.5 18.6,0.1 18.2,1.5 17.9,1.9 16.7,2.8 16.2,3 15.7,3.1 13.6,3.1 9.3,3.1 8,3 3.5,2.9 2.4,2.8 0,2.6 -0.3,2.6 -1.2,2.3 -1.5,2.1 -2.2,1.5 -2.3,1.2 -2.6,0.3 -2.6,0 -2.5,-0.9 -2.3,-1.2 -1.7,-2 -1.5,-2.1 -0.6,-2.5 -0.3,-2.6 0,-2.6 0,-2.6 Z"></path></g><g transform="translate(338.72 101.27) rotate(0 4.17 11.14)" stroke="none"><path fill="#1e1e1e" d="M 2.5,0.5 Q 2.5,0.5 2.4,1.6 1.8,4.9 1.8,6.1 1.7,9.6 1.8,11.2 1.9,15.2 2.1,16.2 3.7,19.3 4.3,18.4 7.1,14.9 7.6,14.6 9.2,13.8 9.8,13.8 11.5,14.2 12,14.6 13.1,15.9 13.3,16.5 13.3,18.3 13.1,18.8 12.1,20.3 11.6,20.6 9.9,21.1 9.3,21.1 7.7,20.5 7.3,20.1 6.3,18.6 6.2,18 6.3,16.3 6.6,15.7 7.7,14.4 8.3,14.2 10,13.8 10.6,13.9 12.2,14.7 12.5,15.1 13.3,16.7 13.4,17.3 13.1,19 12.8,19.5 12.4,20 11,21.6 7.6,24.6 6.5,25.1 2.1,25.8 0.8,25.3 -2.9,22.5 -3.6,21.1 -4.7,16.9 -4.7,15.3 -4.7,11.5 -4.6,10.3 -4.2,6.7 -4,5.3 -3.1,1.5 -2.8,0.5 -2.4,-1.1 -2.2,-1.4 -1.6,-2.1 -1.3,-2.3 -0.4,-2.6 -0.1,-2.6 0.8,-2.5 1.1,-2.3 1.9,-1.8 2.1,-1.5 2.5,-0.7 2.6,-0.4 2.5,0.5 2.5,0.5 Z"></path></g><g transform="translate(378.85 112.6) rotate(0 4.23 8.6)" stroke="none"><path fill="#1e1e1e" d="M 2.6,0 Q 2.6,0 2.7,0.7 2.9,3.8 3.3,5.4 4.6,9.6 5.3,10.7 7.3,13.6 8.2,13.7 10.1,14.2 10.5,14.5 11.6,15.8 11.7,16.3 11.8,17.9 11.6,18.4 10.7,19.8 10.2,20.1 8.7,20.6 8.1,20.6 6.5,20 6.1,19.6 5.2,18.3 5.1,17.7 5.2,16.1 5.5,15.6 6.5,14.4 7,14.1 8.7,13.8 9.2,13.9 10.7,14.6 11,15 11.8,16.5 11.8,17 11.6,18.6 11.3,19.1 10.1,20.2 9.5,20.4 7.9,20.6 7.9,20.6 1.7,17.4 1,16.4 -1.1,12.4 -1.5,11 -2.5,7 -2.7,5.4 -2.7,1.5 -2.7,0.7 -2.6,-0.6 -2.5,-0.9 -2,-1.8 -1.7,-2 -0.9,-2.5 -0.6,-2.5 0.3,-2.6 0.6,-2.5 1.5,-2.2 1.7,-2 2.3,-1.2 2.5,-0.9 2.6,0 2.6,0 Z"></path></g><g transform="translate(366.61 106.74) rotate(0 0 0)" stroke="none"><path fill="#1e1e1e" d="M 1.6,-1.6 Q 1.6,-1.6 1.8,-1.3 2.2,-0.3 2.2,0.1 1.9,1.1 1.7,1.4 0.9,2 0.5,2.1 -0.5,2.1 -0.9,2 -1.7,1.4 -1.9,1.1 -2.2,0.1 -2.2,-0.3 -1.8,-1.3 -1.5,-1.5 -0.7,-2.1 -0.3,-2.2 0.8,-2.1 1.1,-1.9 1.9,-1.2 2,-0.9 2.2,0.2 2.1,0.5 1.6,1.5 1.4,1.7 0.4,2.2 0.1,2.2 -1,2 -1.3,1.8 -1.6,1.6 -1.7,1.4 -2.1,0.7 -2.2,0.4 -2.2,-0.4 -2.1,-0.7 -1.7,-1.4 -1.6,-1.6 -0.9,-2 -0.7,-2.1 0.1,-2.2 0.4,-2.2 1.1,-1.9 1.4,-1.7 1.6,-1.6 1.6,-1.6 Z"></path></g><g transform="translate(366.61 106.74) rotate(0 12.83 -3.71)" stroke="none"><path fill="#1e1e1e" d="M 0,-2.6 Q 0,-2.6 0.8,-2.7 4.2,-2.9 5.5,-3 10.3,-3.1 11.8,-3.2 15.5,-3.8 16.8,-4.2 20.6,-5.6 21.5,-7.1 22.9,-9.6 23.3,-10 24.8,-10.8 25.4,-10.9 27,-10.6 27.5,-10.3 28.7,-9.2 28.9,-8.6 29.1,-7 29,-6.4 28.1,-5 27.7,-4.6 26.2,-4 25.6,-4 24,-4.4 23.5,-4.7 22.5,-6 22.3,-6.6 22.3,-8.2 22.5,-8.8 23.5,-10.1 23.9,-10.4 25.6,-10.9 26.1,-10.8 27.7,-10.3 28.1,-9.9 29,-8.5 29.1,-7.9 28.9,-6.2 28.9,-6.2 27.6,-2.9 26.5,-1.5 23.3,0.7 22.2,1 19,2 17.8,2.3 13.7,3 12,3 6.8,3 5.5,3 1.6,2.7 0.8,2.7 -0.6,2.6 -0.9,2.5 -1.8,2 -2,1.7 -2.5,0.9 -2.5,0.6 -2.6,-0.3 -2.5,-0.6 -2.2,-1.5 -2,-1.7 -1.2,-2.3 -0.9,-2.5 0,-2.6 0,-2.6 Z"></path></g><g transform="translate(410.12 113.9) rotate(0 6.84 9.38)" stroke="none"><path fill="#1e1e1e" d="M 2.7,0 Q 2.7,0 2.7,1 2.8,5.7 2.8,6.9 2.6,11.3 2.6,12.6 4.9,15.2 5.9,14.9 8.7,13.2 9.4,12.3 10.5,9.3 10.4,7.7 10.2,5 10.3,4.4 11.1,2.8 11.6,2.4 13.1,1.6 13.8,1.5 15.5,1.8 16,2.2 17.2,3.5 17.4,4 17.6,5.8 17.4,6.4 16.5,7.9 16,8.2 14.3,8.9 13.7,8.9 12,8.4 11.6,8 10.5,6.6 10.3,6 10.3,4.2 10.6,3.7 11.7,2.2 12.2,2 13.9,1.5 14.5,1.6 16.2,2.2 16.6,2.7 17.5,4.2 17.5,4.2 17.9,10.2 17.7,11.5 16.4,15.2 15.7,16.1 12.7,19.4 11.6,20.1 8.4,21.8 7.1,22 3.5,22.2 2,22 -1.8,20.2 -2.4,19.3 -3.7,15.7 -3.7,14.4 -3.5,11 -3.4,9.3 -3,5.4 -2.9,3.7 -2.7,0 -2.6,-0.3 -2.4,-1.2 -2.2,-1.5 -1.5,-2.2 -1.2,-2.3 -0.3,-2.6 0,-2.6 0.9,-2.5 1.2,-2.3 2,-1.8 2.2,-1.5 2.6,-0.6 2.6,-0.3 2.7,0 2.7,0 Z"></path></g><g transform="translate(421.46 111.82) rotate(0 6.84 1.56)" stroke="none"><path fill="#1e1e1e" d="M 0.4,-2.6 Q 0.4,-2.6 1.4,-2.5 4.9,-1.7 6,-1.5 9.5,-0.6 11.7,-0.3 14.9,0.3 15.4,0.5 16.5,1.6 16.7,2.1 16.9,3.6 16.8,4.1 16,5.5 15.6,5.8 14.2,6.5 13.6,6.5 12.1,6.1 11.7,5.8 10.7,4.6 10.6,4.1 10.5,2.5 10.7,2 11.6,0.8 12.1,0.5 13.5,0 14.1,0.1 15.5,0.6 15.9,1 16.8,2.3 16.8,2.8 16.7,4.3 16.5,4.8 15.5,6 15,6.2 13.5,6.5 13.5,6.5 8.4,5.7 7.3,5.2 4.1,4 2.8,3.5 -0.4,2.6 -0.7,2.5 -1.6,2.1 -1.8,1.9 -2.4,1.1 -2.5,0.8 -2.6,-0.1 -2.6,-0.4 -2.3,-1.3 -2.1,-1.6 -1.4,-2.2 -1.1,-2.4 -0.2,-2.6 0.1,-2.6 0.4,-2.6 0.4,-2.6 Z"></path></g><g transform="translate(448.3 106.74) rotate(0 10.68 -2.35)" stroke="none"><path fill="#1e1e1e" d="M 0,-2.6 Q 0,-2.6 0.9,-2.7 4.2,-2.9 5.3,-3.1 8.7,-3.7 9.8,-4 13.1,-5 14.2,-5.4 19.8,-7.8 20.4,-8 22,-8.1 22.6,-7.9 23.9,-7 24.2,-6.5 24.8,-5 24.8,-4.4 24.3,-2.8 23.9,-2.4 22.6,-1.4 22,-1.3 20.3,-1.4 19.8,-1.6 18.5,-2.7 18.3,-3.2 17.9,-4.8 18,-5.3 18.7,-6.9 19.1,-7.2 20.5,-8.1 21.1,-8.1 22.7,-7.9 23.2,-7.6 24.4,-6.4 24.6,-5.8 24.8,-4.2 24.6,-3.7 23.8,-2.2 23.4,-1.9 22.9,-1.6 20.4,-0.6 15.6,1.2 14.3,1.5 10.1,2.4 8.6,2.5 4.6,2.8 3.2,2.7 0,2.6 -0.3,2.6 -1.2,2.3 -1.5,2.2 -2.2,1.5 -2.3,1.2 -2.6,0.3 -2.6,0 -2.5,-0.9 -2.3,-1.2 -1.8,-2 -1.5,-2.2 -0.6,-2.6 -0.3,-2.6 0,-2.6 0,-2.6 Z"></path></g><g transform="translate(455.6 107.26) rotate(0 4.1 9.58)" stroke="none"><path fill="#1e1e1e" d="M 2.5,0 Q 2.5,0 2.6,0.7 2.5,3.9 2.5,5.1 2.5,8.5 2.6,9.7 2.8,13.7 3.2,14.7 5.8,15.5 6.4,15.2 8.2,14.4 8.8,14.4 10.4,14.7 10.9,15.1 12.1,16.4 12.3,16.9 12.4,18.6 12.2,19.2 11.3,20.7 10.8,21 9.2,21.6 8.6,21.5 6.9,21 6.5,20.6 5.5,19.2 5.3,18.7 5.4,16.9 5.7,16.4 6.7,15 7.3,14.8 8.9,14.3 9.5,14.5 11.1,15.1 11.5,15.6 12.4,17.1 12.4,17.7 12.2,19.4 11.9,19.9 10.7,21.1 10.7,21.1 4.7,22.7 3.5,22.5 -0.4,21.1 -1.4,20.2 -3.2,17.3 -3.5,15.9 -3.9,11.3 -3.9,10.1 -3.5,6.5 -3.3,5 -2.6,1.3 -2.6,0.7 -2.5,-0.6 -2.4,-0.9 -1.9,-1.7 -1.7,-1.9 -0.9,-2.4 -0.6,-2.5 0.3,-2.5 0.6,-2.5 1.4,-2.1 1.7,-1.9 2.2,-1.2 2.4,-0.9 2.5,0 2.5,0 Z"></path></g><g transform="translate(480.35 113.64) rotate(0 8.6 4.76)" stroke="none"><path fill="#1e1e1e" d="M 2.5,-0.7 Q 2.5,-0.7 2.9,0.3 4.2,3.4 4.9,4.2 7.1,6.7 8.2,7.1 12.2,7.8 12.9,7 13.2,3.4 13.1,0.8 13.1,-2.8 13.4,-3.3 14.5,-4.7 15.1,-4.9 16.7,-5.3 17.3,-5.2 18.9,-4.4 19.2,-4 20.1,-2.5 20.1,-1.9 19.8,-0.2 19.5,0.3 18.2,1.5 17.7,1.7 16,1.9 15.4,1.7 13.9,0.8 13.6,0.3 13,-1.3 13,-1.9 13.5,-3.5 13.8,-4 15.2,-5 15.8,-5.2 17.5,-5.2 18,-4.9 19.4,-3.9 19.7,-3.4 20.1,-1.7 20.1,-1.7 20.2,2 20.4,3.3 20.6,7.5 20.3,8.6 18.1,12.6 16.4,13.5 12.1,14.6 11,14.5 7.7,13.9 6.2,13.3 2.8,11.1 1.8,10 -0.9,5.9 -1.4,4.4 -2.5,0.7 -2.6,0.4 -2.6,-0.5 -2.5,-0.8 -2,-1.7 -1.8,-1.9 -1,-2.4 -0.7,-2.5 0.2,-2.6 0.5,-2.6 1.4,-2.2 1.7,-2 2.3,-1.3 2.4,-1 2.5,-0.7 2.5,-0.7 Z"></path></g><g transform="translate(496.12 111.3) rotate(0 1.56 -0.85)" stroke="none"><path fill="#1e1e1e" d="M -1,-2.2 Q -1,-2.2 0.3,-2.9 2.4,-4 2.8,-4.1 4,-4 4.3,-3.8 5.2,-3 5.3,-2.7 5.6,-1.5 5.5,-1.1 5,-0.1 4.7,0.2 3.6,0.7 3.2,0.7 2,0.5 1.7,0.3 0.9,-0.6 0.8,-1 0.7,-2.1 0.8,-2.5 1.5,-3.5 1.8,-3.7 2.9,-4.1 3.3,-4.1 4.4,-3.8 4.7,-3.5 5.4,-2.5 5.5,-2.2 5.5,-1 5.3,-0.6 4.6,0.3 4.6,0.3 1,2.2 0.7,2.3 -0.1,2.4 -0.4,2.4 -1.2,2.1 -1.5,1.9 -2.1,1.3 -2.2,1 -2.4,0.2 -2.4,-0.1 -2.2,-1 -2.1,-1.2 -1.5,-1.9 -1.3,-2 -1,-2.2 -1,-2.2 Z"></path></g><g transform="translate(507.84 128.63) rotate(0 3.32 -11.92)" stroke="none"><path fill="#1e1e1e" d="M -1.9,-1.8 Q -1.9,-1.8 -0.8,-2.9 1.7,-6 2.2,-7.1 3.3,-10.6 3.4,-11.8 3.3,-15.4 3.3,-16.6 3.1,-20.4 2.8,-21.8 2.6,-24.4 2.8,-24.9 3.6,-26.4 4.1,-26.7 5.6,-27.3 6.2,-27.3 7.8,-26.8 8.2,-26.4 9.2,-25.1 9.3,-24.6 9.3,-22.9 9.1,-22.4 8.1,-21.1 7.6,-20.8 6,-20.4 5.4,-20.5 3.9,-21.1 3.5,-21.5 2.6,-22.9 2.6,-23.5 2.8,-25.1 3.1,-25.6 4.2,-26.8 4.7,-27 6.4,-27.3 6.9,-27.1 8.4,-26.3 8.7,-25.9 9.4,-24.4 9.4,-24.4 10.1,-19.6 10,-18.3 9.9,-14.5 9.9,-13.3 9.4,-9.3 8.9,-8.1 7.4,-4.8 6.7,-3.7 4,-0.6 3,0.6 1.4,2.2 1.1,2.3 0.2,2.6 -0.1,2.6 -1,2.4 -1.2,2.2 -2,1.7 -2.1,1.4 -2.5,0.6 -2.5,0.2 -2.5,-0.7 -2.4,-1 -1.9,-1.8 -1.9,-1.8 Z"></path></g><g transform="translate(511.1 102.05) rotate(0 15.64 6.51)" stroke="none"><path fill="#1e1e1e" d="M 2.1,-1.5 Q 2.1,-1.5 2.6,-0.9 4.9,1.4 5.8,2.1 8.6,4.6 9.6,5.2 12.5,7.3 13.8,8.2 17.5,9.5 18.6,9.4 22.1,8.3 23.1,7.6 26.3,5.1 27.2,4.5 28.8,3 29.2,2.7 30.8,2 31.4,2 33.1,2.5 33.5,2.9 34.6,4.2 34.8,4.8 34.8,6.5 34.5,7.1 33.5,8.5 33,8.7 31.3,9.2 30.7,9.1 29.1,8.5 28.7,8.1 27.8,6.6 27.7,6 27.9,4.3 28.2,3.8 29.4,2.5 29.9,2.3 31.6,2 32.2,2.1 33.7,3 34.1,3.4 34.8,5 34.8,5.6 34.5,7.3 34.5,7.3 30.9,10.7 30,11.5 26.4,14.2 24.9,14.9 20.6,16.5 19.1,16.5 15.4,16.3 13.9,15.9 10.5,14.2 9.3,13.2 6.1,10.7 4.9,9.6 1.9,6.7 1.2,6 -1.2,2.9 -1.7,2.2 -2.4,1 -2.5,0.7 -2.6,-0.2 -2.5,-0.6 -2.2,-1.4 -2,-1.7 -1.3,-2.3 -1,-2.4 -0.1,-2.6 0.2,-2.6 1.2,-2.3 1.4,-2.2 2.1,-1.5 2.1,-1.5 Z"></path></g><g transform="translate(541.2 103.61) rotate(0 10.55 9.12)" stroke="none"><path fill="#1e1e1e" d="M 2.1,-1.6 Q 2.1,-1.6 2.7,-1 4.8,1.3 5.6,2.1 8.4,5 9.4,5.9 12.1,8.2 13.3,9.2 16.3,11.4 17.2,12 20,13.5 21.4,14.4 23.6,15.9 23.9,16.4 24.5,17.8 24.5,18.3 24.1,19.9 23.8,20.3 22.5,21.3 22,21.4 20.4,21.4 19.9,21.2 18.7,20.3 18.4,19.8 17.9,18.3 18,17.8 18.6,16.3 18.9,15.9 20.3,15.1 20.8,15 22.4,15.2 22.8,15.4 24,16.5 24.2,17 24.5,18.5 24.4,19 23.7,20.4 23.2,20.8 21.8,21.5 21.3,21.5 19.8,21.2 19.8,21.2 16.7,19.2 15.7,18.6 12.7,16.9 11.6,16.2 7.4,12.8 6.5,11.9 3.9,9.1 3,8.1 0.4,5 -0.3,4.1 -2.1,1.6 -2.3,1.4 -2.6,0.5 -2.6,0.2 -2.5,-0.8 -2.4,-1.1 -1.9,-1.9 -1.6,-2.1 -0.8,-2.5 -0.5,-2.6 0.5,-2.6 0.8,-2.5 1.6,-2.1 1.9,-1.9 2.1,-1.6 2.1,-1.6 Z"></path></g><g transform="translate(611.44 119.12) rotate(0 -3.93 -12.53)" stroke="none"><path fill="#1e1e1e" d="M -0.2,2.6 Q -0.2,2.6 -1.5,2.5 -5.8,2.2 -6.9,1.9 -10.1,0.4 -11.3,-0.4 -14.5,-3.6 -15.1,-4.7 -16.2,-8.4 -16.3,-9.6 -16.4,-13.4 -16.1,-14.5 -15,-17.6 -14.3,-18.8 -12.2,-22.6 -11.4,-23.5 -8.6,-26.2 -7.2,-26.9 -3.8,-28.3 -2.6,-28.5 1.6,-28.2 2.8,-27.6 6.1,-25.4 7.4,-22.4 8.7,-18.3 8.4,-17.8 7.4,-16.3 6.9,-16 5.2,-15.5 4.6,-15.6 2.9,-16.2 2.5,-16.7 1.6,-18.2 1.5,-18.8 1.6,-20.5 1.9,-21 3.1,-22.4 3.7,-22.6 5.4,-22.9 6,-22.8 7.6,-22 8,-21.5 8.7,-19.9 8.8,-19.3 8.4,-17.6 8.1,-17.1 6.7,-15.9 6.2,-15.7 4.4,-15.6 3.8,-15.8 2.3,-16.8 2,-17.3 1.4,-18.9 1.4,-18.9 -0.2,-20.9 -1.3,-21.1 -4.5,-20.2 -5.4,-19.4 -7.5,-16.5 -8,-15.5 -9.5,-11.8 -9.5,-10.6 -9,-6.8 -8.2,-5.9 -5,-3.4 -3.7,-3.1 0.2,-2.6 0.5,-2.6 1.4,-2.2 1.6,-2 2.2,-1.4 2.4,-1.1 2.6,-0.1 2.6,0.2 2.4,1.1 2.2,1.4 1.6,2.1 1.3,2.2 0.5,2.6 0.1,2.6 -0.2,2.6 -0.2,2.6 Z"></path></g><g transform="translate(626.01 98.14) rotate(0 3.28 0.29)" stroke="none"><path fill="#1e1e1e" d="M 0.3,-2.5 Q 0.3,-2.5 1.4,-2.4 7.7,-1.8 8.1,-1.6 8.9,-0.7 9.1,-0.2 9.2,1 9.1,1.4 8.4,2.5 8,2.8 6.8,3.2 6.4,3.2 5.2,2.9 4.8,2.6 4,1.6 4,1.1 4,-0.1 4.2,-0.5 4.9,-1.6 5.3,-1.8 6.6,-2.1 7,-2 8.2,-1.5 8.5,-1.2 9.1,-0.1 9.2,0.3 9,1.6 8.8,2 7.9,2.9 7.5,3 6.2,3.2 5.8,3.1 5.4,3 3.7,2.9 -0.3,2.5 -0.6,2.4 -1.4,2.1 -1.6,1.9 -2.2,1.2 -2.3,0.9 -2.5,0 -2.5,-0.3 -2.2,-1.1 -2.1,-1.4 -1.4,-2 -1.2,-2.2 -0.3,-2.5 0,-2.5 0.3,-2.5 0.3,-2.5 Z"></path></g><g transform="translate(632.56 98.73) rotate(0 9.98 11.22)" stroke="none"><path fill="#1e1e1e" d="M 2.6,0 Q 2.6,0 2.6,1 2.9,4.8 3,6 3.2,9.3 3.4,10.8 4.3,15 5,16 7.5,18.2 8.6,18.5 12.1,18.6 13.1,18.3 15.8,16.5 16,15.3 16.2,12 16.2,10.5 15.2,6 14.5,4.2 13.5,1.2 13.5,0.6 14.1,-1.1 14.5,-1.6 15.9,-2.6 16.5,-2.7 18.3,-2.7 18.8,-2.4 20.2,-1.3 20.5,-0.7 20.9,1 20.8,1.6 20.1,3.2 19.6,3.6 18.1,4.5 17.5,4.5 15.7,4.3 15.2,4 13.9,2.7 13.7,2.1 13.5,0.3 13.7,-0.2 14.6,-1.8 15.1,-2.1 16.7,-2.8 17.3,-2.8 19,-2.4 19.5,-2 20.6,-0.6 20.6,-0.6 22.1,3.1 22.4,4.4 23.6,8.6 23.6,9.8 23.7,13.2 23.6,14.6 23,18.3 22.3,19.7 20.1,22.7 19.1,23.4 15.9,25.2 14.8,25.5 11.4,26.1 10.2,26.1 6.2,25.4 5,24.9 1.9,23.1 1,22.2 -1.2,19.3 -1.6,18.3 -2.8,14 -2.9,12.9 -3.2,9.3 -3.1,8.2 -2.9,4.8 -2.8,3.3 -2.6,0 -2.6,-0.3 -2.3,-1.2 -2.1,-1.5 -1.5,-2.1 -1.2,-2.3 -0.3,-2.6 0,-2.6 0.9,-2.4 1.2,-2.3 1.9,-1.7 2.1,-1.5 2.5,-0.6 2.6,-0.3 2.6,0 2.6,0 Z"></path></g><g transform="translate(646.99 98.44) rotate(0 4.59 -0.44)" stroke="none"><path fill="#1e1e1e" d="M 0,-2.6 Q 0,-2.6 0.6,-2.7 4.2,-2.9 6.3,-3.4 9.4,-3.9 9.9,-3.8 11.2,-3.1 11.5,-2.7 12.2,-1.4 12.2,-0.9 11.9,0.5 11.6,0.9 10.5,1.9 10,2 8.6,2.1 8.1,1.9 6.9,1.1 6.6,0.7 6.2,-0.7 6.2,-1.1 6.6,-2.5 7,-2.9 8.2,-3.7 8.6,-3.8 10.1,-3.8 10.5,-3.5 11.7,-2.6 11.9,-2.2 12.2,-0.8 12.1,-0.3 11.5,1 11.2,1.4 9.9,2.1 9.9,2.1 6.5,2.8 5.4,2.8 1.2,2.7 0.6,2.7 -0.6,2.5 -0.9,2.4 -1.7,2 -1.9,1.7 -2.4,0.9 -2.5,0.6 -2.6,-0.3 -2.5,-0.6 -2.1,-1.5 -1.9,-1.7 -1.2,-2.3 -0.9,-2.4 0,-2.6 0,-2.6 Z"></path></g><g transform="translate(667.53 93.77) rotate(0 6.77 12.38)" stroke="none"><path fill="#1e1e1e" d="M -0.1,-2.6 Q -0.1,-2.6 0.6,-2.7 3.7,-3.1 5.2,-3.4 9.1,-3.9 10.5,-3.8 14,-2.7 14.8,-1.3 15.2,2.1 14.6,3.2 12.8,6.3 12.1,7.3 10.2,10.3 9.5,11.4 7.9,15 7.5,16.4 6.1,20.7 5.8,21.7 7.8,21.9 8.9,21.9 13.3,21.8 13.9,21.8 15.5,22.4 15.9,22.8 16.9,24.2 17,24.7 16.9,26.5 16.7,27 15.6,28.3 15.1,28.5 13.4,28.9 12.8,28.8 11.2,28.1 10.9,27.7 10.1,26.1 10,25.6 10.3,23.9 10.6,23.4 11.8,22.2 12.4,22 14.1,21.8 14.6,22 16.1,22.9 16.4,23.3 17.1,24.9 17.1,25.5 16.6,27.2 16.3,27.6 14.9,28.7 14.3,28.8 13.8,28.9 11.9,29 7.7,29.1 6.2,29 1.7,28.6 0.4,27.8 -1.6,23.5 -1.4,22.4 -0.7,18.9 -0.3,17.3 1.4,12.2 1.9,11.1 3.8,7.2 4.5,6.2 6.9,2.6 8,1.9 11.2,2.9 9.9,2.6 6.4,2.5 5.3,2.6 1.6,2.6 0.9,2.6 -0.5,2.6 -0.8,2.5 -1.6,2.1 -1.9,1.8 -2.4,1.1 -2.5,0.8 -2.6,-0.2 -2.6,-0.5 -2.2,-1.4 -2,-1.6 -1.4,-2.3 -1.1,-2.4 -0.1,-2.6 -0.1,-2.6 Z"></path></g><g transform="translate(672.34 113.88) rotate(0 5.83 2.04)" stroke="none"><path fill="#1e1e1e" d="M 0,-2.5 Q 0,-2.5 0.6,-2.6 3.5,-2.8 4.8,-2.7 8.7,-2.1 10,-1.6 14.4,2.3 14.6,2.8 14.9,4.4 14.8,4.9 14.1,6.3 13.7,6.6 12.2,7.3 11.7,7.3 10.2,7 9.7,6.7 8.7,5.5 8.5,5 8.4,3.4 8.6,2.9 9.5,1.6 9.9,1.3 11.4,0.8 11.9,0.8 13.4,1.3 13.8,1.7 14.7,3 14.8,3.5 14.8,5.1 14.6,5.5 13.6,6.8 13.1,7 11.5,7.4 11,7.3 9.6,6.6 9.2,6.2 8.9,5.8 8.3,5 5.6,3.4 4.5,3.1 1.2,2.6 0.6,2.6 -0.6,2.5 -0.9,2.4 -1.7,1.9 -1.9,1.7 -2.4,0.9 -2.5,0.6 -2.5,-0.3 -2.5,-0.6 -2.1,-1.4 -1.9,-1.7 -1.2,-2.2 -0.9,-2.4 0,-2.5 0,-2.5 Z"></path></g><g transform="translate(691.86 100.48) rotate(0 9.11 11.36)" stroke="none"><path fill="#1e1e1e" d="M 2.6,-0.2 Q 2.6,-0.2 2.7,0.7 3.3,3.8 3.6,4.9 4.7,9.2 4.9,10.8 5.3,14.9 5.4,16.3 5.8,19.8 6,21 3.4,19.6 2.2,20 1.7,18.2 2.6,17.2 6.1,14.1 7.5,13 11.4,10.4 12.5,9.9 16.7,8.1 17.2,7.9 18.9,7.8 19.4,8 20.8,8.9 21.1,9.4 21.7,10.9 21.6,11.5 21.1,13.1 20.8,13.5 19.4,14.5 18.8,14.6 17.2,14.5 16.7,14.3 15.4,13.2 15.1,12.7 14.7,11.1 14.8,10.6 15.5,9 15.9,8.6 17.4,7.8 17.9,7.8 19.6,8 20.1,8.3 21.2,9.5 21.4,10 21.7,11.7 21.5,12.2 20.7,13.7 20.2,14 19.7,14.3 17.6,15.1 12.8,17.5 11.7,18.4 8.4,21.2 7.4,22.2 4.7,24.7 3.4,25.1 -0.6,22.5 -0.6,21.4 -0.8,17.8 -0.8,16.6 -0.9,12.8 -0.9,11.5 -1.3,7.4 -1.7,6.1 -2.5,2.1 -2.6,1.2 -2.6,-0.4 -2.5,-0.7 -2.1,-1.6 -1.9,-1.8 -1.1,-2.4 -0.8,-2.5 0.1,-2.6 0.4,-2.6 1.3,-2.3 1.5,-2.1 2.2,-1.4 2.3,-1.1 2.6,-0.2 2.6,-0.2 Z"></path></g><g transform="translate(711.09 111.4) rotate(0 0.15 -6.99)" stroke="none"><path fill="#1e1e1e" d="M -2.7,0 Q -2.7,0 -2.7,-0.9 -2.9,-4.6 -3,-6 -3.2,-10.5 -2.9,-12.6 -2.1,-15.7 -1.8,-16.1 -0.6,-16.9 -0.1,-17 1.4,-16.9 1.9,-16.7 3,-15.7 3.2,-15.3 3.5,-13.8 3.4,-13.3 2.8,-12 2.4,-11.7 1.1,-10.9 0.6,-10.9 -0.8,-11.2 -1.3,-11.4 -2.3,-12.5 -2.5,-13 -2.6,-14.5 -2.5,-14.9 -1.7,-16.2 -1.3,-16.5 0.1,-17.1 0.6,-17 2,-16.6 2.4,-16.3 3.3,-15.1 3.4,-14.7 3.4,-13.2 3.4,-13.2 2.9,-10.5 2.9,-9.1 2.9,-4.6 2.8,-3.2 2.7,0 2.6,0.3 2.4,1.2 2.2,1.5 1.5,2.2 1.2,2.3 0.3,2.6 0,2.6 -0.9,2.5 -1.2,2.3 -2,1.8 -2.2,1.5 -2.6,0.6 -2.6,0.3 -2.7,0 -2.7,0 Z"></path></g><g transform="translate(739.5 84.45) rotate(0 21.78 20.47)" stroke="none"><path fill="#1e1e1e" d="M 1.8,-2 Q 1.8,-2 2.5,-1.3 5.3,1.3 6.5,2.5 9.5,5.4 10.6,6.5 13.8,9.8 14.8,10.8 18.2,13.9 19,14.8 21.9,17.8 23.1,18.8 26.8,21.9 27.9,22.8 31.2,25.8 32.3,26.6 36.4,29.7 37.4,30.7 40.8,33.6 41.9,34.4 46.2,38.7 46.5,39.2 47,40.7 47,41.3 46.5,42.9 46.1,43.3 44.7,44.2 44.1,44.3 42.4,44.2 42,44 40.7,42.9 40.4,42.4 40.1,40.8 40.2,40.2 40.9,38.7 41.3,38.3 42.8,37.5 43.4,37.5 45,37.8 45.5,38.1 46.6,39.3 46.8,39.8 47,41.5 46.8,42 46,43.5 45.5,43.8 43.9,44.4 43.4,44.4 41.8,43.9 41.3,43.6 40.9,43.2 39.7,41.9 36.3,38.8 35,37.7 32.1,35.1 31,34.2 27.6,31.6 26.6,30.7 23.5,27.9 22.3,26.8 19.2,24.3 18.1,23.2 15.2,20.1 14.4,19.3 11.6,16.5 10.4,15.4 7,12 6,10.9 3.2,7.7 2.2,6.4 -0.3,3.4 -1,2.7 -2.2,1.5 -2.3,1.2 -2.6,0.3 -2.6,0 -2.5,-0.9 -2.3,-1.2 -1.8,-2 -1.5,-2.2 -0.6,-2.6 -0.3,-2.6 0.6,-2.6 0.9,-2.5 1.8,-2 1.8,-2 Z"></path></g><g transform="translate(745.77 121.46) rotate(0 8.23 -5.61)" stroke="none"><path fill="#1e1e1e" d="M 1.7,-2 Q 1.7,-2 2.4,-1.5 6.1,0.2 6.8,-1.3 9,-5.7 9.6,-6.8 11.7,-11.2 12.7,-13.6 14.1,-16.7 14.4,-17 15.3,-17.6 15.7,-17.7 16.8,-17.8 17.1,-17.7 18.1,-17.3 18.4,-17.1 19.2,-16.2 19.3,-15.9 19.6,-14.8 19.5,-14.4 19.2,-13.3 19.4,-14 19.4,-13.6 19.1,-13.2 18.1,-12.1 17.7,-11.9 16.2,-11.6 15.7,-11.8 14.4,-12.4 14.1,-12.8 13.4,-14.1 13.4,-14.6 13.7,-16.1 14,-16.5 15.1,-17.5 15.6,-17.6 17,-17.7 17.5,-17.6 18.8,-16.8 19,-16.4 19.5,-15 19.5,-14.5 19.1,-13 18.7,-12.7 17.5,-11.8 17,-11.7 15.6,-11.8 15.1,-12 13.9,-12.9 13.7,-13.4 13.7,-16.1 13.9,-16.4 14.6,-17.2 15,-17.4 16,-17.8 16.4,-17.8 17.5,-17.6 17.8,-17.5 18.7,-16.8 18.9,-16.5 19.4,-15.5 19.5,-15.2 19.5,-14 19.4,-13.7 17,-8.2 16.2,-6.7 14.5,-3.4 13.6,-0.9 10.8,4.9 9.9,5.5 6.7,6.6 5.4,6.2 1.8,4.8 0.8,4 -1.7,2 -1.9,1.8 -2.4,1 -2.5,0.7 -2.6,-0.2 -2.6,-0.5 -2.2,-1.4 -2,-1.7 -1.3,-2.3 -1,-2.4 -0.1,-2.6 0.2,-2.6 1.1,-2.4 1.4,-2.2 1.7,-2 1.7,-2 Z"></path></g><g transform="translate(791.95 120.14) rotate(0 2.48 -14.21)" stroke="none"><path fill="#1e1e1e" d="M -0.6,2.5 Q -0.6,2.5 -1.1,2.4 -3.7,1.2 -4.7,0.2 -6.7,-3.3 -7,-4.5 -7.6,-8.1 -7.7,-9.3 -7.2,-13.7 -6.7,-15.1 -5.4,-18.8 -5,-20.1 -4,-23.9 -4,-25.1 -4.1,-27.4 -4.1,-27.8 -4,-29.1 -3.9,-29.5 -3.2,-30.6 -2.9,-30.9 -1.8,-31.6 -1.4,-31.7 -0.1,-31.8 0.3,-31.7 1.5,-31.2 1.8,-30.9 2.6,-29.9 2.8,-29.5 5.3,-28.7 6.4,-28 9.2,-25.7 9.9,-24.8 11.9,-22 12.3,-21 12.6,-17 12,-16.1 9.1,-14.3 7.8,-14.4 2,-16.1 1.5,-16.5 0.3,-17.8 0.1,-18.4 -0.1,-20.2 0.1,-20.8 1.1,-22.3 1.6,-22.6 3.3,-23.3 3.9,-23.2 5.6,-22.7 6.1,-22.3 7.2,-20.9 7.3,-20.3 7.3,-18.5 7,-17.9 5.9,-16.5 5.3,-16.2 3.6,-15.7 3,-15.8 1.3,-16.5 0.9,-17 0,-18.6 -0.1,-19.2 0.1,-21 0.5,-21.5 1.7,-22.8 2.3,-23 4.1,-23.3 4.7,-23.1 5.3,-22.9 6.1,-22 5.7,-17.5 5.1,-18.6 3.2,-21.5 2.1,-22.1 -1.3,-23.8 -2.1,-24.6 -4.1,-27.4 -4.1,-27.8 -4,-29.1 -3.9,-29.5 -3.2,-30.6 -2.9,-30.9 -1.8,-31.6 -1.4,-31.7 -0.1,-31.8 0.3,-31.7 1.5,-31.2 1.8,-30.9 2.6,-29.9 2.8,-29.5 3.1,-27.2 3.1,-25.9 2.9,-22.2 2.5,-20.9 1.2,-16.7 0.9,-15.6 -0.5,-12.2 -0.8,-11 -1.1,-7.6 -1,-6.4 -0.3,-2.8 0.1,-2.6 1.2,-2.2 1.4,-2.1 2.1,-1.4 2.2,-1.2 2.5,-0.3 2.5,0 2.4,0.9 2.2,1.2 1.7,1.9 1.4,2.1 0.6,2.5 0.3,2.5 -0.6,2.5 -0.6,2.5 Z"></path></g><g transform="translate(815.41 89.4) rotate(0 -1.75 11.95)" stroke="none"><path fill="#1e1e1e" d="M 2.4,0.9 Q 2.4,0.9 2,1.9 1.2,5 1.1,6.3 0.6,9.8 0.3,11.1 -0.5,14.7 -0.7,16.2 -1,20.2 0.3,20.3 2.8,20.7 3.2,21.1 4.3,22.4 4.5,23 4.5,24.7 4.3,25.3 3.3,26.7 2.8,27 1.2,27.5 0.6,27.4 -1.1,26.9 -1.5,26.4 -2.4,25 -2.5,24.4 -2.4,22.7 -2.1,22.2 -1,20.9 -0.4,20.6 1.3,20.3 1.8,20.4 3.4,21.2 3.8,21.6 4.6,23.2 4.6,23.8 4.3,25.4 3.9,25.9 2.7,27.1 2.1,27.3 0.4,27.4 0.4,27.4 -5.1,25.9 -5.9,25.1 -7.7,21.9 -7.8,20.7 -7.8,17.2 -7.5,15.8 -6.4,11.5 -6,10 -4.8,5.5 -4.5,4.4 -3.2,1 -2.8,0 -2.1,-1.5 -1.9,-1.7 -1.2,-2.3 -0.9,-2.4 0,-2.6 0.3,-2.5 1.2,-2.3 1.5,-2.1 2.1,-1.4 2.3,-1.2 2.5,-0.3 2.5,0 2.4,0.9 2.4,0.9 Z"></path></g><g transform="translate(815.12 101.79) rotate(0 2.62 0.15)" stroke="none"><path fill="#1e1e1e" d="M 0.2,-2.5 Q 0.2,-2.5 1.1,-2.4 4.9,-2.4 5.3,-2.4 6.5,-2.1 6.8,-1.9 7.6,-0.9 7.7,-0.5 7.8,0.8 7.6,1.1 6.9,2.2 6.5,2.4 5.3,2.8 4.9,2.7 3.7,2.3 3.4,2 2.7,0.9 2.7,0.5 2.8,-0.7 3,-1.1 3.8,-2 4.2,-2.2 5.4,-2.5 5.8,-2.4 7,-1.8 7.2,-1.5 7.8,-0.4 7.8,0.1 7.6,1.3 7.3,1.6 6.4,2.5 6,2.6 5.6,2.7 3.6,2.7 -0.2,2.5 -0.5,2.4 -1.3,2.1 -1.6,1.9 -2.1,1.2 -2.3,0.9 -2.5,0.1 -2.5,-0.2 -2.2,-1.1 -2.1,-1.3 -1.5,-2 -1.2,-2.1 -0.4,-2.5 -0.1,-2.5 0.2,-2.5 0.2,-2.5 Z"></path></g><g transform="translate(815.99 88.24) rotate(0 4.01 0.87)" stroke="none"><path fill="#1e1e1e" d="M 0.1,-2.6 Q 0.1,-2.6 0.9,-2.6 4.2,-2.3 7.3,-1.1 10.9,0.9 10.9,1.4 10.8,2.8 10.6,3.2 9.6,4.3 9.2,4.5 7.8,4.7 7.3,4.6 6,4 5.7,3.6 5.1,2.3 5.1,1.8 5.3,0.4 5.6,0 6.7,-0.9 7.2,-1.1 8.6,-1.2 9,-1 10.2,-0.2 10.5,0.2 11,1.5 10.9,2 10.5,3.4 10.2,3.7 9,4.5 8.6,4.6 7.1,4.6 6.7,4.4 5.6,3.5 5.6,3.5 3.8,3.6 2.5,3.2 -0.1,2.6 -0.5,2.5 -1.3,2.2 -1.6,2 -2.2,1.3 -2.3,1.1 -2.6,0.1 -2.5,-0.1 -2.4,-1.1 -2.2,-1.3 -1.6,-2 -1.3,-2.2 -0.5,-2.5 -0.1,-2.5 0.1,-2.6 0.1,-2.6 Z"></path></g><g transform="translate(825.32 117.81) rotate(0 6.77 -5.03)" stroke="none"><path fill="#1e1e1e" d="M 2.5,0 Q 2.5,0 2.5,0.5 4.2,-0.8 4.6,-1.9 6,-5.4 6.4,-6.5 7.7,-10.1 8.2,-11.2 10.1,-15.9 10.4,-16.4 11.5,-17.7 12.1,-17.9 13.7,-18.3 14.3,-18.2 15.9,-17.4 16.2,-17 17.1,-15.5 17.1,-14.9 16.8,-13.2 16.5,-12.7 15.2,-11.5 14.7,-11.3 13,-11.2 12.4,-11.3 10.9,-12.2 10.6,-12.7 10,-14.3 10,-14.9 10.5,-16.6 10.8,-17 12.2,-18.1 12.8,-18.2 14.5,-18.2 15,-17.9 16.4,-16.9 16.7,-16.4 17.1,-14.7 17,-14.1 16.9,-13.6 16.3,-11.9 14.3,-7.5 13.8,-6.1 12.4,-2.8 11.9,-1.8 10.5,1.3 9.7,2.6 7.2,5.7 6.3,6.5 1.9,7.6 0.7,7 -2.1,3.8 -2.3,2.5 -2.5,0 -2.5,-0.3 -2.2,-1.1 -2,-1.4 -1.4,-2 -1.1,-2.2 -0.3,-2.5 0,-2.5 0.9,-2.3 1.1,-2.2 1.9,-1.6 2,-1.4 2.4,-0.6 2.5,-0.3 2.5,0 2.5,0 Z"></path></g><g transform="translate(832.89 90.28) rotate(0 11.15 11.8)" stroke="none"><path fill="#1e1e1e" d="M 0,-2.6 Q 0,-2.6 1,-2.6 4.1,-2.7 5.4,-2.4 9,-0.8 9.9,0.1 12,3.4 12.4,4.5 13.7,7.9 14.1,9.1 15.3,12.5 15.9,13.6 17.7,16.5 18.6,17.5 24.8,20.9 25.2,21.4 25.9,23 25.9,23.6 25.5,25.3 25.2,25.8 23.8,26.9 23.2,27.1 21.5,27.2 20.9,27 19.5,26 19.2,25.5 18.6,23.8 18.7,23.2 19.2,21.5 19.7,21.1 21.1,20.1 21.7,20 23.5,20.1 24,20.4 25.3,21.5 25.6,22.1 26,23.8 25.8,24.4 25.1,26 24.6,26.4 23.1,27.2 22.5,27.2 20.7,26.9 20.2,26.6 19.8,26.3 18.1,25.8 14.6,24 13.7,23.1 11.4,20 10.8,19 8.9,15.7 8.4,14.4 7.3,10.5 6.9,9.5 6,6 5.1,4.7 1.9,2.7 1,2.6 -0.6,2.5 -0.9,2.4 -1.7,1.9 -1.9,1.7 -2.4,0.9 -2.5,0.6 -2.6,-0.3 -2.5,-0.6 -2.1,-1.5 -1.9,-1.7 -1.2,-2.3 -0.9,-2.4 0,-2.6 0,-2.6 Z"></path></g><g transform="translate(864.22 95.67) rotate(0 1.68 10.34)" stroke="none"><path fill="#1e1e1e" d="M 2.6,0 Q 2.6,0 2.6,1.5 2.7,6.2 2.8,7.3 3.9,11.6 4.2,13 6.5,19.9 6.5,20.4 6.4,21.9 6.1,22.4 5,23.5 4.5,23.7 3,23.9 2.4,23.8 1.1,23 0.8,22.6 0.1,21.2 0.1,20.6 0.5,19.1 0.8,18.7 2,17.7 2.5,17.6 4.1,17.5 4.6,17.7 5.9,18.6 6.1,19.1 6.6,20.6 6.5,21.1 6,22.6 5.7,22.9 4.3,23.8 3.8,23.9 2.3,23.8 1.8,23.5 0.6,22.5 0.4,22 0.2,21.5 -0.6,19.2 -1.7,14.7 -2.1,12.7 -2.9,8.4 -2.8,7.3 -2.6,2.9 -2.6,1.5 -2.5,-0.6 -2.4,-0.9 -1.9,-1.7 -1.7,-1.9 -0.9,-2.4 -0.6,-2.5 0.3,-2.6 0.6,-2.5 1.5,-2.1 1.7,-1.9 2.3,-1.2 2.4,-0.9 2.6,0 2.6,0 Z"></path></g><g transform="translate(884.03 99.46) rotate(0 -5.75 10.93)" stroke="none"><path fill="#1e1e1e" d="M 2.6,0.1 Q 2.6,0.1 2.6,1.1 2.4,4.5 2,5.7 0.7,9.1 0.1,10.4 -1.5,13.7 -2.2,14.7 -4.5,17.8 -5.2,18.8 -7.3,21.5 -7.9,22.5 -9.2,24.4 -9.6,24.7 -11.2,25.3 -11.8,25.3 -13.4,24.8 -13.8,24.4 -14.8,23.1 -14.9,22.5 -14.8,20.9 -14.6,20.3 -13.6,19 -13.1,18.8 -11.4,18.4 -10.9,18.5 -9.3,19.1 -9,19.5 -8.1,21 -8.1,21.5 -8.3,23.2 -8.6,23.7 -9.8,24.9 -10.3,25.1 -11.9,25.3 -12.5,25.1 -14,24.3 -14.3,23.9 -15,22.3 -14.9,21.8 -14.6,20.1 -14.6,20.1 -12.2,16.6 -11.3,15.4 -8.8,12.3 -8.1,11.4 -6.1,8.7 -5.5,7.6 -3.5,3.9 -3.1,2.9 -2.6,-0.1 -2.5,-0.4 -2.2,-1.3 -2.1,-1.6 -1.4,-2.2 -1.1,-2.3 -0.2,-2.6 0.1,-2.6 1,-2.4 1.3,-2.2 2,-1.6 2.2,-1.4 2.5,-0.5 2.6,-0.2 2.6,0.1 2.6,0.1 Z"></path></g><g transform="translate(878.64 91.15) rotate(0 12.31 10.49)" stroke="none"><path fill="#1e1e1e" d="M 0,-2.6 Q 0,-2.6 1,-2.7 4.4,-2.9 6,-2.8 10.3,-2.6 11.4,-2.4 15.1,-1.5 16.2,-0.5 18.1,2.7 18,4.2 17.9,8 17.9,9.2 17.8,13 18.2,14.4 20.7,17.1 22.7,17.2 25.8,17.5 26.3,17.8 27.7,18.9 27.9,19.4 28.3,21.2 28.2,21.8 27.4,23.4 27,23.8 25.4,24.6 24.8,24.6 23.1,24.3 22.6,24 21.4,22.7 21.2,22.1 21,20.4 21.2,19.8 22.1,18.3 22.6,18 24.2,17.3 24.8,17.3 26.5,17.8 27,18.2 28,19.6 28.2,20.2 28.2,22 27.9,22.5 26.8,23.9 26.3,24.2 24.6,24.7 24.6,24.7 20.2,24.5 19.2,24.3 15.8,23.1 14.9,22.4 12.5,19.6 12,18.3 10.8,14.9 10.8,13.3 10.9,9.1 11,7.8 11.7,4.1 10.6,3.8 7.2,3.2 5.8,3 2,2.7 1,2.7 -0.6,2.6 -0.9,2.5 -1.8,2 -2,1.7 -2.5,0.9 -2.6,0.6 -2.6,-0.3 -2.6,-0.6 -2.2,-1.5 -2,-1.7 -1.2,-2.4 -0.9,-2.5 0,-2.6 0,-2.6 Z"></path></g><g transform="translate(920.16 87.65) rotate(0 -0.51 15.95)" stroke="none"><path fill="#1e1e1e" d="M 2.6,0.2 Q 2.6,0.2 2.6,1.4 2,5.2 1.7,6.7 0.8,11.1 0.5,12.3 -0.2,16.3 -0.5,17.4 -1.1,21.2 -1.3,22.3 -1.8,26.1 -1.1,27.3 -3.5,28.7 -2,27.4 2,24.1 2.5,23.8 4.1,23.3 4.7,23.4 6.3,24 6.7,24.4 7.6,25.8 7.7,26.4 7.5,28 7.2,28.5 6.1,29.8 5.6,30 3.9,30.3 3.4,30.2 1.9,29.4 1.5,29 0.8,27.4 0.8,26.9 1.1,25.2 1.4,24.8 2.7,23.6 3.2,23.5 4.9,23.4 5.4,23.6 6.8,24.5 7.2,24.9 7.7,26.5 7.7,27.1 7.2,28.7 6.8,29.1 6.4,29.6 5.1,30.6 1.7,33.3 0.4,34.2 -4.7,34 -5.4,33.2 -7.7,30.5 -8.1,29.1 -8.5,25.5 -8.3,24 -7.7,19.9 -7.3,18.6 -6.2,14.1 -5.8,12.6 -4.6,8.4 -4.2,7.1 -2.8,2.1 -2.7,1 -2.5,-0.8 -2.4,-1.1 -1.9,-1.9 -1.6,-2.1 -0.8,-2.5 -0.4,-2.6 0.5,-2.6 0.8,-2.5 1.7,-2.1 1.9,-1.8 2.4,-1.1 2.5,-0.8 2.6,0.2 2.6,0.2 Z"></path></g><g transform="translate(924.39 114.46) rotate(0 0 0)" stroke="none"><path fill="#1e1e1e" d="M 1.6,-1.6 Q 1.6,-1.6 1.8,-1.3 2.2,-0.3 2.2,0.1 1.9,1.1 1.7,1.4 0.9,2 0.5,2.1 -0.5,2.1 -0.9,2 -1.7,1.4 -1.9,1.1 -2.2,0.1 -2.2,-0.3 -1.8,-1.3 -1.5,-1.5 -0.7,-2.1 -0.3,-2.2 0.8,-2.1 1.1,-1.9 1.9,-1.2 2,-0.9 2.2,0.2 2.1,0.5 1.6,1.5 1.4,1.7 0.4,2.2 0.1,2.2 -1,2 -1.3,1.8 -1.6,1.6 -1.7,1.4 -2.1,0.7 -2.2,0.4 -2.2,-0.4 -2.1,-0.7 -1.7,-1.4 -1.6,-1.6 -0.9,-2 -0.7,-2.1 0.1,-2.2 0.4,-2.2 1.1,-1.9 1.4,-1.7 1.6,-1.6 1.6,-1.6 Z"></path></g><g transform="translate(919 101.2) rotate(0 1.97 0)" stroke="none"><path fill="#1e1e1e" d="M 0,-2.4 Q 0,-2.4 2,-2.4 4.7,-2.3 5.1,-2.1 6,-1.4 6.1,-1 6.4,0.1 6.3,0.5 5.8,1.6 5.5,1.9 4.5,2.4 4.1,2.4 2.9,2.2 2.6,2 1.8,1.1 1.6,0.8 1.5,-0.4 1.6,-0.8 2.2,-1.8 2.6,-2 3.7,-2.4 4.1,-2.4 5.2,-2.1 5.5,-1.9 6.2,-0.9 6.3,-0.5 6.3,0.7 6.1,1 5.4,1.9 5.1,2.1 3.9,2.5 3.9,2.5 0,2.4 -0.3,2.4 -1.1,2.1 -1.4,2 -2,1.4 -2.1,1.1 -2.4,0.3 -2.4,0 -2.2,-0.8 -2.1,-1.1 -1.6,-1.8 -1.4,-2 -0.6,-2.3 -0.3,-2.4 0,-2.4 0,-2.4 Z"></path></g><g transform="translate(920.31 87.36) rotate(0 2.55 0.15)" stroke="none"><path fill="#1e1e1e" d="M -0.1,-2.5 Q -0.1,-2.5 0.6,-2.6 5.4,-2.2 5.8,-2 6.9,-1.4 7.2,-1.1 7.7,0.1 7.7,0.5 7.4,1.7 7.1,2 6.2,2.8 5.7,3 4.5,3 4.1,2.8 3.1,2.1 2.8,1.7 2.5,0.5 2.5,0.1 2.9,-1.1 3.2,-1.4 4.3,-2.1 4.7,-2.1 6,-2 6.3,-1.8 7.3,-1 7.5,-0.6 7.7,0.6 7.6,1 7.1,2.2 6.7,2.4 5.6,3 5.2,3 4.8,3 3.2,2.8 0.1,2.5 -0.2,2.4 -1,2.2 -1.3,2.1 -1.9,1.5 -2.1,1.2 -2.4,0.4 -2.5,0.1 -2.4,-0.7 -2.2,-1 -1.7,-1.8 -1.5,-1.9 -0.7,-2.4 -0.4,-2.4 -0.1,-2.5 -0.1,-2.5 Z"></path></g><g transform="translate(939.68 91.44) rotate(0 34.24 -9.18)" stroke="none"><path fill="#1e1e1e" d="M 0,-2.6 Q 0,-2.6 0.8,-2.7 4.3,-2.9 5.9,-3.1 9.7,-3.8 11,-4.1 14.5,-5 15.8,-5.4 19.2,-6.3 20.7,-6.7 26.7,-8.5 27.7,-8.9 32.1,-10.6 34,-11.3 38,-12.6 39.1,-13 42.2,-14 44.6,-14.7 49.4,-16.1 50.6,-16.4 54.5,-17.5 55.9,-17.8 60,-18.9 61.9,-19.4 67.4,-21 67.9,-21.1 69.2,-21.1 69.7,-20.9 70.7,-20.1 71,-19.6 71.3,-18.3 71.2,-17.9 70.7,-16.6 70.4,-16.3 69.2,-15.6 68.8,-15.6 67.4,-15.7 67,-16 66,-16.9 65.9,-17.3 65.7,-18.7 65.8,-19.1 66.4,-20.3 66.8,-20.6 68,-21.2 68.5,-21.1 69.8,-20.9 70.2,-20.6 71,-19.5 71.2,-19.1 71.2,-17.7 71.1,-17.3 70.3,-16.2 69.9,-15.9 69.5,-15.7 67.3,-15.1 61.4,-13.6 60.1,-13.3 56,-12.1 54.7,-11.7 51,-10.6 49.8,-10.2 45.9,-8.9 44,-8.3 39.9,-7 38.9,-6.7 34.1,-5.1 32.4,-4.5 28.5,-3.2 26.2,-2.4 21,-0.6 19.9,-0.2 16.1,0.9 15.1,1.2 10.8,2.3 9.5,2.5 4.3,2.9 2.9,2.8 0,2.6 -0.3,2.6 -1.2,2.4 -1.5,2.2 -2.2,1.5 -2.3,1.2 -2.6,0.3 -2.6,0 -2.5,-0.9 -2.3,-1.2 -1.8,-2 -1.5,-2.2 -0.6,-2.6 -0.3,-2.6 0,-2.6 0,-2.6 Z"></path></g><g transform="translate(961.68 90.42) rotate(0 1.24 15.01)" stroke="none"><path fill="#1e1e1e" d="M 2.7,0 Q 2.7,0 2.7,0.8 2.7,5.4 2.6,6.6 2,10.9 1.8,12.3 1.2,17 0.8,19.1 0.1,23.5 0.1,25 0.1,29.2 -0.9,28.2 0.1,24.8 1.8,23.4 4.2,21.4 4.8,21.2 6.5,21.1 7,21.2 8.4,22.1 8.7,22.6 9.3,24.2 9.2,24.7 8.8,26.3 8.4,26.7 7,27.7 6.5,27.8 4.8,27.8 4.3,27.6 3,26.5 2.8,26 2.3,24.4 2.5,23.9 3.1,22.3 3.5,21.9 5,21.1 5.5,21.1 7.2,21.3 7.7,21.6 8.8,22.7 9,23.3 9.3,24.9 9.1,25.4 8.3,26.9 8.3,26.9 3.8,30.7 2.8,31.3 -1.4,33 -3,32.7 -6.7,28.4 -6.7,26.8 -6.4,22.8 -6.1,21.4 -5.3,16.3 -5.1,14.4 -4.2,9.8 -4,8.7 -3.1,4.7 -2.9,3.2 -2.7,0 -2.6,-0.3 -2.4,-1.2 -2.2,-1.5 -1.5,-2.2 -1.2,-2.3 -0.3,-2.6 0,-2.6 0.9,-2.5 1.2,-2.3 2,-1.8 2.2,-1.5 2.6,-0.6 2.6,-0.3 2.7,0 2.7,0 Z"></path></g><g transform="translate(985.58 97.71) rotate(0 4.59 10.71)" stroke="none"><path fill="#1e1e1e" d="M 2.6,0 Q 2.6,0 2.7,1 2.9,4.1 2.9,5.3 2.8,8.8 2.9,10.2 3,14.4 3.2,15.7 4.1,19.3 3.5,18.4 7.1,13.9 7.6,13.6 9.2,13 9.7,13.1 11.3,13.5 11.7,13.9 12.7,15.2 12.8,15.8 12.8,17.4 12.5,17.9 11.5,19.2 11,19.5 9.4,19.9 8.8,19.8 7.3,19.2 7,18.8 6.1,17.3 6.1,16.8 6.3,15.1 6.6,14.7 7.8,13.5 8.3,13.3 9.9,13 10.4,13.2 11.9,14 12.2,14.4 12.9,16 12.9,16.5 12.5,18.1 12.1,18.6 11.8,19 10.2,20.4 7,23.2 4.7,24.1 0.1,24.3 -0.8,23.5 -2.7,20.3 -3,19.1 -3.5,15.6 -3.5,14.1 -3.4,10 -3.3,8.7 -2.9,4.1 -2.8,3 -2.6,0 -2.6,-0.3 -2.3,-1.2 -2.2,-1.5 -1.5,-2.2 -1.2,-2.3 -0.3,-2.6 0,-2.6 0.9,-2.5 1.2,-2.3 2,-1.8 2.2,-1.5 2.6,-0.6 2.6,-0.3 2.6,0 2.6,0 Z"></path></g><g transform="translate(967.07 17.14) rotate(0 41.52 48.01)" stroke="none"><path fill="#1e1e1e" d="M -1.2,-2.2 Q -1.2,-2.2 0.3,-3 3.8,-5 5.2,-5.7 8.9,-7.3 10,-7.6 14.7,-9 16.1,-9.4 20.2,-10.2 21.3,-10.3 24.8,-10.5 26.1,-10.5 29.6,-10.4 30.7,-10.3 34,-9.7 35.1,-9.4 39.2,-8 40.5,-7.4 43.9,-5.5 45.1,-4.9 48.1,-3.2 49.4,-2.5 53.2,-0.1 54.4,0.7 57.4,3.7 58.2,4.7 60.8,8 61.4,9.2 62.8,12.9 63.2,13.9 64.4,18 64.6,19.2 65.2,23.5 65.2,24.6 65.5,28.1 65.5,29.2 65.7,32.4 65.7,33.7 65.7,38.1 65.7,39.3 65.7,42.7 65.7,43.8 65.7,47.6 65.7,48.7 65.6,53.3 65.6,54.6 65.6,58.7 65.6,60.2 65.6,64.3 65.7,65.6 65.8,70.3 66.1,71.7 67.1,75.5 67.4,76.7 68.4,80.6 68.7,81.7 70.1,85.1 70.7,86.1 73.6,89.6 74.6,90.6 77.7,93.7 78.6,94.7 81.3,97.7 83,98.8 85.7,100.7 86,101.2 86.6,102.8 86.6,103.4 86.1,105 85.7,105.5 84.3,106.5 83.8,106.6 82,106.6 81.5,106.4 80.1,105.3 79.9,104.8 79.4,103.1 79.5,102.5 80.2,100.9 80.6,100.5 82.1,99.7 82.7,99.6 84.4,99.8 84.9,100.1 86.2,101.3 86.4,101.9 86.6,103.6 86.5,104.1 85.6,105.7 85.2,106 83.6,106.7 83,106.7 81.3,106.3 81.3,106.3 77.2,103.7 76.2,102.7 73.6,99.9 72.6,99 69.6,95.9 68.7,94.9 65.4,91.3 64.7,90.1 62.9,86.7 62.6,85.6 61.5,82.3 61.1,80.5 60,76.5 59.5,75 58.8,70.5 58.7,69 58.5,64.3 58.5,63 58.5,58.7 58.5,57.3 58.5,53.3 58.5,51.6 58.5,47.6 58.4,46.3 58.5,42.7 58.5,41.6 58.4,38.1 58.4,36.6 58.4,32.6 58.3,31.1 58.1,27.1 58,25.6 57.5,20.9 57.2,19.6 56.2,16.2 55.8,15.1 54.2,11.2 53.5,10.4 51.4,7.5 50.5,6.7 47.2,4.2 46,3.5 41.3,1.2 39.9,0.4 35.7,-1.8 34.7,-2.1 30.8,-3.2 29.3,-3.5 25.7,-3.8 24.6,-3.8 21.1,-4 20,-4 16.3,-3.4 14.5,-2.9 8.5,-1.4 7.4,-1 4.2,0.5 2.7,1.4 0.7,2.5 0.4,2.5 -0.6,2.5 -0.8,2.4 -1.7,2 -1.9,1.7 -2.4,1 -2.5,0.7 -2.6,-0.2 -2.5,-0.6 -2.2,-1.4 -2,-1.6 -1.2,-2.2 -1.2,-2.2 Z"></path></g><g transform="translate(1029.72 102.95) rotate(0 0.73 7.28)" stroke="none"><path fill="#1e1e1e" d="M 1.9,1.8 Q 1.9,1.8 0.8,2.9 -2,6.4 -2.8,7.5 -4.2,10.9 -2.9,11 0.7,11.1 2,10.8 8.1,9.2 8.6,9.1 10.2,9.4 10.7,9.7 11.9,10.8 12.1,11.3 12.3,13 12.1,13.5 11.3,15 10.9,15.3 9.3,15.9 8.8,15.9 7.2,15.5 6.8,15.2 5.7,13.9 5.6,13.3 5.5,11.7 5.8,11.2 6.7,9.8 7.2,9.6 8.8,9.1 9.3,9.2 10.9,9.7 11.3,10.1 12.2,11.5 12.2,12.1 12.1,13.7 11.8,14.2 10.7,15.4 10.2,15.7 9.7,15.9 7.8,16.5 3.2,17.6 2,17.8 -1.7,18 -3.1,17.9 -6.7,17.4 -8.1,16.6 -10.7,13 -10.6,11.9 -9.6,7.8 -8.9,6.5 -6.3,3 -5.1,1.8 -1.9,-1.8 -1.7,-2 -0.9,-2.5 -0.6,-2.5 0.4,-2.6 0.7,-2.5 1.5,-2.1 1.8,-1.9 2.3,-1.1 2.4,-0.9 2.6,0.1 2.6,0.4 2.3,1.3 2.1,1.5 1.9,1.8 1.9,1.8 Z"></path></g><g transform="translate(1053.03 100.77) rotate(0 6.7 -0.66)" stroke="none"><path fill="#1e1e1e" d="M 0,-2.6 Q 0,-2.6 1.4,-2.6 6.6,-2.7 8.1,-3 12.9,-4.1 13.3,-4.1 14.7,-3.9 15.1,-3.6 16,-2.6 16.1,-2.1 16.2,-0.7 16.1,-0.3 15.3,0.8 14.9,1.1 13.6,1.6 13.1,1.5 11.8,1.1 11.5,0.8 10.7,-0.3 10.6,-0.8 10.7,-2.2 10.9,-2.6 11.8,-3.6 12.2,-3.9 13.5,-4.2 14,-4.1 15.2,-3.5 15.5,-3.2 16.2,-2 16.2,-1.5 16,-0.1 15.8,0.2 14.8,1.2 14.3,1.4 13.9,1.5 11.4,2 6.6,2.7 4.7,2.6 0,2.6 -0.3,2.6 -1.2,2.3 -1.5,2.1 -2.1,1.5 -2.3,1.2 -2.6,0.3 -2.6,0 -2.4,-0.9 -2.3,-1.2 -1.7,-1.9 -1.5,-2.1 -0.6,-2.5 -0.3,-2.6 0,-2.6 0,-2.6 Z"></path></g><g transform="translate(1058.86 101.79) rotate(0 0.29 7.72)" stroke="none"><path fill="#1e1e1e" d="M 2.6,0 Q 2.6,0 2.7,1 3,4.8 3.1,6.1 3.4,9.8 3.6,12.6 3.6,16.4 3.4,16.9 2.4,18.1 1.9,18.3 0.4,18.6 -0.1,18.5 -1.5,17.9 -1.8,17.5 -2.5,16.1 -2.6,15.6 -2.3,14.1 -2,13.7 -0.9,12.6 -0.4,12.4 1.1,12.3 1.6,12.4 2.9,13.2 3.2,13.7 3.8,15.1 3.7,15.6 3.3,17.1 3,17.5 1.8,18.4 1.3,18.5 -0.3,18.5 -0.7,18.3 -1.9,17.4 -2.2,16.9 -2.6,15.4 -2.6,15.4 -2.7,10.3 -2.7,9 -2.8,4.5 -2.7,3.2 -2.6,0 -2.6,-0.3 -2.4,-1.2 -2.2,-1.5 -1.5,-2.2 -1.2,-2.3 -0.3,-2.6 0,-2.6 0.9,-2.5 1.2,-2.3 2,-1.8 2.2,-1.5 2.6,-0.6 2.6,-0.3 2.6,0 2.6,0 Z"></path></g><g transform="translate(259.22 85.41) rotate(0 -0.52 -10.04)" stroke="none"><path fill="#1e1e1e" d="M -2.6,0.1 Q -2.6,0.1 -2.7,-0.7 -2.9,-3.7 -3.1,-4.9 -3.5,-8.4 -3.7,-9.7 -4.1,-13.7 -4.2,-14.9 -4.3,-18.9 -4.4,-19.5 -4.3,-21.1 -4.1,-21.6 -3,-22.9 -2.5,-23.2 -0.9,-23.5 -0.3,-23.4 1.2,-22.7 1.5,-22.3 2.3,-20.9 2.4,-20.3 2.1,-18.7 1.8,-18.2 0.6,-17 0.1,-16.9 -1.6,-16.6 -2.1,-16.8 -3.5,-17.7 -3.8,-18.1 -4.5,-19.7 -4.5,-20.2 -4,-21.8 -3.7,-22.3 -2.4,-23.3 -1.8,-23.4 -0.1,-23.4 0.4,-23.2 1.7,-22.2 2,-21.7 2.2,-21.2 2.4,-17.9 2.5,-12.5 2.6,-11.1 2.8,-7.2 2.8,-6 2.7,-1.6 2.6,-0.8 2.6,0.6 2.5,0.8 2,1.7 1.8,1.9 1,2.4 0.7,2.5 -0.2,2.6 -0.6,2.5 -1.4,2.2 -1.7,2 -2.3,1.3 -2.4,1 -2.6,0.1 -2.6,0.1 Z"></path></g><g transform="translate(47.53 104.54) rotate(0 3.42 0.4)" stroke="none"><path fill="#1e1e1e" d="M -0.9,-2.2 Q -0.9,-2.2 -0.6,-2.4 1.8,-3.3 2.9,-3.7 6,-4.4 7.3,-4.1 10,-2.2 10.3,-1.2 10,2.3 9,3.2 5.8,5 4.2,4.4 1.3,1.6 1.2,0.4 3,-3.8 4.2,-4.2 3.3,-3.4 4.5,-4 9.3,-3.1 9.7,-2 9.7,2 8.5,3.2 5,5.6 4,5.7 -2.9,4.5 -3.3,4 -4.2,2.5 -4.3,1.9 -4.1,0.1 -3.8,-0.4 -2.5,-1.7 -2,-1.9 -0.2,-2.2 0.4,-2 2,-1.2 2.3,-0.7 3.1,0.9 3.1,1.5 2.7,3.3 2.3,3.8 0.9,4.9 0.3,5.1 -1.4,5.2 -2,4.9 -3.5,3.9 -3.8,3.4 -4.4,1.7 -4.3,1.1 -3.7,-0.6 -3.3,-1.1 -1.8,-2 -1.2,-2.1 0.6,-2 1.1,-1.8 1.7,-1.5 2.5,-1.5 3.4,0.9 5,1.7 8.5,1.2 7.4,1.8 7.4,-0.7 6,-1 5.2,1.6 4.6,0.6 6.2,0.7 5,1.1 1.7,1.9 1.3,2.1 0.4,2.3 0.1,2.3 -0.7,2.2 -1,2.1 -1.7,1.6 -1.9,1.4 -2.3,0.7 -2.3,0.4 -2.3,-0.5 -2.2,-0.7 -1.8,-1.5 -1.6,-1.7 -0.9,-2.2 -0.9,-2.2 Z"></path></g><g transform="translate(70.1 99.46) rotate(0 -2.2 1.98)" stroke="none"><path fill="#1e1e1e" d="M 0,2.4 Q 0,2.4 -0.6,2.5 -1.5,4.2 -1.6,4.5 -2,5.4 -2.2,5.7 -3,6.3 -3.3,6.5 -4.3,6.7 -4.6,6.7 -5.6,6.4 -5.9,6.2 -6.6,5.5 -6.8,5.2 -7.1,4.3 -7.1,4 -6.8,2.5 -6.5,2.1 -5.4,1.3 -5,1.2 -3.6,1.2 -3.2,1.3 -2.1,2.1 -1.9,2.5 -1.5,3.8 -1.6,4.3 -2,5.5 -2.4,5.9 -3.5,6.6 -4,6.6 -5.3,6.5 -5.7,6.3 -6.7,5.4 -6.9,5 -7.1,3.6 -7,3.2 -6.4,2 -6,1.7 -4.8,1.1 -4.4,1.1 -3,1.4 -2.7,1.6 -1.8,2.7 -1.7,3.1 -1.6,4.4 -1.5,4.3 -1.7,4.8 -1.8,5.1 -2.4,6 -2.7,6.2 -3.6,6.6 -3.9,6.7 -4.9,6.6 -5.3,6.5 -6.1,6 -6.4,5.8 -6.9,5 -7,4.6 -7.1,3.6 -6.4,1.7 -3.3,-2.2 -2.2,-2.4 0,-2.4 0.3,-2.4 1.1,-2.2 1.4,-2 2,-1.4 2.1,-1.1 2.4,-0.3 2.4,0 2.3,0.9 2.1,1.1 1.6,1.8 1.4,2 0.6,2.4 0.3,2.4 0,2.4 0,2.4 Z"></path></g><g transform="translate(68.93 100.42) rotate(0 1.28 2.09)" stroke="none"><path fill="#1e1e1e" d="M 1.7,-1.7 Q 1.7,-1.7 2,-1.4 3.7,0.6 4.1,1.6 4.7,2.9 4.8,3.3 4.6,4.3 4.5,4.6 3.9,5.4 3.6,5.6 2.8,6.1 2.4,6.2 1.4,6.2 1.1,6.1 0.2,5.6 -0.1,5.4 -0.7,4.5 -0.8,4.2 0,1.5 0.3,2.7 4.2,1 3.6,-0.3 4.6,0 4.6,0 5,0.8 5,1.1 5.1,2.3 4.9,2.6 4.4,3.6 4.2,3.9 3.2,4.6 2.9,4.7 1.8,4.8 1.4,4.8 0.3,4.4 0,4.2 -0.7,3.3 -0.7,1.7 -1,2.3 -0.2,2.9 -0.1,3.3 -0.5,3.1 -1.4,2.4 -1.6,2 -2,0.9 -2.1,0.6 -2,-0.6 -1.8,-1 -1.2,-2 -0.9,-2.2 0.1,-2.8 0.5,-2.9 1.7,-2.9 2.6,-2.4 4.9,0.3 5,0.6 5.1,1.6 5,2 4.6,3.2 4.4,3.5 3.5,4.3 3.1,4.5 2,4.8 1.6,4.8 0.4,4.5 0.1,4.3 -0.8,3.6 -1.1,3.2 -1.5,2.1 -0.4,2.7 3.9,1.9 4,0.3 5.1,1.1 5.6,2.6 5.9,5.4 5.6,5.9 4.5,7.2 4,7.4 2.4,7.8 1.8,7.6 0.3,6.9 -0.1,6.5 -0.9,5 -0.9,4.4 -0.6,2.8 -0.3,2.3 0.9,1.1 1.5,1 3.1,0.8 3.7,1 5.1,1.8 5.4,2.3 6.1,3.9 6,4.4 5.6,6.1 5.2,6.5 3.9,7.5 3.3,7.6 1.6,7.6 1.1,7.4 -0.2,6.4 -0.5,5.9 -0.9,4.2 -0.9,4.2 -1.7,2.3 -0.9,3.2 -1.9,2.1 -2.1,0.7 -0.1,-2.9 1.5,-2.9 4.5,-1.3 4.8,-0.2 5.1,1.6 5,2 4.6,3.2 4.4,3.5 3.5,4.3 3.1,4.5 2,4.8 1.6,4.8 0.4,4.5 0.1,4.3 -0.8,3.6 -1.1,3.2 -1.5,2.1 -1.5,2.1 0.6,3.5 0.2,3.4 -0.8,2.9 -1.1,2.6 -1.8,1.7 -1.9,1.3 -2.1,0.2 -2,-0.2 -1.7,-1.3 -1.4,-1.6 -0.6,-2.5 -0.2,-2.6 0.9,-3 1.3,-2.9 2.5,-2.7 3.4,-1.9 5.1,1.1 4.9,2.2 4.7,0.1 4.8,0.4 5.1,1.5 5.1,1.9 4.8,3 4.6,3.3 3.9,4.2 3.6,4.4 2.5,4.8 2.1,4.8 1,4.7 0.7,4.5 -0.3,3.9 -0.5,3.6 -0.6,3.2 -0.8,2.1 0.5,-1.4 1.7,-1.6 4.9,0.2 4.9,1.7 4,5.2 4.4,4.1 4.8,3.6 4.7,3.9 4.3,4.9 4.1,5.2 3.4,5.8 3.1,6 2.1,6.2 1.7,6.2 0.7,6 0.5,5.8 -0.3,5.1 -0.5,4.8 -0.8,3.9 -0.6,4.3 -1.1,2.4 -1.4,2 -2,1.2 -2.1,1 -2.4,0.1 -2.4,-0.1 -2.2,-1 -2,-1.2 -1.5,-1.9 -1.2,-2 -0.4,-2.3 -0.1,-2.4 0.7,-2.3 1,-2.1 1.7,-1.7 1.7,-1.7 Z"></path></g><g transform="translate(181.63 57.83) rotate(0 0.59 -0.95)" stroke="none"><path fill="#1e1e1e" d="M 0.8,-2.3 Q 0.8,-2.3 1.4,-2.1 0.9,0 0.8,0.5 0.3,2 -0.1,2.4 -1.4,3.3 -1.9,3.3 -3.5,3.2 -4,3 -5.2,2 -5.4,1.5 -5.7,-0.1 -5.6,-0.6 -4.9,-2 -4.5,-2.3 -3.1,-3.1 -2.6,-3.1 -1,-2.8 -0.6,-2.5 0.5,-1.4 0.7,-0.8 0.8,0.7 0.6,1.2 -0.2,2.5 -0.6,2.8 -2.1,3.4 -2.6,3.4 -4.1,2.9 -4.5,2.6 -5.5,1.3 -5.6,0.8 -5.6,-0.8 -5.6,-0.8 -2.3,-4.8 -1,-5.3 2.5,-5.3 3.5,-4.9 6.2,-2.6 6.2,-1 5,2.6 3.6,3 0.1,2.8 -0.4,2.5 -1.4,2 -1.6,1.8 -2.1,1.1 -2.3,0.9 -2.4,0 -2.4,-0.3 -2.2,-1.1 -2,-1.4 -1.4,-2 -1.1,-2.1 -0.3,-2.4 0,-2.4 0.8,-2.3 0.8,-2.3 Z"></path></g><g transform="translate(182.73 57.54) rotate(0 -1.28 0.62)" stroke="none"><path fill="#1e1e1e" d="M 1.5,1.8 Q 1.5,1.8 -0.5,2.5 -3.4,3 -3.7,2.9 -4.5,2.1 -4.7,1.8 -4.9,0.7 -4.8,0.3 -4.3,-0.8 -4.1,-1 -3,-1.5 -2.7,-1.5 -1.5,-1.3 -1.2,-1.1 -0.5,-0.3 -0.3,0.1 -0.2,1.2 -0.4,1.6 -0.9,2.5 -1.3,2.8 -2.3,3.2 -2.7,3.1 -3.8,2.8 -4.1,2.6 -4.8,1.6 -4.9,1.3 -4.8,0.1 -4.7,-0.2 -4,-1.1 -3.6,-1.3 -2.5,-1.6 -2.5,-1.6 -1.5,-1.8 -1.3,-1.9 -0.5,-2.3 -0.2,-2.3 0.6,-2.3 0.9,-2.2 1.6,-1.7 1.8,-1.5 2.2,-0.8 2.3,-0.5 2.3,0.3 2.2,0.6 1.9,1.4 1.7,1.6 1.5,1.8 1.5,1.8 Z"></path></g><g transform="translate(184.79 58.42) rotate(0 -5.03 1.06)" stroke="none"><path fill="#1e1e1e" d="M 0.1,2.6 Q 0.1,2.6 -0.8,2.7 -4.4,3.5 -6.4,4 -9.1,4.7 -9.5,4.7 -10.6,4.5 -10.9,4.3 -11.7,3.6 -11.9,3.3 -12.3,2.3 -12.3,1.9 -12.2,0.8 -12.1,0.5 -11.5,-0.5 -11.2,-0.7 -10.2,-1.2 -10.4,-1.2 -9.5,-1.4 -9,-1.3 -7.6,-0.8 -7.2,-0.5 -6.4,0.7 -6.3,1.2 -6.4,2.7 -6.7,3.1 -7.6,4.2 -8.1,4.4 -9.5,4.7 -10,4.6 -11.3,4 -11.6,3.6 -12.3,2.3 -12.3,1.9 -12.1,0.4 -11.8,0 -10.8,-1 -10.3,-1.2 -8.8,-1.3 -8.4,-1.2 -7.1,-0.4 -6.8,0 -6.3,1.4 -6.3,1.9 -6.7,3.3 -7,3.6 -8.4,4.6 -8.8,4.7 -9.8,4.7 -10.2,4.6 -11.2,4.1 -11.4,3.9 -12.1,3 -12.2,2.6 -12.4,1.5 -12.3,1.2 -11.9,0.1 -11.7,-0.2 -10.9,-0.9 -10.6,-1.1 -8.2,-1.6 -6.7,-2 -1.8,-2.7 -0.9,-2.6 0.6,-2.6 0.9,-2.5 1.7,-2 1.9,-1.8 2.4,-1 2.5,-0.7 2.6,0.2 2.6,0.6 2.2,1.4 2,1.7 1.3,2.3 1,2.4 0.1,2.6 0.1,2.6 Z"></path></g><g transform="translate(174.51 93.66) rotate(0 -1.98 0.88)" stroke="none"><path fill="#1e1e1e" d="M 0,2.5 Q 0,2.5 -0.7,2.5 -3.8,3.9 -3.6,2.4 -5.8,-1.1 -4.9,-1.9 -1.6,-3 -0.5,-3 2.9,-2.7 3.9,-1.2 3.6,3.1 2.7,3.6 0.4,2 0.3,2.5 -0.5,4 -1,4.4 -2.6,5.1 -3.1,5 -4.8,4.7 -5.2,4.3 -6.3,3 -6.5,2.4 -6.5,0.7 -6.3,0.2 -5.3,-1.2 -4.8,-1.5 -3.2,-2 -2.6,-1.9 -1,-1.4 -0.6,-1 0.3,0.5 0.4,1 0.3,2.7 0,3.2 -1.1,4.5 -1.7,4.8 -3.3,5.1 -3.9,5 -5.4,4.2 -5.8,3.8 -6.6,2.2 -6.6,1.7 -6.6,1.1 -3.1,-0.4 -0.9,1 -0.2,2.4 -1.6,3.7 -2.7,3.9 -6,4.6 -7.3,3.6 -8.5,0 -7.5,-0.8 -4,-2.5 -2.7,-2.5 0,-2.5 0.3,-2.4 1.1,-2.2 1.4,-2 2,-1.4 2.1,-1.1 2.4,-0.3 2.4,0 2.3,0.9 2.1,1.1 1.6,1.8 1.4,2 0.6,2.4 0.3,2.4 0,2.5 0,2.5 Z"></path></g><g transform="translate(313.58 106.07) rotate(0 -0.07 -2.86)" stroke="none"><path fill="#1e1e1e" d="M -2.5,0 Q -2.5,0 -2.5,-0.8 -2.7,-5.7 -2.7,-6 -2.4,-6.9 -2.2,-7.1 -1.6,-7.8 -1.3,-8 -0.4,-8.3 -0.1,-8.3 0.9,-8.1 1.1,-8 1.9,-7.4 2.1,-7.1 2.5,-6.3 2.5,-6 1,-8.1 1.3,-7.8 2.2,-7 2.4,-6.5 2.5,-5.3 2.4,-4.9 1.8,-3.8 1.4,-3.5 0.3,-3 -0.1,-3 -1.4,-3.4 -1.7,-3.6 -2.5,-4.6 -2.6,-5 -2.6,-6.3 -2.5,-6.7 -1.7,-7.7 -1.4,-7.9 -0.1,-8.3 0.3,-8.2 1.5,-7.8 1.8,-7.5 2.5,-6.4 2.5,-6 2.4,-4.7 2.2,-4.4 1.4,-3.4 1,-3.2 -0.3,-3 -1.5,-4.3 -2.6,-6.3 -2.5,-6.6 -2,-7.4 -1.8,-7.6 -1,-8.1 -0.7,-8.2 0.2,-8.3 0.6,-8.2 1.4,-7.8 1.7,-7.6 2.3,-6.9 2.4,-6.6 2.6,-5.7 2.6,-3.6 2.5,0 2.4,0.3 2.2,1.1 2,1.4 1.4,2 1.1,2.2 0.3,2.4 0,2.4 -0.9,2.3 -1.1,2.2 -1.8,1.6 -2,1.4 -2.4,0.6 -2.4,0.3 -2.5,0 -2.5,0 Z"></path></g><g transform="translate(337.37 106.51) rotate(0 0.29 -2.53)" stroke="none"><path fill="#1e1e1e" d="M -2.4,-0.1 Q -2.4,-0.1 -2.5,-0.6 -2.1,-5.1 -2,-5.5 -1.5,-6.7 -1.2,-7 -0.1,-7.6 0.3,-7.7 1.6,-7.5 1.9,-7.3 2.9,-6.4 3,-6 3.2,-4.8 3.1,-4.4 2.5,-3.2 2.2,-3 1,-2.4 0.6,-2.4 -0.7,-2.7 -1,-3 -1.8,-3.9 -1.9,-4.4 -2,-5.6 -1.9,-6 -1.1,-7.1 -0.8,-7.3 0.4,-7.7 0.9,-7.7 2.1,-7.3 2.4,-7 3.1,-5.9 3.2,-5.5 3.2,-5.1 2.9,-2.9 2.4,0.1 2.4,0.4 2.1,1.2 1.9,1.5 1.3,2.1 1,2.2 0.2,2.4 -0.1,2.4 -1,2.2 -1.2,2.1 -1.9,1.5 -2,1.3 -2.4,0.5 -2.4,0.2 -2.4,-0.1 -2.4,-0.1 Z"></path></g><g transform="translate(378.12 112.38) rotate(0 5.14 8.92)" stroke="none"><path fill="#1e1e1e" d="M 2.5,0 Q 2.5,0 2.5,0.9 3,4.1 3.4,5.1 4.5,8.5 4.9,9.5 6.8,12.5 7.6,13.2 10.3,14.2 10.9,14.3 12.5,14.9 12.9,15.4 13.8,16.9 13.9,17.4 13.7,19.2 13.4,19.7 12.2,21 11.6,21.2 9.9,21.5 9.3,21.3 7.8,20.5 7.4,20 6.7,18.4 6.7,17.8 7,16.1 7.4,15.7 8.7,14.5 9.3,14.4 11.1,14.3 11.6,14.5 13.1,15.5 13.4,16 13.9,17.6 13.9,18.2 13.3,19.9 12.9,20.3 11.4,21.3 10.9,21.4 10.3,21.5 7.5,20.8 2.8,18.6 2.1,17.8 0.1,15 -0.5,13.9 -1.6,10.8 -1.8,9.7 -2.1,6.4 -2.4,5.4 -2.6,1.8 -2.5,0.9 -2.4,-0.6 -2.3,-0.9 -1.9,-1.6 -1.6,-1.9 -0.9,-2.3 -0.6,-2.4 0.3,-2.5 0.6,-2.4 1.4,-2 1.6,-1.9 2.2,-1.2 2.3,-0.9 2.5,0 2.5,0 Z"></path></g><g transform="translate(379.81 120.97) rotate(0 -0.33 -1.87)" stroke="none"><path fill="#1e1e1e" d="M -2.4,0.2 Q -2.4,0.2 -2.7,-1.4 -3.1,-3.8 -3.1,-4.2 -2.6,-5.3 -2.3,-5.5 -1.3,-6.2 -0.9,-6.2 0.3,-6 0.6,-5.8 1.5,-5 1.6,-4.6 1.8,-3.4 1.7,-3 1.1,-2 0.8,-1.8 -0.3,-1.3 -0.7,-1.3 -1.9,-1.6 -2.2,-1.8 -2.9,-2.7 -3,-3.1 -3.1,-4.3 -2.9,-4.7 -2.2,-5.7 -1.9,-5.9 -0.8,-6.2 -0.3,-6.2 0.8,-5.8 1.1,-5.5 1.7,-4.5 1.7,-4.5 2.4,-0.2 2.4,0.1 2.3,0.9 2.1,1.2 1.6,1.9 1.3,2 0.5,2.4 0.2,2.4 -0.7,2.4 -0.9,2.2 -1.7,1.8 -1.9,1.6 -2.3,0.8 -2.4,0.5 -2.4,0.2 -2.4,0.2 Z"></path></g><g transform="translate(378.85 116.42) rotate(0 0.04 -3.52)" stroke="none"><path fill="#1e1e1e" d="M -2.5,0 Q -2.5,0 -2.6,-0.9 -2.8,-4 -2.8,-5.6 -2.6,-8.1 -2.4,-8.5 -1.4,-9.5 -1,-9.7 0.3,-9.9 0.8,-9.8 2,-9.1 2.3,-8.8 2.9,-7.5 2.9,-7.1 2.6,-5.7 2.3,-5.4 1.3,-4.5 0.9,-4.3 -0.5,-4.2 -0.9,-4.4 -2.1,-5.2 -2.3,-5.6 -2.8,-6.8 -2.7,-7.3 -2.3,-8.6 -2,-8.9 -0.9,-9.7 -0.4,-9.8 0.9,-9.8 1.4,-9.6 2.4,-8.7 2.6,-8.3 2.9,-6.9 2.9,-6.9 2.8,-4 2.7,-2.9 2.5,0 2.5,0.3 2.2,1.2 2.1,1.4 1.4,2.1 1.2,2.2 0.3,2.5 0,2.5 -0.9,2.4 -1.2,2.2 -1.9,1.7 -2.1,1.4 -2.5,0.6 -2.5,0.3 -2.5,0 -2.5,0 Z"></path></g><g transform="translate(378.12 113.12) rotate(0 0.04 -1.76)" stroke="none"><path fill="#1e1e1e" d="M -2.4,0 Q -2.4,0 -2.4,-1.8 -2.2,-4.4 -2,-4.8 -1.2,-5.6 -0.8,-5.8 0.3,-6 0.7,-5.9 1.7,-5.3 2,-5 2.5,-4 2.5,-3.5 2.3,-2.4 2,-2.1 1.1,-1.3 0.8,-1.2 -0.4,-1.1 -0.8,-1.2 -1.8,-1.9 -2,-2.2 -2.4,-3.4 -2.4,-3.8 -2,-4.9 -1.7,-5.2 -0.7,-5.8 -0.3,-5.9 0.8,-5.9 1.2,-5.7 2.1,-4.9 2.3,-4.6 2.5,-3.4 2.5,-3.4 2.4,0 2.3,0.3 2.1,1.1 1.9,1.3 1.4,2 1.1,2.1 0.3,2.4 0,2.4 -0.8,2.2 -1.1,2.1 -1.8,1.6 -1.9,1.3 -2.3,0.6 -2.3,0.3 -2.4,0 -2.4,0 Z"></path></g><g transform="translate(377.68 107.39) rotate(0 1.17 7.12)" stroke="none"><path fill="#1e1e1e" d="M 2.5,0 Q 2.5,0 2.4,1.9 3,8.3 3.9,10.8 4.9,14.2 4.8,14.6 4.4,15.7 4.1,16 3.1,16.7 2.7,16.8 1.5,16.6 1.1,16.4 0.2,15.6 0,15.2 -0.2,14 -0.1,13.6 0.4,12.5 0.8,12.3 1.9,11.7 2.3,11.7 3.5,11.9 3.8,12.2 4.6,13.1 4.8,13.5 4.9,14.7 4.7,15.1 4.1,16.1 3.7,16.4 2.6,16.8 2.1,16.8 1,16.4 0.7,16.1 -0.1,15.1 -0.1,15.1 -1.8,9.1 -2,6.5 -2.5,0 -2.5,-0.3 -2.2,-1.1 -2,-1.4 -1.4,-2 -1.2,-2.2 -0.3,-2.5 0,-2.5 0.8,-2.3 1.1,-2.2 1.8,-1.7 2,-1.4 2.4,-0.6 2.4,-0.3 2.5,0 2.5,0 Z"></path></g><g transform="translate(425.04 122.22) rotate(0 -1.28 -4.66)" stroke="none"><path fill="#1e1e1e" d="M -2.5,0.3 Q -2.5,0.3 -2.7,-0.8 -3.4,-4.4 -3.8,-5.5 -0.1,-7.8 0.8,-6.8 2.3,-3.6 2.4,-3.4 2.5,-2.4 2.5,-2 2.1,-0.8 1.8,-0.5 0.9,0.4 0.6,0.6 -0.6,1 -1.1,0.9 -2.3,0.7 -2.7,0.5 -3.6,-0.3 -3.9,-0.6 -4.4,-1.8 -4.4,-2.9 -4,-5.7 -4.3,-6.2 -4.9,-7.7 -4.9,-8.3 -4.5,-9.9 -4.1,-10.4 -2.7,-11.4 -2.2,-11.6 -0.5,-11.6 0,-11.3 1.4,-10.3 1.7,-9.8 2.1,-8.2 2.1,-7.6 1.4,-6 1,-5.6 -0.4,-4.7 -1,-4.7 -2.7,-4.8 -3.2,-5.1 -4.4,-6.3 -4.6,-6.8 -4.9,-8.5 -4.8,-9.1 -4,-10.6 -3.5,-10.9 -2,-11.7 -1.4,-11.7 0.2,-11.3 0.7,-11 1.2,-10.6 1.8,-6.9 2.5,-2.4 2.5,-2 2.1,-0.8 1.8,-0.5 0.9,0.4 0.6,0.6 -0.6,1 -1.1,0.9 -2.3,0.7 -2.7,0.5 -3.6,-0.3 -3.9,-0.6 -4.4,-1.8 -4.3,-1.7 -4.9,-4.3 -5.2,-5.4 -5.7,-8.8 -5.3,-9.9 0.7,-10 1.2,-8.7 2.1,-5.3 2.2,-4 2.5,-0.3 2.5,0 2.4,0.9 2.3,1.2 1.7,1.9 1.5,2.1 0.6,2.5 0.3,2.5 -0.6,2.5 -0.9,2.4 -1.7,1.9 -1.9,1.7 -2.4,0.9 -2.5,0.6 -2.5,0.3 -2.5,0.3 Z"></path></g><g transform="translate(422.1 116.94) rotate(0 0.48 -0.11)" stroke="none"><path fill="#1e1e1e" d="M -2.4,0 Q -2.4,0 -2.5,-0.6 -3.5,-3.4 -3.8,-4.1 -4.1,-5.5 -4.1,-5.8 -3.7,-6.8 -3.4,-7.1 -2.6,-7.8 -2.3,-7.9 -1.3,-8.2 -0.9,-8.1 0.1,-7.9 0.4,-7.7 1.2,-7 1.4,-6.7 1.8,-5.6 2.2,-4.5 3.6,-1.1 4,0 4.1,2.4 4.5,2.8 5.3,4.1 5.4,4.7 5.2,6.2 5,6.7 3.9,7.9 3.4,8.1 1.8,8.4 1.3,8.2 -0.1,7.5 -0.4,7.1 -1.1,5.7 -1.1,5.1 -0.8,3.6 -0.5,3.1 0.7,2.1 1.2,1.9 2.8,1.8 3.3,2 4.6,2.9 4.9,3.3 5.4,4.8 5.4,5.3 4.9,6.9 4.5,7.3 3.2,8.2 2.7,8.3 1.1,8.2 0.7,8 0.2,7.7 -1.1,4.4 -3.1,-1.2 -3.6,-3 -4.1,-5.5 -4.1,-5.8 -3.7,-6.8 -3.4,-7.1 -2.6,-7.8 -2.3,-7.9 -1.3,-8.2 -0.9,-8.1 0.1,-7.9 0.4,-7.7 1.2,-7 1.4,-6.7 1.8,-5.6 1.5,-5.9 2.5,-3.9 2.5,-2.5 2.4,0 2.4,0.3 2.2,1.1 2,1.4 1.4,2 1.1,2.1 0.3,2.4 0,2.4 -0.9,2.3 -1.1,2.1 -1.8,1.6 -2,1.4 -2.4,0.6 -2.4,0.3 -2.4,0 -2.4,0 Z"></path></g><g transform="translate(424.59 122.15) rotate(0 0.07 -3.3)" stroke="none"><path fill="#1e1e1e" d="M -2.5,-0.1 Q -2.5,-0.1 -2.5,-1 -2.5,-6.6 -2.4,-7.1 -1.9,-8.2 -1.6,-8.5 -0.5,-9.2 -0.1,-9.2 1.2,-9.1 1.5,-8.8 2.4,-8 2.6,-7.5 2.8,-6.3 2.7,-5.9 2,-4.8 1.7,-4.5 0.5,-4 0.1,-4 -1.1,-4.3 -1.5,-4.5 -2.3,-5.5 -2.4,-5.9 -2.4,-7.2 -2.3,-7.6 -1.6,-8.7 -1.2,-8.9 0,-9.3 0.5,-9.2 1.7,-8.8 2,-8.5 2.7,-7.4 2.7,-7 2.8,-6.6 2.7,-4.2 2.5,0.1 2.4,0.3 2.2,1.2 2,1.4 1.4,2.1 1.1,2.2 0.2,2.5 -0.1,2.5 -0.9,2.3 -1.2,2.1 -1.9,1.6 -2,1.4 -2.4,0.5 -2.4,0.2 -2.5,-0.1 -2.5,-0.1 Z"></path></g><g transform="translate(424.23 114.73) rotate(0 1.06 2.64)" stroke="none"><path fill="#1e1e1e" d="M 0.1,-2.5 Q 0.1,-2.5 0.7,-2.5 4.2,-0.3 4.2,1 3.5,4.5 3.5,5.5 3.3,7.1 3.1,7.5 2.5,8.5 2.2,8.7 1.3,9.3 0.9,9.4 -0.2,9.4 -0.6,9.3 -1.6,8.9 -1.9,8.6 -2.6,7.7 -2.8,7.3 -3,6.2 -2.7,5 -2.4,-1.4 -2.3,-1.9 -1.5,-3.3 -1.1,-3.6 0.3,-4.3 0.9,-4.3 2.4,-4 2.9,-3.6 3.9,-2.4 4,-1.9 4.1,-0.3 3.9,0.2 3,1.5 2.6,1.8 1.1,2.3 0.5,2.2 -1,1.7 -1.4,1.4 -2.3,0 -2.4,-0.5 -2.3,-2.1 -2,-2.5 -1,-3.8 -0.5,-4 1.1,-4.3 1.6,-4.2 3,-3.6 3.4,-3.1 4.1,-1.8 4.2,-1.2 4.2,-0.7 4,1.5 3.4,6.4 3.3,6.8 3,7.8 2.8,8.2 1.9,9 1.6,9.1 0.5,9.5 0.1,9.4 -1,9.2 -1.3,9.1 -2.2,8.3 -2.4,8 -2.9,7 -2.9,6.6 -2.8,4.8 -2.4,3.7 -0.4,1 0.3,1.8 -0.1,2.5 -0.4,2.5 -1.2,2.2 -1.5,2 -2.1,1.4 -2.3,1.1 -2.5,0.2 -2.5,-0.1 -2.3,-1 -2.2,-1.2 -1.6,-1.9 -1.4,-2.1 -0.5,-2.5 -0.2,-2.5 0.1,-2.5 0.1,-2.5 Z"></path></g><g transform="translate(422.1 111.21) rotate(0 -0.07 -0.07)" stroke="none"><path fill="#1e1e1e" d="M 2.1,-0.7 Q 2.1,-0.7 2.1,-0.1 1.7,1.4 1.3,1.7 -0.1,2.2 -0.6,2 -1.9,1.1 -2,0.6 -2,-0.9 -1.7,-1.3 -0.4,-2.2 0.1,-2.1 1.6,-1.6 1.8,-1.1 Z"></path></g><g transform="translate(454.85 107.61) rotate(0 4.33 9.21)" stroke="none"><path fill="#1e1e1e" d="M 2.6,0.1 Q 2.6,0.1 2.5,1.8 2.4,6.5 2.5,8.1 3.1,12.9 3.5,13.9 5.5,16.2 5.7,15.6 6.4,14.2 6.9,13.8 8.4,13.1 8.9,13.1 10.5,13.5 11,13.8 12.1,15.1 12.2,15.6 12.3,17.2 12.1,17.8 11.2,19.1 10.7,19.4 9.2,19.9 8.6,19.9 7,19.4 6.6,19 5.7,17.6 5.6,17.1 5.7,15.4 5.9,14.9 7,13.7 7.5,13.4 9.1,13.1 9.7,13.2 11.2,13.9 11.5,14.3 12.3,15.8 12.3,16.3 12.4,16.9 8.9,19.3 3,21.5 1.9,21 -1,18.8 -1.7,17 -3.1,12.1 -3.1,11 -3,6.4 -2.8,4.8 -2.6,-0.1 -2.6,-0.4 -2.3,-1.3 -2.1,-1.6 -1.4,-2.2 -1.1,-2.4 -0.2,-2.6 0.1,-2.6 1.1,-2.4 1.3,-2.2 2,-1.6 2.2,-1.4 2.6,-0.5 2.6,-0.2 2.6,0.1 2.6,0.1 Z"></path></g><g transform="translate(496.11 123.47) rotate(0 1.17 -6.79)" stroke="none"><path fill="#1e1e1e" d="M -2.5,-0.1 Q -2.5,-0.1 -2.5,-1.3 -2.5,-5.1 -2.4,-6.3 -1.8,-9.9 -1.4,-11.1 0.1,-15.9 0.5,-16.1 1.5,-16.6 1.9,-16.7 3,-16.6 3.4,-16.5 4.4,-15.9 4.7,-15.6 5.3,-14.7 5.4,-14.3 5.5,-13.1 5.4,-12.7 4.9,-11.7 4.7,-11.4 4.3,-11 3.9,-10.8 2.4,-10.3 1.9,-10.3 0.4,-10.8 0,-11.2 -0.8,-12.5 -0.9,-13 -0.8,-14.6 -0.5,-15 0.5,-16.2 1,-16.4 2.5,-16.7 3,-16.6 4.4,-15.9 4.7,-15.5 5.4,-14.2 5.5,-13.6 5.2,-12.1 4.9,-11.7 3.8,-10.6 3.2,-10.5 1.7,-10.3 1.2,-10.5 -0.1,-11.3 -0.4,-11.8 -0.9,-13.2 -0.9,-13.7 -0.5,-15.2 -0.2,-15.6 0.8,-16.4 1.1,-16.5 2.3,-16.7 2.7,-16.7 3.8,-16.4 4.1,-16.1 4.9,-15.3 5.1,-15 5.5,-13.9 5.5,-13.5 5.3,-12.3 5.1,-12 4.4,-11.1 4.5,-10.1 3.7,-6.8 3.4,-5.7 2.7,-2.3 2.6,-1.1 2.4,0.7 2.3,1 1.8,1.8 1.6,2 0.8,2.4 0.5,2.5 -0.4,2.5 -0.7,2.4 -1.6,2 -1.8,1.8 -2.3,1.1 -2.4,0.8 -2.5,-0.1 -2.5,-0.1 Z"></path></g><g transform="translate(496.62 111.72) rotate(0 0.4 -1.03)" stroke="none"><path fill="#1e1e1e" d="M -2.3,-0.5 Q -2.3,-0.5 -1.9,-1.6 -1.1,-3.5 -0.8,-3.8 0.2,-4.3 0.6,-4.4 1.7,-4.2 2,-4 2.9,-3.2 3,-2.9 3.2,-1.8 3,-1.4 2.5,-0.4 2.2,-0.2 1.1,0.3 0.8,0.3 -0.3,0 -0.6,-0.2 -1.4,-1.1 -1.4,-1.5 -1.5,-2.6 -1.4,-3 -0.7,-3.9 -0.4,-4.1 0.7,-4.4 1.1,-4.4 2.2,-4 2.4,-3.7 3.1,-2.8 3.1,-2.4 3,-1.2 3,-1.2 2.3,0.5 2.2,0.7 1.8,1.5 1.6,1.7 0.9,2.2 0.7,2.2 -0.2,2.4 -0.5,2.3 -1.2,2 -1.5,1.8 -2,1.2 -2.1,0.9 -2.4,0.1 -2.3,-0.2 -2.3,-0.5 -2.3,-0.5 Z"></path></g><g transform="translate(495.89 110.77) rotate(0 0.37 -0.26)" stroke="none"><path fill="#1e1e1e" d="M 2.1,-0.7 Q 2.1,-0.7 2.1,-0.1 1.7,1.4 1.3,1.7 -0.1,2.2 -0.6,2 -1.9,1.1 -2,0.6 -2,-0.9 -1.7,-1.3 -0.4,-2.2 0.1,-2.1 1.6,-1.6 1.8,-1.1 Z"></path></g><g transform="translate(497.21 111.87) rotate(0 -0.37 -0.92)" stroke="none"><path fill="#1e1e1e" d="M -2.3,0.3 Q -2.3,0.3 -2.7,-0.4 -3.1,-1.7 -3,-2 -2.7,-2.8 -2.5,-3 -1.9,-3.5 -1.6,-3.6 -0.8,-3.8 -0.5,-3.8 0.3,-3.6 0.6,-3.4 1.2,-2.8 1.3,-2.6 1.6,-1.8 1.6,-1.2 1.1,0 0.8,0.2 -0.1,0.8 -0.5,0.8 -1.6,0.7 -2,0.5 -2.8,-0.3 -2.9,-0.6 -3.1,-1.8 -3,-2.1 -2.4,-3.1 -2.1,-3.3 -1.1,-3.8 -0.7,-3.8 0.4,-3.5 0.7,-3.3 1.4,-2.4 1.5,-2.1 1.6,-0.9 1.4,-0.6 0.8,0.3 0.4,0.5 -0.6,0.9 -1,0.8 -2.1,0.5 -2.4,0.2 -3,-0.7 -3,-1.1 -3.1,-1.1 -3.1,-1.4 -3,-2.3 -2.8,-2.5 -2.3,-3.2 -2.1,-3.4 -1.3,-3.8 -1.1,-3.8 -0.2,-3.8 0.1,-3.7 0.8,-3.3 1,-3 1.5,-2.3 1.5,-2.1 2.3,-0.3 2.3,0 2.2,0.8 2.1,1.1 1.6,1.7 1.4,1.9 0.6,2.3 0.3,2.3 -0.5,2.3 -0.8,2.2 -1.5,1.8 -1.7,1.6 -2.2,0.9 -2.3,0.6 -2.3,0.3 -2.3,0.3 Z"></path></g><g transform="translate(496.48 110.4) rotate(0 0 0)" stroke="none"><path fill="#1e1e1e" d="M 1.6,-1.6 Q 1.6,-1.6 1.8,-1.3 2.2,-0.3 2.2,0.1 1.9,1.1 1.7,1.4 0.9,2 0.5,2.1 -0.5,2.1 -0.9,2 -1.7,1.4 -1.9,1.1 -2.2,0.1 -2.2,-0.3 -1.8,-1.3 -1.5,-1.5 -0.7,-2.1 -0.3,-2.2 0.8,-2.1 1.1,-1.9 1.9,-1.2 2,-0.9 2.2,0.2 2.1,0.5 1.6,1.5 1.4,1.7 0.4,2.2 0.1,2.2 -1,2 -1.3,1.8 -1.6,1.6 -1.7,1.4 -2.1,0.7 -2.2,0.4 -2.2,-0.4 -2.1,-0.7 -1.7,-1.4 -1.6,-1.6 -0.9,-2 -0.7,-2.1 0.1,-2.2 0.4,-2.2 1.1,-1.9 1.4,-1.7 1.6,-1.6 1.6,-1.6 Z"></path></g><g transform="translate(518.21 109.45) rotate(0 0 0)" stroke="none"><path fill="#1e1e1e" d="M 1.6,-1.6 Q 1.6,-1.6 1.8,-1.3 2.2,-0.3 2.2,0.1 1.9,1.1 1.7,1.4 0.9,2 0.5,2.1 -0.5,2.1 -0.9,2 -1.7,1.4 -1.9,1.1 -2.2,0.1 -2.2,-0.3 -1.8,-1.3 -1.5,-1.5 -0.7,-2.1 -0.3,-2.2 0.8,-2.1 1.1,-1.9 1.9,-1.2 2,-0.9 2.2,0.2 2.1,0.5 1.6,1.5 1.4,1.7 0.4,2.2 0.1,2.2 -1,2 -1.3,1.8 -1.6,1.6 -1.7,1.4 -2.1,0.7 -2.2,0.4 -2.2,-0.4 -2.1,-0.7 -1.7,-1.4 -1.6,-1.6 -0.9,-2 -0.7,-2.1 0.1,-2.2 0.4,-2.2 1.1,-1.9 1.4,-1.7 1.6,-1.6 1.6,-1.6 Z"></path></g><g transform="translate(511.09 101.59) rotate(0 1.62 1.69)" stroke="none"><path fill="#1e1e1e" d="M 1.1,-2.1 Q 1.1,-2.1 1.6,-1.9 4.7,1.2 5,1.5 5.7,2.5 5.7,2.9 5.7,4.2 5.5,4.5 4.7,5.5 4.3,5.7 3.1,6 2.7,5.9 1.6,5.4 1.3,5 0.7,4 0.7,3.5 0.9,2.3 1.1,2 2,1.1 2.4,1 3.6,0.8 4,0.9 5.1,1.6 5.3,1.9 5.8,3.1 5.8,3.5 5.5,4.7 5.2,5 4.2,5.8 3.8,5.9 2.6,5.9 2.2,5.7 1.8,5.5 0.9,4.2 -1.1,2.1 -1.3,2 -1.9,1.4 -2.1,1.1 -2.4,0.3 -2.4,0 -2.3,-0.8 -2.1,-1.1 -1.6,-1.8 -1.4,-1.9 -0.6,-2.3 -0.3,-2.4 0.5,-2.3 0.8,-2.2 1.1,-2.1 1.1,-2.1 Z"></path></g><g transform="translate(822.66 89.34) rotate(0 -2.37 -0.72)" stroke="none"><path fill="#1e1e1e" d="M -0.7,2.3 Q -0.7,2.3 -3.1,1.6 -6.2,0.6 -6.4,0.3 -7.1,-0.7 -7.2,-1.1 -7.1,-2.3 -6.9,-2.6 -6.1,-3.5 -5.7,-3.7 -4.6,-3.9 -4.2,-3.8 -3.1,-3.3 -2.9,-3 -2.3,-1.9 -2.3,-1.5 -2.5,-0.4 -2.7,0 -3.6,0.8 -4,0.9 -5.2,1 -5.5,0.8 -6.5,0.2 -6.8,-0.1 -7.2,-1.2 -7.2,-1.6 -6.8,-2.7 -6.6,-3 -5.6,-3.8 -5.2,-3.8 -4,-3.8 -4,-3.8 0.7,-2.3 1,-2.2 1.7,-1.7 1.9,-1.5 2.3,-0.7 2.4,-0.4 2.4,0.4 2.3,0.7 1.9,1.5 1.7,1.7 1,2.2 0.7,2.3 -0.1,2.4 -0.4,2.4 -0.7,2.3 -0.7,2.3 Z"></path></g><g transform="translate(817.16 88.38) rotate(0 3.26 0.45)" stroke="none"><path fill="#1e1e1e" d="M 0.3,-2.5 Q 0.3,-2.5 1.2,-2.4 6.9,-1.9 7.3,-1.7 8.5,-1.1 8.8,-0.7 9.3,0.5 9.3,1 8.9,2.3 8.7,2.6 7.6,3.5 7.2,3.6 5.8,3.6 5.4,3.4 4.3,2.6 4.1,2.2 3.7,0.9 3.8,0.5 4.3,-0.7 4.6,-1.1 5.7,-1.8 6.2,-1.8 7.5,-1.7 7.9,-1.5 8.9,-0.6 9.1,-0.2 9.3,1.1 9.2,1.6 8.6,2.8 8.2,3 7,3.6 6.6,3.6 6.1,3.6 3.7,3.2 -0.3,2.5 -0.6,2.4 -1.5,2.1 -1.7,1.9 -2.3,1.1 -2.4,0.8 -2.5,0 -2.5,-0.3 -2.2,-1.2 -2,-1.5 -1.4,-2.1 -1.1,-2.2 -0.3,-2.5 0,-2.5 0.3,-2.5 0.3,-2.5 Z"></path></g><g transform="translate(824.32 89.37) rotate(0 -1.79 0.14)" stroke="none"><path fill="#1e1e1e" d="M 0.3,2.4 Q 0.3,2.4 -2.5,2.1 -5.8,1.1 -5.9,0.8 -5.9,-0.4 -5.8,-0.8 -5.1,-1.7 -4.8,-1.9 -3.7,-2.3 -3.3,-2.2 -2.2,-1.8 -1.9,-1.6 -1.3,-0.6 -1.2,-0.2 -1.3,0.9 -1.5,1.3 -2.2,2.1 -2.6,2.3 -3.7,2.5 -4.1,2.5 -5.2,2 -5.4,1.7 -5.9,0.6 -6,0.2 -5.8,-0.9 -5.5,-1.2 -4.7,-2 -4.3,-2.1 -3.2,-2.2 -2.8,-2.1 -1.8,-1.5 -1.8,-1.5 -0.3,-2.4 0,-2.4 0.8,-2.3 1.1,-2.1 1.8,-1.6 1.9,-1.4 2.3,-0.6 2.4,-0.3 2.3,0.5 2.2,0.8 1.8,1.6 1.6,1.8 0.9,2.2 0.6,2.3 0.3,2.4 0.3,2.4 Z"></path></g><g transform="translate(824.14 90.06) rotate(0 -0.69 -0.07)" stroke="none"><path fill="#1e1e1e" d="M -0.1,2.3 Q -0.1,2.3 -1.1,2.2 -2.9,1.6 -3.1,1.4 -3.6,0.4 -3.7,0 -3.5,-1.1 -3.3,-1.4 -2.5,-2.2 -2.1,-2.3 -1,-2.5 -0.7,-2.3 0.3,-1.8 0.5,-1.5 0.9,-0.4 0.9,-0.1 0.6,1 0.4,1.3 -0.5,2 -0.8,2.1 -2,2.1 -2.3,2 -3.2,1.3 -3.4,1 -3.7,-0.1 -3.6,-0.5 -3.2,-1.5 -3,-1.8 -2,-2.4 -1.6,-2.4 -0.5,-2.3 -0.5,-2.3 0.1,-2.3 0.3,-2.3 1.1,-2 1.4,-1.9 1.9,-1.2 2.1,-1 2.3,-0.2 2.3,0.1 2.1,0.9 2,1.1 1.5,1.8 1.2,1.9 0.5,2.3 0.2,2.3 -0.1,2.3 -0.1,2.3 Z"></path></g><g transform="translate(822.69 89.92) rotate(0 -0.02 0)" stroke="none"><path fill="#1e1e1e" d="M 2.1,-0.7 Q 2.1,-0.7 2.1,-0.1 1.7,1.4 1.3,1.7 -0.1,2.2 -0.6,2 -1.9,1.1 -2,0.6 -2,-0.9 -1.7,-1.3 -0.4,-2.2 0.1,-2.1 1.6,-1.6 1.8,-1.1 Z"></path></g><g transform="translate(822.48 89.66) rotate(0 -0.36 0.16)" stroke="none"><path fill="#1e1e1e" d="M -0.2,2.3 Q -0.2,2.3 -0.4,2.3 -0.2,2.4 -0.5,2.3 -1.3,2 -1.5,1.8 -2.1,1.2 -2.2,0.9 -2.4,0.1 -2.4,-0.2 -2.1,-1.1 -2,-1.3 -1.4,-1.9 -1.1,-2.1 -0.3,-2.4 -0.1,-2.4 0,-2.4 0.4,-2.3 1.5,-1.9 1.7,-1.6 2.3,-0.6 2.4,-0.2 2.2,0.9 2,1.2 1.2,2.1 0.8,2.2 -0.3,2.4 -0.7,2.3 -1.7,1.7 -1.9,1.4 -2.4,0.3 -2.4,0 -2.1,-1.1 -1.9,-1.4 -1,-2.2 -0.6,-2.3 0.5,-2.3 0.9,-2.2 1.9,-1.5 2,-1.2 2.4,-0.1 2.4,0.3 2,1.4 1.7,1.6 0.7,2.3 0.2,2.3 -0.8,2.3 -1.1,2.1 -1.8,1.6 -1.9,1.4 -2.3,0.6 -2.4,0.3 -2.3,-0.5 -2.2,-0.8 -1.8,-1.6 -1.6,-1.8 -0.9,-2.2 -0.6,-2.3 0.2,-2.4 0,-2.4 0.2,-2.3 0.5,-2.2 1.2,-1.9 1.5,-1.7 2,-1.1 2.1,-0.8 2.3,0 2.2,0.2 2,1 1.9,1.2 1.3,1.9 1.1,2 0.3,2.2 0,2.3 -0.2,2.3 -0.2,2.3 Z"></path></g><g transform="translate(822.01 89.92) rotate(0 0 0)" stroke="none"><path fill="#1e1e1e" d="M 1.6,-1.6 Q 1.6,-1.6 1.8,-1.3 2.2,-0.3 2.2,0.1 1.9,1.1 1.7,1.4 0.9,2 0.5,2.1 -0.5,2.1 -0.9,2 -1.7,1.4 -1.9,1.1 -2.2,0.1 -2.2,-0.3 -1.8,-1.3 -1.5,-1.5 -0.7,-2.1 -0.3,-2.2 0.8,-2.1 1.1,-1.9 1.9,-1.2 2,-0.9 2.2,0.2 2.1,0.5 1.6,1.5 1.4,1.7 0.4,2.2 0.1,2.2 -1,2 -1.3,1.8 -1.6,1.6 -1.7,1.4 -2.1,0.7 -2.2,0.4 -2.2,-0.4 -2.1,-0.7 -1.7,-1.4 -1.6,-1.6 -0.9,-2 -0.7,-2.1 0.1,-2.2 0.4,-2.2 1.1,-1.9 1.4,-1.7 1.6,-1.6 1.6,-1.6 Z"></path></g></svg>
