<?xml version="1.0" standalone="no"?><svg version="1.1" xmlns="http://www.w3.org/2000/svg" viewBox="0 0 310.58821947294643 339.8981658125223" width="621.1764389458929" height="679.7963316250446"><defs><style class="style-fonts"></style></defs><g transform="translate(104.43 185.64) rotate(0 19.53 -6.98)" stroke="none"><path fill="#e03131" d="M 2.1,-1.5 Q 2.1,-1.5 2.5,-1 5.2,1.2 6,1.9 8.7,3.8 9.7,4.2 12.9,5.5 14.1,5.9 17.9,6.7 19,6.8 22.5,6.9 23.6,6.7 27.2,5.8 28.2,5.3 31.6,2.9 32.3,1.9 34.3,-1.3 34.6,-2.5 35.3,-6.1 35.4,-7.5 35.2,-11.4 35,-12.5 33.7,-15.4 33,-16.4 30.4,-19.3 28.2,-20.4 25.1,-22.2 24.9,-22.8 24.4,-24.5 24.4,-25.1 25.1,-26.7 25.5,-27.1 27,-28.1 27.6,-28.1 29.4,-28 29.9,-27.7 31.2,-26.5 31.4,-25.9 31.7,-24.2 31.6,-23.6 30.8,-22 30.3,-21.7 28.7,-20.9 28.1,-20.9 26.4,-21.2 25.9,-21.6 24.7,-22.9 24.6,-23.5 24.4,-25.3 24.6,-25.8 25.6,-27.3 26.1,-27.6 27.8,-28.2 28.4,-28.2 30.1,-27.6 30.1,-27.6 33.2,-26.2 34.1,-25.6 36.9,-23.3 37.8,-22.1 40.5,-18.4 41,-17.4 42.1,-13.9 42.4,-12.5 42.7,-8.8 42.7,-7 42.3,-2.2 42,-1.1 40.4,3.1 39.7,4.1 37.2,7.7 36.1,8.7 32.4,11.5 31.3,12 28,13.2 26.8,13.5 22.9,14.1 21.1,14.1 16.6,13.7 15.4,13.5 11.5,12.4 10.5,12 7,10.4 6.1,9.8 3.5,7.7 2.6,7 0.1,4.5 -0.7,3.5 -2.1,1.5 -2.3,1.2 -2.6,0.3 -2.6,0 -2.4,-0.9 -2.3,-1.2 -1.7,-1.9 -1.4,-2.1 -0.6,-2.5 -0.3,-2.5 0.6,-2.5 0.9,-2.4 1.7,-1.9 1.9,-1.7 2.1,-1.5 2.1,-1.5 Z"></path></g><g transform="translate(114.64 177.73) rotate(0 12.25 0.16)" stroke="none"><path fill="#e03131" d="M 2.1,1.4 Q 2.1,1.4 1.7,2 0.7,4.7 1.1,6 2.6,9.2 3.6,10.1 6.9,11.8 8.1,12 11.6,12.3 12.7,12.3 15.8,11.5 16.9,10.8 19.5,8.1 20.3,7.1 22,3.9 22.4,2.7 22.8,-0.8 22.7,-2 21.6,-5.6 21.1,-6.6 19.3,-9.8 18,-11.4 16,-14.1 15.9,-14.7 15.8,-16.5 16.1,-17.1 17.1,-18.5 17.6,-18.9 19.4,-19.4 20,-19.3 21.7,-18.7 22.1,-18.3 23.1,-16.7 23.2,-16.1 23.1,-14.3 22.8,-13.8 21.6,-12.4 21,-12.2 19.2,-11.8 18.6,-12 17,-12.8 16.6,-13.2 15.8,-14.9 15.8,-15.5 16.1,-17.3 16.4,-17.8 17.8,-19 18.4,-19.2 20.2,-19.3 20.8,-19.1 22.3,-18.2 22.3,-18.2 24.9,-15 25.5,-14 27.5,-10.8 28.1,-9.4 29.6,-5.7 29.9,-4.4 30.3,0 30.2,1.1 29.6,4.6 29.2,5.9 27.8,9.4 27.1,10.3 25,13.2 24.1,14.2 21.5,16.6 20.2,17.3 16.9,19 15.5,19.2 11.5,19.5 10.2,19.4 6.6,18.9 5.4,18.6 1.9,17.3 0.9,16.7 -2.2,13.9 -2.8,13 -4.4,9.7 -4.7,8.3 -4.9,4.3 -4.6,3.2 -3,-0.3 -2.5,-0.8 -1.7,-1.9 -1.4,-2 -0.6,-2.4 -0.3,-2.5 0.6,-2.4 0.9,-2.3 1.6,-1.9 1.9,-1.6 2.3,-0.9 2.4,-0.6 2.5,0.3 2.4,0.6 2.1,1.4 2.1,1.4 Z"></path></g><g transform="translate(104.42 185.51) rotate(0 3.27 -25.02)" stroke="none"><path fill="#e03131" d="M -2.2,1.4 Q -2.2,1.4 -2.9,0.5 -4.6,-2.5 -5.4,-4.3 -7.2,-9.3 -7.6,-10.9 -8.3,-15.4 -8.5,-16.5 -8.8,-20.1 -8.8,-21.8 -8.8,-26.6 -8.5,-28.2 -7.5,-32.2 -7.1,-33.5 -5.5,-36.6 -4.6,-38.1 -1.7,-42.4 -1,-43.3 1.8,-46.5 2.9,-47.5 6.2,-50.1 8.2,-51.5 11.3,-53.5 11.9,-53.5 13.6,-53.2 14,-52.9 15.2,-51.7 15.4,-51.2 15.6,-49.5 15.4,-49 14.6,-47.5 14.1,-47.2 12.6,-46.5 12,-46.5 10.4,-47 9.9,-47.3 8.9,-48.7 8.8,-49.2 8.7,-50.9 8.9,-51.4 9.9,-52.8 10.4,-53.1 12.1,-53.5 12.6,-53.5 14.2,-52.9 14.6,-52.5 15.5,-51 15.6,-50.5 15.4,-48.8 15.1,-48.3 14,-47 14,-47 10.9,-44.9 9.7,-44 6.7,-41.6 5.7,-40.5 3.2,-37.5 2.2,-36.2 -0.4,-32 -0.9,-30.7 -2.2,-26.3 -2.3,-24.9 -2.3,-20.2 -2.3,-18.7 -2,-14.5 -1.9,-13.3 -1.2,-9.6 -0.8,-8.1 1,-3.4 1.6,-2.4 2.5,-0.8 2.6,-0.5 2.6,0.4 2.5,0.7 2.1,1.6 1.9,1.8 1.1,2.4 0.8,2.5 -0.1,2.7 -0.4,2.6 -1.3,2.3 -1.6,2.1 -2.2,1.4 -2.2,1.4 Z"></path></g><g transform="translate(113.28 139.57) rotate(0 55.76 -1.64)" stroke="none"><path fill="#e03131" d="M -1.9,-1.9 Q -1.9,-1.9 -1.2,-2.6 1.6,-5.4 2.6,-6.2 5.8,-8.9 6.9,-9.7 11.4,-12.9 13.3,-14.3 18.9,-17.9 20.2,-18.7 24.4,-20.7 25.7,-21.3 29.7,-22.8 30.8,-23.2 34.4,-24.3 35.6,-24.6 39.8,-25.6 41.5,-25.8 45.8,-26.1 46.9,-26.1 51.8,-26.2 53.1,-26.2 56.6,-26.2 58.3,-26.2 63.6,-25.6 64.8,-25.4 69.4,-24.4 70.7,-24 74.7,-22.5 75.8,-22 79.4,-20.5 80.3,-20 84.3,-17.6 85.4,-17 88.2,-15.1 89.2,-14.3 91.8,-11.9 92.6,-11.2 94.9,-8.9 95.9,-7.9 98.7,-4.8 99.5,-3.9 102.4,-0.2 103.1,0.8 105.9,4.6 106.9,6.1 109.3,9.7 110,10.6 112.4,13.5 113.7,15.9 115.1,19.4 115,20 114.4,21.6 114,22 112.6,22.9 112,23 110.3,22.9 109.8,22.6 108.5,21.4 108.2,20.9 107.9,19.2 108.1,18.6 108.8,17.1 109.3,16.7 110.8,16 111.4,15.9 113.1,16.3 113.6,16.6 114.7,17.9 114.9,18.4 115,20.2 114.8,20.7 113.9,22.2 113.4,22.5 111.8,23.1 111.2,23 109.6,22.5 109.1,22.1 108.1,20.7 108.1,20.7 106.7,17.8 106,17 103.8,14.3 103,12.9 100.2,9 99.2,7.8 96.5,4.1 95.8,3.1 93.2,-0.1 92.1,-1.3 89.6,-4.1 88.6,-5.1 85.5,-8.1 84.5,-9 81.3,-11.2 80,-12.1 76.4,-14.3 75.3,-14.8 71.9,-16.3 70.8,-16.8 67.6,-18 66.2,-18.3 60.9,-19.1 59.6,-19.2 55.5,-19.3 54.4,-19.3 49.9,-19.3 48.5,-19.3 45,-19.1 43.6,-19 40,-18.6 38.8,-18.4 35,-17.7 33.5,-17.2 29.2,-15.8 27.9,-15.3 24.3,-14 23.1,-13.4 18.6,-10.8 16.8,-9.5 11.3,-5.4 10.4,-4.8 7.1,-2.3 6.2,-1.7 3.2,0.6 2.6,1.2 1.4,2.3 1.1,2.4 0.1,2.6 -0.1,2.6 -1.1,2.4 -1.4,2.2 -2.1,1.6 -2.2,1.4 -2.6,0.5 -2.6,0.1 -2.5,-0.8 -2.4,-1.1 -1.9,-1.9 -1.9,-1.9 Z"></path></g><g transform="translate(110.69 139.71) rotate(0 48.8 -11.18)" stroke="none"><path fill="#e03131" d="M -1.8,-1.8 Q -1.8,-1.8 -1.2,-2.5 1.4,-5.3 2.2,-6.2 5.4,-9 6.3,-9.8 9.1,-12.1 10,-12.8 13.1,-14.9 14.1,-15.5 17.3,-17.5 18.2,-18.1 21.1,-19.8 22.1,-20.4 25.5,-21.7 26.6,-22 30.4,-23 31.4,-23.3 35.4,-24.1 36.4,-24.3 40.3,-24.7 41.8,-24.9 45.6,-25.5 47,-25.8 51.1,-26.2 52.3,-26.2 55.8,-26.2 57.3,-26 61.1,-25.2 62.3,-25.2 65.8,-24.9 67,-24.8 71.5,-24 72.6,-23.6 75.9,-22.5 77.1,-22 80.4,-20.9 81.8,-20.4 85.2,-18.8 86.4,-18 89.8,-15.6 90.9,-14.8 94.3,-12.1 95.4,-11.4 98.4,-9.4 99.9,-7.3 101.5,-3.9 101.3,-3.3 100.5,-1.6 100,-1.2 98.3,-0.4 97.7,-0.4 95.8,-0.8 95.3,-1.1 94.1,-2.5 93.9,-3.1 93.8,-5 94,-5.6 95,-7.1 95.6,-7.5 97.3,-8.1 98,-8 99.7,-7.5 100.2,-7 101.2,-5.5 101.4,-4.9 101.3,-3 101,-2.5 99.8,-1.1 99.3,-0.8 97.5,-0.4 96.8,-0.5 95.1,-1.2 94.7,-1.7 93.8,-3.3 93.8,-3.3 92.3,-4.3 91.3,-5 88.5,-7.1 87.5,-7.8 84.7,-9.9 83.8,-10.5 81,-12.5 79.9,-12.9 76.6,-14.2 75.3,-14.6 71.5,-16 69.8,-16.5 65.8,-17.3 64.6,-17.4 60.8,-17.5 59.3,-17.9 55.8,-18.5 54.7,-18.5 51.1,-18.5 50,-18.5 46.6,-18 45.3,-17.8 41.7,-17.3 40.2,-17.2 36.6,-16.8 35.4,-16.5 31.7,-15.7 30.4,-15.4 27,-14.5 25.9,-14.1 22.4,-12.2 21.3,-11.6 18.3,-9.8 17.1,-9.2 13.6,-7.1 12.5,-6.3 9.3,-4.1 8.2,-3.3 5,-0.9 4.1,-0.2 1.8,1.8 1.6,2 0.8,2.5 0.5,2.5 -0.5,2.5 -0.8,2.5 -1.6,2 -1.8,1.8 -2.4,1.1 -2.5,0.8 -2.6,-0.1 -2.5,-0.5 -2.2,-1.3 -2,-1.6 -1.8,-1.8 -1.8,-1.8 Z"></path></g><g transform="translate(208.3 135.48) rotate(0 13.9 50.64)" stroke="none"><path fill="#e03131" d="M 1.5,-1.9 Q 1.5,-1.9 2,-1.6 4.5,-0.2 5.6,0.7 8.7,3.8 9.6,4.5 11.9,7 12.6,7.9 14.4,10.7 15.1,11.6 17.2,14.9 17.7,16.1 19.2,19.5 19.9,20.8 21.8,24.6 22.4,25.9 23.8,29.1 24.4,30.6 25.8,34.3 26.2,35.4 27.7,39 28.1,40.3 29.2,43.6 29.5,44.7 30.6,49.1 30.8,50.7 31.1,54.9 31.2,56.1 31.3,59.7 31.3,61 31.4,65.2 31.4,66.5 31.1,70.3 30.8,71.7 29.9,76.1 29.3,78.4 27.8,83.6 27.2,86 25.7,91.9 25.6,93.2 25.2,97.5 22.9,101.1 19.4,104.5 18.9,104.3 17.6,103.3 17.4,102.9 16.9,101.3 17,100.8 17.6,99.3 18,98.9 19.4,98 19.9,98 21.5,98.1 22,98.4 23.2,99.5 23.4,100 23.7,101.6 23.5,102.1 22.8,103.6 22.4,103.9 20.9,104.6 20.4,104.6 18.8,104.3 18.3,104 17.3,102.7 17.1,102.2 17,100.6 17.2,100.1 18.1,98.7 18.6,98.5 20.1,97.9 20.1,97.9 18.3,98.1 18.5,97 19,93.8 19.2,92.2 20.4,87 20.6,85.6 21.2,82 21.7,80.3 23,74.7 23.2,73.2 24,68.8 24.1,67.6 24.2,63.6 24.2,62.4 24.1,58.8 24,57.5 23.8,53.3 23.6,52.1 22.6,47.5 22.3,46.4 21.3,43 20.7,41.6 19.1,37.8 18.8,36.8 17.6,33.8 17.1,32.6 15.7,29.2 15.1,27.9 13.4,24.4 12.9,23.1 11.2,19.7 10.7,18.5 9.1,15.4 8.4,14.4 6.7,11.5 6.1,10.5 4,7.9 3.6,6.9 1.5,4.4 0.4,3.6 -1.5,1.9 -1.7,1.7 -2.2,1 -2.3,0.8 -2.4,-0.1 -2.4,-0.4 -2.1,-1.2 -1.9,-1.4 -1.3,-2.1 -1,-2.2 -0.2,-2.4 0.1,-2.4 0.9,-2.2 1.2,-2.1 1.5,-1.9 1.5,-1.9 Z"></path></g><g transform="translate(229.84 242.77) rotate(0 3.54 -36.13)" stroke="none"><path fill="#e03131" d="M -2.5,-0.9 Q -2.5,-0.9 -2.2,-1.8 -1.1,-5.3 -0.8,-6.7 -0.1,-10.5 0.1,-12.1 0.7,-16 0.9,-17.4 1.4,-21.2 1.6,-22.6 1.9,-26.9 2,-27.9 2.3,-31.4 2.4,-32.7 2.6,-36.7 2.7,-38.2 3.2,-41.8 3.2,-43 3.4,-46.4 3.4,-48 3.2,-52.4 3,-53.5 2.2,-57.5 2,-58.6 1.3,-62.2 0.7,-64.5 -1.3,-70 -1.6,-70.5 -2.1,-72.2 -2,-72.8 -1.4,-74.4 -1,-74.8 0.5,-75.7 1,-75.8 2.8,-75.6 3.3,-75.3 4.5,-74.2 4.8,-73.6 5.1,-71.9 4.9,-71.4 4.2,-69.8 3.7,-69.5 2.1,-68.7 1.6,-68.7 -0.1,-69 -0.6,-69.4 -1.7,-70.7 -1.9,-71.2 -2,-73 -1.8,-73.5 -0.9,-74.9 -0.4,-75.2 1.2,-75.8 1.8,-75.8 3.5,-75.3 3.9,-74.9 4.3,-74.5 5.7,-71.5 8.1,-65.6 8.4,-64.5 9.3,-60.8 9.4,-59.7 10,-56.4 10.2,-55.3 10.8,-51.1 10.8,-49.8 10.8,-46.4 10.7,-45.3 10.4,-42 10.2,-40.8 9.7,-37.2 9.6,-36 9.4,-32.2 9.2,-30.9 8.9,-27.4 8.7,-25.8 8.3,-21.6 8.1,-20.2 7.4,-16.1 7.2,-15 6.5,-11.2 6.2,-9.9 5,-5.4 4.7,-4.4 3.2,-0.9 2.8,0 2.2,1.4 2,1.7 1.3,2.3 1,2.4 0.1,2.6 -0.2,2.6 -1.1,2.4 -1.4,2.2 -2.1,1.5 -2.3,1.3 -2.6,0.4 -2.6,0.1 -2.5,-0.9 -2.5,-0.9 Z"></path></g><g transform="translate(200.39 128.12) rotate(0 8.18 8.11)" stroke="none"><path fill="#e03131" d="M 1.8,-1.9 Q 1.8,-1.9 2.6,-1.2 5.1,0.9 6.2,1.9 9,4.4 10,5.1 13.2,7.8 14.3,8.9 19.5,14.6 19.7,15.2 19.9,16.9 19.6,17.4 18.7,18.9 18.3,19.2 16.7,19.8 16.1,19.7 14.5,19.2 14,18.8 13,17.5 12.9,16.9 12.9,15.2 13.2,14.7 14.3,13.3 14.8,13.1 16.4,12.7 17,12.8 18.6,13.4 18.9,13.9 19.8,15.3 19.9,15.9 19.6,17.6 19.3,18.1 18.1,19.3 17.6,19.5 15.9,19.7 15.3,19.6 13.9,18.7 13.5,18.3 13.2,17.8 11.9,16.3 8.6,13.1 7.9,12.2 5.4,9.6 4.2,8.4 1.6,5.3 0.6,4.4 -1.8,1.9 -2,1.6 -2.5,0.8 -2.5,0.5 -2.6,-0.4 -2.5,-0.7 -2.1,-1.6 -1.9,-1.8 -1.1,-2.3 -0.8,-2.4 0.1,-2.6 0.4,-2.5 1.3,-2.2 1.5,-2.1 1.8,-1.9 1.8,-1.9 Z"></path></g><g transform="translate(216.75 143.66) rotate(0 -5.93 -5.93)" stroke="none"><path fill="#e03131" d="M -2,1.5 Q -2,1.5 -2.6,0.9 -4.9,-1.7 -5.7,-2.4 -8.2,-4.7 -9.1,-5.3 -11.9,-7.4 -12.6,-8.1 -14.2,-9.3 -14.5,-9.8 -15.2,-11.3 -15.2,-11.8 -14.9,-13.4 -14.6,-13.9 -13.3,-14.9 -12.8,-15.1 -11.2,-15.2 -10.6,-15 -9.3,-14.1 -9,-13.6 -8.4,-12.1 -8.5,-11.5 -9,-10 -9.4,-9.6 -10.7,-8.6 -11.3,-8.5 -12.9,-8.6 -13.4,-8.9 -14.7,-9.9 -14.9,-10.4 -15.3,-12 -15.2,-12.5 -14.5,-14 -14.1,-14.4 -12.6,-15.2 -12.1,-15.2 -10.5,-15 -10.5,-15 -7,-11.9 -6,-11.2 -3.3,-8.6 -2.5,-7.8 -0.3,-5 0.4,-4 2,-1.5 2.2,-1.3 2.5,-0.4 2.5,-0.1 2.4,0.8 2.3,1.1 1.8,1.8 1.5,2 0.7,2.4 0.4,2.5 -0.5,2.5 -0.8,2.4 -1.6,2 -1.8,1.8 -2,1.5 -2,1.5 Z"></path></g><g transform="translate(160.91 153.89) rotate(0 21.45 38.11)" stroke="none"><path fill="#e03131" d="M 0,-2.6 Q 0,-2.6 1.4,-2.6 5,-2.7 6.2,-2.8 9.6,-3 11,-3 15.5,-2.6 16.7,-2.4 21.1,-1.1 22.4,-0.6 25.8,1.1 27,1.8 31,4.2 32.1,5 34.9,7.7 35.7,8.6 38.4,11.8 39.1,13.3 41.3,18.2 41.7,19.4 42.8,22.9 43.2,24.4 44.4,29 44.7,30.4 45.5,34 45.8,35.7 46.2,40 46.2,41.3 46.2,45.4 46.2,46.9 46.1,52 46,53.3 45.5,57.6 45.3,59 44.2,63.2 43.7,64.5 42,69 41.5,70.2 38.4,78.3 38,78.7 36.6,79.5 36.1,79.6 34.4,79.4 34,79.1 32.8,77.9 32.6,77.4 32.4,75.8 32.5,75.3 33.3,73.8 33.7,73.5 35.2,72.8 35.8,72.8 37.4,73.2 37.8,73.5 38.9,74.8 39,75.3 39.1,77 38.9,77.5 37.9,78.8 37.4,79.1 35.9,79.6 35.3,79.5 33.8,79 33.4,78.6 32.5,77.3 32.4,76.7 32.5,75.1 32.8,74.6 33,74.1 33.5,72.7 35.2,67.5 35.7,66.3 37.2,62.3 37.6,61 38.8,56.8 39,55.3 39.5,51.7 39.5,50.1 39.6,45.4 39.6,44.1 39.5,39.4 39.4,38.2 38.6,33.6 38.3,32.6 37.4,28.8 37,27.5 36,23.9 35.5,22.2 33.8,18.1 33,16.6 30.5,13.2 29.6,12.2 26.5,9.3 25.6,8.8 22.6,7 21.1,6.3 17.1,4.6 15.9,4.2 12,3.2 10.8,3.1 7.3,2.9 6.2,2.8 2.9,2.6 1.4,2.6 -0.6,2.5 -0.9,2.4 -1.7,1.9 -1.9,1.7 -2.4,0.9 -2.5,0.6 -2.6,-0.3 -2.5,-0.6 -2.1,-1.5 -1.9,-1.7 -1.2,-2.3 -0.9,-2.4 0,-2.6 0,-2.6 Z"></path></g><g transform="translate(135.77 197.13) rotate(0 16.37 -20.64)" stroke="none"><path fill="#e03131" d="M 1.3,-2.2 Q 1.3,-2.2 2.2,-1.7 5.3,-0.5 6.6,-0.2 10.3,0.1 11.7,0.1 15.5,-0.2 16.7,-0.6 20.6,-2.3 21.6,-3.1 24.4,-5.5 25.2,-6.5 27.4,-9.6 27.8,-10.6 28.8,-14.3 28.9,-15.5 29.1,-19.1 29,-20.4 28.7,-24 28.2,-25.2 26.6,-29 25.9,-30.3 24,-33.5 23.2,-34.6 21,-37.5 20.1,-38.2 16.3,-41.2 15.7,-41.4 14.3,-42.4 14,-42.9 13.4,-44.5 13.5,-45.1 14,-46.8 14.4,-47.2 15.9,-48.2 16.5,-48.3 18.2,-48.2 18.8,-47.9 20.1,-46.8 20.3,-46.2 20.7,-44.5 20.6,-44 19.8,-42.4 19.4,-42 17.8,-41.2 17.2,-41.1 15.5,-41.4 15,-41.8 13.8,-43 13.6,-43.6 13.5,-45.3 13.7,-45.9 14.6,-47.4 15.1,-47.7 16.7,-48.4 17.3,-48.3 17.9,-48.3 20.2,-46.9 24.6,-43.9 25.5,-43 28.1,-40.1 29.2,-38.7 31.5,-35.3 32.4,-33.8 34.3,-29.9 34.9,-28.4 36.1,-24.5 36.2,-23.3 36.4,-18.7 36.4,-17.5 36,-13.6 35.8,-12.5 34.8,-8.8 34.3,-7.6 32.3,-4.1 31.4,-3 28.3,0.6 27.3,1.4 23.9,3.8 22.7,4.4 19.5,5.8 17.9,6.2 13,6.8 11.9,6.7 8.5,6.4 7.5,6.2 4.4,5.3 3.4,4.9 0.4,3.3 -0.4,2.8 -1.8,1.8 -2,1.6 -2.5,0.8 -2.5,0.5 -2.5,-0.4 -2.4,-0.7 -2,-1.6 -1.8,-1.8 -1.1,-2.3 -0.8,-2.4 0.1,-2.6 0.4,-2.5 1.3,-2.2 1.3,-2.2 Z"></path></g><g transform="translate(190.07 279.14) rotate(0 -16.8 13.07)" stroke="none"><path fill="#ffec99" d="M 1.5,2.1 Q 1.5,2.1 0.4,2.9 -2.7,5.2 -3.8,5.8 -7,7.3 -8.2,7.6 -11.9,8.7 -13.1,9.2 -16.1,11 -17.1,11.7 -20.2,13.2 -21.6,13.7 -25.2,15 -26.1,15.5 -28.7,17.8 -29.4,18.6 -31.2,21.5 -30.4,22.3 -32.3,22.5 -31.2,21.7 -28.4,19.4 -27.6,18.5 -24.8,15.7 -23.9,14.9 -20.8,12 -19.9,11.2 -16.5,8.5 -15.5,7.7 -12.4,5.3 -11.2,4.2 -7.6,1.5 -6.4,0.8 -2.9,-1.4 -2.4,-2.2 -1.1,-3.4 -0.7,-3.5 0.6,-3.5 1,-3.4 2.2,-2.9 2.5,-2.6 3.3,-1.5 3.4,-1.1 3.6,0.1 3.5,0.6 3.1,1.8 2.9,2.2 1.9,3 -0.2,2.9 -3.1,1.9 -3.3,1.4 -3.6,-0.3 -3.4,-0.9 -2.6,-2.4 -2.2,-2.8 -0.6,-3.5 0,-3.5 1.6,-3.2 2.1,-2.9 3.2,-1.6 3.4,-1 3.5,0.7 3.3,1.3 2.4,2.7 1.9,3 0.2,3.6 -0.3,3.5 -2,3 -2.4,2.6 -3.4,1.2 -3.5,0.6 -3.4,-1.1 -3.2,-1.6 -2,-3 -1.5,-3.2 0.1,-3.6 0.7,-3.5 -1.9,-3 -1.5,-3.2 -0.3,-3.6 0.1,-3.6 1.4,-3.3 1.8,-3.1 2.8,-2.3 3,-1.9 3.5,-0.7 3.6,-0.3 3.5,1 3.3,1.4 2.6,2.5 2.2,2.8 0.1,5.2 -1.2,6 -4.3,8.1 -5.3,9 -8.5,11.7 -9.5,12.5 -12.8,15 -13.7,15.8 -16.8,18.6 -17.9,19.6 -20.6,22.2 -21.4,23.1 -24.2,25.8 -25.1,26.5 -27.8,28.7 -28.9,29.2 -32.5,29.8 -33.7,29.2 -36.6,27 -37.3,26.1 -38.5,22.5 -38.5,21.2 -37.6,17.3 -36.8,16.1 -34.3,12.9 -33.6,12.1 -30.9,9.8 -29.8,9.3 -25.8,7.6 -24.6,7.2 -20.9,6 -20,5.4 -16.5,3.4 -15.2,2.9 -10.8,1.7 -9.5,1.4 -5.6,0.5 -4.6,-0.1 -1.5,-2.1 -1.2,-2.3 -0.3,-2.6 0,-2.6 0.9,-2.4 1.2,-2.3 1.9,-1.7 2.1,-1.4 2.5,-0.6 2.5,-0.3 2.5,0.6 2.4,0.9 1.9,1.7 1.7,1.9 1.5,2.1 1.5,2.1 Z"></path></g><g transform="translate(136.15 298.86) rotate(0 -23.05 15.52)" stroke="none"><path fill="#ffec99" d="M 0.3,2.6 Q 0.3,2.6 -0.6,2.8 -4.3,3.8 -5.5,4.4 -9.1,6 -10.4,6.6 -14.4,8.2 -15.4,8.6 -19.4,10.1 -20.6,10.5 -24.2,11.7 -25.7,12.2 -29.5,13.6 -30.7,14 -33.9,15.3 -34.9,15.8 -38,17.5 -38.9,18.1 -41.6,20.3 -41.9,21.3 -42.1,24.5 -41.4,25.4 -38.4,27.2 -37.3,27.2 -33.5,26.1 -32.1,25.2 -28.6,22.8 -27.2,21.8 -24.1,19.1 -23.1,18.1 -18.9,14.2 -17.8,13.3 -14,9.5 -12.8,8.4 -8.9,5 -8,4.1 -5.2,1.3 -4.8,0.9 -3.5,0 -2.9,-0.1 -1.3,0 -0.8,0.3 0.4,1.4 0.6,1.9 1,3.5 0.8,4.1 0.1,5.5 -0.3,5.9 -1.8,6.6 -2.3,6.6 -4,6.3 -4.4,6 -5.5,4.8 -5.7,4.3 -5.8,2.6 -5.6,2.1 -4.8,0.7 -4.3,0.4 -2.7,-0.1 -2.2,-0.1 -0.6,0.4 -0.2,0.7 0.8,2.1 0.9,2.6 0.8,4.2 0.6,4.8 0.3,5.2 -1.6,7.3 -5.6,11.1 -6.9,12.2 -10.2,15.3 -11.8,17 -15.7,20.8 -16.6,21.8 -19.1,24.4 -20.1,25.4 -22.8,27.8 -23.8,28.6 -26.6,30.8 -27.6,31.4 -31.1,33.4 -32.4,33.9 -36.2,34.9 -37.3,34.8 -40.8,34.6 -41.9,34.3 -44.9,32.7 -45.8,31.9 -48.6,28.3 -49.1,27.1 -49.9,23.6 -49.8,22.5 -48.9,18.5 -48.2,17.1 -45.9,14.1 -44.9,13.3 -41.8,11.2 -40.5,10.6 -36.7,8.7 -35.5,8.2 -32,7 -30.6,6.5 -26.4,5.1 -25.2,4.7 -21.4,3.5 -20,3.1 -15.8,1.7 -14.5,1.2 -10.4,-0.2 -9.2,-0.6 -5,-2 -3.5,-2.2 -0.3,-2.6 0,-2.6 1,-2.5 1.2,-2.3 2,-1.7 2.2,-1.5 2.6,-0.6 2.6,-0.3 2.6,0.7 2.5,0.9 2,1.8 1.7,2 0.9,2.5 0.6,2.6 0.3,2.6 0.3,2.6 Z"></path></g><g transform="translate(231.89 225.58) rotate(0 -0.7 6.05)" stroke="none"><path fill="#e03131" d="M 2.5,0.3 Q 2.5,0.3 2.5,0.8 2.2,3.9 2.3,5 2.5,8.6 2.1,10.4 1.6,13.4 1.3,13.8 0.2,14.9 -0.3,15.1 -1.8,15.3 -2.3,15.2 -3.7,14.4 -4,14 -4.7,12.6 -4.6,12 -4.3,10.5 -3.9,10.1 -2.7,9.1 -2.2,9 -0.6,8.9 -0.1,9.1 1.1,10 1.4,10.5 1.9,12 1.8,12.5 1.3,14 0.9,14.4 -0.4,15.2 -0.9,15.3 -2.5,15.2 -3,14.9 -4.2,13.9 -4.4,13.4 -4.7,11.9 -4.7,11.9 -3.9,7.9 -3.8,6.8 -3.4,3.2 -3,2 -2.5,-0.3 -2.4,-0.6 -2,-1.4 -1.8,-1.7 -1.1,-2.2 -0.8,-2.3 0,-2.5 0.3,-2.5 1.2,-2.2 1.4,-2 2.1,-1.4 2.2,-1.1 2.5,-0.3 2.5,0 2.5,0.3 2.5,0.3 Z"></path></g><g transform="translate(229.66 232.27) rotate(0 -0.53 0.82)" stroke="none"><path fill="#e03131" d="M 2.4,0.2 Q 2.4,0.2 2.4,0.6 1.6,3.5 0.6,4 -2.7,3.6 -2.4,2.6 -2.5,1.1 -2.6,0.8 -2.7,-0.2 -2.6,-0.5 -2.3,-1.4 -2.1,-1.7 -1.4,-2.4 -1.1,-2.5 -0.1,-2.7 0.2,-2.7 1.2,-2.5 1.4,-2.3 2.2,-1.6 1.8,-2 2.1,-1.8 2.3,-1.4 2.7,-0.1 2.7,0.3 2.2,1.5 1.9,1.9 0.9,2.6 0.4,2.7 -0.9,2.6 -1.3,2.4 -2.3,1.5 -2.5,1.1 -2.7,-0.2 -2.6,-0.6 -2.1,-1.8 -1.7,-2.1 -0.6,-2.7 -0.1,-2.7 1.1,-2.5 1.5,-2.2 2.4,-1.3 2.5,-0.8 2.7,0.5 2.5,0.9 1.9,2 1.5,2.2 0.3,2.7 -0.1,2.7 -2.2,1.6 -2.3,1.4 -2.7,0.4 -2.7,0.1 -2.6,-0.9 -2.5,-1.2 -1.9,-2 -1.6,-2.2 -0.8,-2.6 -0.4,-2.7 0.5,-2.7 0.8,-2.6 1.7,-2.1 1.9,-1.9 -0.8,-0.8 -1.7,0 -2.4,-0.2 -2.3,-0.5 -2,-1.3 -1.8,-1.5 -1.2,-2 -0.9,-2.2 -0.1,-2.4 0.2,-2.4 1,-2.1 1.2,-2 1.9,-1.4 2,-1.2 2.3,-0.4 2.4,-0.1 2.4,0.2 2.4,0.2 Z"></path></g><g transform="translate(229.42 231.69) rotate(0 -0.53 1.76)" stroke="none"><path fill="#e03131" d="M 2.3,0.8 Q 2.3,0.8 1.8,2.3 1.1,4.5 0.9,4.8 0.1,5.7 -0.3,5.8 -1.4,5.9 -1.8,5.8 -2.8,5.2 -3,4.9 -3.5,3.8 -3.4,3.4 -3.1,2.3 -2.9,2 -1.9,1.3 -1.6,1.2 -0.4,1.2 -0.1,1.4 0.9,2 1,2.4 1.4,3.5 1.3,3.9 0.9,5 0.6,5.2 -0.4,5.8 -0.8,5.9 -1.9,5.8 -2.3,5.6 -3.1,4.8 -3.3,4.4 -3.5,3.3 -3.5,3.3 -2.3,-0.8 -2.1,-1 -1.7,-1.7 -1.4,-1.9 -0.7,-2.3 -0.4,-2.4 0.5,-2.4 0.8,-2.3 1.5,-1.9 1.7,-1.6 2.2,-0.9 2.3,-0.7 2.4,0.2 2.3,0.5 2.3,0.8 2.3,0.8 Z"></path></g><g transform="translate(151.97 142.53) rotate(0 23.15 0.71)" stroke="none"><path fill="#e03131" d="M 0,-2.1 Q 0,-2.1 1.4,-2.1 5.2,-2.3 6.4,-2.3 12.3,-2.5 13.8,-2.5 18.9,-2.3 22,-2 29.3,-1.5 30.8,-1.4 34.5,-1.6 34.8,-1.5 35.5,-1.2 35.8,-1.1 36.3,-0.5 36.4,-0.2 36.6,0.5 36.6,0.8 36.4,1.6 36.3,1.8 35.8,2.4 35.6,2.6 34.8,2.9 34.5,2.9 31.6,0.8 31.2,-0.2 30,-3.7 29.7,-5 28.8,-8.2 30.1,-10.2 32.8,-10.3 33.3,-9.2 34.3,-6.1 34.6,-4.9 35.8,0.8 34.1,1.9 28.4,3.8 27.5,4.1 25.9,4.7 25.5,4.7 24.3,4.4 23.9,4.2 23,3.5 22.8,3.2 22.3,2.1 22.3,1.7 22.4,0.5 22.6,0.1 23.2,-0.8 23.5,-1.1 24.5,-1.7 26,-1.5 32.5,-0.8 34,-0.7 38,-0.5 39.3,-0.4 43.5,0.9 44.4,2 46.5,6 47.1,7 49.6,13.4 49.5,13.9 49.1,15.4 48.8,15.8 47.5,16.8 47,16.9 45.4,16.9 44.9,16.6 43.6,15.7 43.4,15.2 43,13.7 43.1,13.1 43.7,11.7 44.1,11.3 45.5,10.5 46,10.5 47.6,10.7 48,10.9 49.2,12 49.4,12.5 49.6,14.1 49.4,14.6 48.7,16 48.2,16.3 46.8,17 46.2,16.9 44.7,16.6 44.3,16.3 43.3,15 43.1,14.5 43,14 42.3,12.2 40.7,8.3 40.2,6.8 37.6,5 36.5,4.9 32.2,4.8 29.4,4.7 25.9,4.7 25.5,4.7 24.3,4.4 23.9,4.2 23,3.5 22.8,3.2 22.3,2.1 22.3,1.7 22.4,0.5 22.6,0.1 23.2,-0.8 23.5,-1.1 24.5,-1.7 25.7,-2.1 30.8,-3.1 31,-0.9 29.6,-0.4 29.2,-1.7 28.1,-6 27.4,-7.6 26,-11.9 28.5,-13.1 32.7,-12.6 33.3,-11.1 34.3,-7.3 34.5,-6.2 34.5,-1.6 34.8,-1.5 35.5,-1.2 35.8,-1.1 36.3,-0.5 36.4,-0.2 36.6,0.5 36.6,0.8 36.4,1.6 36.3,1.8 35.8,2.4 35.6,2.6 34.8,2.9 34.5,2.9 32,2.5 30.6,2.4 24.9,2.3 21.9,2.3 15.2,2.5 13.8,2.5 7.5,2.4 6.4,2.3 2.7,2.2 1.4,2.1 -0.5,2 -0.7,1.9 -1.4,1.6 -1.6,1.4 -1.9,0.7 -2,0.5 -2.1,-0.2 -2,-0.5 -1.7,-1.2 -1.6,-1.4 -1,-1.9 -0.7,-1.9 0,-2.1 0,-2.1 Z"></path></g><g transform="translate(126.45 144.89) rotate(0 20.79 -5.2)" stroke="none"><path fill="#e03131" d="M -0.8,-1.8 Q -0.8,-1.8 3,-3.3 12.1,-6.8 15,-7.9 23.1,-10.3 26.1,-10.6 33.3,-11.2 34.9,-11.3 41.4,-12.2 41.7,-12.2 42.5,-11.9 42.7,-11.8 43.3,-11.1 43.3,-10.8 43.3,-9.9 43.2,-9.6 42.7,-8.9 42.4,-8.8 41.6,-8.6 41.3,-8.6 40.5,-8.9 40.3,-9.2 39.8,-9.9 39.8,-10.2 39.9,-11.1 40,-11.3 40.6,-11.9 40.9,-12.1 41.8,-12.2 42,-12.1 42.8,-11.7 43,-11.5 43.4,-10.7 43.4,-10.4 43.2,-9.5 43,-9.3 42.3,-8.8 42.1,-8.7 41.8,-8.6 39.2,-8.4 33.4,-8.3 31.4,-8.2 23.9,-7.4 21.4,-6.7 13.3,-3.8 10.7,-2.7 0.8,1.8 0.5,1.8 -0.1,1.9 -0.4,1.9 -1,1.6 -1.2,1.5 -1.6,1 -1.7,0.8 -1.9,0.1 -1.9,-0.1 -1.7,-0.8 -1.6,-1 -1.2,-1.5 -1,-1.6 -0.8,-1.8 -0.8,-1.8 Z"></path></g><g transform="translate(114.4 148.67) rotate(0 24.93 -8.39)" stroke="none"><path fill="#e03131" d="M -1.1,-1.5 Q -1.1,-1.5 0.2,-2.5 10.1,-8.2 14.4,-10.1 27,-15.1 30.7,-15.9 40.4,-17.6 42.5,-17.7 49.8,-18.4 50,-18.4 50.8,-18.1 51,-17.9 51.4,-17.3 51.5,-17 51.4,-16.2 51.3,-16 50.8,-15.4 50.5,-15.3 49.8,-15.1 49.5,-15.2 48.8,-15.5 48.6,-15.7 48.2,-16.4 48.2,-16.7 48.4,-17.5 48.5,-17.7 49.1,-18.2 49.3,-18.3 50.1,-18.4 50.4,-18.3 51,-17.9 51.2,-17.7 51.5,-16.9 51.5,-16.7 51.3,-15.9 51.1,-15.7 50.5,-15.2 50.2,-15.2 49.9,-15.1 47.4,-15.1 40.8,-14.7 38,-14.3 28.1,-12.1 24.1,-10.6 11.9,-5.1 7.8,-2.7 1.1,1.5 0.9,1.6 0.3,1.8 0.1,1.9 -0.6,1.8 -0.8,1.7 -1.4,1.3 -1.5,1.1 -1.8,0.5 -1.8,0.3 -1.8,-0.4 -1.8,-0.6 -1.4,-1.2 -1.3,-1.3 -1.1,-1.5 -1.1,-1.5 Z"></path></g><g transform="translate(129.76 133.55) rotate(0 24.1 -1.3)" stroke="none"><path fill="#e03131" d="M -0.3,-1.7 Q -0.3,-1.7 2.4,-2.1 10.6,-3.1 13.7,-3.3 23.2,-3.8 26.6,-3.8 35.6,-3.9 38.6,-3.9 48.2,-4.2 48.4,-4.1 49.1,-3.9 49.3,-3.7 49.7,-3 49.8,-2.8 49.7,-2 49.5,-1.8 49,-1.2 48.8,-1.1 48,-1 47.8,-1.1 47.1,-1.4 47,-1.6 46.6,-2.3 46.6,-2.6 46.8,-3.3 46.9,-3.5 47.5,-4 47.8,-4.1 48.5,-4.2 48.8,-4 49.4,-3.6 49.5,-3.4 49.8,-2.7 49.8,-2.4 49.5,-1.7 49.3,-1.5 48.7,-1.1 48.5,-1.1 48.2,-1 45,-1.1 35.6,-1.2 32.8,-1.1 23.4,-0.9 20.2,-0.7 11,0 8.3,0.4 0.3,1.7 0.1,1.7 -0.6,1.6 -0.8,1.6 -1.3,1.2 -1.4,1 -1.7,0.5 -1.7,0.3 -1.7,-0.4 -1.6,-0.6 -1.3,-1.1 -1.2,-1.3 -0.7,-1.6 -0.5,-1.7 -0.3,-1.7 -0.3,-1.7 Z"></path></g><g transform="translate(165.44 87.01) rotate(0 54.93 -28.12)" stroke="none"><path fill="#2f9e44" d="M -2.2,-0.2 Q -2.2,-0.2 -2.1,-1.5 -1,-5.9 -0.2,-7.6 3.2,-14.5 4.4,-16.4 7.3,-21.3 8.1,-22.6 10.1,-26.1 11.2,-27.5 13.8,-31.2 14.4,-32.1 16.4,-34.8 17.4,-36 19.8,-39.1 20.5,-39.9 23.1,-43.5 24.2,-44.7 27.1,-48.1 28,-48.9 31.7,-52.3 33.1,-53.5 37.4,-56.9 38.5,-57.7 41.8,-59.6 43.2,-60.2 47.4,-61.7 48.9,-62.3 52.7,-63.8 54.1,-64.3 58,-65.5 59.1,-65.9 64.8,-67.7 67.2,-68.2 72,-69.3 74.1,-69.7 79.9,-70.6 81.5,-70.8 85.8,-71.2 87.7,-71.3 93.2,-71.4 94.7,-71.3 98.6,-71 100.8,-70.6 106.8,-69.5 108.4,-69.1 112.6,-67.8 114.2,-67.1 117.9,-65.1 118.9,-64.5 122.2,-62.2 123.2,-61.4 125.8,-58.9 126.8,-57.8 129.4,-55 130.2,-53.9 132.2,-50.7 132.7,-49.7 134.1,-45.8 134.6,-44.3 135.8,-40.5 135.7,-39.4 134.8,-35.2 134.1,-33.7 131.6,-30 130.6,-29.1 126.3,-26.4 125,-26 121.6,-25.3 120.1,-25.1 115,-23.9 113.8,-23.6 110.2,-22.9 109.1,-22.8 104.4,-22.4 102.2,-22.4 96.5,-22.4 95.3,-22.4 90.8,-22.5 89.6,-22.6 85.9,-23 85.8,-23 84.9,-23.3 84.6,-23.5 83.7,-24.3 83.4,-24.7 83,-25.8 83,-26.2 83.1,-27.5 83.3,-27.9 84,-28.9 84.3,-29.1 85.4,-29.7 85.8,-29.8 87.1,-29.8 85.9,-29.6 87,-29.9 88.3,-29.6 92.3,-28.2 93.3,-27.8 97.2,-25.6 98.5,-24.7 101.8,-22.1 102.8,-20 103.8,-15.6 103.7,-14.4 102.1,-10.9 101.5,-10 98.4,-7.3 97.4,-6.8 92.9,-5.3 91.5,-5 86.6,-4.1 85.1,-3.9 80.6,-3.4 78.9,-3.3 74.9,-3.2 73.7,-3.3 69.2,-3.6 67.6,-4.1 63.3,-5.7 61.7,-6.6 58,-9.2 57.1,-10 54.4,-12.2 53.6,-13 51.3,-15.6 51.5,-17.7 54.1,-20.9 55.4,-20.7 58.7,-19.1 59.9,-18.1 63.3,-14.9 64.5,-13.8 67.9,-10.3 68.7,-9.5 71,-5.4 71.1,-4.2 71,-0.4 70.1,1 67,4.5 65.4,5.5 61.7,7.4 60.4,8 55.9,9.6 54.2,10.1 48.9,11.5 47.7,11.8 44.4,12.4 42.9,12.5 39.3,12.9 37.6,13.1 32.5,13.6 30.3,13.8 25.7,14 24.1,14.1 19.5,14.1 17.4,14 11.9,14 10.4,14.1 6,14.3 3.6,14.2 -2.3,14.1 -4.7,13.9 -10.4,13.6 -11.8,13.6 -15.4,13.6 -16.5,13.6 -22.5,13.6 -22.9,13.5 -24,13.1 -24.3,12.8 -24.9,11.7 -24.9,11.3 -24.8,10.1 -24.6,9.8 -23.7,8.9 -23.3,8.8 -22.1,8.6 -21.8,8.7 -20.7,9.3 -20.4,9.6 -20,10.7 -20,11.1 -20.2,12.3 -20.5,12.6 -21.4,13.4 -21.8,13.5 -23,13.6 -23.4,13.4 -24.4,12.7 -24.6,12.3 -24.9,11.2 -24.9,10.8 -24.5,9.7 -24.2,9.4 -23.2,8.7 -22.8,8.7 -22.4,8.6 -20.7,8.7 -15.2,9.2 -14.1,9.3 -10.2,9.8 -8.6,9.9 -2.4,9.9 -0.6,9.9 5.8,9.5 7.2,9.5 11.6,9.3 13.3,9.1 19.3,8.4 20.8,8.3 25.3,7.9 27.5,7.7 33.7,7.1 35.4,7 40.5,6.5 42.7,6 47.3,5 48.9,4.5 53.9,3 55.6,2.4 60.4,0.3 61.8,-0.6 64.2,-3.5 63.7,-4.5 61,-7.5 60.1,-8.3 56.7,-11.7 55.5,-13.1 56.4,-15.5 56.9,-17.1 59.4,-16.7 60.6,-15.6 63.9,-13.1 65,-12.5 68.2,-10.9 69.2,-10.6 72.5,-10 73.7,-10 78.1,-10.2 79.6,-10.3 84.6,-11 86.1,-11.2 90.1,-12 91.1,-12.2 94.9,-13.8 95.7,-14.7 96.1,-17.6 95.2,-18.2 92.1,-20.4 91,-21 88.2,-23.5 87,-23.3 84.9,-23.3 84.6,-23.5 83.7,-24.3 83.4,-24.7 83,-25.8 83,-26.2 83.1,-27.5 83.3,-27.9 84,-28.9 84.3,-29.1 85.4,-29.7 85.8,-29.8 87.1,-29.8 88.1,-29.6 91.5,-29.2 92.8,-29.2 96.5,-29.1 98.2,-29.1 103.8,-29.4 105.3,-29.5 110,-30.1 111.1,-30.4 114.8,-31.1 115.9,-31.4 119.8,-32.3 121,-32.5 124.3,-33.2 125.3,-34 127.7,-36.4 128,-37.4 128.4,-40.8 127.9,-42.3 126.7,-46 126.1,-47.1 124.1,-50.5 122.9,-51.7 119.9,-55.2 118.6,-56.3 115.3,-59 114.3,-59.6 110.7,-61.8 109.6,-62.2 105.5,-63.5 103.8,-64 99.8,-64.7 97.9,-64.9 93.2,-65.1 91.5,-65.1 86.3,-65 84.1,-64.8 79,-64.3 77.3,-64 73.4,-63.1 72.3,-62.8 66.8,-61.2 65.1,-60.6 60.3,-59.1 59,-58.7 55.2,-57.4 54,-57 50,-55.4 48.7,-55.1 45.4,-54.1 44.2,-53.6 41,-51.9 39.7,-51 35.8,-48 34.4,-46.7 30.5,-43.1 29.4,-42 26.3,-38.9 25,-37.5 22.2,-34 21.2,-32.9 17.5,-28.5 16.7,-27.4 14,-23.7 13.3,-22.6 11,-19 10.2,-17.7 7.6,-12.3 6.8,-10.6 4.2,-5.7 3.4,-4 2.2,0.2 2.2,0.5 1.9,1.2 1.7,1.4 1.1,2 0.8,2.1 0,2.2 -0.2,2.2 -1,2 -1.2,1.9 -1.8,1.3 -1.9,1.1 -2.2,0.3 -2.2,0 -2.2,-0.2 -2.2,-0.2 Z"></path></g><g transform="translate(163.92 88.22) rotate(0 -76.96 -33.87)" stroke="none"><path fill="#2f9e44" d="M -2.3,1.3 Q -2.3,1.3 -2.8,0.5 -4.8,-2.3 -5.8,-3.5 -8.1,-6.4 -9.2,-7.7 -12.4,-11.7 -13.5,-13 -17.1,-17.5 -18.8,-19.8 -22.4,-24.3 -23.2,-25.3 -25.5,-28.1 -26.3,-29.1 -28.7,-32.1 -29.4,-33.1 -31.7,-36 -32.5,-37.1 -35.1,-40.1 -36.4,-41.8 -39.9,-46.1 -40.9,-47.2 -43.4,-49.8 -44.6,-51.2 -47.7,-54.4 -48.5,-55.2 -50.9,-57.4 -51.7,-58.1 -54.1,-60.4 -55.4,-61.5 -59.4,-65.1 -60.6,-65.8 -63.8,-67.7 -65.6,-68.6 -70.5,-71 -72.8,-72 -78.4,-74 -79.6,-74.3 -83,-75 -84.1,-75.1 -90.2,-75.6 -91.3,-75.6 -95.3,-75.6 -97.1,-75.4 -101.8,-74.6 -103.3,-74.2 -109.5,-72.3 -110.7,-71.9 -114.3,-70.7 -115.5,-70.2 -120.3,-68.6 -121.6,-68.1 -125.1,-66.6 -126.2,-66.1 -132.2,-62.9 -133.5,-62.1 -136.7,-59.9 -138.5,-58.3 -143,-54.1 -144.1,-52.7 -147.1,-49.1 -147.7,-48.2 -149.6,-44.7 -150.2,-42.3 -151,-37.6 -151,-35.8 -151,-31.7 -150.2,-30.7 -147.7,-28.3 -146.5,-27.8 -142.3,-26.5 -140.8,-26.2 -136.8,-25.6 -135.6,-25.6 -131.3,-25.4 -129.9,-25.4 -126.3,-25.2 -124.6,-25.4 -120,-25.9 -118.8,-26.1 -113.5,-27.1 -111.5,-27.4 -106,-28.4 -104.5,-28.8 -99.8,-29.9 -98.4,-30.3 -92.7,-31.6 -91.2,-32.2 -87,-33.6 -85.6,-34.2 -81.5,-36.1 -81.1,-36.2 -80.1,-36.4 -79.8,-36.4 -78.9,-36.1 -78.7,-36 -78,-35.3 -77.9,-35.1 -77.6,-34.2 -77.6,-33.9 -77.8,-33 -77.9,-32.8 -78.5,-32 -78.7,-31.9 -79.5,-31.5 -80.7,-30.9 -84.5,-28.5 -85.7,-27.4 -88.5,-23.2 -89,-22.1 -89.5,-18.9 -89.5,-17.8 -88.2,-14.4 -87.3,-13.6 -81.5,-10.4 -80,-10 -76.3,-9 -74,-8.5 -69.4,-8 -68.2,-7.9 -64.4,-7.8 -63,-7.8 -58.4,-7.8 -56.8,-7.9 -49.5,-8.6 -46.5,-9.2 -39.6,-10.4 -38.2,-10.8 -34.8,-11.9 -33.5,-12.5 -32.5,-10 -32.2,-11.7 -31.4,-13.7 -31.1,-13.7 -30.2,-13.8 -29.9,-13.7 -29.1,-13.4 -28.8,-13.2 -28.3,-12.5 -28.2,-12.2 -28,-11.3 -28.1,-11 -28.3,-10.2 -28.5,-9.9 -29.1,-9.3 -30.3,-8.2 -33.7,-4.4 -34.2,-3.1 -35.1,1.2 -35.2,3.2 -33.3,6 -32,6.5 -28.4,7.1 -26.5,7.1 -22.4,6.7 -20.6,6.2 -13.2,3.6 -12.7,3.4 -11.1,3.4 -10.7,3.6 -9.4,4.5 -9.2,5 -8.7,6.4 -8.8,6.9 -9.3,8.4 -9.7,8.7 -11,9.6 -11.5,9.6 -13,9.5 -13.5,9.2 -14.6,8.2 -14.8,7.7 -15.1,6.2 -15,5.7 -14.3,4.4 -13.9,4 -12.5,3.4 -12,3.4 -10.5,3.6 -10.1,4 -9.1,5.1 -8.9,5.6 -8.8,7.1 -9,7.6 -9.8,8.9 -10.2,9.2 -10.7,9.4 -12.8,10.3 -17,12 -18.1,12.2 -22.7,13.3 -24.4,13.4 -30.8,13.5 -32.5,13 -36.8,11.4 -38.4,9.9 -41.3,5.4 -41.3,4.1 -41,-1.5 -40.7,-2.6 -39.3,-6.5 -38.2,-7.9 -35.6,-11 -34.8,-11.8 -31.9,-13.4 -31.6,-13.5 -30.8,-13.8 -30.5,-13.8 -29.6,-13.7 -29.3,-13.5 -28.6,-13 -28.4,-12.7 -28.1,-11.9 -28.1,-11.6 -28.1,-10.7 -28.2,-10.4 -28.7,-9.7 -28.9,-9.5 -28.4,-12.6 -30,-10.5 -33.7,-7.8 -34.8,-7.6 -38.8,-6.8 -40.8,-6.3 -48.7,-4.3 -51.7,-3.7 -58.3,-2.5 -59.9,-2.5 -64.5,-2.3 -65.8,-2.3 -69.8,-2.4 -71.1,-2.5 -77.6,-3.4 -78.8,-3.7 -83.1,-4.6 -86.4,-5.6 -92.1,-8.5 -93.1,-9.6 -95.2,-12.5 -95.5,-13.6 -96.2,-17.7 -96.2,-18.8 -95.7,-22.6 -95.2,-23.6 -93.2,-27.7 -92.4,-28.9 -89.5,-31.9 -87.9,-33 -83.3,-35.9 -82,-36.1 -80.1,-36.4 -79.8,-36.4 -78.9,-36.1 -78.7,-36 -78,-35.3 -77.9,-35.1 -77.6,-34.2 -77.6,-33.9 -77.8,-33 -77.9,-32.8 -78.5,-32 -78.7,-31.9 -79.5,-31.5 -79.8,-31.4 -82.6,-30.7 -84.1,-30.1 -88.4,-28.7 -90,-28.2 -95.7,-26.2 -97.2,-25.8 -101.7,-24.5 -103.2,-24.1 -108.3,-22.6 -110.4,-21.9 -116.6,-20.4 -117.7,-20.1 -122,-19.2 -123,-19.1 -126.3,-18.8 -127.5,-18.8 -133.2,-18.6 -134.7,-18.7 -138.9,-19.1 -140.5,-19.3 -145.4,-20.3 -146.4,-20.6 -149.9,-22 -150.8,-22.6 -154.2,-25.5 -154.9,-26.5 -156.7,-30 -156.7,-31.4 -156.6,-36 -156.5,-37.1 -156,-40.7 -155.8,-42.6 -154.8,-47 -153.8,-48.6 -151.4,-52.4 -149.8,-54.5 -145.3,-59.2 -144.4,-59.9 -141.4,-62.6 -140.5,-63.3 -137.4,-65.4 -136.1,-66.3 -131.6,-69.3 -130.4,-69.9 -127.1,-71.3 -125.9,-71.8 -122.2,-73.3 -120.4,-74.1 -116.2,-75.9 -115,-76.4 -111.2,-77.8 -109.8,-78.3 -104.5,-79.9 -102.9,-80.2 -97.4,-80.8 -96.3,-80.8 -92.4,-80.8 -91.2,-80.8 -86.7,-80.7 -85.6,-80.5 -82,-80 -80.8,-79.7 -77,-78.8 -75.2,-78.3 -68,-75.9 -66.5,-74.9 -61.4,-71.8 -60.3,-71.1 -56.7,-68.7 -55,-67.6 -50.5,-64.1 -49,-62.6 -45.9,-59.4 -45.1,-58.5 -42.5,-55.7 -41.2,-54.4 -38.3,-51.3 -37.4,-50.2 -34.2,-46.7 -32.6,-45.1 -29.1,-41.5 -28.3,-40.5 -25.8,-37.4 -25.1,-36.4 -22.9,-33.6 -22.1,-32.6 -19.6,-29.7 -18.9,-28.8 -16.3,-25.8 -15,-24.4 -12.2,-21.3 -10.9,-19.8 -7.5,-15.3 -6.6,-14.1 -3.5,-10.1 -2.8,-9.2 -0.1,-5.5 0.6,-4.3 2.3,-1.3 2.4,-1.1 2.6,-0.1 2.6,0.2 2.4,1.1 2.2,1.4 1.6,2.1 1.3,2.3 0.4,2.6 0.1,2.6 -0.8,2.5 -1.1,2.4 -1.9,1.9 -2.1,1.6 -2.3,1.3 -2.3,1.3 Z"></path></g><g transform="translate(149.29 97.08) rotate(0 -18.43 -5.42)" stroke="none"><path fill="#ffec99" d="M 0.8,2.5 Q 0.8,2.5 -1,3 -5.8,4.9 -7.3,5.5 -11.1,7 -12.5,7.5 -16.2,8.4 -17.8,8.6 -21.6,9.1 -22.9,9.1 -26.5,9.2 -27.7,8.8 -31.8,5.6 -32.8,3.9 -35.6,-1.3 -36.4,-3 -38.2,-7.2 -38.5,-8.4 -39.9,-15.6 -40,-16.1 -40,-17.7 -39.8,-18.2 -38.8,-19.4 -38.4,-19.7 -36.8,-20.1 -36.3,-20 -34.9,-19.4 -34.5,-19 -33.7,-17.7 -33.6,-17.1 -33.8,-15.6 -34.1,-15.1 -35.2,-14 -35.7,-13.8 -37.2,-13.5 -37.7,-13.7 -39.1,-14.4 -39.4,-14.8 -40.1,-16.3 -40.1,-16.8 -39.7,-18.4 -39.4,-18.8 -38.2,-19.8 -37.7,-19.9 -36.1,-20 -35.6,-19.8 -34.3,-18.9 -34.1,-18.4 -33.8,-18 -33.3,-15.5 -32,-9.4 -31.6,-8.4 -29.9,-4.5 -28.9,-2.8 -26.4,1.7 -25.4,2.2 -22,2.8 -20.9,2.7 -17.1,2.4 -15.8,2.2 -11.7,1.2 -10.3,0.8 -6.5,-0.3 -5.4,-0.7 -0.8,-2.5 -0.5,-2.5 0.4,-2.6 0.7,-2.5 1.5,-2.1 1.8,-1.9 2.3,-1.1 2.4,-0.8 2.6,0.1 2.5,0.4 2.3,1.3 2.1,1.5 1.4,2.2 1.1,2.3 0.8,2.5 0.8,2.5 Z"></path></g><g transform="translate(112.43 80.28) rotate(0 -19.87 -10.03)" stroke="none"><path fill="#ffec99" d="M 0,2.7 Q 0,2.7 -0.8,2.7 -4,2.9 -5.6,2.9 -10.5,3 -12.2,3 -17,2.6 -18.2,2.5 -21.8,1.8 -24.5,0.8 -29.9,-1.5 -31.4,-2.2 -35.4,-4.4 -36.5,-5.2 -39.7,-7.9 -40.6,-9 -42.7,-12.8 -42.8,-14.3 -42.8,-20.2 -42.7,-20.8 -42,-22.2 -41.6,-22.5 -40.2,-23.3 -39.7,-23.3 -38.2,-23 -37.7,-22.7 -36.6,-21.6 -36.5,-21.1 -36.3,-19.5 -36.5,-19 -37.3,-17.6 -37.8,-17.4 -39.2,-16.8 -39.8,-16.8 -41.3,-17.2 -41.7,-17.6 -42.6,-18.9 -42.7,-19.4 -42.7,-20.9 -42.5,-21.4 -41.5,-22.7 -41,-22.9 -39.5,-23.3 -39,-23.2 -37.5,-22.6 -37.2,-22.3 -36.4,-20.9 -36.3,-20.4 -36.3,-19.8 -36.3,-18 -35.9,-13.1 -35,-12.1 -32.1,-9.4 -31,-8.7 -27.6,-6.5 -26.3,-5.9 -22.4,-4.5 -20.6,-4 -16.3,-3.3 -15.1,-3.2 -10.5,-3 -8.8,-3 -4,-2.9 -2.9,-2.8 0,-2.7 0.3,-2.6 1.2,-2.4 1.5,-2.2 2.2,-1.5 2.3,-1.2 2.6,-0.3 2.6,0 2.5,0.9 2.3,1.2 1.8,2 1.5,2.2 0.6,2.6 0.3,2.6 0,2.7 0,2.7 Z"></path></g><g transform="translate(72.87 60.22) rotate(0 -25.65 -10.12)" stroke="none"><path fill="#ffec99" d="M 0,2.2 Q 0,2.2 -1.2,2.3 -6,2.2 -7.9,2.2 -14.6,1.9 -16.1,1.9 -21.1,2 -22.4,2 -25.9,2 -27.9,1.8 -33.5,1.1 -34.7,0.7 -39.1,-0.4 -40.4,-0.8 -43.8,-2.5 -45.4,-3.4 -49.8,-6.5 -51,-7.7 -53.9,-11.9 -54.2,-13.7 -51.8,-22.2 -51.4,-22.5 -50.1,-23.4 -49.6,-23.4 -48,-23.3 -47.5,-23.1 -46.4,-22 -46.1,-21.5 -45.9,-20 -46,-19.4 -46.7,-18 -47.1,-17.7 -48.5,-17 -49,-17 -50.6,-17.3 -51,-17.6 -52.1,-18.8 -52.2,-19.3 -52.4,-20.9 -52.2,-21.4 -51.3,-22.7 -50.9,-23 -49.4,-23.5 -48.9,-23.5 -47.4,-23 -47,-22.6 -46,-21.4 -45.9,-20.8 -46,-19.2 -46.2,-18.8 -46.5,-18.3 -47.2,-17.1 -47.6,-13.1 -46.7,-12.1 -43.4,-9.2 -42.1,-8.4 -37.5,-5.8 -36,-5.3 -30.7,-3.7 -29,-3.3 -23.6,-2.1 -22.4,-2 -17.6,-2 -16.1,-1.9 -9.8,-2.1 -7.9,-2.2 -2.5,-2.3 -1.2,-2.3 0.5,-2.2 0.8,-2.1 1.5,-1.7 1.7,-1.5 2.1,-0.8 2.2,-0.5 2.2,0.3 2.2,0.5 1.9,1.3 1.7,1.5 1,2 0.8,2.1 0,2.2 0,2.2 Z"></path></g><g transform="translate(65.82 12.89) rotate(0 47.06 32.34)" stroke="none"><path fill="#ffec99" d="M 0,-2.6 Q 0,-2.6 1.3,-2.6 5.7,-2.8 7.4,-2.9 12.6,-3 14.5,-3 20.2,-2.7 22,-2.2 28.4,-0.4 29.6,0 33.2,1 34.3,1.4 37.6,2.5 38.7,2.9 41.9,4.3 42.9,4.8 46,6.5 47,7.2 51.1,10.3 52.7,11.7 56.8,15.1 58,16 61.3,18.4 62.3,19.2 65.6,21.7 66.7,22.6 69.7,25.1 70.7,25.8 75.8,29.6 76.8,30.5 80.5,34.3 81.5,35.3 84.2,37.8 85.5,39.1 88.3,42.5 88.8,43.5 91,47.4 91.8,49.6 93.5,54.9 94,56.3 95.5,60.2 96.1,62 96.8,64.7 96.8,65.2 96.2,66.4 95.9,66.7 94.8,67.3 94.3,67.3 93.1,67.2 92.7,66.9 91.8,66 91.6,65.6 91.4,64.3 91.5,63.9 92.2,62.8 92.5,62.5 93.7,62 94.2,62 95.4,62.3 95.8,62.6 96.6,63.6 96.7,64 96.8,65.3 96.6,65.7 95.8,66.8 95.5,67 94.2,67.4 93.8,67.3 92.5,66.9 92.2,66.6 91.5,65.5 91.5,65.5 90.6,62.2 90.1,60.9 88.4,56.7 87.8,55.3 85.8,49.9 85.1,48.4 82.8,43.9 81.8,42.6 79,39.6 78.1,38.6 74.6,35.3 73.7,34.5 70.2,31.9 69.3,31.2 66.5,28.9 65.6,28.1 62.6,25.6 61.5,24.7 58.4,22.2 57.4,21.4 54,18.8 52.7,17.8 48,14.7 45.6,13.2 41.1,10.5 39.4,9.7 33.6,7.3 32.6,7 29.3,6 28.1,5.7 22.1,4.3 20.7,3.8 16.3,3 14.5,3 9,2.9 7.4,2.9 2.6,2.6 1.3,2.6 -0.6,2.6 -0.9,2.5 -1.8,2 -2,1.7 -2.5,0.9 -2.5,0.6 -2.6,-0.3 -2.5,-0.6 -2.2,-1.5 -2,-1.7 -1.2,-2.3 -0.9,-2.5 0,-2.6 0,-2.6 Z"></path></g><g transform="translate(164.64 94.91) rotate(0 65.22 -30.44)" stroke="none"><path fill="#ffec99" d="M 1.4,-2.2 Q 1.4,-2.2 2.4,-1.6 5.8,0.4 7.5,1.2 12.8,3.2 14.2,3.5 18.6,3.7 19.7,3.7 24.2,3.4 25.6,2.9 29.3,1.4 30.3,0.9 34.1,-1.8 35.1,-2.7 37.7,-5.6 38.5,-6.9 41.2,-12 41.8,-13.8 42.7,-19.2 42.3,-20.1 41.8,-21.9 41.8,-22.2 42,-23.4 42.2,-23.7 42.9,-24.6 43.2,-24.8 44.2,-25.3 44.6,-25.3 45.7,-25.3 46.1,-25.1 47,-24.6 47.3,-24.3 47.9,-23.3 49.1,-22.8 53.3,-21.4 54.7,-21 59.6,-19.7 61,-19.5 64.9,-19.1 66.1,-19.1 69.4,-19.1 71.5,-19.1 76,-19.1 77.8,-19.1 82.8,-19.5 84.1,-19.8 87.9,-20.6 89.6,-21.4 91.4,-25.5 91.1,-26.6 89.2,-29.8 88.3,-30.9 86.8,-35.5 88.1,-36.9 91.6,-38 92.6,-37.6 95.9,-36.4 97.5,-36 101.4,-35.2 103.5,-35.1 108.7,-35.1 110.2,-35.5 114,-36.6 115.8,-37.4 120.1,-39.6 121.4,-40.3 125.3,-43.1 126.2,-44.2 126,-48.6 125.5,-49.6 123,-53.2 122.2,-54.1 118.8,-57.1 117.5,-58.2 114.2,-61 112.6,-61.9 108.5,-63.8 107.4,-64.1 102.7,-65 101,-65.1 96,-65.4 94.4,-65.4 87.9,-65.3 85.9,-65.1 80.2,-64.1 78.3,-63.6 70.8,-61.1 68.8,-60.3 63.5,-58.2 62.2,-57.4 57,-54.6 55.4,-53.6 50.7,-50.6 49.3,-49.5 44,-45.1 42,-43.2 37.6,-38.3 36.6,-37 33.9,-33.2 33,-32.1 30.2,-28.4 29.4,-27 28.1,-25.1 27.8,-24.9 26.8,-24.6 26.4,-24.6 25.5,-25 25.2,-25.2 24.7,-26.1 24.6,-26.4 24.7,-27.5 24.9,-27.8 25.6,-28.5 25.9,-28.7 26.9,-28.9 27.2,-28.8 28.2,-28.3 28.4,-28.1 28.8,-27.1 28.9,-26.8 28.6,-25.8 28.4,-25.5 27.7,-24.8 27.4,-24.7 26.3,-24.6 26,-24.8 25.1,-25.3 24.9,-25.6 24.6,-26.6 24.6,-26.9 24.9,-27.9 24.9,-27.9 27.1,-30.9 28.1,-32.2 31,-35.4 32,-36.6 35.2,-40.3 36.6,-41.8 41.8,-47.5 43.9,-49.4 48.8,-53.3 50.4,-54.4 55.4,-57.5 57.3,-58.7 62.3,-61.2 64,-61.8 69.6,-64.2 72.6,-65.3 79.4,-67.6 81.4,-68.1 87.6,-69.3 90.2,-69.7 96.1,-70 97.8,-70 103.1,-70 105.4,-69.9 110.4,-69.1 112,-68.6 115.7,-67 116.8,-66.3 119.9,-64.1 121.3,-63.2 125.7,-59.8 126.9,-58.4 130.7,-53.6 131.7,-51.6 133.6,-47.1 133.5,-45.6 132.5,-42.2 131.7,-41.2 127.7,-37.2 125.9,-36.1 121.4,-33.7 119.7,-33 115.8,-31.5 114.5,-31 109.2,-29.1 107.3,-28.8 102.7,-28.5 100.9,-28.6 95.6,-29.4 94,-29.9 89.2,-31.7 90.4,-32.1 92.9,-35.4 93.5,-34.5 96.2,-30.4 96.8,-28.3 97,-23.4 96.6,-21.5 93.5,-17.2 92.4,-16.8 89,-15.7 87.7,-15.5 83.4,-14.6 81.8,-14.4 76,-13.4 74.8,-13.4 69.3,-13.5 68.2,-13.5 64.6,-13.6 63.2,-13.7 58.7,-14.1 56.6,-14.2 51.5,-15 50,-15.5 46,-17.3 44.8,-18.3 42,-21.1 41.9,-21.5 41.8,-22.6 41.9,-23 42.4,-24 42.6,-24.3 43.5,-25 43.9,-25.2 45,-25.4 45.3,-25.3 46.4,-25 46.7,-24.8 47.5,-24 47.7,-23.7 48.3,-22.3 48.5,-20.7 48.6,-16.5 48.1,-14.2 46.8,-9.7 46.3,-8.2 43.6,-3.2 42.5,-1.8 39.2,1.7 37.7,3 34.3,5.5 33.2,6.1 29,8.5 27.9,8.8 23.1,9.8 22,9.9 17.1,9.9 15.7,9.8 11.3,8.9 9.1,8.1 4.5,6.3 3.5,5.7 0.4,3.5 -0.5,2.8 -1.9,1.8 -2.1,1.5 -2.5,0.7 -2.6,0.3 -2.6,-0.6 -2.5,-0.9 -2,-1.7 -1.8,-1.9 -1,-2.4 -0.7,-2.5 0.3,-2.6 0.6,-2.5 1.4,-2.2 1.4,-2.2 Z"></path></g><g transform="translate(161.03 81.36) rotate(0 -66.3 -23.21)" stroke="none"><path fill="#69db7c" d="M -2.4,0.6 Q -2.4,0.6 -2.7,-0.7 -4.4,-5 -5.4,-7 -7.9,-11.8 -8.7,-13 -10.7,-16.2 -11.4,-17.2 -13.3,-20 -14.1,-20.9 -16.6,-24.2 -17.5,-25.4 -19.6,-28.6 -20.5,-29.8 -23.8,-33.7 -24.5,-34.5 -27.9,-38.2 -29.1,-39.4 -32.8,-42.9 -34,-43.8 -38.1,-46.9 -39.4,-47.8 -42.6,-50.2 -43.9,-51.1 -48.3,-54 -49.4,-54.6 -53,-56.2 -54.3,-56.7 -57.8,-57.8 -59.2,-58.2 -62.7,-59.2 -63.8,-59.5 -67.5,-60.5 -68.7,-60.7 -72.9,-61.6 -74.2,-61.9 -78.9,-62.5 -80.8,-62.6 -86,-63 -87.4,-63.1 -92,-63.2 -93.8,-63.2 -98,-62.7 -99.4,-62.4 -103,-61.4 -105.1,-60.7 -109.4,-59.2 -111.8,-58.4 -117.1,-56.2 -118.2,-55.7 -121.9,-53.9 -123.9,-52.7 -128.9,-49.4 -129.9,-48.7 -134,-45.3 -135.2,-43.8 -137.6,-40.4 -138.1,-39.3 -138.8,-35.3 -138.9,-34 -139.3,-29.1 -139.2,-28 -138.8,-24.4 -138.1,-23 -136.1,-19.4 -135.1,-18.5 -131.2,-15.9 -130.2,-15.5 -126.8,-14.7 -125.4,-14.6 -120.2,-14.5 -118.9,-14.4 -114.8,-14.3 -112.7,-14.3 -105,-14.8 -103.5,-15.1 -98.1,-16.2 -96.8,-16.7 -92.2,-18.6 -90.3,-19.4 -85.6,-21.6 -84,-22.7 -79.7,-25.4 -78.2,-26.4 -75.8,-28.4 -75.5,-28.6 -74.6,-29.1 -74.2,-29.2 -73.2,-29.2 -72.8,-29.1 -71.9,-28.6 -71.6,-28.3 -71,-27.5 -70.9,-27.1 -70.8,-26 -70.8,-25.7 -71.2,-24.7 -71.4,-24.4 -75.8,-28.4 -75.5,-28.6 -74.6,-29.1 -74.2,-29.1 -73.1,-29.1 -72.8,-29 -71.8,-28.6 -71.6,-28.3 -71,-27.4 -70.9,-27.1 -70.7,-26 -70.8,-25.6 -71.2,-24.6 -71.4,-24.4 -74.2,-21.5 -75.6,-20.1 -79.4,-16.2 -80.2,-15.2 -81.9,-12.2 -82.4,-11 -83.7,-7.8 -84,-6.4 -84.8,-2.6 -84.9,-1.3 -83.2,2.7 -81.9,3.3 -77.7,4.4 -75.2,4.7 -69.9,5.2 -67.7,5 -62.2,4.3 -61,3.9 -56.1,2.4 -54.5,1.8 -50.8,0.2 -49.3,-0.4 -45.7,-2 -44.3,-3 -42.6,-4.5 -42.4,-4.8 -41.7,-5.6 -41.4,-5.8 -40.4,-6.1 -40,-6.2 -39,-6 -38.7,-5.8 -37.8,-5.2 -37.6,-4.9 -37.1,-4 -37.1,-3.6 -37.1,-2.6 -37.2,-2.3 -39.8,-0.5 -38.8,-1 -38.9,0.5 -39.8,1.9 -41,5.9 -40.9,7.1 -40,10.5 -39.1,11.2 -36.4,13.2 -35.3,13.7 -31.8,15.3 -29.8,15.7 -22.9,16.6 -20.4,16.7 -9.9,15 -6,13.8 3.5,10.3 5,9.6 7.2,7.5 7.1,7.1 7.3,6.1 7.5,5.9 8.2,5.2 8.6,5.1 9.6,5 9.9,5.1 10.7,5.6 10.9,5.9 11.3,6.8 11.3,7.2 11,8.1 10.8,8.4 10,9 9.6,9.1 8.6,9.1 8.3,8.9 7.5,8.3 7.4,8 7.1,7 7.2,6.7 7.5,5.8 7.8,5.5 8.7,5 9,5 10,5.1 10.3,5.3 11,6 11.1,6.3 11.3,6.6 9.6,9.4 5,13.6 2.1,15 -8.9,19.4 -13.2,20.6 -23,22.6 -25.9,22.7 -31.3,22.6 -32.5,22.4 -36.2,21.1 -37.2,20.6 -40.8,18.6 -42,17.7 -45.4,14.6 -46.2,13.1 -47.6,9.3 -47.6,8.2 -47.4,4.7 -47,3 -45.1,-1.3 -44.3,-2.2 -42.3,-5.2 -41.3,-5.6 -42.6,-4.5 -42.4,-4.8 -41.7,-5.6 -41.4,-5.8 -40.4,-6.1 -40,-6.2 -39,-6 -38.7,-5.8 -37.8,-5.2 -37.6,-4.9 -37.1,-4 -37.1,-3.6 -37.1,-2.6 -37.2,-2.3 -38.5,-0.5 -39.9,0.6 -43.4,2.8 -44.5,3.3 -48.7,5.4 -49.7,5.8 -52.8,7 -54.6,7.5 -58.5,8.5 -59.8,8.8 -64.6,10 -67.3,10.7 -73,11.3 -74.7,11.3 -78.6,11.1 -80.6,10.8 -84.9,9.7 -86.4,8.7 -89.5,6.2 -90.6,4.6 -91.9,-0.2 -91.8,-1.6 -91.2,-5.3 -90.8,-7.2 -89.5,-11.2 -89,-12.4 -87.2,-16.3 -86.3,-17.7 -83.8,-20.7 -82.5,-22 -78.8,-25.8 -77.3,-27.1 -75.2,-28.8 -74.9,-28.9 -73.9,-29.2 -73.5,-29.2 -72.5,-28.9 -72.2,-28.7 -71.3,-28 -71.2,-27.7 -70.8,-26.7 -70.8,-26.4 -70.9,-25.3 -71,-25 -71.6,-24.1 -73.7,-26.2 -75.3,-28.9 -74.9,-29 -73.9,-29.3 -73.5,-29.2 -72.5,-29 -72.2,-28.8 -71.4,-28.1 -71.2,-27.8 -70.8,-26.8 -70.8,-26.4 -70.9,-25.3 -71,-25 -71.7,-24.1 -72.1,-23.7 -75,-21.7 -76.6,-20.7 -81.2,-18.2 -82.2,-17.7 -86.1,-15.6 -88.3,-14.7 -94,-12.8 -95.4,-12.4 -100.8,-10.3 -102.4,-9.9 -108.3,-8.3 -109.5,-8.2 -114.8,-8.1 -116.2,-8.1 -122,-7.9 -123.9,-7.9 -128,-8.1 -129.6,-8.4 -134.4,-10.1 -135.9,-10.9 -139.9,-13.9 -140.8,-14.9 -143.4,-18.9 -143.9,-20 -145.4,-24.4 -145.4,-25.7 -145.3,-29.4 -145.2,-31.3 -144.6,-38 -144.3,-39.3 -142.3,-43.5 -140.9,-45.4 -137.7,-49.5 -135.9,-50.9 -130.4,-54.9 -129.5,-55.4 -126.1,-57.4 -125.1,-57.9 -121.4,-59.8 -120.3,-60.3 -116,-62.4 -113.6,-63.3 -109,-64.9 -106.7,-65.7 -102,-67 -100.4,-67.4 -96,-68.2 -94.1,-68.5 -88.7,-69.1 -87.3,-69.1 -82.5,-69.3 -80.4,-69.2 -76,-69 -74.4,-68.7 -69.8,-67.8 -68.3,-67.5 -64.6,-66.6 -63.2,-66.2 -58.8,-64.8 -57.5,-64.4 -53,-63.1 -51.7,-62.5 -47.7,-60.6 -46.4,-60 -42.9,-58.1 -41.5,-57.1 -37.2,-54 -35.8,-53 -31.3,-49.6 -30,-48.6 -25.9,-44.9 -24.7,-43.6 -20.7,-39.3 -19.5,-37.8 -15.8,-33.2 -14.8,-31.6 -11.9,-27.6 -11.1,-26.5 -8.8,-22.9 -8.2,-22 -6.4,-19 -5.7,-17.9 -3.4,-14.3 -2.5,-12.9 -0.5,-9.2 0,-8.2 1.8,-3.2 2.1,-1.9 2.5,0 2.4,0.3 2.2,1.2 2,1.4 1.4,2 1.1,2.2 0.3,2.5 0,2.5 -0.9,2.3 -1.1,2.2 -1.9,1.6 -2,1.4 -2.4,0.6 -2.4,0.6 Z"></path></g><g transform="translate(166.11 90.89) rotate(0 59.44 -27.97)" stroke="none"><path fill="#69db7c" d="M 0.4,-1.9 Q 0.4,-1.9 1.6,-1.8 5.5,-1.6 7.1,-1.6 12.4,-1.4 14.2,-1.4 19.3,-1.4 21.7,-2.3 28.5,-5.7 30.7,-7.2 38.1,-13.3 39.8,-14.9 43.2,-18.8 43.8,-19.7 45.2,-23.1 45.1,-24.5 47.9,-26.4 48.3,-27.5 51.4,-27.6 53.2,-26.6 59.9,-23.6 61.4,-23.1 66.1,-21.9 68.2,-21.5 75.6,-20.3 78.4,-20 86.8,-19.3 90.4,-20.1 98.7,-23 100.2,-24.2 103.4,-27.5 103.8,-28.9 104.4,-32.6 103.2,-33 101.3,-33.4 101,-33.5 100.1,-33.8 99.9,-34 99.3,-34.7 99.1,-35 98.9,-35.9 98.9,-36.2 99.1,-37.1 99.3,-37.4 99.9,-38.1 100.2,-38.2 101,-38.6 101.3,-38.6 104.1,-38.4 106.1,-38.2 110.8,-37.8 112.5,-37.7 117.3,-37.9 119.7,-38.6 125.9,-40.6 127.1,-41.2 131.2,-44.1 131.5,-45.6 131.7,-50.2 131.2,-52 128.8,-57.1 127.5,-58.4 123.5,-61.9 122.3,-62.8 118.6,-65.2 117.2,-65.9 113,-67.7 111.5,-68.1 103.3,-69.5 100.2,-69.8 85,-70.1 80,-69.9 65.9,-68.2 61.6,-67.1 49.6,-63.2 46.1,-61.5 36.7,-56 32.6,-52 16.8,-33.6 12,-27.4 -3.9,-4.8 -6.9,1.4 -14.4,16.7 -14.5,16.9 -15,17.3 -15.2,17.4 -15.8,17.4 -16,17.4 -16.6,17 -16.7,16.8 -16.9,16.2 -16.9,16 -16.7,15.4 -16.6,15.3 -16.1,14.9 -15.8,14.8 -15.2,14.9 -15,15 -14.5,15.4 -14.4,15.6 -14.3,16.2 -14.3,16.4 -14.6,17 -14.7,17.1 -15.3,17.4 -15.5,17.4 -16.1,17.4 -16.3,17.2 -16.7,16.8 -16.8,16.6 -16.9,16 -16.8,15.8 -16.8,15.6 -14.5,10.9 -6.1,-6.2 -0.5,-14.6 14.7,-35.3 20.7,-42.6 35.2,-58.3 38.3,-60.2 48.6,-65.8 52.6,-67.3 65.4,-71.2 70,-72 85,-73.5 91.1,-73.5 103.8,-73.4 107.4,-73.1 114.7,-71.9 116.2,-71.3 120.9,-69.2 122.3,-68.3 126.4,-65.6 127.9,-64.5 133.2,-60.4 134.2,-59.2 136.3,-55.2 136.6,-53.9 137.1,-48.6 136.8,-46.5 135.7,-42.4 135,-41.5 132.2,-39 131.2,-38.5 127.3,-36.9 125.4,-36.1 117.9,-33 116,-32.7 110.7,-32.3 109.1,-32.3 105.1,-32.6 103.2,-33 100.7,-33.5 100.4,-33.7 99.7,-34.2 99.5,-34.4 99,-35.2 99,-35.6 98.9,-36.5 99,-36.8 99.5,-37.6 99.7,-37.9 100.4,-38.4 100.7,-38.5 101.7,-38.6 102.2,-38.5 105.7,-37.6 106.8,-36 108.1,-32.2 107.8,-30.6 105.9,-25.4 104.7,-24.1 100,-20.4 97.4,-19.1 86.7,-16 83.8,-16.1 75.2,-16.5 72.6,-16.7 65.3,-17.1 63.4,-17.3 58.2,-18.4 56.3,-18.9 52.2,-20.4 50.9,-21.1 46.2,-24 45.3,-25 43.7,-28.1 44.3,-29.5 49.4,-28.4 49.7,-26.4 49.2,-21.4 48.3,-19.9 45.7,-16.6 44.6,-15.4 40.1,-11 37.5,-8.6 30.3,-2.7 27.9,-1.2 19.6,2.7 17.8,2.8 12.4,3 10.6,3 5.1,3.1 3.6,2.8 -0.4,1.9 -0.6,1.9 -1.2,1.6 -1.4,1.4 -1.8,0.8 -1.9,0.6 -2,-0.1 -1.9,-0.4 -1.7,-1 -1.6,-1.2 -1,-1.7 -0.8,-1.8 -0.1,-2 0.1,-2 0.4,-1.9 0.4,-1.9 Z"></path></g><g transform="translate(195.33 231.88) rotate(0 16.14 6.2)" stroke="none"><path fill="#e03131" d="M 0,-2.7 Q 0,-2.7 0.7,-2.7 4.4,-2.6 5.8,-2.3 9.7,-1.5 11.2,-1.1 15.3,0 17.1,0.8 21.2,2.5 22.5,3.1 26.1,4.9 27.3,5.5 31.3,7.4 33.4,9.2 35.7,12.2 35.6,12.7 35.1,14.3 34.8,14.7 33.4,15.6 32.8,15.7 31.2,15.7 30.7,15.4 29.4,14.3 29.2,13.8 28.8,12.2 28.9,11.7 29.6,10.2 30.1,9.8 31.5,9 32,9 33.7,9.3 34.1,9.6 35.3,10.8 35.5,11.3 35.7,12.9 35.5,13.4 34.6,14.9 34.2,15.2 32.7,15.8 32.1,15.8 30.5,15.3 30.1,15 29.1,13.7 29.1,13.7 28.3,13.6 27.3,13.1 23.8,11.3 22.4,10.5 18.6,8.5 17.4,7.9 13.4,6.1 12.1,5.7 8.6,4.5 7.5,4.2 3.5,3.1 2.4,2.9 0,2.7 -0.3,2.6 -1.2,2.4 -1.5,2.2 -2.2,1.5 -2.3,1.2 -2.6,0.3 -2.6,0 -2.5,-0.9 -2.3,-1.2 -1.8,-2 -1.5,-2.2 -0.6,-2.6 -0.3,-2.6 0,-2.7 0,-2.7 Z"></path></g><g transform="translate(227.6 244.27) rotate(0 -20.98 8.22)" stroke="none"><path fill="#e03131" d="M 2.5,0.9 Q 2.5,0.9 2,2.2 0.5,6 0,7.1 -2.1,10.9 -2.7,11.9 -5.4,15.6 -6.5,16.9 -9.8,20.6 -11.3,21.9 -15,24.7 -16.2,25.4 -19.4,27.2 -20.6,27.7 -24.2,29.1 -25.4,29.4 -29.9,30.3 -31.2,30.2 -34.9,29.9 -36,29.4 -39.2,27.6 -40.1,26.9 -42.3,24.4 -43,22.9 -44.7,16.6 -44.9,15.4 -45,11.9 -45,10.2 -44.1,5 -43.5,3.1 -41.8,-1.9 -40.9,-3.6 -39,-7.3 -38.2,-8.6 -33.8,-13.4 -33.3,-13.7 -31.8,-14.2 -31.2,-14.1 -29.7,-13.6 -29.3,-13.2 -28.4,-11.8 -28.3,-11.3 -28.5,-9.6 -28.7,-9.2 -29.8,-8 -30.3,-7.7 -31.9,-7.4 -32.4,-7.5 -33.9,-8.3 -34.2,-8.7 -35,-10.1 -35,-10.7 -34.7,-12.3 -34.4,-12.7 -33.2,-13.8 -32.6,-14 -31,-14.1 -30.5,-13.9 -29.1,-13.1 -28.8,-12.6 -28.3,-11.1 -28.3,-10.5 -28.8,-9 -29.1,-8.6 -29.5,-8.2 -30.6,-7.1 -33.3,-4.1 -33.8,-3.2 -35.8,0.5 -36.4,2 -37.9,6.5 -38.2,8 -38.7,11.6 -38.6,13.6 -37.5,18.7 -36.9,20.1 -34.5,22.9 -33.3,23.3 -29.6,23.9 -28,23.6 -24.4,22.4 -22.6,21.4 -18.8,19.4 -17.7,18.7 -14.2,16 -13.3,15.1 -10.3,11.8 -9.1,10.2 -6.3,6.4 -5.4,5 -3.4,1.7 -3,0.4 -2.2,-1.5 -2,-1.7 -1.2,-2.3 -0.9,-2.5 0,-2.6 0.3,-2.6 1.2,-2.3 1.5,-2.2 2.2,-1.5 2.3,-1.2 2.6,-0.3 2.6,0 2.5,0.9 2.5,0.9 Z"></path></g><g transform="translate(195.52 266.93) rotate(0 0.11 -0.75)" stroke="none"><path fill="#e03131" d="M 2.1,-0.7 Q 2.1,-0.7 2.1,-0.1 1.7,1.4 1.3,1.7 -0.1,2.2 -0.6,2 -1.9,1.1 -2,0.6 -2,-0.9 -1.7,-1.3 -0.4,-2.2 0.1,-2.1 1.6,-1.6 1.8,-1.1 Z"></path></g><g transform="translate(191.85 269.31) rotate(0 7.01 -7.12)" stroke="none"><path fill="#e03131" d="M -1.3,-2 Q -1.3,-2 -0.3,-2.7 2.7,-5.5 4.1,-7.1 8.6,-11.8 10.5,-13.9 13.1,-16.5 13.4,-16.6 14.6,-16.6 15,-16.4 15.9,-15.7 16.1,-15.4 16.4,-14.3 16.4,-13.9 16,-12.8 15.7,-12.5 14.7,-11.9 14.3,-11.9 13.2,-12 12.8,-12.2 12,-12.9 11.8,-13.3 11.6,-14.4 11.7,-14.8 12.2,-15.8 12.5,-16.1 13.6,-16.6 14,-16.6 15.1,-16.4 15.4,-16.2 16.2,-15.3 16.3,-14.9 16.4,-13.8 16.2,-13.4 15.6,-12.4 15.6,-12.4 12.1,-8.7 10.8,-6.9 6.6,-1.9 5,-0.6 1.3,2 1.1,2.2 0.2,2.4 -0.1,2.4 -0.9,2.2 -1.2,2.1 -1.9,1.6 -2,1.3 -2.4,0.5 -2.4,0.2 -2.3,-0.7 -2.2,-0.9 -1.8,-1.7 -1.5,-1.9 -1.3,-2 -1.3,-2 Z"></path></g></svg>
