<svg viewBox="0 0 120 120" xmlns="http://www.w3.org/2000/svg">
  <defs>
    <radialGradient id="cb1y" cx="40%" cy="40%" r="58%">
      <stop offset="0" stop-color="#e8c560"/>
      <stop offset="0.55" stop-color="#a8821e"/>
      <stop offset="1" stop-color="#6a4a10"/>
    </radialGradient>
  </defs>
  <g transform="translate(60 60)">
    <path d="M 0,14 Q -2,30 -5,48 Q -8,50 -5,44 Q -1,30 1,18" stroke="#6a5a30" stroke-width="1.6" fill="none" opacity="0.65"/>
    <path d="M -16,-4 Q -18,-14 -5,-17 Q 10,-18 16,-10 Q 18,2 12,8 Q 0,12 -10,8 Q -18,4 -16,-4 Z" fill="url(#cb1y)"/>
    <path d="M -10,-6 Q -14,-12 -3,-14 Q 6,-14 9,-9 Q 9,-1 4,2 Q -6,4 -10,-2 Z" fill="#deb748" opacity="0.55"/>
    <g fill="#3e2a08" opacity="0.7">
      <circle cx="0" cy="0" r="1.1"/><circle cx="-4" cy="3" r="0.9"/><circle cx="5" cy="-2" r="0.9"/>
      <circle cx="-2" cy="-4" r="0.7"/><circle cx="6" cy="4" r="0.8"/><circle cx="-7" cy="-1" r="0.7"/>
      <circle cx="2" cy="6" r="0.6"/>
    </g>
    <ellipse rx="3" ry="1.6" cx="-3" cy="-6" fill="#f4d878" opacity="0.5"/>
  </g>
</svg>
