<svg viewBox="0 0 120 120" xmlns="http://www.w3.org/2000/svg">
  <defs>
    <radialGradient id="pr1" cx="48%" cy="45%" r="60%">
      <stop offset="0" stop-color="#8e6080"/>
      <stop offset="0.5" stop-color="#5a3548"/>
      <stop offset="1" stop-color="#28142a"/>
    </radialGradient>
  </defs>
  <g transform="translate(60 60) rotate(-26)">
    <path d="M -30,-18 Q -38,0 -32,22 Q -14,34 8,32 Q 28,28 34,16 Q 38,-2 28,-18 Q 12,-30 -8,-30 Q -24,-26 -30,-18 Z" fill="url(#pr1)"/>
    <path d="M -24,-10 Q -30,4 -24,18 Q -8,24 8,22 Q 24,18 26,6 Q 26,-8 14,-18 Q -2,-22 -16,-18 Q -24,-14 -24,-10 Z" fill="#1f0e22" opacity="0.55"/>
    <path d="M -18,-4 Q -22,4 -18,14 Q -4,18 8,16 Q 18,12 18,2 Q 16,-8 6,-12 Q -8,-12 -18,-4 Z" fill="#7e5670" opacity="0.65"/>
    <path d="M -22,-14 Q -28,-2 -18,4" fill="none" stroke="#a07a92" stroke-width="1.4" opacity="0.55"/>
    <path d="M 10,-22 Q 24,-12 20,0" fill="none" stroke="#a07a92" stroke-width="1.2" opacity="0.45"/>
    <path d="M -10,2 Q 2,6 12,5" fill="none" stroke="#180a18" stroke-width="0.7" opacity="0.5"/>
    <ellipse cx="-18" cy="-14" rx="3" ry="1.6" fill="#b890a8" opacity="0.5" transform="rotate(40 -18 -14)"/>
  </g>
</svg>
