<svg viewBox="0 0 120 120" xmlns="http://www.w3.org/2000/svg">
  <defs>
    <radialGradient id="rs1" cx="50%" cy="45%" r="60%">
      <stop offset="0" stop-color="#e0a890"/>
      <stop offset="0.5" stop-color="#b06858"/>
      <stop offset="1" stop-color="#6a3828"/>
    </radialGradient>
  </defs>
  <g transform="translate(60 60) rotate(-12)">
    <path d="M -30,-18 Q -40,2 -32,24 Q -12,32 10,32 Q 30,28 34,16 Q 38,-2 28,-18 Q 14,-30 -8,-30 Q -24,-26 -30,-18 Z" fill="url(#rs1)"/>
    <path d="M -22,-10 Q -28,8 -20,22 Q -2,24 14,20 Q 26,14 28,2 Q 28,-12 16,-20 Q 0,-22 -14,-18 Q -22,-14 -22,-10 Z" fill="#7a3e2e" opacity="0.5"/>
    <path d="M -16,-2 Q -20,8 -12,16 Q 2,18 14,12 Q 20,4 18,-6 Q 12,-14 0,-14 Q -12,-10 -16,-2 Z" fill="#d68870" opacity="0.65"/>
    <path d="M -20,-14 Q -26,-4 -16,4" fill="none" stroke="#f0c0a8" stroke-width="1.5" opacity="0.55"/>
    <path d="M 10,-20 Q 22,-10 18,4" fill="none" stroke="#f0c0a8" stroke-width="1.3" opacity="0.45"/>
    <path d="M -10,-2 Q 0,2 10,2" fill="none" stroke="#5e2a1a" stroke-width="0.6" opacity="0.45"/>
    <path d="M -14,8 Q -2,10 8,8" fill="none" stroke="#5e2a1a" stroke-width="0.5" opacity="0.35"/>
    <ellipse cx="-16" cy="-12" rx="3" ry="1.6" fill="#f5cdb8" opacity="0.5" transform="rotate(40 -16 -12)"/>
  </g>
</svg>
