<svg viewBox="0 0 120 120" xmlns="http://www.w3.org/2000/svg">
  <defs>
    <radialGradient id="rt1" cx="45%" cy="40%" r="60%">
      <stop offset="0" stop-color="#9a4250"/>
      <stop offset="0.5" stop-color="#5a2032"/>
      <stop offset="1" stop-color="#240810"/>
    </radialGradient>
  </defs>
  <g transform="translate(60 60) rotate(18)">
    <path d="M -30,-16 Q -40,4 -32,24 Q -14,32 8,32 Q 26,28 32,18 Q 38,0 28,-18 Q 12,-30 -8,-30 Q -24,-24 -30,-16 Z" fill="url(#rt1)"/>
    <path d="M -22,-8 Q -30,8 -22,22 Q -6,26 10,22 Q 24,16 26,4 Q 26,-10 14,-18 Q -2,-22 -16,-16 Q -22,-12 -22,-8 Z" fill="#2a0a14" opacity="0.55"/>
    <path d="M -16,-6 Q -22,2 -18,12 Q -6,16 6,12 Q 18,8 18,-2 Q 16,-12 4,-15 Q -10,-14 -16,-6 Z" fill="#74374a" opacity="0.7"/>
    <path d="M -20,-12 Q -26,-2 -16,4" fill="none" stroke="#a8657a" stroke-width="1.6" opacity="0.55"/>
    <path d="M 10,-20 Q 24,-10 20,2" fill="none" stroke="#a8657a" stroke-width="1.3" opacity="0.45"/>
    <path d="M -8,-2 Q 4,2 14,4" fill="none" stroke="#1a0410" stroke-width="0.8" opacity="0.55"/>
    <path d="M -12,8 Q -2,10 10,8" fill="none" stroke="#1a0410" stroke-width="0.6" opacity="0.4"/>
    <ellipse cx="-18" cy="-14" rx="3" ry="1.8" fill="#b07380" opacity="0.5" transform="rotate(40 -18 -14)"/>
  </g>
</svg>
