<svg viewBox="0 0 120 120" xmlns="http://www.w3.org/2000/svg">
  <defs>
    <linearGradient id="sg1" x1="0" y1="-1" x2="0" y2="1">
      <stop offset="0" stop-color="#a0b08a"/>
      <stop offset="0.5" stop-color="#7a8c5e"/>
      <stop offset="1" stop-color="#4e6038"/>
    </linearGradient>
  </defs>
  <g transform="translate(60 60) rotate(-22)">
    <path d="M 0,-44 C 10,-40 16,-30 20,-12 C 22,8 18,28 8,42 C 3,44 -3,42 -10,32 C -18,18 -20,-2 -16,-22 C -10,-38 -2,-44 0,-44 Z" fill="url(#sg1)"/>
    <path d="M -4,-38 C 4,-34 10,-22 12,-6 C 14,10 10,24 4,32 C -2,28 -10,18 -12,2 C -12,-14 -8,-32 -4,-38 Z" fill="#a8b88a" opacity="0.45"/>
    <path d="M -2,-42 Q -3,-10 0,38" fill="none" stroke="#2e3a1e" stroke-width="1.2" opacity="0.75"/>
    <path d="M -2,-28 Q -8,-22 -14,-16" fill="none" stroke="#2e3a1e" stroke-width="0.5" opacity="0.55"/>
    <path d="M -2,-28 Q 5,-22 12,-16" fill="none" stroke="#2e3a1e" stroke-width="0.5" opacity="0.55"/>
    <path d="M 0,-10 Q -8,-2 -14,4" fill="none" stroke="#2e3a1e" stroke-width="0.5" opacity="0.55"/>
    <path d="M 0,-10 Q 7,-2 14,4" fill="none" stroke="#2e3a1e" stroke-width="0.5" opacity="0.55"/>
    <path d="M 2,12 Q -5,18 -10,22" fill="none" stroke="#2e3a1e" stroke-width="0.5" opacity="0.55"/>
    <path d="M 2,12 Q 8,18 12,22" fill="none" stroke="#2e3a1e" stroke-width="0.5" opacity="0.55"/>
    <ellipse cx="-10" cy="-22" rx="4" ry="2" fill="#b8c89a" opacity="0.45" transform="rotate(-25 -10 -22)"/>
    <ellipse cx="8" cy="10" rx="3" ry="1.5" fill="#b8c89a" opacity="0.35" transform="rotate(15 8 10)"/>
    <ellipse cx="-6" cy="20" rx="3" ry="1.5" fill="#5e7042" opacity="0.4" transform="rotate(-15 -6 20)"/>
  </g>
</svg>
